<svg width="603" height="854" viewBox="0 0 603 854" fill="none" xmlns="http://www.w3.org/2000/svg">
<path opacity="0.5" d="M319 411C303.8 398.2 186 402 186 419C186 436 334 483 350 483C365 481 334.2 423.8 319 411Z" fill="#D2DFE6"/>
<path opacity="0.5" d="M340 292C316 283.2 272 295.667 253 303C267 311.667 299.8 331 319 339C338.2 347 371.667 348.333 386 348C380.667 333 364 300.8 340 292Z" fill="#D2DFE6"/>
<path opacity="0.5" d="M206 145C188.667 150 153.6 157 152 145C150 130 152 111 163 106C174 101 184 93 195 94C206 95 212 82 215 100C217.4 114.4 210 136 206 145C212.667 133 228.4 109.8 238 113C250 117 261 133 260 145C259 157 243 191 238 193C232.436 193 226.37 186.12 220.899 177.145C227.054 192.473 229.003 206.733 212 209C182 213 133 187.484 152 167C171 146.516 195.333 151.667 206 145Z" fill="#D2DFE6"/>
<path opacity="0.5" d="M127 339C127 311 113.053 281.785 94 293C84.3568 298.676 80 310.8 80 318C80 327 94 353 94 373C94 393 101 394 122 404C143 414 127 374 127 339Z" fill="#D2DFE6"/>
<path opacity="0.5" d="M544 161C552 176.2 530.667 204.667 519 217C532.333 204.667 561.6 177.6 572 168C585 156 589 180 597 206C605 232 597 237 589 263C585.536 274.257 574.105 269.424 561.809 259.501C563.935 265.3 565.448 272.092 566 280C569 323 553 293 544 305C536.8 314.6 515.667 309 506 305C498 302.667 480 292.2 472 269C464 245.8 495.333 230 512 225C506 225.667 489.6 229 472 237C450 247 465 233 455 206C445 179 468 175 472 161C476 147 493 137 512 137C531 137 534 142 544 161Z" fill="#D2DFE6"/>
<path d="M491.221 852.802C479.255 837.028 445.694 800.421 407.183 780.187C359.045 754.894 306.827 722.666 307.643 690.846C308.459 659.025 339.055 615.783 347.214 585.186C353.525 561.522 364.943 524.698 353.334 517.466C328.449 501.964 310.091 523.177 280.718 517.466C251.346 511.755 197.496 477.487 179.546 451.378C165.186 430.491 149.086 404.056 142.831 393.449C160.781 397.8 205.329 405.198 239.923 399.976C283.166 393.449 327.225 385.698 347.214 406.096C365.86 425.121 350.886 474.223 368.02 481.566C375.522 484.782 385.73 481.789 394.537 477.082M412.079 464.433C408.016 468.126 401.82 473.19 394.537 477.082M394.537 477.082C390.457 480.209 392.089 487.686 402.288 488.91C422.686 491.357 443.083 468.512 449.61 451.378C456.138 434.244 460.217 415.478 449.61 412.215C439.004 408.951 421.87 422.006 425.949 430.98C430.029 439.955 437.372 438.324 434.108 451.378C430.845 464.433 421.054 489.732 419.422 477.082C417.79 464.432 432.476 460.353 425.949 451.378M111.826 330.624C106.931 331.848 113.184 341.136 111.826 345.719C105.299 367.748 100.404 352.654 96.3241 336.336C92.2446 320.018 93.8764 307.779 102.851 310.227C110.031 312.185 118.897 318.658 122.433 321.649C120.529 306.147 113.457 281.67 96.3241 281.67C84.9015 281.67 63.688 299.62 77.5583 336.336C91.4287 373.051 107.431 406.503 122.933 399.976C138.435 393.449 130.622 364.681 118.354 367.748C90.6128 374.683 133.539 440.771 122.933 533.784C114.447 608.195 8.50225 647.841 -6.99992 679.389M381.074 353.062C377.811 337.016 374.57 308.659 360.677 299.212C350.478 292.277 347.214 297.988 339.055 294.725C330.896 291.461 332.12 282.486 319.882 282.486C310.091 282.486 278.815 297.444 261.953 305.331M381.074 353.062C363.397 353.062 330.604 349.451 313.354 340.415C296.22 331.44 269.024 315.938 261.953 305.331M381.074 353.062C371.828 343.271 347.254 322.299 336.2 316.346C314.986 304.924 261.953 305.331 261.953 305.331M336.2 175.603C341.639 178.05 355.618 186.699 368.02 201.712C377.406 213.074 391.742 222.602 396.985 228.229M336.2 175.603L308.459 207.423C308.459 207.423 299.527 214.891 297.036 221.294M336.2 175.603C325.729 169.212 300.953 155.532 285.614 151.942C273.63 149.137 259.804 150.068 250.53 151.068M336.2 175.603C333.752 171.523 328.449 162.059 326.817 156.837C324.777 150.31 324.777 142.151 321.513 120.121C319.161 104.245 309.644 101.31 296.628 98.9984M336.2 175.603C349.254 169.348 376.995 154.553 383.522 145.414C384.73 143.724 385.404 141.983 386.38 140.927M297.036 221.294C295.134 226.183 294.275 232.501 294.589 237.204C294.997 243.323 292.549 247.81 306.419 259.233C320.29 270.656 343.951 256.377 367.612 259.233C390.423 261.986 399.432 255.154 401.472 242.507C402.758 234.533 400.401 231.895 396.985 228.229M297.036 221.294C293.622 226.189 287.43 232.344 277.455 237.204C261.545 244.955 236.862 206.822 226.461 201.304C206.471 190.697 225.645 164.18 235.436 158.061C245.227 151.942 246.042 151.942 250.53 151.068M250.53 151.068C246.858 147.415 239.515 138.316 239.515 131.136C239.515 117.674 251.754 91.1569 279.902 95.6443C287.654 96.8799 291.733 98.1291 296.628 98.9984M296.628 98.9984C300.436 95.0247 308.051 79.8979 322.737 78.9188C341.095 77.6949 337.832 89.5254 359.045 90.3413C373.731 90.9062 381.89 81.2761 395.761 98.0925C407.67 112.532 405.669 124.69 403.104 128.28C399.024 133.992 391.998 134.845 386.38 140.927M396.985 228.229C408.543 228.859 440.068 218.167 437.78 203.752C433.7 178.051 443.083 161.616 423.909 151.068C408.57 142.629 391.818 140.791 386.38 140.927" stroke="#868C96" stroke-linecap="round" stroke-linejoin="round"/>
<path d="M207.369 143.906C209.067 147.026 212.581 156.164 213.054 167.751C213.412 176.521 216.825 186.545 217.285 191.102M207.369 143.906L182.749 149.003C182.749 149.003 175.869 149.668 172.382 151.807M207.369 143.906C204.705 137.103 197.883 121.689 191.902 114.461C187.229 108.814 180.383 104.615 175.625 101.748M207.369 143.906C207.678 141.089 208.572 134.69 209.679 131.626C211.063 127.795 214.003 123.926 220.391 112.303C224.995 103.926 221.585 99.4454 216.245 93.6605M207.369 143.906C215.813 145.642 234.3 148.619 240.687 146.637C241.869 146.27 244.606 145.156 245.45 145.007M172.382 151.807C169.719 153.44 167.035 156.127 165.489 158.471C163.478 161.52 160.701 162.766 163.164 173.18C165.627 183.594 181.992 185.347 192.185 195.225C202.012 204.748 208.746 204.753 214.269 199.49C217.752 196.172 217.584 194.072 217.285 191.102M172.382 151.807C168.999 152.899 163.845 153.587 157.364 152.298C147.026 150.243 149.057 123.266 146.112 116.902C140.453 104.67 159.099 99.0018 165.947 99.6268C172.794 100.252 173.181 100.546 175.625 101.748M175.625 101.748C175.199 98.693 174.994 91.7322 177.581 88.3271C182.431 81.9425 197.788 73.7756 209.521 86.0443C212.752 89.4226 214.236 91.4847 216.245 93.6605M216.245 93.6605C219.482 93.1476 228.543 88.7169 235.861 93.5433C245.008 99.5762 239.199 104.011 248.965 112.04C255.727 117.599 263.066 115.971 263.586 128.943C264.032 140.082 258.703 145.126 256.193 145.905C252.201 147.145 250.305 144.146 245.45 145.007M217.285 191.102C222.539 195.565 241.342 201.851 245.45 194.19C252.774 180.532 262.775 176.149 258.689 163.773C255.446 153.955 247.266 148.678 245.45 145.007" stroke="#868C96" stroke-linecap="round" stroke-linejoin="round"/>
<path d="M438.287 246.438C439.605 248.86 442.333 255.954 442.701 264.95C442.979 271.758 445.628 279.54 445.985 283.078M438.287 246.438L419.174 250.395C419.174 250.395 413.833 250.911 411.126 252.571M438.287 246.438C436.219 241.156 430.923 229.19 426.28 223.578C422.652 219.194 417.337 215.935 413.643 213.709M438.287 246.438C438.527 244.251 439.221 239.283 440.081 236.904C441.155 233.931 443.437 230.927 448.396 221.903C451.971 215.4 449.324 211.922 445.178 207.431M438.287 246.438C444.843 247.786 459.194 250.097 464.153 248.558C465.07 248.273 467.196 247.408 467.851 247.292M411.126 252.571C409.058 253.84 406.975 255.925 405.775 257.745C404.214 260.112 402.057 261.079 403.97 269.164C405.882 277.249 418.587 278.609 426.5 286.278C434.128 293.671 439.356 293.675 443.644 289.59C446.348 287.014 446.218 285.383 445.985 283.078M411.126 252.571C408.499 253.419 404.498 253.953 399.466 252.953C391.441 251.357 393.017 230.414 390.731 225.474C386.338 215.978 400.813 211.577 406.13 212.062C411.446 212.548 411.746 212.776 413.643 213.709M413.643 213.709C413.313 211.337 413.154 205.934 415.162 203.29C418.927 198.333 430.849 191.993 439.958 201.518C442.466 204.141 443.619 205.741 445.178 207.431M445.178 207.431C447.691 207.032 454.725 203.593 460.406 207.34C467.508 212.023 462.997 215.466 470.58 221.699C475.829 226.015 481.526 224.751 481.93 234.822C482.277 243.469 478.139 247.385 476.191 247.99C473.091 248.952 471.62 246.624 467.851 247.292M445.985 283.078C450.064 286.542 464.662 291.422 467.851 285.475C473.536 274.871 481.301 271.469 478.128 261.861C475.611 254.239 469.26 250.143 467.851 247.292" stroke="#868C96" stroke-linecap="round" stroke-linejoin="round"/>
<path d="M432.56 147.235C430.301 149.977 425.116 158.281 422.451 169.568C420.435 178.11 415.181 186.812 413.865 191.199M432.56 147.235L455.764 156.914C455.764 156.914 462.393 158.381 465.411 161.143M432.56 147.235C436.467 141.062 446.091 127.223 453.336 121.262C458.996 116.605 466.514 113.29 471.73 111.378M432.56 147.235C432.792 144.411 433.128 137.959 432.623 134.74C431.991 130.717 429.84 126.359 425.775 113.735C422.845 104.636 427.043 100.393 433.384 95.7269M432.56 147.235C423.939 147.337 410.07 144.687 403.512 143.375C401.472 142.967 398.225 142.396 396.169 142.082M465.411 161.143C467.716 163.252 469.84 166.4 470.913 168.994C472.308 172.369 474.799 174.12 470.403 183.877C466.008 193.634 449.608 192.248 437.725 200.012C426.269 207.496 419.657 206.223 415.233 200.007C412.444 196.088 413.007 194.058 413.865 191.199M465.411 161.143C468.525 162.857 473.454 164.511 480.063 164.476C490.603 164.421 493.73 137.549 497.829 131.86C505.708 120.925 488.477 111.82 481.635 111.133C474.793 110.447 474.357 110.662 471.73 111.378M471.73 111.378C472.728 108.46 474.25 101.665 472.357 97.8304C468.808 90.6412 455.281 79.7075 441.432 89.5256C437.618 92.2292 435.769 93.9719 433.384 95.7269M433.384 95.7269C430.303 94.6087 422.248 88.5385 414.147 91.8878C404.021 96.0746 408.883 101.532 397.769 107.561C390.076 111.735 383.179 108.743 380.206 121.381C377.653 132.232 377.679 137.983 383.114 140.043C387.602 141.743 391.848 141.424 396.169 142.082M413.865 191.199C407.858 194.583 388.204 197.185 385.626 188.884C381.028 174.084 371.684 167.781 379.142 157.092C385.108 148.541 386.937 146.929 396.169 142.082" stroke="#868C96" stroke-linecap="round" stroke-linejoin="round"/>
<path d="M519.413 216.608C517.2 212.224 509.574 201.046 496.772 191.398C487.083 184.096 478.37 172.337 473.55 168.231M519.413 216.608L494.263 240.59C494.263 240.59 488.099 247.89 482.925 250.173M519.413 216.608C525.054 224.984 537.214 244.857 540.73 257.34C543.476 267.092 542.869 278.176 542.387 285.84M519.413 216.608C522.858 218.471 530.836 222.485 535.19 223.635C540.633 225.073 547.343 224.773 565.58 226.648C578.723 227.999 581.136 235.398 583.515 246.017M519.413 216.608C524.078 205.642 535.226 182.285 542.501 176.581C543.847 175.526 547.265 173.289 548.098 172.448M482.925 250.173C478.974 251.917 473.81 252.856 469.931 252.771C464.883 252.66 461.283 254.838 451.379 243.851C441.476 232.863 452.349 212.88 449.132 193.526C446.03 174.868 451.318 167.207 461.643 165.065C468.154 163.715 470.41 165.556 473.55 168.231M482.925 250.173C479.025 253.161 474.191 258.479 470.56 266.862C464.77 280.231 497.036 299.129 501.957 307.48C511.414 323.53 532.517 306.787 537.19 298.511C541.863 290.234 541.833 289.563 542.387 285.84M542.387 285.84C545.525 288.726 553.278 294.43 559.183 294.167C570.254 293.672 591.612 282.633 586.888 259.649C585.587 253.32 584.409 250.011 583.515 246.017M583.515 246.017C586.643 242.739 598.803 235.921 599.069 223.807C599.401 208.665 589.792 211.783 588.342 194.368C587.338 182.311 594.958 175.247 580.618 164.458C568.306 155.194 558.381 157.287 555.522 159.528C550.975 163.092 552.893 167.604 548.098 172.448M473.55 168.231C472.608 158.749 480.243 132.43 492.181 133.783C513.467 136.194 526.313 128.268 537.171 142.644C545.784 154.048 545.352 167.497 548.098 172.448" stroke="#868C96" stroke-linecap="round" stroke-linejoin="round"/>
<path d="M315.747 55.6655C327.603 73.2075 293.334 87.4858 296.165 98.9084C296.165 98.9084 288.846 95.2369 272.12 95.2369C255.394 95.2369 246.691 109.107 245.604 109.107C243.7 103.668 239.566 88.8728 238.26 73.2075C236.955 57.5421 242.588 15.1423 234.973 1C258.09 12.6946 305.592 40.6395 315.747 55.6655Z" stroke="#868C96" stroke-linecap="round" stroke-linejoin="round"/>
<path d="M513.598 100.008C501.478 107.65 514.442 127.686 509.579 133.992C509.579 133.992 519.495 131.848 529.858 136.4C540.222 140.953 541.839 151.915 542.513 152.211C545.173 149.359 551.761 141.318 556.834 131.967C561.906 122.616 569.956 94.8125 578.524 88.1227C561.018 89.0766 523.98 93.4622 513.598 100.008Z" stroke="#868C96" stroke-linecap="round" stroke-linejoin="round"/>
</svg>
