<svg width="89" height="101" viewBox="0 0 89 101" fill="none" xmlns="http://www.w3.org/2000/svg">
<g opacity="0.85">
<path opacity="0.85" d="M53.9168 92.8445C54.1172 92.8685 54.3204 92.8448 54.5098 92.7752C54.6992 92.7057 54.8695 92.5924 55.0068 92.4445L58.8668 89.2745L59.3768 88.8945C59.4576 89.3109 59.3903 89.7424 59.1868 90.1145C58.9168 90.7145 58.6268 91.3045 58.3668 91.9145C58.2996 92.0911 58.2429 92.2714 58.1968 92.4545L58.3268 92.5445C58.4442 92.4602 58.5487 92.3591 58.6368 92.2445C59.0768 91.5245 59.5168 90.8045 59.9168 90.0745C60.1746 89.6451 60.2803 89.1414 60.2168 88.6445C60.1903 88.4819 60.2099 88.315 60.2736 88.1629C60.3372 88.0109 60.4423 87.8798 60.5768 87.7845C61.0768 87.3545 61.5768 86.8945 62.0468 86.4545C62.1368 86.3745 62.2368 86.3145 62.3468 86.2345C62.5968 86.6445 62.8568 87.0245 63.0768 87.4145C63.2568 87.7413 63.2999 88.126 63.1968 88.4845C63.0368 89.1145 62.8568 89.7545 62.6968 90.3945C62.6968 90.6145 62.6168 90.8445 62.5668 91.0745H62.6668C62.7468 90.9945 62.8568 90.9345 62.8868 90.8445C63.2268 89.8945 63.5668 88.9445 63.8868 87.9845C63.9486 87.7443 63.95 87.4925 63.8906 87.2517C63.8313 87.0109 63.7131 86.7885 63.5468 86.6045C63.3268 86.3345 63.1368 86.0545 62.8968 85.7345C63.5395 85.285 64.2346 84.9156 64.9668 84.6345C65.1668 84.5545 65.4268 84.6345 65.6068 84.6345C65.7216 84.7419 65.8096 84.8748 65.8634 85.0225C65.9173 85.1701 65.9356 85.3285 65.9168 85.4845C65.926 85.9636 66.0755 86.4295 66.3468 86.8245C66.4496 86.9572 66.5633 87.0809 66.6868 87.1945L66.8368 87.1245C66.8368 86.9645 66.8368 86.8045 66.7568 86.6445C66.6568 86.1945 66.5768 85.7445 66.4468 85.3145C66.3168 84.8845 66.1368 84.4345 65.9468 83.9245C65.9961 83.8519 66.0531 83.7849 66.1168 83.7245C66.6679 83.2157 67.1043 82.5952 67.3968 81.9045C67.6292 81.385 67.9992 80.9389 68.4668 80.6145C68.9533 80.2282 69.4081 79.8035 69.8268 79.3445C70.0502 79.1488 70.2232 78.902 70.3311 78.6253C70.439 78.3485 70.4787 78.0499 70.4468 77.7545C71.1158 77.3631 71.8314 77.0573 72.5768 76.8445C73.5768 76.5745 74.4568 76.2745 75.4068 75.9945C76.0568 75.8045 76.7068 75.6245 77.4068 75.4645C77.586 75.4401 77.7676 75.4401 77.9468 75.4645H78.4068C78.5468 75.1345 78.3368 75.0145 78.1468 74.9045C77.9482 74.811 77.7314 74.7625 77.5118 74.7625C77.2923 74.7625 77.0754 74.811 76.8768 74.9045C76.6053 75.0102 76.3443 75.1408 76.0968 75.2945C75.204 75.8046 74.2239 76.1438 73.2068 76.2945C72.3133 76.4117 71.4509 76.7003 70.6668 77.1445C70.5883 77.1865 70.5041 77.2168 70.4168 77.2345C70.4168 77.2345 70.3468 77.2345 70.2568 77.2345C70.2904 77.1274 70.3339 77.0236 70.3868 76.9245C70.693 76.5434 71.0273 76.1858 71.3868 75.8545C72.422 74.868 73.317 73.7442 74.0468 72.5145C74.5768 71.7045 75.0468 70.8845 75.6268 70.0745C75.9665 69.5929 76.4154 69.1986 76.9369 68.924C77.4584 68.6493 78.0375 68.5022 78.6268 68.4945C78.8868 68.4945 79.1868 68.5445 79.3268 68.1145C79.2268 68.0345 79.1168 67.8745 78.9868 67.8545C78.6607 67.7696 78.3222 67.7425 77.9868 67.7745C77.4578 67.8477 76.9501 68.0316 76.497 68.3142C76.0438 68.5968 75.6553 68.9717 75.3568 69.4145C74.8568 70.1545 74.3568 70.9145 73.9268 71.6845C73.0564 73.1946 71.9373 74.5469 70.6168 75.6845C70.339 75.8941 70.0901 76.1396 69.8768 76.4145C69.7255 76.613 69.5279 76.7714 69.3013 76.876C69.0747 76.9806 68.826 77.0281 68.5768 77.0145L68.8368 76.3145C73.0468 65.8745 76.9068 55.3145 80.6768 44.6945C83.239 37.3953 85.3202 29.936 86.9068 22.3645C87.5962 19.2703 88.0475 16.1277 88.2568 12.9645C88.4929 10.4801 88.2795 7.97335 87.6268 5.56453C87.3658 4.6478 86.9571 3.77975 86.4168 2.99453C85.5052 1.58153 84.0844 0.573952 82.4494 0.181034C80.8144 -0.211885 79.0909 0.0400555 77.6368 0.884532C75.7557 1.87795 74.0443 3.16399 72.5668 4.69454C71.6468 5.63454 70.7668 6.61454 69.8768 7.59454C68.5167 9.13008 66.9983 10.5178 65.3468 11.7345C64.1014 12.6066 62.7871 13.3758 61.4168 14.0345C58.6053 15.3796 55.9268 16.9867 53.4168 18.8345C51.4181 20.2008 49.6263 21.8477 48.0968 23.7245C47.5668 24.4445 47.0968 25.2145 46.6068 25.9545L46.2868 26.4645C46.0968 26.2645 45.9568 26.1045 45.8168 25.9445C43.8168 23.6345 41.8168 21.2945 39.8168 19.0345C38.7486 17.9298 37.6202 16.8849 36.4368 15.9045C35.6983 15.2688 34.8561 14.7648 33.9468 14.4145C33.0264 13.9985 31.9907 13.9125 31.0142 14.1712C30.0378 14.4299 29.1805 15.0173 28.5868 15.8345C27.8512 16.7956 27.249 17.8519 26.7968 18.9745C26.2868 20.2145 25.7968 21.4545 25.3068 22.6945C24.6055 24.448 23.6776 26.1021 22.5468 27.6145C21.5071 29.0113 20.2513 30.2333 18.8268 31.2345L17.4368 32.2345C16.2426 33.0446 15.3448 34.2217 14.8793 35.5875C14.4138 36.9534 14.4058 38.4338 14.8568 39.8045C15.2885 41.2122 15.9656 42.5325 16.8568 43.7045C18.1569 45.477 19.6309 47.1152 21.2568 48.5945C22.3068 49.5945 23.3768 50.5045 24.4368 51.4645C24.5868 51.5945 24.7268 51.7345 24.9668 51.9645H24.5468C23.6572 51.8457 22.7536 51.8829 21.8768 52.0745C20.2408 52.4666 18.5501 52.5782 16.8768 52.4045C15.1814 52.2261 13.4678 52.4523 11.8768 53.0645C10.8979 53.4907 10.0216 54.1215 9.30679 54.9145C8.15575 55.9849 7.39847 57.4114 7.15682 58.9645C7.09173 59.4919 7.07166 60.0238 7.09682 60.5545C7.20565 61.7859 6.84883 63.0134 6.09682 63.9945C3.06914 68.3754 1.0694 73.3832 0.246788 78.6445C-0.398087 82.9458 0.551537 87.3345 2.91683 90.9845C3.59212 92.0328 4.42525 92.9706 5.3868 93.7645C5.9768 94.2545 6.59682 94.7645 7.15682 95.2445C7.61358 95.6369 8.01696 96.0874 8.35677 96.5845C8.84037 97.4353 9.55341 98.1331 10.4145 98.5981C11.2756 99.0631 12.2502 99.2768 13.2268 99.2145C14.5768 99.2145 15.9268 99.0945 17.2268 98.9945C17.5759 98.9657 17.9254 99.0461 18.2268 99.2245C18.9768 99.5945 19.7368 99.9545 20.5168 100.225C21.3335 100.524 22.2301 100.524 23.0468 100.225C23.8268 99.9645 24.6168 99.7145 25.4068 99.4745C25.7347 99.3875 26.0692 99.3273 26.4068 99.2945C26.587 99.2638 26.7718 99.2769 26.9458 99.3326C27.1199 99.3882 27.278 99.485 27.4068 99.6145C28.0883 100.249 28.9262 100.691 29.8347 100.895C30.7432 101.098 31.6896 101.057 32.5768 100.775C33.6283 100.523 34.6582 100.189 35.6568 99.7745C38.1722 98.8129 40.7839 98.1256 43.4468 97.7245C45.0314 97.4426 46.5976 97.0652 48.1368 96.5945C50.2243 95.9372 52.1217 94.7844 53.6668 93.2345C53.6368 93.1545 53.7668 93.0045 53.9168 92.8445ZM61.1868 15.1145C61.2668 15.8945 61.3468 16.5445 61.3968 17.1945C61.5168 18.7045 61.6068 20.1945 61.7268 21.7345C61.8668 23.4245 62.0268 25.1245 62.1968 26.8145C62.3968 28.9245 62.6368 31.0345 62.8168 33.1445C62.9968 35.2545 63.3668 37.4145 63.8168 39.5345C64.2768 41.9945 64.7568 44.4545 65.1768 46.9245C65.5968 49.3945 65.9468 51.8645 66.3168 54.3445C66.6969 56.5061 66.9275 58.6913 67.0068 60.8845C67.0068 61.8345 67.0668 62.7845 67.0068 63.7345C66.9468 65.5045 66.8468 67.2845 66.7668 69.0545C66.7168 70.3345 66.7668 71.6245 66.6368 72.8945C66.4768 74.8945 66.2268 76.8945 66.0068 78.8945C65.9856 79.0446 65.9487 79.1921 65.8968 79.3345C65.8968 79.2645 65.8168 79.2445 65.8068 79.2145C65.6268 77.6445 65.4268 76.0645 65.2468 74.4845C65.0468 72.7445 64.8868 70.9945 64.6668 69.2545C64.3668 66.9345 64.0168 64.6245 63.7268 62.3045C63.3568 59.4545 62.9368 56.6145 62.3868 53.8045C61.9184 51.1739 61.1362 48.6089 60.0568 46.1645C59.4368 44.8145 58.7668 43.4945 58.1568 42.1645C57.9153 41.6339 57.7503 41.0716 57.6668 40.4945C57.4468 38.6545 57.2668 36.8245 57.1268 34.9845C56.9868 33.1445 56.9368 31.5845 56.8568 29.8845C56.6768 25.8245 56.7368 21.7645 56.8568 17.7045C56.8503 17.6247 56.8503 17.5444 56.8568 17.4645C58.2868 16.6245 59.6368 15.8445 61.1868 15.1145ZM66.9868 74.9745H66.9168C66.9118 74.9046 66.9118 74.8344 66.9168 74.7645C67.1268 71.5145 67.3468 68.2645 67.5568 65.0145C67.6368 63.6445 67.7068 62.2745 67.7968 60.9045C67.9168 58.9045 68.1368 56.9045 68.1768 54.9045C68.3168 50.1277 68.1867 45.3467 67.7868 40.5845C67.5268 37.7845 67.3868 34.9645 67.2268 32.1545C67.1068 30.0545 67.0468 27.9445 66.9468 25.8445C66.7414 21.8749 66.9021 17.8947 67.4268 13.9545C67.5285 12.8819 67.8376 11.8393 68.3368 10.8845C68.5543 10.4901 68.8646 10.1546 69.241 9.90712C69.6174 9.65968 70.0484 9.50777 70.4968 9.46453C70.7003 9.42384 70.9116 9.45554 71.0942 9.55414C71.2768 9.65275 71.4192 9.81206 71.4968 10.0045C71.6206 10.2525 71.7243 10.51 71.8068 10.7745C72.038 11.6581 72.1258 12.5731 72.0668 13.4845C72.0668 15.2645 71.9468 17.0345 71.9568 18.8145C71.9668 20.5945 72.0668 22.5045 72.1468 24.3545C72.1468 25.1745 72.2168 26.0045 72.2868 26.8245C72.4868 29.1345 72.6968 31.4445 72.6968 33.8245C72.6968 36.3912 72.5735 38.9512 72.3268 41.5045C72.1368 43.4345 71.9068 45.3545 71.6668 47.2845C71.4268 49.2145 71.1768 51.2045 70.8668 53.1545C70.2601 57.0745 69.6168 60.9912 68.9368 64.9045C68.5235 67.3379 68.0868 69.7679 67.6268 72.1945C67.4768 73.1045 67.2068 74.0345 66.9868 74.9745ZM14.9368 88.0545C15.0068 87.3745 15.0968 86.8145 15.1068 86.2545C15.1111 85.8584 15.2372 85.4731 15.468 85.1511C15.6988 84.8291 16.023 84.5859 16.3968 84.4545C17.2511 84.0267 18.1701 83.7429 19.1168 83.6145L24.5568 82.9145C26.4568 82.6745 28.3568 82.4145 30.2668 82.1945C31.7691 82.0849 33.2153 81.5776 34.4568 80.7245C35.1368 80.2345 35.8768 79.8145 36.5968 79.3845C37.8204 78.677 39.1512 78.1737 40.5368 77.8945C42.1245 77.6279 43.744 77.611 45.3368 77.8445C45.9186 77.9068 46.4808 78.0908 46.9868 78.3845C48.7368 79.3845 50.4968 80.3845 52.2468 81.3345C55.051 82.945 58.1892 83.8861 61.4168 84.0845C61.7768 84.0845 62.1268 84.1545 62.5968 84.2045L62.2568 84.4445C60.9876 85.2853 59.5387 85.8163 58.0268 85.9945C56.1193 86.2834 54.1702 86.105 52.3468 85.4745C50.3468 84.7645 48.3468 84.2045 46.3468 83.6845C44.2449 83.1553 42.0511 83.1041 39.9268 83.5345C38.3252 83.8973 36.7565 84.3923 35.2368 85.0145C34.1606 85.4727 33.0507 85.8471 31.9168 86.1345C29.8905 86.5226 27.8439 86.7964 25.7868 86.9545C24.8768 87.0145 23.9668 87.1245 23.0568 87.2145L19.5768 87.5945C18.6368 87.7045 17.6868 87.7945 16.7468 87.8945L14.9368 88.0545ZM75.2768 57.0045C75.2716 56.9113 75.2716 56.8178 75.2768 56.7245C75.7768 54.5345 76.2768 52.3345 76.7868 50.1445C77.6268 46.6245 78.2268 43.0545 78.7868 39.4645C79.0568 37.5245 79.2368 35.5745 79.5768 33.6445C80.3568 29.3945 80.6668 25.0845 81.2968 20.8145C81.5368 19.1845 81.6768 17.5345 81.8168 15.8945C81.9568 14.2545 82.0868 12.3645 82.1868 10.5845C82.2568 9.36454 82.2568 8.13454 82.2968 6.91454C82.2999 6.30953 82.4117 5.71 82.6268 5.14453C82.7118 4.86677 82.865 4.6147 83.0724 4.41133C83.2798 4.20795 83.5348 4.05974 83.8142 3.9802C84.0935 3.90066 84.3884 3.89233 84.6718 3.95597C84.9553 4.01961 85.2182 4.1532 85.4368 4.34454C85.6445 4.49379 85.8326 4.66848 85.9968 4.86454C86.7254 5.71421 87.1941 6.75567 87.3468 7.86454C87.5599 9.36789 87.6235 10.8886 87.5368 12.4045C87.3219 15.8577 86.8336 19.2885 86.0768 22.6645C84.8568 28.4745 83.1968 34.1645 81.4568 39.8345C79.7168 45.5045 77.5568 50.9945 75.5368 56.5445C75.4568 56.6345 75.3868 56.7645 75.2768 57.0045ZM15.6968 94.0745L16.2368 93.6045C17.1271 92.9295 18.1107 92.3871 19.1568 91.9945L27.9968 88.2645C31.1968 86.9045 34.4068 85.5845 37.6968 84.4545C39.3495 83.8508 41.0973 83.5493 42.8568 83.5645C43.7127 83.5675 44.5666 83.6512 45.4068 83.8145C47.6639 84.2792 49.8833 84.9109 52.0468 85.7045C53.1096 86.1071 54.231 86.3334 55.3668 86.3745C55.7768 86.3745 56.1968 86.4445 56.6068 86.4845C56.5836 86.5253 56.552 86.5607 56.5141 86.5883C56.4761 86.6158 56.4327 86.635 56.3868 86.6445C55.1668 86.9845 53.9668 87.3645 52.7368 87.6445C51.8436 87.8475 50.9325 87.9613 50.0168 87.9845C49.0168 87.9845 48.0868 87.8545 47.1168 87.7845C45.0163 87.6127 42.9031 87.6765 40.8168 87.9745C37.8302 88.4271 34.9282 89.3237 32.2068 90.6345C29.799 91.833 27.4618 93.1685 25.2068 94.6345C23.2568 95.8545 21.2668 97.0145 19.2768 98.1845C18.5868 98.5845 18.4168 98.5345 17.8168 97.9945C17.6644 97.8638 17.5239 97.7199 17.3968 97.5645C16.6203 96.5156 16.044 95.3325 15.6968 94.0745ZM65.3368 78.0745H65.2768C65.2768 77.9845 65.2068 77.9045 65.1768 77.8245C64.7568 76.3645 64.2868 74.9245 63.9068 73.4545C63.4068 71.4545 63.0468 69.4545 62.5168 67.4545C61.7068 64.4545 60.7768 61.4545 59.9368 58.3745C58.0907 51.6323 55.7098 45.0481 52.8168 38.6845C51.5845 36.0057 50.7167 33.1739 50.2368 30.2645C49.9768 29.0415 49.9768 27.7775 50.2368 26.5545C50.8601 24.5033 51.7835 22.5556 52.9768 20.7745C52.9768 20.7045 53.0568 20.6145 53.1068 20.5345C53.2229 20.693 53.2954 20.8792 53.3168 21.0745C53.4068 21.8145 53.4768 22.5545 53.5668 23.3045C53.7168 24.7245 53.8568 26.1345 54.0468 27.5545C54.2568 29.1245 54.5068 30.6945 54.7768 32.2545C55.1412 34.4936 55.6931 36.698 56.4268 38.8445C57.2676 41.1075 58.2359 43.321 59.3268 45.4745C60.1827 47.2473 60.8529 49.1039 61.3268 51.0145C62.342 55.2198 63.1133 59.4803 63.6368 63.7745C63.8468 65.2745 64.0468 66.7745 64.2368 68.2845C64.4268 69.7945 64.5768 71.1145 64.7468 72.5245L65.1368 75.9045L65.3368 78.0745ZM45.9068 33.4545C46.325 32.6606 46.892 31.9544 47.5768 31.3745C48.2868 30.7545 48.7768 30.8445 49.2768 31.6345C49.387 31.8035 49.4839 31.9807 49.5668 32.1645C49.8568 32.8545 50.1768 33.5345 50.4168 34.2445C51.0957 36.3542 51.9004 38.4212 52.8268 40.4345C55.3157 45.777 57.3593 51.3158 58.9368 56.9945C60.1868 61.3145 61.4468 65.6345 62.4668 69.9945C63.2668 73.4445 64.2068 76.8745 65.0868 80.3145C65.0868 80.4945 65.1768 80.6745 65.2168 80.8545C65.0575 80.7781 64.9276 80.6517 64.8468 80.4945C64.2068 79.1845 63.5568 77.8745 62.9368 76.4945C62.5368 75.6345 62.2368 74.7245 61.8368 73.8645C59.5423 68.7383 57.5391 63.4866 55.8368 58.1345C54.6441 54.2929 53.1426 50.554 51.3468 46.9545C50.1099 44.566 48.9951 42.1162 48.0068 39.6145C47.2068 37.6545 46.5268 35.5645 45.9068 33.4445V33.4545ZM27.6068 64.0545C27.647 63.9354 27.6938 63.8186 27.7468 63.7045C28.4924 62.3209 29.6989 61.2418 31.1568 60.6545C31.7025 60.4338 32.3026 60.3849 32.8768 60.5145C33.8465 60.6901 34.7797 61.0281 35.6368 61.5145C36.4768 62.0145 37.3368 62.5145 38.1568 62.9645C39.3868 63.7245 40.6268 64.4745 41.8068 65.3045C43.6768 66.6145 45.5068 67.9945 47.3468 69.3545L49.8568 71.2245C50.4968 71.7045 51.1368 72.2245 51.8068 72.6345C54.4568 74.3045 57.1268 75.9345 59.8068 77.6345C61.3615 78.6095 62.7549 79.8207 63.9368 81.2245C64.3268 81.6945 64.7068 82.2245 65.1168 82.7045L64.2968 83.4045C64.0449 83.3459 63.7976 83.269 63.5568 83.1745C63.0068 82.9345 62.4568 82.6745 61.9168 82.4045C58.0768 80.4645 54.3468 78.3245 50.6268 76.1745C48.7768 75.1045 46.9868 73.9345 45.2468 72.6845C43.5068 71.4345 42.0468 70.4145 40.4268 69.3245C38.7036 68.0844 36.8409 67.0507 34.8768 66.2445C33.6268 65.7845 32.3168 65.4845 31.0468 65.1045C29.7768 64.7245 28.7868 64.3645 27.6368 64.0445L27.6068 64.0545ZM59.9468 76.9445L59.8568 77.0445L59.5368 76.8645C57.6068 75.6745 55.6668 74.4945 53.7468 73.2845C52.6968 72.6145 51.6668 71.9245 50.6568 71.1945C49.6468 70.4645 48.6568 69.6745 47.6568 68.9245C46.3668 67.9245 45.0668 67.0145 43.7768 66.0445C42.3848 64.9183 40.9218 63.8829 39.3968 62.9445C37.4768 61.8345 35.5468 60.7445 33.6568 59.6045C33.1841 59.2951 32.7567 58.9216 32.3868 58.4945C32.2062 58.2967 32.0792 58.0559 32.018 57.7951C31.9567 57.5343 31.9632 57.2621 32.0368 57.0045C32.224 56.2296 32.5705 55.5022 33.0543 54.8686C33.5381 54.235 34.1486 53.7092 34.8468 53.3245C35.6027 52.9298 36.4631 52.7812 37.3076 52.8996C38.1521 53.0179 38.9385 53.3972 39.5568 53.9845C40.3368 54.9045 41.2268 55.7345 41.9968 56.6545C43.1168 58.0045 44.1968 59.3945 45.2768 60.7745C46.5435 62.4012 47.8068 64.0379 49.0668 65.6845C49.7768 66.5945 50.4568 67.5245 51.1668 68.4345C52.284 69.9333 53.5765 71.2929 55.0168 72.4845C56.2368 73.4712 57.4368 74.4712 58.6168 75.4845C59.0768 75.9445 59.4968 76.4645 59.9468 76.9345V76.9445ZM66.4068 80.9445C66.4068 80.8045 66.3468 80.7545 66.4068 80.7145C66.6368 79.5845 66.8568 78.4545 67.0968 77.3245C67.6668 74.7345 68.2968 72.1545 68.7868 69.5545C69.3868 66.3545 69.8768 63.1345 70.3968 59.9245C70.7968 57.4345 71.1868 54.9245 71.5468 52.4345C71.8868 50.1012 72.2035 47.7679 72.4968 45.4345C72.7268 43.5245 72.9368 41.6145 73.0668 39.7045C73.1574 37.7886 73.4354 35.8862 73.8968 34.0245C74.6068 31.3345 75.2968 28.6545 75.9768 25.9645C76.771 22.923 77.3227 19.8233 77.6268 16.6945C77.6268 17.4345 77.6268 18.0545 77.6268 18.6945C77.6268 20.9845 77.5468 23.2745 77.4868 25.5545C77.4868 26.2845 77.4168 27.0145 77.3568 27.7445C77.2368 29.1645 77.1068 30.5845 76.9468 32.0045C76.7868 33.4245 76.6168 34.6845 76.4368 36.0045C76.2568 37.3245 76.0368 38.7845 75.8568 40.1845C75.6768 41.5845 75.4368 43.2945 75.2568 44.8545C75.1068 46.1245 74.9468 47.3945 74.8768 48.6745C74.7368 51.0845 74.6968 53.5045 74.5168 55.9045C74.4191 57.234 74.2049 58.5524 73.8768 59.8445C73.1368 62.6745 72.2368 65.4645 71.2368 68.2145C69.7368 72.2945 67.9268 76.2145 66.6968 80.4545C66.6368 80.6245 66.5068 80.7545 66.4068 80.9745V80.9445ZM43.3468 45.4245C42.9668 44.9845 42.5468 44.5145 42.1368 44.0145C41.0468 42.6845 39.9268 41.3845 38.8968 40.0145C36.8968 37.3145 34.8968 34.5245 32.6268 32.0145C31.5841 30.8848 30.6686 29.6441 29.8968 28.3145C29.4448 27.522 29.0537 26.6963 28.7268 25.8445C28.5406 25.349 28.4457 24.8239 28.4468 24.2945C28.4494 24.0691 28.4966 23.8464 28.5855 23.6393C28.6745 23.4322 28.8036 23.2447 28.9653 23.0876C29.127 22.9306 29.3182 22.807 29.5278 22.7241C29.7374 22.6412 29.9614 22.6006 30.1868 22.6045C30.5487 22.6034 30.9078 22.6678 31.2468 22.7945C32.3065 23.1646 33.2629 23.7816 34.0368 24.5945C34.7968 25.4145 35.5168 26.2645 36.2268 27.1245C37.1268 28.2045 37.9668 29.3445 38.8968 30.3945C40.7341 32.4376 42.2942 34.7139 43.5368 37.1645C43.6899 37.4804 43.7944 37.8175 43.8468 38.1645C44.0068 39.1645 44.1168 40.2345 44.2768 41.2545C44.4972 42.5916 44.9044 43.891 45.4868 45.1145C45.5361 45.214 45.5763 45.3178 45.6068 45.4245H43.3468ZM61.4168 15.0445C62.3326 14.6042 63.3411 14.3915 64.3568 14.4245C64.6232 14.4266 64.8852 14.4932 65.1203 14.6186C65.3554 14.744 65.5566 14.9244 65.7068 15.1445C66.025 15.5768 66.1998 16.0978 66.2068 16.6345C66.2068 17.9445 66.2768 19.2645 66.2968 20.6345C66.2968 22.8445 66.3468 25.0645 66.3768 27.2745C66.3768 28.0045 66.4368 28.7345 66.4768 29.4645C66.6168 31.8645 66.7602 34.2579 66.9068 36.6445C66.9768 37.8845 67.0668 39.1245 67.1568 40.3645C67.2868 42.1345 67.4568 43.9045 67.5468 45.6745C67.6368 47.4445 67.6168 49.1545 67.6968 50.8845C67.7837 53.8308 67.6902 56.7797 67.4168 59.7145C67.4168 59.8745 67.3468 60.0245 67.3168 60.1745C67.1968 59.3645 67.1568 58.5645 67.0568 57.7745C66.7868 55.7745 66.5168 53.8645 66.2168 51.9145C65.8468 49.5445 65.4768 47.1845 65.0768 44.8245C64.4568 41.1745 63.5568 37.5645 63.1868 33.8245C63.0568 32.4845 62.9368 31.1345 62.7968 29.8245C62.6568 28.5145 62.5468 27.3545 62.4168 26.1145C62.2868 24.8745 62.1468 23.5745 62.0368 22.2945C61.9368 21.2045 61.8768 20.1045 61.7768 19.0145C61.6368 17.6845 61.5468 16.3645 61.4168 15.0445ZM19.1668 98.8345L19.4368 98.6445C22.2068 96.9745 24.9768 95.2945 27.7568 93.6445C30.1826 92.1391 32.7438 90.8636 35.4068 89.8345C37.5436 89.0153 39.7799 88.4839 42.0568 88.2545C44.1396 88.1027 46.2321 88.1463 48.3068 88.3845C48.7068 88.3845 49.1068 88.4845 49.5768 88.5445C48.6668 88.8945 47.8468 89.1845 47.0468 89.5445C44.3244 90.724 41.7583 92.2354 39.4068 94.0445C37.8205 95.2707 36.1497 96.3835 34.4068 97.3745C32.5156 98.3884 30.4356 99.0011 28.2968 99.1745C28.1734 99.1994 28.0458 99.1952 27.9243 99.1623C27.8028 99.1293 27.6907 99.0684 27.5968 98.9845C27.4354 98.8323 27.2423 98.7175 27.0315 98.6484C26.8206 98.5793 26.597 98.5575 26.3768 98.5845C25.9215 98.6146 25.4697 98.6849 25.0268 98.7945C24.2868 98.9945 23.5468 99.2245 22.8268 99.4745C22.2061 99.6314 21.5592 99.6554 20.9285 99.5452C20.2978 99.4349 19.6975 99.1927 19.1668 98.8345ZM63.6368 79.9145L63.5668 79.9845C63.453 79.896 63.3461 79.799 63.2468 79.6945C61.9768 78.3545 60.7268 76.9945 59.4468 75.6945C58.1346 74.312 57.0571 72.7245 56.2568 70.9945C55.1768 68.7545 54.0368 66.5445 52.8768 64.3445C51.2968 61.3445 49.6568 58.3445 48.0668 55.3445C47.1658 53.5866 46.1398 51.8956 44.9968 50.2845C44.4844 49.5928 44.0798 48.8275 43.7968 48.0145C43.7067 47.7972 43.6803 47.5586 43.7207 47.3268C43.7611 47.095 43.8667 46.8794 44.025 46.7054C44.1834 46.5313 44.388 46.4059 44.615 46.3437C44.8419 46.2816 45.0819 46.2854 45.3068 46.3545C45.783 46.4814 46.2453 46.6556 46.6868 46.8745C47.8654 47.4853 48.8363 48.4319 49.4768 49.5945C50.3868 51.1445 51.2868 52.6945 52.0368 54.3245C54.1868 58.9845 56.2768 63.6845 58.3768 68.3245C60.0768 72.1145 61.6268 75.9645 63.5468 79.6545C63.5819 79.7393 63.6119 79.8262 63.6368 79.9145ZM22.6368 69.9145C22.3668 69.7445 22.1868 69.6445 22.0268 69.5345C19.1738 67.6617 16.1623 66.0422 13.0268 64.6945C11.7992 64.1534 10.7065 63.3475 9.82681 62.3345C9.46739 61.92 9.21048 61.4267 9.07681 60.8945C8.91024 60.0844 8.89331 59.2507 9.02682 58.4345C9.02682 58.0645 9.15682 57.6845 9.21682 57.3545C9.97682 57.4645 10.6668 57.5745 11.3668 57.6645C11.7568 57.7145 12.1368 57.7245 12.5168 57.7445L16.6168 58.0645C17.0768 58.0645 17.5368 58.1345 17.9768 58.2145C19.6118 58.5401 21.1804 59.1384 22.6168 59.9845C23.3568 60.3845 24.1268 60.7245 24.8768 61.1045L25.2268 61.3045C24.0968 64.0445 23.5468 66.9545 22.6368 69.8745V69.9145ZM78.0068 3.73454C78.3486 3.82963 78.6828 3.94997 79.0068 4.09454C79.5366 4.37422 80.0001 4.76452 80.3659 5.23899C80.7316 5.71346 80.9911 6.26101 81.1268 6.84454C81.5204 8.48012 81.662 10.1662 81.5468 11.8445C81.4968 12.5745 81.4268 13.3045 81.3468 14.0245C81.1568 15.9045 80.9668 17.7745 80.7468 19.6445C80.4968 21.6445 80.1968 23.6445 79.9468 25.6445C79.5168 29.0745 79.1168 32.5145 78.6768 35.9345C78.3568 38.3645 77.9968 40.7945 77.6268 43.2145C77.108 46.687 76.3868 50.1262 75.4668 53.5145C75.2568 54.2945 75.0368 55.0645 74.8268 55.8345C74.7736 55.6735 74.7532 55.5035 74.7668 55.3345C74.8268 54.1045 74.8968 52.8845 74.9568 51.6645C75.0368 50.2145 75.0768 48.7745 75.2168 47.3345C75.4268 45.1545 75.6968 42.9745 75.9768 40.8045C76.2868 38.3545 76.6568 35.9145 76.9768 33.4745C77.2268 31.3845 77.4768 29.2945 77.6068 27.2045C77.7568 24.7345 77.7868 22.2645 77.8468 19.7945C77.9068 17.3245 77.8468 14.7445 77.9968 12.2145C78.1468 9.68454 78.1468 7.21453 78.0568 4.64453C78.0468 4.36453 78.0268 4.11454 78.0068 3.73454ZM63.6368 83.6145V83.7045C63.3547 83.7394 63.071 83.7595 62.7868 83.7645C61.1781 83.7354 59.5779 83.524 58.0168 83.1345C55.7285 82.5418 53.5389 81.6188 51.5168 80.3945L46.0068 77.3345C43.7986 76.1001 41.4091 75.2226 38.9268 74.7345C36.1266 74.1782 33.4014 73.2955 30.8068 72.1045C30.1573 71.8093 29.5262 71.4754 28.9168 71.1045C28.4825 70.8037 28.1177 70.4133 27.8469 69.9596C27.5761 69.506 27.4056 68.9996 27.3468 68.4745C27.9768 68.6245 28.5168 68.7845 29.0768 68.8845C31.0768 69.2245 33.1768 69.5345 35.2368 69.8845C38.0153 70.3216 40.7426 71.0386 43.3768 72.0245C43.9133 72.2493 44.4259 72.5274 44.9068 72.8545C45.7168 73.3845 46.4868 73.9845 47.3068 74.5045C50.8068 76.7445 54.4268 78.7745 58.0768 80.7545C59.9468 81.7345 61.8068 82.6545 63.6368 83.6145ZM15.0768 82.8345L14.4968 82.9945C12.9668 83.3545 11.4268 83.6545 9.91683 84.0645C7.32152 84.7545 4.65956 85.1635 1.97683 85.2845C1.75683 85.2845 1.54678 85.2845 1.29678 85.2845C1.23893 85.1246 1.1922 84.9609 1.15682 84.7945C1.04682 84.0745 0.916786 83.3545 0.866783 82.6245C0.804665 81.985 0.891548 81.3399 1.12057 80.7395C1.34959 80.1392 1.71452 79.6002 2.18679 79.1645C3.19298 78.2022 4.42896 77.5136 5.77682 77.1645C7.35341 76.8199 8.96299 76.6488 10.5768 76.6545C12.8968 76.5845 15.2168 76.5545 17.5768 76.5145H18.3168C16.9039 78.4302 15.8161 80.5655 15.0968 82.8345H15.0768ZM57.0768 73.4045L56.9768 73.4745C55.9768 72.6445 54.9768 71.8345 54.0868 70.9645C52.4402 69.32 50.9504 67.5256 49.6368 65.6045C48.5368 64.1245 47.4268 62.6045 46.3068 61.1845C45.6168 60.2845 44.8768 59.4145 44.1768 58.5245C43.0069 57.0016 41.7481 55.549 40.4068 54.1745C39.4868 53.2545 38.5768 52.3245 37.7268 51.3445C36.8768 50.3645 37.0768 49.7545 38.2368 49.2345C39.3823 48.72 40.6756 48.6383 41.8768 49.0045C43.2904 49.3723 44.5145 50.2574 45.3068 51.4845C46.439 53.2775 47.4739 55.1302 48.4068 57.0345C51.2568 62.4345 54.4068 67.7045 57.0068 73.2145C57.0262 73.2636 57.0428 73.3137 57.0568 73.3645L57.0768 73.4045ZM59.3068 86.3045V86.3945L59.1268 86.5645C57.6643 87.6878 56.3236 88.9615 55.1268 90.3645C54.4368 91.1445 53.7368 91.9245 52.9968 92.6545C51.5162 94.1669 49.6803 95.2842 47.6568 95.9045C46.0948 96.3659 44.5092 96.7431 42.9068 97.0345C40.4276 97.4047 37.9941 98.0349 35.6468 98.9145C34.7868 99.2645 33.8968 99.5545 33.0068 99.8345C32.1537 100.12 31.2558 100.249 30.3568 100.215C29.6582 100.22 28.9809 99.9749 28.4468 99.5245C28.4968 99.5245 28.5168 99.4545 28.5468 99.4445C28.7768 99.4445 29.0068 99.3545 29.2468 99.3245C31.4172 99.0816 33.5018 98.3388 35.3368 97.1545C36.8568 96.1545 38.3368 95.1545 39.8168 94.0845C42.2925 92.2381 44.9778 90.6907 47.8168 89.4745C48.4205 89.2178 49.0464 89.0169 49.6868 88.8745C50.7768 88.6045 51.9068 88.4445 52.9968 88.1545C54.8768 87.6445 56.7468 87.0645 58.6268 86.5145L59.3068 86.3045ZM73.3068 34.9245H73.2268C73.2268 34.6645 73.2268 34.4145 73.2268 34.1545C73.2268 32.6545 73.2268 31.1545 73.1368 29.6545C73.0468 28.1545 72.9468 26.6545 72.8668 25.1645C72.8668 24.1045 72.8668 23.0445 72.7568 21.9845C72.5768 19.3717 72.5468 16.7508 72.6668 14.1345C72.7418 12.3082 73.0406 10.498 73.5568 8.74453C73.9673 7.31399 74.6954 5.99454 75.6868 4.88453C76.0643 4.50495 76.4836 4.16947 76.9368 3.88453C77.0491 3.80212 77.1806 3.7497 77.3189 3.7322C77.4571 3.71471 77.5975 3.73272 77.7268 3.78453C77.7349 3.85764 77.7349 3.93143 77.7268 4.00454C77.7268 5.94454 77.7868 7.88454 77.7968 9.82454C77.7968 10.6645 77.7368 11.5045 77.6768 12.3445C77.5968 13.3445 77.4968 14.3445 77.3868 15.4045C77.2368 16.7945 77.1468 18.2045 76.8868 19.5845C76.4668 21.8845 75.9768 24.1745 75.4368 26.4445C74.7968 29.1445 74.0768 31.8245 73.4368 34.5145C73.4114 34.654 73.3747 34.7911 73.3268 34.9245H73.3068ZM20.6368 73.4945C18.8968 73.1545 17.1968 72.8145 15.4968 72.4945C13.7968 72.1745 12.3768 71.8545 10.8068 71.6945C8.80679 71.4845 6.86681 71.4445 4.89681 71.3245C4.55682 71.3245 4.22681 71.2345 3.89681 71.1845C3.89681 71.0045 3.95678 70.8945 3.98678 70.7945C4.67377 68.9603 5.64571 67.2459 6.86678 65.7145C7.08418 65.4405 7.3288 65.1893 7.59682 64.9645C7.89019 64.684 8.24744 64.4792 8.63772 64.3677C9.02799 64.2562 9.43954 64.2414 9.83681 64.3245C11.1441 64.6024 12.423 65.0008 13.6568 65.5145C16.5916 66.8318 19.4171 68.38 22.1068 70.1445C22.2283 70.2245 22.3451 70.3113 22.4568 70.4045C22.0501 71.5399 21.4326 72.5883 20.6368 73.4945ZM33.4568 49.6745C33.2568 49.4945 33.1168 49.3845 32.9868 49.2545C31.4268 47.8145 29.8668 46.3845 28.3068 44.9345C27.9411 44.5914 27.6065 44.2166 27.3068 43.8145C26.2168 42.4145 25.1368 41.0145 24.0868 39.5845C22.4268 37.3345 20.7968 35.0545 19.1468 32.7945C19.1468 32.7945 19.1468 32.7245 19.1468 32.6445C19.4068 32.4545 19.6768 32.2445 19.9668 32.0545C20.318 31.7657 20.7637 31.6171 21.2179 31.6374C21.6722 31.6577 22.1028 31.8455 22.4268 32.1645C23.8865 33.3209 25.2265 34.6207 26.4268 36.0445C28.1392 38.0737 29.9904 39.9816 31.9668 41.7545L38.1468 47.1845C38.2731 47.3127 38.39 47.4497 38.4968 47.5945C36.6503 47.7341 34.8975 48.4633 33.4968 49.6745H33.4568ZM20.2968 75.8345C20.291 75.7981 20.291 75.761 20.2968 75.7245C20.3693 75.6435 20.4498 75.5698 20.5368 75.5045C21.7286 74.5286 22.7434 73.3548 23.5368 72.0345C23.8668 71.5045 24.2468 71.0345 24.6268 70.5145C24.9329 70.0988 25.3815 69.8105 25.8868 69.7045C26.1696 69.6166 26.4737 69.6271 26.7498 69.7342C27.0258 69.8414 27.2574 70.0389 27.4068 70.2945C27.874 71.0443 28.5524 71.6393 29.3568 72.0045C32.1119 73.4137 35.0453 74.443 38.0768 75.0645C40.289 75.4593 42.4426 76.1313 44.4868 77.0645C44.6468 77.1445 44.8068 77.2445 44.9668 77.3345C44.9302 77.3628 44.8885 77.3835 44.8438 77.3955C44.7992 77.4076 44.7526 77.4106 44.7068 77.4045C43.7668 77.4045 42.8168 77.3245 41.8668 77.3245C41.3068 77.3245 40.7368 77.4345 40.1768 77.4245C39.3768 77.4245 38.5768 77.3045 37.7768 77.2445C35.8393 77.1253 33.8949 77.2938 32.0068 77.7445C30.0813 78.2186 28.0635 78.1633 26.1668 77.5845C24.2768 77.0145 22.3168 76.4345 20.3368 75.8345H20.2968ZM19.8768 76.0745C20.7268 76.3045 21.5468 76.5045 22.3468 76.7345C23.6768 77.1345 24.9868 77.5745 26.3468 77.9645C27.5696 78.3551 28.8608 78.4845 30.1368 78.3445C31.3968 78.1645 32.6568 77.9145 33.9168 77.7345C34.8168 77.6145 35.7368 77.5145 36.6468 77.4845C37.5568 77.4545 38.2868 77.5545 39.1068 77.5945C39.2146 77.612 39.3215 77.6354 39.4268 77.6645C39.3417 77.7516 39.2345 77.8138 39.1168 77.8445C37.8337 78.2216 36.6113 78.7807 35.4868 79.5045C34.8568 79.9045 34.2168 80.2945 33.5768 80.6845C32.9432 81.0896 32.2308 81.3555 31.4868 81.4645L29.2068 81.7945C26.2068 82.2345 23.1568 82.6545 20.1368 83.1045C18.6818 83.2694 17.2595 83.6502 15.9168 84.2345C15.8089 84.2667 15.6985 84.2901 15.5868 84.3045C15.5734 84.2251 15.5734 84.144 15.5868 84.0645C15.9068 83.1345 16.2068 82.1945 16.5868 81.2745C17.0172 80.0468 17.6235 78.888 18.3868 77.8345C18.8168 77.2345 19.3568 76.7045 19.9168 76.0745H19.8768ZM14.8768 83.1645C14.6068 84.5745 14.3568 85.8745 14.0968 87.1645L13.7168 87.4245C12.4968 88.2745 11.2568 89.0845 10.0668 89.9545C8.9604 90.7979 7.77879 91.5377 6.53683 92.1645C6.16682 92.3445 5.76678 92.4645 5.36678 92.6245C3.41993 90.6759 2.0376 88.2361 1.36678 85.5645C1.87679 85.5645 2.30679 85.4645 2.74679 85.4445C4.24221 85.4054 5.73131 85.2348 7.1968 84.9345C9.3768 84.4545 11.5268 83.9345 13.6968 83.4045L14.8768 83.1645ZM41.5068 46.3645L40.0768 44.9745C37.5768 42.5045 35.0768 40.0545 32.5668 37.5645C29.6049 34.6877 26.9259 31.5332 24.5668 28.1445L24.2568 27.6645C24.5368 26.8845 24.8568 26.6645 25.6168 26.6645C25.9944 26.7052 26.3609 26.8172 26.6968 26.9945C27.5856 27.4763 28.376 28.1208 29.0268 28.8945C30.7168 30.8945 32.4168 32.7845 34.0768 34.7645C35.0768 35.9345 35.9668 37.1845 36.9368 38.3745C38.3868 40.1445 39.8768 41.8845 41.3268 43.6445C41.8468 44.2745 42.3268 44.9645 42.8168 45.6445L41.5068 46.3645ZM33.2768 49.8345L32.2768 50.7745L31.7368 50.3545C29.1885 48.1802 26.4163 46.2828 23.4668 44.6945C22.1868 43.9945 20.9368 43.2345 19.6768 42.4845C18.2793 41.6432 17.0069 40.6098 15.8968 39.4145C15.6914 39.2112 15.546 38.9552 15.4768 38.6745C15.2666 37.673 15.3464 36.6323 15.7068 35.6745C15.8462 35.2682 16.1127 34.9176 16.4668 34.6745C22.0268 39.7845 27.7268 44.6845 33.2768 49.8545V49.8345ZM14.4668 53.3645V53.2445C14.6386 53.2089 14.8122 53.1822 14.9868 53.1645C15.6868 53.1645 16.3768 53.1645 17.0668 53.1645C18.0297 53.2846 19.0039 53.2846 19.9668 53.1645L22.2468 52.7845C23.2497 52.5732 24.2926 52.6601 25.2468 53.0345C26.3568 53.5145 27.4568 54.0345 28.5568 54.5145C28.6717 54.5868 28.7789 54.6706 28.8768 54.7645C27.479 56.6869 26.2701 58.7398 25.2668 60.8945C24.7568 60.6545 24.2668 60.4445 23.8368 60.2045C23.1681 59.8708 22.5202 59.4968 21.8968 59.0845C21.0568 58.4945 20.2968 57.8045 19.4868 57.1745L14.6368 53.4945L14.4668 53.3645ZM18.6368 76.0445H18.2068L10.5368 76.1345C9.41682 76.1345 8.3068 76.2045 7.1968 76.3045C6.57512 76.3465 5.95104 76.2719 5.35677 76.0845C5.10172 76.0057 4.86504 75.8766 4.66067 75.7049C4.45629 75.5331 4.28841 75.3222 4.16683 75.0845C3.71883 74.2597 3.53386 73.3175 3.6368 72.3845C3.6368 72.0845 3.74679 71.7845 3.80679 71.4745C6.80679 71.7645 9.68678 71.6745 12.5468 72.1845C15.0868 72.6245 17.5968 73.1845 20.1268 73.6545C20.2068 73.6545 20.2768 73.7245 20.4268 73.7745L18.6368 76.0445ZM31.9768 51.0445L29.4368 54.0445C28.7568 53.7245 28.0668 53.4345 27.4368 53.0445C27.1073 52.859 26.8018 52.634 26.5268 52.3745C25.8568 51.7445 25.2368 51.0745 24.5268 50.4445C23.6768 49.6445 22.7868 48.8745 21.9168 48.0845C20.4639 46.7709 19.1257 45.3357 17.9168 43.7945C17.1086 42.7904 16.4362 41.6842 15.9168 40.5045C15.8468 40.3345 15.7968 40.1545 15.7368 39.9745C15.9269 40.0391 16.0985 40.149 16.2368 40.2945C17.1266 41.1658 18.1091 41.9371 19.1668 42.5945C20.3768 43.3245 21.5768 44.0645 22.8168 44.7345C25.937 46.3979 28.8733 48.3856 31.5768 50.6645C31.7468 50.7745 31.8568 50.8845 31.9868 51.0145L31.9768 51.0445ZM39.2768 47.3645C37.9568 46.1845 36.7268 45.0645 35.4668 43.9745C32.8368 41.7045 30.2868 39.3445 27.8568 36.8645C26.8084 35.7875 25.8704 34.6083 25.0568 33.3445C24.2034 31.9427 23.8508 30.2928 24.0568 28.6645C24.0855 28.4411 24.1323 28.2204 24.1968 28.0045C24.3868 28.2845 24.4968 28.4445 24.6168 28.6045C25.6168 30.0145 26.6768 31.4545 27.7868 32.8045C29.6997 35.0939 31.736 37.2771 33.8868 39.3445L40.6868 46.0545C40.8368 46.1945 40.9768 46.3645 41.1768 46.5945L39.2768 47.3645ZM45.7568 33.7545C45.8268 33.9745 45.8868 34.1245 45.9268 34.2745C47.0838 38.3 48.6103 42.2099 50.4868 45.9545C51.3868 47.7445 52.2668 49.5545 53.0568 51.4045C54.8868 55.6745 56.1068 60.1745 57.7068 64.5245C57.7171 64.5807 57.7171 64.6383 57.7068 64.6945C57.2668 63.8745 56.8968 63.0445 56.5268 62.2045C54.6068 57.9545 52.7968 53.6545 50.5268 49.5945C49.9134 48.4154 49.0418 47.3899 47.9768 46.5945C47.2716 46.1231 46.7108 45.4654 46.3568 44.6945C46.0768 44.0645 45.8168 43.4145 45.5668 42.7745C45.1429 41.4497 44.8711 40.0809 44.7568 38.6945C44.5752 37.1215 44.8458 35.5293 45.5368 34.1045C45.6013 33.9825 45.6748 33.8655 45.7568 33.7545ZM16.7568 98.1445C16.0868 98.2045 15.5068 98.3045 14.9268 98.3045C13.9594 98.328 12.9915 98.3013 12.0268 98.2245C11.5678 98.1917 11.1204 98.0647 10.7127 97.8513C10.3049 97.638 9.9455 97.3429 9.65682 96.9845C9.16682 96.3745 8.72679 95.7245 8.24679 95.0845C8.32679 94.9845 8.38681 94.8945 8.45681 94.8145C9.24268 93.8776 9.91409 92.8504 10.4568 91.7545C10.7768 91.1145 11.1568 90.5045 11.4568 89.8445C11.7427 89.2284 12.2149 88.7177 12.8068 88.3845C13.2268 88.1045 13.6568 87.8445 14.1768 87.5245C13.8527 91.2514 14.7589 94.9818 16.7568 98.1445ZM30.8668 86.6445L30.2868 86.9145L19.1668 91.6145C17.9117 92.0935 16.7404 92.7685 15.6968 93.6145C15.6968 93.6145 15.6268 93.6145 15.5468 93.6145C15.0549 91.8997 14.8423 90.1169 14.9168 88.3345L30.8668 86.6445ZM27.4268 64.2945L28.0068 64.4645C29.3868 64.8745 30.7568 65.3245 32.1568 65.6745C33.8279 66.0824 35.4383 66.7077 36.9468 67.5345C38.9454 68.6858 40.8846 69.9374 42.7568 71.2845C42.8383 71.3454 42.9152 71.4122 42.9868 71.4845C42.8424 71.5209 42.6912 71.5209 42.5468 71.4845C39.6793 70.4992 36.7217 69.7992 33.7168 69.3945C32.1468 69.1645 30.5768 68.9045 29.0168 68.6245C28.4168 68.5145 27.8268 68.3245 27.2768 68.1745C26.8281 66.9097 26.8818 65.5209 27.4268 64.2945ZM34.0868 19.5445C34.1671 19.5887 34.244 19.6388 34.3168 19.6945C36.2455 21.48 37.9482 23.495 39.3868 25.6945C40.8468 28.0145 42.2668 30.3645 43.7168 32.6945C43.8869 32.9766 43.9574 33.3076 43.9168 33.6345C43.8368 34.3945 43.7968 35.1645 43.7468 35.9245C43.7468 36.0645 43.7468 36.2045 43.7468 36.3345C43.5821 36.2129 43.4513 36.0511 43.3668 35.8645C42.4362 33.9936 41.2701 32.2495 39.8968 30.6745C37.8692 28.3644 36.0613 25.8703 34.4968 23.2245C34.0312 22.3912 33.7228 21.4794 33.5868 20.5345C33.5439 20.3372 33.5702 20.1311 33.6612 19.9509C33.7523 19.7706 33.9025 19.6271 34.0868 19.5445ZM57.2268 39.6545H57.1168C56.9668 39.2445 56.8068 38.8445 56.6668 38.4445C55.972 36.4238 55.4566 34.3458 55.1268 32.2345C54.7468 29.9245 54.4368 27.6145 54.1268 25.3045C53.9768 24.3045 53.8468 23.2345 53.7168 22.2045C53.6368 21.5345 53.5668 20.8645 53.4968 20.2045C54.3641 19.1601 55.4318 18.2998 56.6368 17.6745C56.2865 25.0057 56.4838 32.3527 57.2268 39.6545ZM34.5868 19.3645C34.8394 19.3081 35.0982 19.2846 35.3568 19.2945C36.0985 19.3648 36.8299 19.5191 37.5368 19.7545C39.2986 20.4475 40.8714 21.5474 42.1268 22.9645C43.2768 24.2745 44.3768 25.6145 45.4968 26.9645C45.6168 27.1045 45.7068 27.2545 45.8068 27.3745L44.6568 30.2745L34.5868 19.3645ZM9.28683 56.9445C9.55705 56.1243 10.024 55.3827 10.6468 54.7845C11.4969 54.0494 12.5364 53.5678 13.6468 53.3945C13.7625 53.3718 13.8819 53.3753 13.9961 53.4047C14.1103 53.4341 14.2164 53.4887 14.3068 53.5645C14.9268 54.0145 15.5668 54.4445 16.1768 54.9045C17.6568 56.0445 19.1168 57.2045 20.5868 58.3545L20.9868 58.6945C20.7675 58.6891 20.5509 58.6451 20.3468 58.5645C19.6289 58.2986 18.8895 58.0945 18.1368 57.9545C16.5068 57.7445 14.8668 57.6445 13.2268 57.5045C12.3068 57.4245 11.3668 57.3745 10.4468 57.2645C10.0525 57.1876 9.66477 57.0806 9.28683 56.9445ZM18.8368 32.9445L26.1068 42.8345L26.0268 42.9245C22.9468 40.1045 19.7968 37.3845 16.6768 34.5645L18.8368 32.9445ZM11.3168 89.4445L11.3868 89.5245L10.2368 91.6845C9.74411 92.6617 9.14373 93.5808 8.4468 94.4245C8.3068 94.5845 8.15679 94.7345 7.99679 94.8945L5.64681 92.8945C7.71951 92.0405 9.63566 90.8475 11.3168 89.3645V89.4445ZM44.0868 32.5445H43.9568C42.4468 30.0745 40.8168 27.6745 39.4668 25.0945L44.5468 30.6545C44.3968 31.2745 44.2368 31.8845 44.0868 32.5045V32.5445Z" fill="#868C96"/>
</g>
</svg>
