<svg width="103" height="80" viewBox="0 0 103 80" fill="none" xmlns="http://www.w3.org/2000/svg">
<g opacity="0.9">
<path opacity="0.9" d="M46.5263 46.5408L47.3405 44.3176L43.5054 41.6039C42.415 40.8434 41.1953 40.2894 39.9064 39.9692C38.9444 39.6409 38.0035 39.2533 37.089 38.8086C35.9491 38.3672 34.7929 37.9912 33.6448 37.5662C33.4463 37.4768 33.2533 37.3758 33.0666 37.2638V37.0431C33.4032 36.9823 33.7479 36.9823 34.0844 37.0431C35.1584 37.3541 36.2088 37.7419 37.2275 38.2037C38.5523 38.8887 39.9112 39.5053 41.2988 40.051C42.4445 40.5466 43.536 41.1602 44.5558 41.8819C45.6469 42.5684 46.6891 43.3368 47.7558 44.0806L49.8077 43.3368C49.9706 42.2578 50.1008 41.1462 50.3044 40.0673C50.694 38.0906 51.3774 36.1839 52.3319 34.4112C53.5069 32.0634 54.33 29.5543 54.7747 26.965C54.8401 26.6659 54.9739 26.3861 55.1655 26.1477C55.312 26.4486 55.3955 26.7765 55.4109 27.111C55.4263 27.4456 55.3733 27.7798 55.2551 28.093C54.769 30.2569 53.991 32.3441 52.9426 34.2968C51.9769 35.9439 51.2452 37.7184 50.7685 39.5687C50.4643 40.8667 50.3817 42.2072 50.5243 43.5329C51.8515 43.6964 52.8205 44.5219 53.8301 45.7398C54.05 44.7835 54.2291 44.1051 54.3594 43.443C56.9211 30.261 63.3426 18.1459 72.8023 8.64804C75.4244 5.95418 78.4491 3.68737 81.7672 1.92934C83.4502 0.955395 85.3059 0.319651 87.2308 0.0575911C88.3659 -0.104471 89.5233 0.0773418 90.5547 0.579734C91.5861 1.08213 92.4446 1.88222 93.0202 2.87748C93.8842 4.46643 94.4734 6.191 94.7627 7.9778C95.2794 10.8382 95.568 13.7354 95.6258 16.6418C95.7434 19.7208 95.2448 22.7922 94.1595 25.6744C93.0742 28.5566 91.4243 31.1911 89.3072 33.4222C87.3937 35.4983 85.4395 37.509 83.4608 39.6259C84.6043 39.8425 85.778 39.8425 86.9214 39.6259C88.9104 39.1784 90.9412 38.9455 92.9795 38.9312C93.8284 38.9376 94.6754 39.0141 95.5118 39.16C96.9395 39.4092 98.223 40.1846 99.1108 41.3342C101.554 44.5137 103.247 48.0202 102.97 52.156C102.787 54.7653 101.828 57.2594 100.218 59.3161C97.8955 62.4076 94.9274 64.9518 91.522 66.7704C89.4863 67.7841 87.2741 68.392 85.0079 68.5604C82.9499 68.8304 80.8627 68.7808 78.8196 68.4133C77.3093 68.1421 75.8839 67.5177 74.6587 66.5906C74.5162 66.4917 74.3416 66.4508 74.1702 66.4762L74.6099 67.4488C75.0415 68.3011 75.278 69.2394 75.302 70.1952C75.2613 71.6255 74.4226 72.1813 73.1279 71.552C72.4634 71.2089 71.8358 70.7981 71.2552 70.3259C70.1071 69.4187 68.9916 68.4623 67.8679 67.5306C67.6155 67.3262 67.3468 67.1301 67.0536 66.9257L66.8908 67.0565C67.0536 67.318 67.2165 67.5878 67.3956 67.8739C68.6658 69.7293 70.0013 71.5438 71.1901 73.4482C71.7511 74.3826 72.176 75.3928 72.4521 76.448C73.0628 78.6875 71.4995 80.4121 69.244 79.9136C66.9744 79.504 64.6769 79.269 62.3717 79.2106C61.3192 79.1535 60.2762 78.9809 59.2612 78.6957C56.2017 77.8748 53.3103 76.519 50.7197 74.6906C49.4332 73.7507 48.1222 72.8352 46.8031 71.928C45.9427 71.3746 44.9783 71.0046 43.9695 70.8409C40.7125 70.2115 37.9359 67.8902 37.7405 64.0323C37.6265 61.6456 38.1964 59.5777 40.1832 58.0492C40.2632 57.9874 40.3297 57.9098 40.3787 57.8213C40.4277 57.7327 40.4581 57.6351 40.4682 57.5343L39.3527 57.8122C36.5271 58.6969 33.551 58.9917 30.6076 58.6786C29.6659 58.5777 28.7343 58.3973 27.8228 58.1391C26.064 57.5997 24.3297 56.9948 22.6116 56.3573C19.3599 55.0995 16.4659 53.059 14.1841 50.4151C12.295 48.3063 10.4303 46.173 8.68784 43.9498C6.9211 41.6535 4.89959 39.5667 2.66236 37.7297C1.96569 37.1829 1.33937 36.5514 0.797733 35.8497C0.261607 35.1537 -0.0196852 34.2937 0.00107174 33.4141C0.0218287 32.5346 0.343359 31.6889 0.911716 31.0191C1.29461 30.5829 1.76754 30.2355 2.29765 30.0012C2.82776 29.7669 3.40233 29.6513 3.98145 29.6623C6.45502 29.6282 8.92134 29.9391 11.3097 30.5859C15.3721 31.5605 19.3418 32.8896 23.1734 34.5583C29.7326 37.3825 36.1462 40.5361 42.3899 44.007C43.4891 44.62 44.5395 45.3229 45.6062 45.9768L46.5263 46.5408ZM57.9258 47.4644C58.1131 47.1947 58.2516 47.0067 58.3656 46.8105C59.1309 45.5273 59.8719 44.2195 60.6617 42.9526C62.0036 40.6557 63.7565 38.6274 65.8323 36.9695C68.2479 35.0744 70.4342 32.9018 72.3463 30.496C73.1403 29.5975 73.5601 28.427 73.5188 27.2266C73.4374 25.7962 72.5661 25.1995 71.2552 25.7063C70.9702 25.8207 70.6933 25.9515 70.4409 26.0741C70.0961 26.2669 69.6995 26.3454 69.3076 26.2984C68.9157 26.2515 68.5486 26.0814 68.2587 25.8126C68.1436 25.6959 68.0067 25.6033 67.8557 25.5401C67.7048 25.4769 67.5428 25.4444 67.3793 25.4444C67.2158 25.4444 67.0538 25.4769 66.9029 25.5401C66.752 25.6033 66.615 25.6959 66.4999 25.8126C65.8722 26.3282 65.3089 26.9183 64.8226 27.5699C63.6501 29.2046 62.5426 30.9619 61.4353 32.6784C59.9672 34.732 58.883 37.0362 58.2352 39.4788C57.8192 41.7531 57.2006 43.9852 56.3869 46.1485C56.3869 46.2057 56.3869 46.2792 56.3869 46.4182L57.9258 47.4644ZM60.5966 50.7339C60.9467 50.4559 61.2399 50.2271 61.5167 49.9901C63.8316 48.031 66.4217 46.4253 69.2033 45.2248C71.1331 44.4075 73.0872 43.5901 75.0252 42.7728C76.9631 41.9554 78.9743 41.1381 80.8878 40.1736C82.661 39.1973 84.0529 37.6475 84.8369 35.7762C84.9871 35.5653 85.0751 35.3163 85.091 35.0575C85.1068 34.7988 85.0499 34.5408 84.9265 34.3131C84.6008 34.3703 84.2507 34.4194 83.9087 34.5011C83.0651 34.755 82.209 34.9651 81.3438 35.1305C77.9331 35.5545 74.6593 36.7356 71.76 38.5879C70.4346 39.4153 69.0585 40.1578 67.6399 40.8111C64.9664 42.0784 62.4405 43.6381 60.108 45.4619C59.3141 46.0913 58.7269 46.9455 58.4225 47.914L60.5966 50.7339ZM80.5621 52.2296C82.3046 52.2868 83.8924 52.3767 85.4476 52.3849C88.8105 52.3849 92.1734 52.1969 95.5118 52.7854C96.383 52.9353 97.2662 53.0037 98.15 52.9898C98.3978 53.027 98.6506 53.0108 98.8916 52.942C99.1326 52.8733 99.3562 52.7536 99.5474 52.5911C99.7386 52.4286 99.893 52.227 100 51.9997C100.107 51.7724 100.165 51.5248 100.169 51.2733C100.235 50.5009 100.235 49.7244 100.169 48.952C100.099 48.1825 99.741 47.4684 99.1666 46.9541C98.5922 46.4397 97.8447 46.1635 97.0752 46.1812C94.7057 46.3937 92.3363 46.4999 89.9668 46.6634C89.2208 46.6844 88.4775 46.7637 87.7438 46.9004C84.8288 47.538 81.93 48.2246 79.0313 48.903C78.8549 48.9676 78.6878 49.0555 78.5346 49.1645C79.5524 49.9492 80.8308 50.4723 80.5458 52.2214L80.5621 52.2296ZM51.2489 50.5458L51.3466 50.3252C50.28 49.5732 49.2377 48.7722 48.0896 48.0774C45.2422 46.3323 42.2446 44.8469 39.1328 43.6392C36.8692 42.7401 34.5649 41.9472 32.2361 41.1871C31.3514 40.8101 30.3584 40.778 29.4513 41.0972C29.2311 41.1413 29.0255 41.2406 28.8535 41.3856C28.6816 41.5307 28.5489 41.717 28.4677 41.9273C28.3865 42.1375 28.3595 42.3649 28.3891 42.5884C28.4187 42.8119 28.504 43.0243 28.6371 43.206C28.8602 43.547 29.051 43.9082 29.2071 44.2849C29.6956 45.9196 30.974 46.737 32.4152 47.4971C34.0739 48.2696 35.8176 48.843 37.6102 49.2054C39.546 49.7058 41.5391 49.9476 43.538 49.9247C45.7175 49.8342 47.9006 49.9711 50.052 50.3333L51.2489 50.5458ZM98.2966 45.7561C98.3498 45.4306 98.3152 45.0966 98.1963 44.789C98.0775 44.4814 97.8787 44.2114 97.6207 44.007C96.5534 42.951 95.3142 42.0858 93.9566 41.4487C93.0847 40.9699 92.0841 40.7811 91.0985 40.9092C89.8247 41.0688 88.5627 41.3118 87.3204 41.6366C82.1825 43.0997 77.354 45.3801 72.4603 47.4808C72.4196 47.4808 72.4196 47.587 72.3544 47.7668L73.4374 47.914C74.5192 47.9544 75.5929 48.1189 76.6374 48.4044C77.6222 48.7699 78.7013 48.7901 79.699 48.4616L80.7738 48.1592C85.3744 46.8407 90.1258 46.1264 94.9092 46.034C95.9841 46.0177 97.0915 45.846 98.264 45.748L98.2966 45.7561ZM87.8741 27.5944C87.2634 27.8478 86.7993 28.0276 86.3352 28.2401C84.2344 29.1964 82.1581 30.21 80.041 31.1254C76.1814 32.7601 72.1916 34.1496 68.4704 36.1522C65.2485 37.7433 62.5847 40.2804 60.8327 43.4267C60.6129 43.8353 60.4093 44.244 60.1976 44.6609C60.4748 44.6353 60.7397 44.5335 60.963 44.3666C62.16 43.5983 63.3244 42.7319 64.5702 42.0698C67.6888 40.337 70.8399 38.6615 73.9911 36.9859C75.6404 36.108 77.4145 35.4905 79.2512 35.155C80.8797 34.8362 82.5082 34.3948 84.1855 33.9862C86.1235 33.5039 87.1739 32.0572 87.9637 30.3816C88.1578 29.94 88.2505 29.4602 88.235 28.9778C88.2195 28.4953 88.0962 28.0226 87.8741 27.5944ZM88.5255 6.99697C88.2243 7.234 87.8985 7.47103 87.5973 7.72442C86.3596 8.74611 85.1545 9.84955 83.8924 10.7732C79.724 13.792 76.0108 17.3982 72.8674 21.4806C72.7663 21.623 72.6816 21.7766 72.615 21.9383C73.271 21.9911 73.9234 22.0811 74.5692 22.208C75.3346 22.3878 75.3835 23.2215 75.7092 23.8427C75.9194 23.6972 76.1207 23.5389 76.3117 23.3687C79.1453 20.5406 82.5489 18.4155 85.6105 15.8817C86.6283 15.0643 87.7194 14.2469 88.7942 13.495C89.4926 12.9872 90.0088 12.2663 90.2656 11.4399C90.5224 10.6135 90.5061 9.72593 90.2192 8.90959C90.0964 8.48438 89.8807 8.09204 89.5877 7.76116C89.2947 7.43028 88.9318 7.1692 88.5255 6.99697ZM89.8691 13.0618C89.0548 13.6584 88.1754 14.2796 87.3204 14.9417C85.5128 16.3312 83.7703 17.8025 81.9138 19.1184C79.8975 20.5521 77.9921 22.1368 76.214 23.8591C75.861 24.213 75.6105 24.6566 75.4893 25.1423C75.1755 26.7151 74.5825 28.2185 73.7386 29.5806C73.6682 29.7074 73.6057 29.8384 73.5514 29.9729C74.1519 29.6387 74.7191 29.2473 75.245 28.8041C76.6374 27.7824 78.0135 26.728 79.471 25.7962C80.782 24.9789 82.2069 24.2841 83.5423 23.4913C85.2931 22.516 86.9918 21.4492 88.6314 20.2954C89.497 19.6535 90.1884 18.8039 90.6422 17.8243C91.096 16.8447 91.2977 15.7664 91.2289 14.6883C91.18 13.6911 90.9032 13.3724 89.8691 13.0618ZM67.705 35.9478L67.8272 36.1195L69.3824 35.3675C71.0679 34.5501 72.7371 33.7328 74.4552 32.9972C76.5397 32.1062 78.6975 31.3624 80.782 30.4715C82.9967 29.5234 85.1626 28.4608 87.296 27.4228C87.814 27.2466 88.2794 26.9424 88.6494 26.5381C89.0194 26.1339 89.282 25.6426 89.413 25.1096C89.5929 24.1445 89.6883 23.1654 89.6981 22.1835C89.7211 21.8844 89.6472 21.5858 89.4872 21.3324C89.3272 21.079 89.0898 20.8844 88.8105 20.7776C88.6256 20.8428 88.446 20.9221 88.2731 21.0147C85.0161 22.9109 81.6288 24.7255 78.4125 26.7362C76.4889 28.0187 74.6601 29.4391 72.9407 30.9865C71.1493 32.5803 69.4557 34.2968 67.705 35.9478ZM79.4629 54.0033L80.5458 54.4365C81.4659 54.7879 82.386 55.1394 83.3061 55.4745C85.5046 56.2919 87.7031 57.1092 89.9016 57.853C91.2777 58.3353 92.6782 58.744 94.0461 59.2425C94.3085 59.3608 94.5974 59.4073 94.8835 59.3771C95.1695 59.347 95.4425 59.2413 95.6747 59.0709C97.138 58.1084 98.1783 56.6195 98.5816 54.9106C98.6765 54.4628 98.7445 54.0097 98.7851 53.5537C92.6456 52.4503 86.5713 52.5484 80.5132 52.6301L79.4629 54.0033ZM68.389 23.1071C69.2182 22.8063 70.067 22.5633 70.9295 22.3797C71.2943 22.3251 71.6437 22.1943 71.955 21.9958C72.2664 21.7973 72.5328 21.5355 72.7371 21.2272C75.7403 17.2538 79.3065 13.7428 83.3224 10.8059C84.8288 9.7106 86.2212 8.45187 87.6543 7.24218C87.9225 6.98988 88.1702 6.71657 88.3952 6.42482C88.3346 6.17074 88.1973 5.94169 88.002 5.76903C87.8066 5.59637 87.5629 5.48855 87.3041 5.46033C86.4988 5.31082 85.68 5.2478 84.8614 5.27234C84.078 5.27175 83.3028 5.43166 82.5832 5.74226C81.8635 6.05285 81.2146 6.50762 80.6761 7.07871C79.6583 8.26388 78.4939 9.33462 77.5494 10.577C74.6181 14.4513 71.7519 18.391 68.8694 22.3061C68.7066 22.4941 68.5844 22.7393 68.3646 23.1071H68.389ZM68.9264 54.0605C69.4569 54.4829 69.9601 54.9388 70.4328 55.4255C72.4579 57.5843 74.6766 59.5515 77.0608 61.3023C78.502 62.4384 79.9025 63.6154 81.3356 64.7597C81.6785 65.0311 82.0498 65.264 82.443 65.4545C83.412 65.9367 84.4461 65.6915 85.4558 65.7079C86.1296 65.7657 86.8067 65.6452 87.4196 65.3584C88.0326 65.0715 88.5599 64.6284 88.949 64.0731L88.2161 63.4356C86.7263 62.2501 85.1535 61.1739 83.5097 60.2152C80.9204 58.6622 78.4287 56.9458 75.8883 55.3111C75.5621 55.0705 75.1911 54.8981 74.7972 54.8043C72.8674 54.5346 70.9539 54.3139 68.8776 54.0605H68.9264ZM55.5808 54.2812C55.2225 54.3629 54.8886 54.4201 54.5629 54.51C53.3817 54.8748 52.3776 55.6671 51.7457 56.7333C50.3451 58.8175 49.7019 61.0162 50.5568 63.501C50.9568 64.3183 51.5702 65.0115 52.3316 65.5066C53.093 66.0018 53.9739 66.2803 54.8805 66.3127C55.0828 66.2868 55.282 66.2403 55.4749 66.1738C56.851 65.7324 57.4861 64.6289 57.9177 63.3784C58.7098 61.2713 58.7098 58.9466 57.9177 56.8395C57.6992 56.1574 57.2859 55.5548 56.7289 55.1067L55.5808 54.2812ZM61.3946 52.4258C63.3081 52.6383 65.0261 52.7691 66.7279 53.0306C68.4297 53.2922 70.1803 53.7008 71.9147 53.9788C72.6868 54.0931 73.4714 54.0931 74.2435 53.9788C74.798 53.8608 75.3152 53.6082 75.7499 53.2431C76.1485 52.8729 76.5012 52.4558 76.8002 52.0007C77.1175 51.6854 77.3007 51.2588 77.3113 50.8108C77.322 50.3627 77.1592 49.9279 76.8572 49.5977C76.3633 49.0866 75.7463 48.7122 75.0659 48.5106C73.6066 48.1982 72.1202 48.0312 70.6282 48.012C67.2885 48.1032 64.0435 49.1464 61.2724 51.0199C61.1418 51.1314 61.0243 51.2576 60.9223 51.3959L61.3946 52.4258ZM30.1923 56.4635C30.1923 56.5534 30.1923 56.6515 30.1923 56.7496C30.5343 56.9376 30.8682 57.1665 31.2264 57.3218C32.7659 57.9859 34.472 58.1572 36.112 57.8122C38.4139 57.3874 40.6873 56.8196 42.9191 56.1121C45.8849 55.2643 48.8938 54.5768 51.9329 54.0523C52.8847 53.8895 53.844 53.7749 54.8072 53.709C54.5153 53.4258 54.2432 53.1227 53.993 52.8018C53.639 52.2751 53.1307 51.8719 52.5385 51.6478C51.9462 51.4238 51.2993 51.39 50.6871 51.5512C47.9756 51.9599 45.2235 52.2214 42.5446 52.8508C38.6931 53.7662 34.8987 54.9432 31.088 56.0221C30.7669 56.1369 30.4585 56.2848 30.1679 56.4635H30.1923ZM81.6858 65.4545C80.3992 64.3919 79.243 63.3539 78.0461 62.4711C75.3608 60.5552 72.8535 58.3995 70.5549 56.0303C69.025 54.4034 66.9533 53.3971 64.733 53.2023C63.8869 53.0728 63.025 53.0894 62.1844 53.2513C62.9417 53.8071 63.5686 54.2076 64.1304 54.6899C67.0532 57.0846 69.6729 59.8296 71.931 62.8634C72.3815 63.4575 72.9039 63.9929 73.4862 64.4573C75.1799 65.8959 77.2644 66.0185 79.3407 66.092C80.1656 66.1324 80.9809 65.8998 81.6614 65.43L81.6858 65.4545ZM80.7168 6.25317C79.9025 5.88536 79.4791 5.76276 78.9499 5.95075C76.6537 6.76811 74.4308 7.65085 72.9081 9.7106C71.251 11.914 69.8445 14.2964 68.7147 16.8134C67.9493 18.5544 67.1432 20.2872 66.3778 22.0282C65.8729 23.1807 65.4007 24.3413 64.9284 25.5101C64.8063 25.8126 64.7411 26.1395 64.6353 26.4992C64.7981 26.4992 64.8877 26.4992 64.9121 26.4338C66.2801 24.6683 67.9249 23.1643 69.2195 21.2926C72.5824 16.462 75.8557 11.5497 80.0084 7.32391C80.2707 6.98157 80.4997 6.61481 80.6924 6.22865L80.7168 6.25317ZM89.6736 64.065C92.4502 63.5173 94.3882 61.76 94.3393 59.8147C94.21 59.7161 94.0708 59.6312 93.924 59.5613C88.9844 58.0476 84.1321 56.2603 79.3896 54.2076L76.0348 55.025C76.2303 55.1803 76.3769 55.3029 76.5316 55.4091C80.7576 58.4415 85.4884 60.6484 89.5596 64.0241C89.5755 64.0331 89.5918 64.0412 89.6085 64.0486L89.6736 64.065ZM25.0299 43.3449C23.9958 43.1406 22.978 42.879 21.9439 42.7401C20.2014 42.4949 18.4508 42.3232 16.7001 42.1189C15.4217 41.9636 14.1515 41.7756 12.8731 41.653C11.5947 41.5304 11.3016 42.0535 11.7494 43.1733C12.0658 44.0802 12.6046 44.8926 13.3161 45.5354C14.0276 46.1782 14.889 46.6308 15.8207 46.8514C17.2011 47.1924 18.6107 47.4004 20.0304 47.4726C22.807 47.5788 25.5918 47.5216 28.3765 47.538H29.7282C27.7761 46.6109 26.1249 45.1488 24.9648 43.3204L25.0299 43.3449ZM38.7501 50.1535V49.9819C38.4 49.8838 38.058 49.7694 37.7079 49.6795C35.8677 49.2381 34.0274 48.7885 32.1791 48.3717C31.3016 48.1248 30.4012 47.9687 29.4921 47.9058C25.8605 47.8404 22.2289 47.8486 18.5973 47.8404C18.2156 47.8767 17.8372 47.9423 17.4655 48.0366C17.5606 48.3663 17.686 48.6864 17.8401 48.9929C19.3302 51.2324 21.3495 52.6465 24.0854 52.5647C25.7282 52.4488 27.3607 52.2166 28.9709 51.87C31.3648 51.4613 33.7506 50.9791 36.1527 50.5377C37.0483 50.3742 37.9359 50.2761 38.7501 50.1535ZM25.0299 53.1614C25.2858 54.1154 25.8907 54.9373 26.7239 55.4631C27.5572 55.9889 28.5573 56.1798 29.5246 55.9976C30.7704 55.6707 32.0163 55.3437 33.2376 54.9432C37.5863 53.504 42.0518 52.4483 46.5833 51.7882C48.1059 51.5757 49.6367 51.4041 51.1675 51.2079C50.6213 50.9701 50.0465 50.8052 49.4576 50.7175C46.8007 50.3512 44.1157 50.2336 41.4372 50.366C38.8919 50.4084 36.3563 50.693 33.8646 51.2161C31.2834 51.7474 28.6859 52.246 26.1048 52.7691C25.7439 52.8735 25.3902 53.0019 25.0462 53.1532L25.0299 53.1614ZM39.5481 43.3531L39.6702 43.206C39.312 43.0098 38.97 42.7891 38.6117 42.6093C34.1414 40.4515 29.6549 38.2528 25.2009 36.1522C20.6793 34.0187 15.9507 32.3588 11.0899 31.199C10.2756 31.011 9.5021 30.823 8.69599 30.7086C8.33523 30.6558 7.96788 30.7407 7.66642 30.9465C7.36495 31.1523 7.15125 31.464 7.06748 31.8202C6.96163 32.425 7.27105 32.8664 8.04459 33.1688C8.30997 33.2592 8.5823 33.3276 8.85885 33.3731C9.48583 33.5039 10.1291 33.602 10.7561 33.741C12.3438 34.0924 13.9154 34.5093 15.5113 34.8199C19.4321 35.4655 23.2135 36.7815 26.691 38.7105C27.6157 39.2175 28.5702 39.6679 29.5491 40.0591C30.0212 40.2464 30.5089 40.3914 31.0066 40.4923C32.2849 40.8275 33.5878 41.0727 34.8336 41.4895C36.4376 42.029 37.9929 42.7074 39.5644 43.3204L39.5481 43.3531ZM7.97944 33.6347C6.95348 34.8444 7.1082 35.6127 8.32144 36.0868C9.68939 36.5935 11.0492 37.1248 12.4416 37.5335C15.7882 38.5062 19.1592 39.4134 22.5139 40.337C23.3281 40.5496 24.0854 40.7212 24.8834 40.9174C25.8116 39.5605 27.1063 39.9774 28.287 40.1C22.1068 36.005 15.0146 34.8934 7.99574 33.602L7.97944 33.6347ZM58.9274 59.1445C58.9274 59.6757 58.9274 60.1498 58.9274 60.6239C58.8676 61.2717 59.0505 61.9187 59.4403 62.4384C59.8216 63.0398 60.1591 63.6681 60.45 64.3184C60.8082 65.125 61.2161 65.9085 61.6714 66.6642C62.9742 68.5359 64.3666 70.3505 65.7427 72.1895L68.5681 76.0474C69.8547 76.2109 70.4735 75.7205 70.4491 74.4699C70.4503 73.9605 70.3449 73.4565 70.1396 72.9905C69.7567 72.1902 69.3101 71.4221 68.8043 70.6937C66.0027 66.4471 62.6849 62.5674 58.9274 59.1445ZM92.9388 40.4923C92.7695 40.2063 92.5204 39.9764 92.2222 39.8311C91.9241 39.6858 91.59 39.6315 91.2614 39.675C90.2843 39.7322 89.3072 39.8875 88.3383 39.9937C87.0353 40.1986 85.7225 40.335 84.4054 40.4024C82.9135 40.3804 81.4323 40.6583 80.0491 41.2198C77.8913 42.1271 75.7417 43.0588 73.584 43.9579C70.3754 45.1754 67.2823 46.68 64.3421 48.4534C64.0164 48.6659 63.6989 48.9111 63.3569 49.1482C63.4546 49.2299 63.4872 49.2708 63.5035 49.2708C63.7303 49.2108 63.9532 49.1371 64.1711 49.0501C66.0005 48.2254 67.9602 47.7302 69.9605 47.587C71.3692 47.433 72.7439 47.0521 74.0318 46.4591C74.3738 46.3283 74.7076 46.1566 75.0578 46.0095C77.6797 44.8979 80.2771 43.7372 82.9234 42.691C85.2955 41.6747 87.7934 40.9846 90.3494 40.6395C91.1637 40.5414 91.9698 40.5496 92.9388 40.5005V40.4923ZM68.0633 76.1292C67.6887 75.5652 67.3223 74.9604 66.8989 74.3882C65.7997 72.9088 64.6678 71.4621 63.5767 69.9826C62.0856 68.1623 60.8676 66.1328 59.9615 63.9587C59.7609 63.3141 59.3723 62.7446 58.8459 62.324C58.7746 62.8822 58.6407 63.4306 58.447 63.9587C57.8851 65.0376 58.2759 65.9694 58.6749 66.9748C59.7823 69.7129 60.8327 72.4838 61.8505 75.2628C61.9213 75.5235 62.0516 75.7642 62.2311 75.9656C62.4106 76.1671 62.6344 76.3238 62.8847 76.4234C64.1268 76.8988 65.4626 77.0752 66.7849 76.9384C67.0567 76.9614 67.3285 76.8948 67.5592 76.7488C67.7899 76.6028 67.9669 76.3853 68.0633 76.1292ZM58.6098 35.7271L58.8785 35.8416C58.9681 35.7026 59.0658 35.58 59.1554 35.4411C60.222 33.741 61.2968 32.0408 62.3554 30.3326C62.6893 29.8108 62.9833 29.2643 63.2348 28.6978C64.4154 25.9515 65.5473 23.1725 66.7442 20.4343C67.9412 17.6962 69.0078 14.6638 70.7422 12.0646C70.7586 11.9425 70.7586 11.8188 70.7422 11.6968C70.4653 11.9992 70.2781 12.1954 70.1071 12.3997C66.6902 16.3857 63.7396 20.7516 61.3131 25.4121C60.8212 26.3063 60.4358 27.2555 60.165 28.2401C59.6195 30.7412 59.1553 33.2424 58.6342 35.7271H58.6098ZM40.5822 61.9807C41.4616 61.5639 42.2758 61.1633 43.1227 60.7955C45.2723 59.8883 47.4464 59.0219 49.6367 58.1146C50.0549 57.9834 50.4313 57.7437 50.7278 57.4198C51.4415 56.1455 52.4601 55.0696 53.6917 54.2894C53.5557 54.2313 53.4065 54.2115 53.2602 54.2321C50.6871 54.8125 48.0978 55.3601 45.541 55.9976C44.1064 56.2811 42.7386 56.8358 41.5105 57.6323C41.0256 57.9794 40.6291 58.4363 40.3532 58.9661C40.0774 59.4958 39.9298 60.0834 39.9227 60.6811C39.8773 60.9432 39.9198 61.2129 40.0436 61.4481C40.1674 61.6833 40.3654 61.8706 40.6066 61.9807H40.5822ZM24.631 41.3342C24.5131 41.2539 24.3877 41.1854 24.2564 41.1299C22.8315 40.7048 21.4065 40.3125 19.9734 39.8793C16.5861 38.9475 13.1093 38.31 9.81966 37.0431C9.48622 36.978 9.14344 36.978 8.81 37.0431C8.66037 37.8547 8.81667 38.6932 9.24856 39.3956C9.68044 40.0981 10.3571 40.6142 11.1469 40.8438C13.0034 41.2034 14.8843 41.4405 16.7571 41.7102C18.9664 42.0371 21.1731 42.3505 23.377 42.6502C23.7923 42.7156 24.1913 42.7319 24.631 42.7646V41.3342ZM61.5493 75.5897C61.4825 75.2086 61.3927 74.832 61.2805 74.4618C60.4337 72.1732 59.5706 69.89 58.6912 67.6123C58.4714 67.0238 58.1701 66.468 57.877 65.7896C57.0627 67.0729 56.2485 68.0864 54.7177 68.4378C55.0352 70.375 55.3528 72.2712 55.6704 74.2084C57.478 75.3282 59.2449 76.3499 61.5493 75.5897ZM50.1497 58.3435C49.9706 58.3435 49.8647 58.2944 49.7914 58.3435C47.0474 59.5286 44.3033 60.7056 41.5756 61.899C41.2895 62.009 41.0388 62.1955 40.8509 62.4384C40.4867 62.9572 40.3165 63.5883 40.3701 64.2207C40.4237 64.8531 40.6978 65.4463 41.144 65.8958C42.1863 66.8195 43.139 66.7132 44.2789 65.6752C45.826 64.2366 47.3894 62.8307 48.9446 61.4004C49.1645 61.196 49.4576 60.9917 49.5472 60.7301C49.8484 59.9618 50.0031 59.1445 50.2067 58.3271L50.1497 58.3435ZM54.449 68.3888C52.5518 68.2907 52.0795 66.4598 50.6708 65.6343C50.0031 66.9584 49.3192 68.2171 48.7329 69.5086C48.6022 69.8114 48.5786 70.15 48.666 70.4681C48.7534 70.7863 48.9465 71.0649 49.2133 71.2577C50.7185 72.6539 52.5829 73.5996 54.5955 73.9877C54.8145 74.016 55.0361 74.016 55.2551 73.9877C55.0352 72.0669 54.7746 70.2687 54.5059 68.3888H54.449ZM43.6194 66.8195C44.5476 68.822 46.3227 70.0889 47.9023 69.9336C49.1726 68.6258 49.4169 66.6642 50.4998 65.3973L49.4087 61.4249C47.3952 63.1098 45.4811 64.911 43.6764 66.8195H43.6194ZM56.0042 44.9306H56.2403C58.0235 40.149 58.2434 35.0324 59.2531 30.0628C59.0364 30.3035 58.8628 30.5801 58.7401 30.8802C58.2434 32.1471 57.7711 33.4222 57.2744 34.6891C56.2732 37.0854 55.8331 39.6803 55.9879 42.2742C56.1182 43.1814 56.0612 44.056 56.0612 44.9306H56.0042ZM94.3719 18.8323C94.3149 18.2357 94.3067 17.639 93.7286 17.3693C93.4652 17.243 93.1677 17.2074 92.8822 17.268C92.5966 17.3286 92.3389 17.4819 92.149 17.7044C91.8575 17.983 91.6321 18.3238 91.4894 18.7015C91.3565 19.0539 91.3674 19.4448 91.5198 19.7891C91.6723 20.1335 91.954 20.4035 92.3037 20.5406C92.6612 20.6641 93.0528 20.6417 93.394 20.4781C93.7352 20.3145 93.9986 20.0228 94.1276 19.666C94.2511 19.3971 94.3519 19.1182 94.4289 18.8323H94.3719ZM3.68018 34.7136C3.86518 34.6956 4.04463 34.6401 4.2077 34.5506C4.37077 34.4611 4.51406 34.3393 4.62896 34.1926C4.74387 34.046 4.82799 33.8775 4.87624 33.6973C4.92449 33.5171 4.93587 33.329 4.90971 33.1443C4.92521 32.9499 4.9016 32.7543 4.84031 32.5692C4.77901 32.3842 4.68127 32.2133 4.5529 32.0669C4.42453 31.9205 4.26815 31.8015 4.09304 31.717C3.91794 31.6325 3.72769 31.5842 3.53362 31.5749C3.14832 31.6261 2.79763 31.8248 2.55484 32.1294C2.31205 32.4341 2.19594 32.8211 2.2308 33.2097C2.22072 33.4057 2.25094 33.6017 2.31957 33.7855C2.38819 33.9693 2.49375 34.1369 2.62971 34.278C2.76566 34.4191 2.92909 34.5306 3.10982 34.6055C3.29054 34.6804 3.48468 34.7172 3.68018 34.7136ZM92.9469 7.25035C92.989 6.74326 92.8837 6.23481 92.6438 5.78656C92.4039 5.33831 92.0397 4.96948 91.5953 4.72471C91.4135 4.62834 91.2042 4.59768 91.0026 4.63786C90.8009 4.67805 90.6192 4.78663 90.4879 4.9454C90.2693 5.26997 90.1634 5.65778 90.1866 6.04883C90.2878 6.36968 90.4802 6.6538 90.7403 6.86619C91.0136 7.17117 91.3289 7.43539 91.6767 7.65086C91.9128 7.79798 92.2792 7.95328 92.4909 7.86337C92.7026 7.77346 92.8492 7.37296 92.9469 7.25035ZM94.2579 11.6396C94.2579 10.7405 93.6879 10.0048 93.0691 10.0048C92.7093 10.0959 92.3912 10.3077 92.1676 10.6049C91.944 10.9022 91.8283 11.2672 91.8395 11.6396C91.8458 12.0129 91.9887 12.3708 92.241 12.6452C92.4932 12.9195 92.8373 13.0911 93.2075 13.1272C93.8019 13.119 94.266 12.4569 94.2579 11.6396ZM55.6704 40.9909H55.4912C55.1655 42.5194 54.8479 44.0478 54.5141 45.6417L55.6704 46.0667V40.9909ZM14.2085 48.0938C13.8828 48.5515 13.8502 48.9765 14.2085 49.2871C14.5689 49.628 14.9847 49.9044 15.438 50.1045C15.5764 50.1617 15.9673 49.941 16.0731 49.7448C16.1317 49.6297 16.1623 49.5022 16.1623 49.3729C16.1623 49.2436 16.1317 49.1162 16.0731 49.001C15.5683 48.5188 15.0879 47.9303 14.2085 48.0938ZM88.7698 2.13368C88.6434 2.12116 88.5158 2.13527 88.3952 2.17512C88.2745 2.21497 88.1635 2.27967 88.0692 2.36508C87.975 2.45049 87.8995 2.55472 87.8476 2.67111C87.7958 2.7875 87.7688 2.91347 87.7683 3.04095C87.7808 3.26213 87.8772 3.4701 88.0377 3.62212C88.1982 3.77415 88.4107 3.85867 88.6314 3.85831C88.7583 3.87183 88.8866 3.85984 89.0089 3.82302C89.1311 3.78621 89.2448 3.72531 89.3434 3.64389C89.4419 3.56248 89.5233 3.46216 89.5828 3.34881C89.6423 3.23547 89.6787 3.11136 89.6899 2.98374C89.6957 2.86413 89.6753 2.74471 89.63 2.63391C89.5848 2.52312 89.5158 2.42365 89.428 2.34256C89.3403 2.26147 89.2358 2.20073 89.122 2.16464C89.0083 2.12854 88.8881 2.11797 88.7698 2.13368ZM91.6767 25.4693C92.4909 25.0851 92.8981 24.5947 92.8492 23.9653C92.8492 23.4586 92.3851 23.0417 92.092 23.2951C91.7411 23.6415 91.4641 24.0558 91.2777 24.513C91.2228 24.5988 91.1894 24.6967 91.1805 24.7984C91.1717 24.9 91.1876 25.0023 91.2268 25.0964C91.2661 25.1905 91.3276 25.2736 91.4059 25.3386C91.4843 25.4035 91.5772 25.4484 91.6767 25.4693ZM4.38857 35.5964C4.25511 35.8721 4.22113 36.1858 4.29241 36.484C4.36369 36.7821 4.53582 37.0462 4.77943 37.2311C4.84875 37.3056 4.93258 37.365 5.02573 37.4056C5.11888 37.4462 5.21936 37.4671 5.32091 37.4671C5.42246 37.4671 5.52292 37.4462 5.61607 37.4056C5.70922 37.365 5.79305 37.3056 5.86237 37.2311C6.07408 36.0214 5.6344 35.5065 4.35602 35.5964H4.38857ZM8.63898 40.7702C8.05272 41.5304 8.05273 42.078 8.59828 42.5112C8.72697 42.6017 8.87398 42.6626 9.02882 42.6894C9.18365 42.7163 9.34249 42.7084 9.49397 42.6665C9.58204 42.6292 9.65982 42.571 9.72074 42.497C9.78165 42.4231 9.82389 42.3354 9.84387 42.2416C9.86384 42.1477 9.86097 42.0504 9.83549 41.9579C9.81002 41.8654 9.7627 41.7804 9.69753 41.7102C9.36894 41.3642 9.00912 41.0496 8.62271 40.7702H8.63898ZM18.7439 52.3604C18.7439 51.8781 18.5973 51.543 18.2065 51.543C17.9785 51.543 17.7424 51.7637 17.4981 51.8945C17.7912 52.6056 18.1495 52.7282 18.7113 52.3604H18.7439Z" fill="#868C96"/>
<path opacity="0.9" d="M78.4612 38.8249L79.4301 38.0076C80.0571 38.3182 80.0246 38.6696 79.6826 39.0129C79.3406 39.3562 78.9497 39.4461 78.4612 38.8249Z" fill="#868C96"/>
<path opacity="0.9" d="M93.183 47.8813C94.3962 48.2082 94.9662 48.9275 94.8115 49.8347C94.7301 50.2516 94.5672 50.6521 94.0624 50.6521C93.951 50.6718 93.8368 50.668 93.727 50.641C93.6172 50.6139 93.5142 50.5642 93.4246 50.495C93.335 50.4258 93.2607 50.3386 93.2065 50.239C93.1523 50.1394 93.1193 50.0296 93.1097 49.9165C92.9632 49.2789 92.6049 48.5678 93.183 47.8813Z" fill="#868C96"/>
<path opacity="0.9" d="M90.9113 43.6146C90.2436 44.3339 89.6736 44.293 88.6069 43.4348C88.6965 42.7237 88.8431 42.5766 89.5026 42.5275C90.3088 42.4949 90.6426 42.7973 90.9113 43.6146Z" fill="#868C96"/>
<path opacity="0.9" d="M81.6775 32.3024C82.4103 31.9509 83.0047 31.1826 83.9167 31.8365C84.0414 32.0631 84.0779 32.3281 84.0193 32.5803C83.9606 32.8324 83.8109 33.0537 83.5991 33.2015C83.3625 33.3618 83.0902 33.4614 82.8062 33.4913C82.5222 33.5212 82.2353 33.4806 81.9706 33.3731C81.6693 33.2015 81.6449 33.0952 81.6775 32.3024Z" fill="#868C96"/>
<path opacity="0.9" d="M85.1627 11.8684L86.5063 12.2526C86.6487 12.4288 86.7187 12.653 86.702 12.8793C86.6854 13.1056 86.5833 13.3171 86.4167 13.4704C86.035 13.8436 85.5841 14.138 85.0894 14.3368C84.9635 14.3647 84.8328 14.3622 84.7081 14.3294C84.5833 14.2967 84.4681 14.2346 84.3719 14.1484C84.2757 14.0622 84.2013 13.9543 84.1547 13.8336C84.1082 13.7129 84.0909 13.5828 84.1042 13.4541C84.1531 12.8002 84.2671 12.1463 85.1627 11.8684Z" fill="#868C96"/>
<path opacity="0.9" d="M84.2426 20.9084C84.1483 20.8248 84.0746 20.7205 84.0272 20.6035C83.9799 20.4865 83.9601 20.3601 83.9696 20.2342C83.9791 20.1083 84.0175 19.9863 84.0818 19.8778C84.1461 19.7693 84.2346 19.6772 84.3403 19.6088C84.5421 19.3859 84.8144 19.2398 85.1111 19.1952C85.4078 19.1505 85.7107 19.21 85.9688 19.3636C86.1887 20.7286 85.7083 21.2027 84.2426 20.9084Z" fill="#868C96"/>
<path opacity="0.9" d="M84.2262 27.6026C83.8583 27.5597 83.4937 27.4914 83.1351 27.3983C82.9826 27.3705 82.8422 27.2964 82.7329 27.186C82.6237 27.0756 82.5508 26.9342 82.5242 26.7809C82.4976 26.6276 82.5184 26.4698 82.584 26.3288C82.6496 26.1878 82.7567 26.0703 82.8909 25.9924C83.6755 25.3859 84.6451 25.0711 85.6349 25.1015C86.0665 25.1015 86.4492 25.2404 86.6039 25.69C86.6952 25.9136 86.7078 26.1618 86.6398 26.3936C86.5717 26.6254 86.4269 26.8269 86.2293 26.965C85.6501 27.3939 84.9457 27.6181 84.2262 27.6026Z" fill="#868C96"/>
<path opacity="0.9" d="M93.2318 54.3139C93.8425 55.1312 93.126 55.6135 92.8166 56.1529C92.328 56.3164 91.8476 56.3736 91.644 55.875C91.5096 55.5422 91.5096 55.1698 91.644 54.837C91.9535 54.2403 92.4908 54.1259 93.2318 54.3139Z" fill="#868C96"/>
<path opacity="0.9" d="M80.9612 10.3073C80.3831 9.99668 80.4238 9.56348 80.7576 9.13028C81.0108 8.78644 81.3491 8.51502 81.739 8.34297C82.129 8.17092 82.557 8.1042 82.9805 8.14945C83.1722 8.13475 83.3624 8.19301 83.5133 8.31265C83.6641 8.43229 83.7646 8.60455 83.7948 8.79516C83.8208 8.98221 83.7733 9.17206 83.6624 9.3246C83.5514 9.47713 83.3858 9.58038 83.2004 9.61252C82.4513 9.8659 81.7103 10.1029 80.9612 10.3073Z" fill="#868C96"/>
<path opacity="0.9" d="M83.3874 62.9207C83.004 63.0368 82.6119 63.1215 82.2149 63.174C82.0246 63.1763 81.8409 63.1043 81.7026 62.9731C81.5644 62.8419 81.4823 62.6619 81.4739 62.4711C81.4731 62.2665 81.5488 62.069 81.6859 61.9177C81.8231 61.7663 82.0119 61.6722 82.2149 61.6538C82.8337 61.5475 83.2408 61.9235 83.3874 62.9207Z" fill="#868C96"/>
<path opacity="0.9" d="M75.3916 62.2259C76.3932 63.2476 76.3932 63.2476 76.3606 63.8606C76.2264 63.9559 76.074 64.0221 75.913 64.0552C75.752 64.0883 75.5859 64.0876 75.4253 64.053C75.2646 64.0185 75.1128 63.9508 74.9795 63.8544C74.8461 63.758 74.7342 63.6349 74.6507 63.4928C74.4064 62.9615 74.6262 62.5529 75.3916 62.2259Z" fill="#868C96"/>
<path opacity="0.9" d="M73.3724 11.7377C73.2791 11.3031 73.3509 10.8492 73.5739 10.465C73.7968 10.0809 74.1548 9.79435 74.5775 9.66158C74.6748 9.65994 74.7708 9.68295 74.8569 9.7285C74.9429 9.77405 75.0162 9.84066 75.0697 9.92216C75.1233 10.0037 75.1555 10.0974 75.1634 10.1947C75.1713 10.2921 75.1546 10.3898 75.1149 10.4789C74.988 10.8428 74.7529 11.1587 74.4412 11.3838C74.1295 11.609 73.7564 11.7325 73.3724 11.7377Z" fill="#868C96"/>
<path opacity="0.9" d="M87.6055 59.4469C88.3057 59.218 88.835 59.308 89.0711 59.9128C89.1136 60.0666 89.121 60.228 89.0928 60.3851C89.0646 60.5422 89.0015 60.6908 88.9082 60.8201C88.7895 60.9007 88.6517 60.9485 88.5088 60.9585C88.3658 60.9685 88.2227 60.9405 88.094 60.8773C87.8519 60.7406 87.6684 60.5193 87.5783 60.2555C87.4882 59.9918 87.4979 59.704 87.6055 59.4469Z" fill="#868C96"/>
<path opacity="0.9" d="M21.8383 46.2711C19.8759 46.7124 19.6805 46.598 19.3955 44.8407C19.8922 44.1541 20.2097 44.0233 20.7797 44.3339C21.1656 44.4653 21.4884 44.7372 21.6844 45.0958C21.8803 45.4545 21.9353 45.8738 21.8383 46.2711Z" fill="#868C96"/>
<path opacity="0.9" d="M25.9255 50.0391C26.1861 49.8644 26.4831 49.7522 26.7937 49.7111C27.1043 49.67 27.4202 49.7011 27.7169 49.8021C27.8601 49.8661 27.9846 49.9658 28.0787 50.0916C28.1727 50.2175 28.2332 50.3654 28.2543 50.5213C28.2084 50.6718 28.1288 50.8098 28.0215 50.9245C27.9142 51.0393 27.7822 51.1278 27.6355 51.1834C27.0492 51.3877 26.2268 50.8156 25.9255 50.0391Z" fill="#868C96"/>
<path opacity="0.9" d="M31.4219 52.8835C32.5293 52.3604 32.969 52.5892 33.5471 53.9624C33.197 54.5182 32.7329 54.273 32.3176 54.0932C31.9023 53.9134 31.2916 53.6763 31.4219 52.8835Z" fill="#868C96"/>
<path opacity="0.9" d="M12.059 33.1361C12.0116 33.0246 11.984 32.9057 11.9775 32.7847C12.0105 32.6549 12.057 32.5288 12.116 32.4087C12.4481 32.2817 12.8125 32.2673 13.1536 32.3676C13.4947 32.468 13.7937 32.6776 14.005 32.9645C13.549 33.6265 13.2234 33.6511 12.059 33.1361Z" fill="#868C96"/>
<path opacity="0.9" d="M13.085 35.8906C14.3796 35.6781 14.8112 35.8906 15.3242 36.7652C14.9102 36.9337 14.4478 36.937 14.0315 36.7744C13.6152 36.6118 13.2766 36.2956 13.085 35.8906Z" fill="#868C96"/>
<path opacity="0.9" d="M65.4008 70.3014C65.2222 70.1919 65.0747 70.0382 64.9723 69.855C64.8699 69.6718 64.8162 69.4652 64.8162 69.2552C64.8162 69.0451 64.8699 68.8386 64.9723 68.6554C65.0747 68.4722 65.2222 68.3185 65.4008 68.209C65.987 68.209 66.0766 68.683 66.0929 69.1407C66.1092 69.5985 66.0033 70.1461 65.4008 70.3014Z" fill="#868C96"/>
<path opacity="0.9" d="M61.6145 72.8516C62.0868 72.353 62.5102 72.0342 63.1127 72.4511C62.7707 73.3828 62.4532 73.4809 61.6145 72.8516Z" fill="#868C96"/>
<path opacity="0.9" d="M43.0006 59.7657C42.4306 58.793 42.5853 58.4497 43.538 58.4334C43.766 59.0055 43.4322 59.3406 43.0006 59.7657Z" fill="#868C96"/>
<path opacity="0.9" d="M16.8793 40.5168C16.4684 40.6472 16.0325 40.6774 15.6077 40.6049C15.1829 40.5324 14.7814 40.3593 14.4365 40.1C15.2019 39.1437 16.0487 39.2908 16.8793 40.5168Z" fill="#868C96"/>
<path opacity="0.9" d="M58.9112 71.7318C58.2354 72.5492 57.3885 72.3366 56.8022 71.2332C57.3152 70.7183 58.1051 70.9063 58.9112 71.7318Z" fill="#868C96"/>
<path opacity="0.9" d="M43.5299 62.5774C44.4256 62.749 44.4256 62.749 44.8246 63.5827C44.6373 64.0568 44.3035 64.0159 43.9371 63.8116C43.8234 63.7645 43.7213 63.6933 43.6375 63.603C43.5538 63.5127 43.4904 63.4053 43.4518 63.2881C43.4131 63.171 43.4001 63.0468 43.4136 62.9242C43.4271 62.8015 43.4668 62.6832 43.5299 62.5774Z" fill="#868C96"/>
<path opacity="0.9" d="M50.8582 69.86C51.2313 69.7905 51.6166 69.8306 51.9676 69.9756C52.3186 70.1206 52.6204 70.3643 52.8368 70.6774C52.8368 71.1596 52.617 71.3558 52.2098 71.3231C51.8633 71.2456 51.5485 71.0641 51.3071 70.8028C51.0657 70.5415 50.9091 70.2127 50.8582 69.86Z" fill="#868C96"/>
<path opacity="0.9" d="M46.3716 67.1464C47.0718 66.5334 47.4301 66.6396 47.6988 67.5305C47.1777 67.7839 46.7136 67.882 46.3716 67.1464Z" fill="#868C96"/>
</g>
</svg>
