<svg width="103" height="80" viewBox="0 0 103 80" fill="none" xmlns="http://www.w3.org/2000/svg">
<g opacity="0.9">
<path opacity="0.9" d="M56.4737 46.5408L55.6595 44.3176L59.4946 41.6039C60.585 40.8434 61.8047 40.2894 63.0936 39.9692C64.0556 39.6409 64.9965 39.2533 65.911 38.8086C67.0509 38.3672 68.2071 37.9912 69.3552 37.5662C69.5537 37.4768 69.7467 37.3758 69.9334 37.2638V37.0431C69.5968 36.9823 69.2521 36.9823 68.9156 37.0431C67.8416 37.3541 66.7912 37.7419 65.7725 38.2037C64.4477 38.8887 63.0888 39.5053 61.7012 40.051C60.5555 40.5466 59.464 41.1602 58.4442 41.8819C57.3531 42.5684 56.3109 43.3368 55.2442 44.0806L53.1923 43.3368C53.0294 42.2578 52.8992 41.1462 52.6956 40.0673C52.306 38.0906 51.6226 36.1839 50.6681 34.4112C49.4931 32.0634 48.67 29.5543 48.2253 26.965C48.1599 26.6659 48.0261 26.3861 47.8345 26.1477C47.688 26.4486 47.6045 26.7765 47.5891 27.111C47.5737 27.4456 47.6267 27.7798 47.7449 28.093C48.231 30.2569 49.009 32.3441 50.0574 34.2968C51.0231 35.9439 51.7548 37.7184 52.2315 39.5687C52.5357 40.8667 52.6183 42.2072 52.4757 43.5329C51.1485 43.6964 50.1795 44.5219 49.1699 45.7398C48.95 44.7835 48.7709 44.1051 48.6406 43.443C46.0789 30.261 39.6574 18.1459 30.1977 8.64804C27.5756 5.95418 24.5509 3.68737 21.2328 1.92934C19.5498 0.955395 17.6941 0.319651 15.7692 0.0575911C14.6341 -0.104471 13.4767 0.0773418 12.4453 0.579734C11.4139 1.08213 10.5554 1.88222 9.97977 2.87748C9.11576 4.46643 8.5266 6.191 8.2373 7.9778C7.72063 10.8382 7.43202 13.7354 7.3742 16.6418C7.25661 19.7208 7.7552 22.7922 8.84049 25.6744C9.92578 28.5566 11.5757 31.1911 13.6928 33.4222C15.6063 35.4983 17.5605 37.509 19.5392 39.6259C18.3957 39.8425 17.222 39.8425 16.0786 39.6259C14.0896 39.1784 12.0588 38.9455 10.0205 38.9312C9.17159 38.9376 8.32458 39.0141 7.48816 39.16C6.06049 39.4092 4.77699 40.1846 3.88917 41.3342C1.4464 44.5137 -0.247238 48.0202 0.0296097 52.156C0.213013 54.7653 1.1717 57.2594 2.78179 59.3161C5.10448 62.4076 8.07256 64.9518 11.478 66.7704C13.5137 67.7841 15.7259 68.392 17.9921 68.5604C20.0501 68.8304 22.1373 68.7808 24.1804 68.4133C25.6907 68.1421 27.1161 67.5177 28.3413 66.5906C28.4838 66.4917 28.6584 66.4508 28.8298 66.4762L28.3901 67.4488C27.9585 68.3011 27.722 69.2394 27.698 70.1952C27.7387 71.6255 28.5774 72.1813 29.8721 71.552C30.5366 71.2089 31.1642 70.7981 31.7448 70.3259C32.8929 69.4187 34.0084 68.4623 35.1321 67.5306C35.3845 67.3262 35.6532 67.1301 35.9464 66.9257L36.1092 67.0565C35.9464 67.318 35.7835 67.5878 35.6044 67.8739C34.3342 69.7293 32.9987 71.5438 31.8099 73.4482C31.2489 74.3826 30.824 75.3928 30.5479 76.448C29.9372 78.6875 31.5005 80.4121 33.756 79.9136C36.0256 79.504 38.3231 79.269 40.6283 79.2106C41.6808 79.1535 42.7238 78.9809 43.7388 78.6957C46.7983 77.8748 49.6897 76.519 52.2803 74.6906C53.5668 73.7507 54.8778 72.8352 56.1969 71.928C57.0573 71.3746 58.0217 71.0046 59.0305 70.8409C62.2875 70.2115 65.0641 67.8902 65.2595 64.0323C65.3735 61.6456 64.8036 59.5777 62.8168 58.0492C62.7368 57.9874 62.6703 57.9098 62.6213 57.8213C62.5723 57.7327 62.5419 57.6351 62.5318 57.5343L63.6473 57.8122C66.4729 58.6969 69.449 58.9917 72.3924 58.6786C73.3341 58.5777 74.2657 58.3973 75.1772 58.1391C76.936 57.5997 78.6703 56.9948 80.3884 56.3573C83.6401 55.0995 86.5341 53.059 88.8159 50.4151C90.705 48.3063 92.5697 46.173 94.3122 43.9498C96.0789 41.6535 98.1004 39.5667 100.338 37.7297C101.034 37.1829 101.661 36.5514 102.202 35.8497C102.738 35.1537 103.02 34.2937 102.999 33.4141C102.978 32.5346 102.657 31.6889 102.088 31.0191C101.705 30.5829 101.232 30.2355 100.702 30.0012C100.172 29.7669 99.5977 29.6513 99.0186 29.6623C96.545 29.6282 94.0787 29.9391 91.6903 30.5859C87.6279 31.5605 83.6582 32.8896 79.8266 34.5583C73.2674 37.3825 66.8538 40.5361 60.6101 44.007C59.5109 44.62 58.4605 45.3229 57.3938 45.9768L56.4737 46.5408ZM45.0742 47.4644C44.8869 47.1947 44.7484 47.0067 44.6344 46.8105C43.8691 45.5273 43.1281 44.2195 42.3383 42.9526C40.9964 40.6557 39.2435 38.6274 37.1677 36.9695C34.7521 35.0744 32.5658 32.9018 30.6537 30.496C29.8597 29.5975 29.4399 28.427 29.4812 27.2266C29.5626 25.7962 30.4339 25.1995 31.7448 25.7063C32.0298 25.8207 32.3067 25.9515 32.5591 26.0741C32.9039 26.2669 33.3005 26.3454 33.6924 26.2984C34.0843 26.2515 34.4514 26.0814 34.7413 25.8126C34.8564 25.6959 34.9933 25.6033 35.1443 25.5401C35.2952 25.4769 35.4572 25.4444 35.6207 25.4444C35.7842 25.4444 35.9462 25.4769 36.0971 25.5401C36.248 25.6033 36.385 25.6959 36.5001 25.8126C37.1278 26.3282 37.6911 26.9183 38.1774 27.5699C39.3499 29.2046 40.4574 30.9619 41.5647 32.6784C43.0328 34.732 44.117 37.0362 44.7648 39.4788C45.1808 41.7531 45.7994 43.9852 46.6131 46.1485C46.6131 46.2057 46.6131 46.2792 46.6131 46.4182L45.0742 47.4644ZM42.4034 50.7339C42.0533 50.4559 41.7601 50.2271 41.4833 49.9901C39.1684 48.031 36.5783 46.4253 33.7967 45.2248C31.8669 44.4075 29.9128 43.5901 27.9748 42.7728C26.0369 41.9554 24.0257 41.1381 22.1122 40.1736C20.339 39.1973 18.9471 37.6475 18.1631 35.7762C18.0129 35.5653 17.9249 35.3163 17.909 35.0575C17.8932 34.7988 17.9501 34.5408 18.0735 34.3131C18.3992 34.3703 18.7493 34.4194 19.0913 34.5011C19.9349 34.755 20.791 34.9651 21.6562 35.1305C25.0669 35.5545 28.3407 36.7356 31.24 38.5879C32.5654 39.4153 33.9415 40.1578 35.3601 40.8111C38.0336 42.0784 40.5595 43.6381 42.892 45.4619C43.6859 46.0913 44.2731 46.9455 44.5775 47.914L42.4034 50.7339ZM22.4379 52.2296C20.6954 52.2868 19.1076 52.3767 17.5524 52.3849C14.1895 52.3849 10.8266 52.1969 7.48816 52.7854C6.61695 52.9353 5.73378 53.0037 4.84998 52.9898C4.60222 53.027 4.34938 53.0108 4.10838 52.942C3.86739 52.8733 3.64381 52.7536 3.45262 52.5911C3.26142 52.4286 3.10703 52.227 2.99977 51.9997C2.8925 51.7724 2.83483 51.5248 2.83064 51.2733C2.76534 50.5009 2.76534 49.7244 2.83064 48.952C2.9006 48.1825 3.25903 47.4684 3.8334 46.9541C4.40779 46.4397 5.15528 46.1635 5.9248 46.1812C8.29428 46.3937 10.6637 46.4999 13.0332 46.6634C13.7792 46.6844 14.5225 46.7637 15.2562 46.9004C18.1712 47.538 21.07 48.2246 23.9687 48.903C24.1451 48.9676 24.3122 49.0555 24.4654 49.1645C23.4476 49.9492 22.1692 50.4723 22.4542 52.2214L22.4379 52.2296ZM51.7511 50.5458L51.6534 50.3252C52.72 49.5732 53.7623 48.7722 54.9104 48.0774C57.7578 46.3323 60.7554 44.8469 63.8672 43.6392C66.1308 42.7401 68.4351 41.9472 70.7639 41.1871C71.6486 40.8101 72.6416 40.778 73.5487 41.0972C73.7689 41.1413 73.9745 41.2406 74.1465 41.3856C74.3184 41.5307 74.4511 41.717 74.5323 41.9273C74.6135 42.1375 74.6405 42.3649 74.6109 42.5884C74.5813 42.8119 74.496 43.0243 74.3629 43.206C74.1398 43.547 73.949 43.9082 73.7929 44.2849C73.3044 45.9196 72.026 46.737 70.5848 47.4971C68.9261 48.2696 67.1824 48.843 65.3898 49.2054C63.454 49.7058 61.4609 49.9476 59.462 49.9247C57.2825 49.8342 55.0994 49.9711 52.948 50.3333L51.7511 50.5458ZM4.70342 45.7561C4.65019 45.4306 4.68481 45.0966 4.80367 44.789C4.92251 44.4814 5.12127 44.2114 5.37926 44.007C6.4466 42.951 7.68581 42.0858 9.04341 41.4487C9.91528 40.9699 10.9159 40.7811 11.9015 40.9092C13.1753 41.0688 14.4373 41.3118 15.6796 41.6366C20.8175 43.0997 25.646 45.3801 30.5397 47.4808C30.5804 47.4808 30.5804 47.587 30.6456 47.7668L29.5626 47.914C28.4808 47.9544 27.4071 48.1189 26.3626 48.4044C25.3778 48.7699 24.2987 48.7901 23.301 48.4616L22.2262 48.1592C17.6256 46.8407 12.8742 46.1264 8.09075 46.034C7.01593 46.0177 5.9085 45.846 4.73597 45.748L4.70342 45.7561ZM15.1259 27.5944C15.7366 27.8478 16.2007 28.0276 16.6648 28.2401C18.7656 29.1964 20.8419 30.21 22.959 31.1254C26.8186 32.7601 30.8084 34.1496 34.5296 36.1522C37.7515 37.7433 40.4153 40.2804 42.1673 43.4267C42.3871 43.8353 42.5907 44.244 42.8024 44.6609C42.5252 44.6353 42.2603 44.5335 42.037 44.3666C40.84 43.5983 39.6756 42.7319 38.4298 42.0698C35.3112 40.337 32.1601 38.6615 29.0089 36.9859C27.3596 36.108 25.5855 35.4905 23.7488 35.155C22.1203 34.8362 20.4918 34.3948 18.8145 33.9862C16.8765 33.5039 15.8261 32.0572 15.0363 30.3816C14.8422 29.94 14.7495 29.4602 14.765 28.9778C14.7805 28.4953 14.9038 28.0226 15.1259 27.5944ZM14.4745 6.99697C14.7757 7.234 15.1015 7.47103 15.4027 7.72442C16.6404 8.74611 17.8455 9.84955 19.1076 10.7732C23.276 13.792 26.9892 17.3982 30.1326 21.4806C30.2337 21.623 30.3184 21.7766 30.385 21.9383C29.729 21.9911 29.0766 22.0811 28.4308 22.208C27.6654 22.3878 27.6165 23.2215 27.2908 23.8427C27.0806 23.6972 26.8793 23.5389 26.6883 23.3687C23.8547 20.5406 20.4511 18.4155 17.3895 15.8817C16.3717 15.0643 15.2806 14.2469 14.2058 13.495C13.5074 12.9872 12.9912 12.2663 12.7344 11.4399C12.4776 10.6135 12.4939 9.72593 12.7808 8.90959C12.9036 8.48438 13.1193 8.09204 13.4123 7.76116C13.7053 7.43028 14.0682 7.1692 14.4745 6.99697ZM13.1309 13.0618C13.9452 13.6584 14.8246 14.2796 15.6796 14.9417C17.4872 16.3312 19.2297 17.8025 21.0862 19.1184C23.1025 20.5521 25.0079 22.1368 26.786 23.8591C27.139 24.213 27.3895 24.6566 27.5107 25.1423C27.8245 26.7151 28.4175 28.2185 29.2614 29.5806C29.3318 29.7074 29.3943 29.8384 29.4486 29.9729C28.8481 29.6387 28.2809 29.2473 27.755 28.8041C26.3626 27.7824 24.9865 26.728 23.529 25.7962C22.218 24.9789 20.7931 24.2841 19.4577 23.4913C17.7069 22.516 16.0082 21.4492 14.3686 20.2954C13.503 19.6535 12.8116 18.8039 12.3578 17.8243C11.904 16.8447 11.7023 15.7664 11.7711 14.6883C11.82 13.6911 12.0968 13.3724 13.1309 13.0618ZM35.295 35.9478L35.1728 36.1195L33.6176 35.3675C31.9321 34.5501 30.2629 33.7328 28.5448 32.9972C26.4603 32.1062 24.3025 31.3624 22.218 30.4715C20.0033 29.5234 17.8374 28.4608 15.704 27.4228C15.186 27.2466 14.7206 26.9424 14.3506 26.5381C13.9806 26.1339 13.718 25.6426 13.587 25.1096C13.4071 24.1445 13.3117 23.1654 13.3019 22.1835C13.2789 21.8844 13.3528 21.5858 13.5128 21.3324C13.6728 21.079 13.9102 20.8844 14.1895 20.7776C14.3744 20.8428 14.554 20.9221 14.7269 21.0147C17.9839 22.9109 21.3712 24.7255 24.5875 26.7362C26.5111 28.0187 28.3399 29.4391 30.0593 30.9865C31.8507 32.5803 33.5443 34.2968 35.295 35.9478ZM23.5371 54.0033L22.4542 54.4365C21.5341 54.7879 20.614 55.1394 19.6939 55.4745C17.4954 56.2919 15.2969 57.1092 13.0984 57.853C11.7223 58.3353 10.3218 58.744 8.95386 59.2425C8.69149 59.3608 8.40259 59.4073 8.11654 59.3771C7.8305 59.347 7.55751 59.2413 7.32535 59.0709C5.86197 58.1084 4.82168 56.6195 4.41845 54.9106C4.32349 54.4628 4.25551 54.0097 4.21489 53.5537C10.3544 52.4503 16.4287 52.5484 22.4868 52.6301L23.5371 54.0033ZM34.611 23.1071C33.7818 22.8063 32.933 22.5633 32.0705 22.3797C31.7057 22.3251 31.3563 22.1943 31.045 21.9958C30.7336 21.7973 30.4672 21.5355 30.2629 21.2272C27.2597 17.2538 23.6935 13.7428 19.6776 10.8059C18.1712 9.7106 16.7788 8.45187 15.3457 7.24218C15.0775 6.98988 14.8298 6.71657 14.6048 6.42482C14.6654 6.17074 14.8027 5.94169 14.998 5.76903C15.1934 5.59637 15.4371 5.48855 15.6959 5.46033C16.5012 5.31082 17.32 5.2478 18.1386 5.27234C18.922 5.27175 19.6972 5.43166 20.4168 5.74226C21.1365 6.05285 21.7854 6.50762 22.3239 7.07871C23.3417 8.26388 24.5061 9.33462 25.4506 10.577C28.3819 14.4513 31.2481 18.391 34.1306 22.3061C34.2934 22.4941 34.4156 22.7393 34.6354 23.1071H34.611ZM34.0736 54.0605C33.5431 54.4829 33.0399 54.9388 32.5672 55.4255C30.5421 57.5843 28.3234 59.5515 25.9392 61.3023C24.498 62.4384 23.0975 63.6154 21.6644 64.7597C21.3215 65.0311 20.9502 65.264 20.557 65.4545C19.588 65.9367 18.5539 65.6915 17.5442 65.7079C16.8704 65.7657 16.1933 65.6452 15.5804 65.3584C14.9674 65.0715 14.4401 64.6284 14.051 64.0731L14.7839 63.4356C16.2737 62.2501 17.8465 61.1739 19.4903 60.2152C22.0796 58.6622 24.5713 56.9458 27.1117 55.3111C27.4379 55.0705 27.8089 54.8981 28.2028 54.8043C30.1326 54.5346 32.0461 54.3139 34.1224 54.0605H34.0736ZM47.4192 54.2812C47.7775 54.3629 48.1114 54.4201 48.4371 54.51C49.6183 54.8748 50.6224 55.6671 51.2543 56.7333C52.6549 58.8175 53.2981 61.0162 52.4432 63.501C52.0432 64.3183 51.4298 65.0115 50.6684 65.5066C49.907 66.0018 49.0261 66.2803 48.1195 66.3127C47.9172 66.2868 47.718 66.2403 47.5251 66.1738C46.149 65.7324 45.5139 64.6289 45.0823 63.3784C44.2902 61.2713 44.2902 58.9466 45.0823 56.8395C45.3008 56.1574 45.7141 55.5548 46.2711 55.1067L47.4192 54.2812ZM41.6054 52.4258C39.6919 52.6383 37.9739 52.7691 36.2721 53.0306C34.5703 53.2922 32.8197 53.7008 31.0853 53.9788C30.3132 54.0931 29.5286 54.0931 28.7565 53.9788C28.202 53.8608 27.6848 53.6082 27.2501 53.2431C26.8515 52.8729 26.4988 52.4558 26.1998 52.0007C25.8825 51.6854 25.6993 51.2588 25.6887 50.8108C25.678 50.3627 25.8408 49.9279 26.1428 49.5977C26.6367 49.0866 27.2537 48.7122 27.9341 48.5106C29.3934 48.1982 30.8798 48.0312 32.3718 48.012C35.7115 48.1032 38.9565 49.1464 41.7276 51.0199C41.8582 51.1314 41.9757 51.2576 42.0777 51.3959L41.6054 52.4258ZM72.8077 56.4635C72.8077 56.5534 72.8077 56.6515 72.8077 56.7496C72.4657 56.9376 72.1318 57.1665 71.7736 57.3218C70.2341 57.9859 68.528 58.1572 66.888 57.8122C64.5861 57.3874 62.3127 56.8196 60.0809 56.1121C57.1151 55.2643 54.1062 54.5768 51.0671 54.0523C50.1153 53.8895 49.156 53.7749 48.1928 53.709C48.4847 53.4258 48.7568 53.1227 49.007 52.8018C49.361 52.2751 49.8693 51.8719 50.4615 51.6478C51.0538 51.4238 51.7007 51.39 52.3129 51.5512C55.0244 51.9599 57.7765 52.2214 60.4554 52.8508C64.3069 53.7662 68.1013 54.9432 71.912 56.0221C72.2331 56.1369 72.5415 56.2848 72.8321 56.4635H72.8077ZM21.3142 65.4545C22.6008 64.3919 23.757 63.3539 24.9539 62.4711C27.6392 60.5552 30.1465 58.3995 32.4451 56.0303C33.975 54.4034 36.0467 53.3971 38.267 53.2023C39.1131 53.0728 39.975 53.0894 40.8156 53.2513C40.0583 53.8071 39.4314 54.2076 38.8696 54.6899C35.9468 57.0846 33.3271 59.8296 31.069 62.8634C30.6185 63.4575 30.0961 63.9929 29.5138 64.4573C27.8201 65.8959 25.7356 66.0185 23.6593 66.092C22.8344 66.1324 22.0191 65.8998 21.3386 65.43L21.3142 65.4545ZM22.2832 6.25317C23.0975 5.88536 23.5209 5.76276 24.0501 5.95075C26.3463 6.76811 28.5692 7.65085 30.0919 9.7106C31.749 11.914 33.1555 14.2964 34.2853 16.8134C35.0507 18.5544 35.8568 20.2872 36.6222 22.0282C37.1271 23.1807 37.5993 24.3413 38.0716 25.5101C38.1937 25.8126 38.2589 26.1395 38.3647 26.4992C38.2019 26.4992 38.1123 26.4992 38.0879 26.4338C36.7199 24.6683 35.0751 23.1643 33.7805 21.2926C30.4176 16.462 27.1443 11.5497 22.9916 7.32391C22.7293 6.98157 22.5003 6.61481 22.3076 6.22865L22.2832 6.25317ZM13.3264 64.065C10.5498 63.5173 8.61183 61.76 8.66069 59.8147C8.79003 59.7161 8.9292 59.6312 9.07597 59.5613C14.0156 58.0476 18.8679 56.2603 23.6104 54.2076L26.9652 55.025C26.7697 55.1803 26.6231 55.3029 26.4684 55.4091C22.2424 58.4415 17.5116 60.6484 13.4404 64.0241C13.4245 64.0331 13.4082 64.0412 13.3915 64.0486L13.3264 64.065ZM77.9701 43.3449C79.0042 43.1406 80.022 42.879 81.0561 42.7401C82.7986 42.4949 84.5492 42.3232 86.2999 42.1189C87.5783 41.9636 88.8485 41.7756 90.1269 41.653C91.4053 41.5304 91.6984 42.0535 91.2506 43.1733C90.9342 44.0802 90.3954 44.8926 89.6839 45.5354C88.9724 46.1782 88.111 46.6308 87.1793 46.8514C85.7989 47.1924 84.3893 47.4004 82.9696 47.4726C80.193 47.5788 77.4082 47.5216 74.6235 47.538H73.2718C75.2239 46.6109 76.8751 45.1488 78.0352 43.3204L77.9701 43.3449ZM64.2499 50.1535V49.9819C64.6 49.8838 64.942 49.7694 65.2921 49.6795C67.1323 49.2381 68.9726 48.7885 70.8209 48.3717C71.6984 48.1248 72.5988 47.9687 73.5079 47.9058C77.1395 47.8404 80.7711 47.8486 84.4027 47.8404C84.7844 47.8767 85.1628 47.9423 85.5345 48.0366C85.4394 48.3663 85.314 48.6864 85.1599 48.9929C83.6698 51.2324 81.6505 52.6465 78.9146 52.5647C77.2718 52.4488 75.6393 52.2166 74.0291 51.87C71.6352 51.4613 69.2494 50.9791 66.8473 50.5377C65.9517 50.3742 65.0641 50.2761 64.2499 50.1535ZM77.9701 53.1614C77.7142 54.1154 77.1093 54.9373 76.2761 55.4631C75.4428 55.9889 74.4427 56.1798 73.4754 55.9976C72.2296 55.6707 70.9837 55.3437 69.7624 54.9432C65.4137 53.504 60.9482 52.4483 56.4167 51.7882C54.8941 51.5757 53.3633 51.4041 51.8325 51.2079C52.3787 50.9701 52.9535 50.8052 53.5424 50.7175C56.1993 50.3512 58.8843 50.2336 61.5628 50.366C64.1081 50.4084 66.6437 50.693 69.1354 51.2161C71.7166 51.7474 74.3141 52.246 76.8952 52.7691C77.2561 52.8735 77.6098 53.0019 77.9538 53.1532L77.9701 53.1614ZM63.4519 43.3531L63.3298 43.206C63.688 43.0098 64.03 42.7891 64.3883 42.6093C68.8586 40.4515 73.3451 38.2528 77.7991 36.1522C82.3207 34.0187 87.0493 32.3588 91.9101 31.199C92.7244 31.011 93.4979 30.823 94.304 30.7086C94.6648 30.6558 95.0321 30.7407 95.3336 30.9465C95.6351 31.1523 95.8487 31.464 95.9325 31.8202C96.0384 32.425 95.7289 32.8664 94.9554 33.1688C94.69 33.2592 94.4177 33.3276 94.1412 33.3731C93.5142 33.5039 92.8709 33.602 92.2439 33.741C90.6562 34.0924 89.0846 34.5093 87.4887 34.8199C83.5679 35.4655 79.7865 36.7815 76.309 38.7105C75.3843 39.2175 74.4298 39.6679 73.4509 40.0591C72.9788 40.2464 72.4911 40.3914 71.9934 40.4923C70.7151 40.8275 69.4122 41.0727 68.1664 41.4895C66.5624 42.029 65.0071 42.7074 63.4356 43.3204L63.4519 43.3531ZM95.0206 33.6347C96.0465 34.8444 95.8918 35.6127 94.6786 36.0868C93.3106 36.5935 91.9508 37.1248 90.5584 37.5335C87.2118 38.5062 83.8408 39.4134 80.4861 40.337C79.6719 40.5496 78.9146 40.7212 78.1166 40.9174C77.1884 39.5605 75.8937 39.9774 74.713 40.1C80.8932 36.005 87.9854 34.8934 95.0043 33.602L95.0206 33.6347ZM44.0726 59.1445C44.0726 59.6757 44.0726 60.1498 44.0726 60.6239C44.1324 61.2717 43.9495 61.9187 43.5597 62.4384C43.1784 63.0398 42.8409 63.6681 42.55 64.3184C42.1918 65.125 41.7839 65.9085 41.3286 66.6642C40.0258 68.5359 38.6334 70.3505 37.2573 72.1895L34.4319 76.0474C33.1453 76.2109 32.5265 75.7205 32.5509 74.4699C32.5497 73.9605 32.6551 73.4565 32.8604 72.9905C33.2433 72.1902 33.6899 71.4221 34.1957 70.6937C36.9973 66.4471 40.3151 62.5674 44.0726 59.1445ZM10.0612 40.4923C10.2305 40.2063 10.4796 39.9764 10.7778 39.8311C11.0759 39.6858 11.41 39.6315 11.7386 39.675C12.7157 39.7322 13.6928 39.8875 14.6617 39.9937C15.9647 40.1986 17.2775 40.335 18.5946 40.4024C20.0865 40.3804 21.5677 40.6583 22.9509 41.2198C25.1087 42.1271 27.2583 43.0588 29.416 43.9579C32.6246 45.1754 35.7177 46.68 38.6579 48.4534C38.9836 48.6659 39.3011 48.9111 39.6431 49.1482C39.5454 49.2299 39.5128 49.2708 39.4965 49.2708C39.2697 49.2108 39.0468 49.1371 38.8289 49.0501C36.9995 48.2254 35.0398 47.7302 33.0395 47.587C31.6308 47.433 30.2561 47.0521 28.9682 46.4591C28.6262 46.3283 28.2924 46.1566 27.9422 46.0095C25.3203 44.8979 22.7229 43.7372 20.0766 42.691C17.7045 41.6747 15.2066 40.9846 12.6506 40.6395C11.8363 40.5414 11.0302 40.5496 10.0612 40.5005V40.4923ZM34.9367 76.1292C35.3113 75.5652 35.6777 74.9604 36.1011 74.3882C37.2003 72.9088 38.3322 71.4621 39.4233 69.9826C40.9144 68.1623 42.1324 66.1328 43.0385 63.9587C43.2391 63.3141 43.6277 62.7446 44.1541 62.324C44.2254 62.8822 44.3593 63.4306 44.553 63.9587C45.1149 65.0376 44.7241 65.9694 44.3251 66.9748C43.2177 69.7129 42.1673 72.4838 41.1495 75.2628C41.0787 75.5235 40.9484 75.7642 40.7689 75.9656C40.5894 76.1671 40.3656 76.3238 40.1153 76.4234C38.8732 76.8988 37.5374 77.0752 36.2151 76.9384C35.9433 76.9614 35.6715 76.8948 35.4408 76.7488C35.2101 76.6028 35.0331 76.3853 34.9367 76.1292ZM44.3902 35.7271L44.1215 35.8416C44.0319 35.7026 43.9342 35.58 43.8446 35.4411C42.778 33.741 41.7032 32.0408 40.6446 30.3326C40.3107 29.8108 40.0167 29.2643 39.7652 28.6978C38.5846 25.9515 37.4527 23.1725 36.2558 20.4343C35.0588 17.6962 33.9922 14.6638 32.2578 12.0646C32.2414 11.9425 32.2414 11.8188 32.2578 11.6968C32.5347 11.9992 32.7219 12.1954 32.8929 12.3997C36.3098 16.3857 39.2604 20.7516 41.6869 25.4121C42.1788 26.3063 42.5642 27.2555 42.835 28.2401C43.3805 30.7412 43.8447 33.2424 44.3658 35.7271H44.3902ZM62.4178 61.9807C61.5384 61.5639 60.7242 61.1633 59.8773 60.7955C57.7277 59.8883 55.5536 59.0219 53.3633 58.1146C52.9451 57.9834 52.5687 57.7437 52.2722 57.4198C51.5585 56.1455 50.5399 55.0696 49.3083 54.2894C49.4443 54.2313 49.5935 54.2115 49.7398 54.2321C52.3129 54.8125 54.9022 55.3601 57.459 55.9976C58.8936 56.2811 60.2614 56.8358 61.4895 57.6323C61.9744 57.9794 62.3709 58.4363 62.6468 58.9661C62.9226 59.4958 63.0702 60.0834 63.0773 60.6811C63.1227 60.9432 63.0802 61.2129 62.9564 61.4481C62.8326 61.6833 62.6346 61.8706 62.3934 61.9807H62.4178ZM78.369 41.3342C78.4869 41.2539 78.6123 41.1854 78.7436 41.1299C80.1685 40.7048 81.5935 40.3125 83.0266 39.8793C86.4139 38.9475 89.8907 38.31 93.1803 37.0431C93.5138 36.978 93.8566 36.978 94.19 37.0431C94.3396 37.8547 94.1833 38.6932 93.7514 39.3956C93.3196 40.0981 92.6429 40.6142 91.8531 40.8438C89.9966 41.2034 88.1157 41.4405 86.2429 41.7102C84.0336 42.0371 81.8269 42.3505 79.623 42.6502C79.2077 42.7156 78.8087 42.7319 78.369 42.7646V41.3342ZM41.4507 75.5897C41.5175 75.2086 41.6073 74.832 41.7195 74.4618C42.5663 72.1732 43.4294 69.89 44.3088 67.6123C44.5286 67.0238 44.8299 66.468 45.123 65.7896C45.9373 67.0729 46.7515 68.0864 48.2823 68.4378C47.9648 70.375 47.6472 72.2712 47.3296 74.2084C45.522 75.3282 43.7551 76.3499 41.4507 75.5897ZM52.8503 58.3435C53.0294 58.3435 53.1353 58.2944 53.2086 58.3435C55.9526 59.5286 58.6967 60.7056 61.4244 61.899C61.7105 62.009 61.9612 62.1955 62.1491 62.4384C62.5133 62.9572 62.6835 63.5883 62.6299 64.2207C62.5763 64.8531 62.3022 65.4463 61.856 65.8958C60.8137 66.8195 59.861 66.7132 58.7211 65.6752C57.174 64.2366 55.6106 62.8307 54.0554 61.4004C53.8355 61.196 53.5424 60.9917 53.4528 60.7301C53.1516 59.9618 52.9969 59.1445 52.7933 58.3271L52.8503 58.3435ZM48.551 68.3888C50.4482 68.2907 50.9205 66.4598 52.3292 65.6343C52.9969 66.9584 53.6808 68.2171 54.2671 69.5086C54.3978 69.8114 54.4214 70.15 54.334 70.4681C54.2466 70.7863 54.0535 71.0649 53.7867 71.2577C52.2815 72.6539 50.4171 73.5996 48.4045 73.9877C48.1855 74.016 47.9639 74.016 47.7449 73.9877C47.9648 72.0669 48.2254 70.2687 48.4941 68.3888H48.551ZM59.3806 66.8195C58.4524 68.822 56.6773 70.0889 55.0977 69.9336C53.8274 68.6258 53.5831 66.6642 52.5002 65.3973L53.5913 61.4249C55.6048 63.1098 57.5189 64.911 59.3236 66.8195H59.3806ZM46.9958 44.9306H46.7597C44.9765 40.149 44.7566 35.0324 43.7469 30.0628C43.9636 30.3035 44.1372 30.5801 44.2599 30.8802C44.7566 32.1471 45.2289 33.4222 45.7256 34.6891C46.7268 37.0854 47.1669 39.6803 47.0121 42.2742C46.8818 43.1814 46.9388 44.056 46.9388 44.9306H46.9958ZM8.62814 18.8323C8.68513 18.2357 8.69326 17.639 9.27138 17.3693C9.53475 17.243 9.83228 17.2074 10.1178 17.268C10.4034 17.3286 10.6611 17.4819 10.851 17.7044C11.1425 17.983 11.3679 18.3238 11.5106 18.7015C11.6435 19.0539 11.6326 19.4448 11.4802 19.7891C11.3277 20.1335 11.046 20.4035 10.6963 20.5406C10.3388 20.6641 9.94724 20.6417 9.60605 20.4781C9.26485 20.3145 9.00135 20.0228 8.8724 19.666C8.74886 19.3971 8.64809 19.1182 8.57113 18.8323H8.62814ZM99.3198 34.7136C99.1348 34.6956 98.9554 34.6401 98.7923 34.5506C98.6292 34.4611 98.4859 34.3393 98.371 34.1926C98.2561 34.046 98.172 33.8775 98.1238 33.6973C98.0755 33.5171 98.0641 33.329 98.0903 33.1443C98.0748 32.9499 98.0984 32.7543 98.1597 32.5692C98.221 32.3842 98.3187 32.2133 98.4471 32.0669C98.5755 31.9205 98.7319 31.8015 98.907 31.717C99.0821 31.6325 99.2723 31.5842 99.4664 31.5749C99.8517 31.6261 100.202 31.8248 100.445 32.1294C100.688 32.4341 100.804 32.8211 100.769 33.2097C100.779 33.4057 100.749 33.6017 100.68 33.7855C100.612 33.9693 100.506 34.1369 100.37 34.278C100.234 34.4191 100.071 34.5306 99.8902 34.6055C99.7095 34.6804 99.5153 34.7172 99.3198 34.7136ZM10.0531 7.25035C10.011 6.74326 10.1163 6.23481 10.3562 5.78656C10.5961 5.33831 10.9603 4.96948 11.4047 4.72471C11.5865 4.62834 11.7958 4.59768 11.9974 4.63786C12.1991 4.67805 12.3808 4.78663 12.5121 4.9454C12.7307 5.26997 12.8366 5.65778 12.8134 6.04883C12.7122 6.36968 12.5198 6.6538 12.2597 6.86619C11.9864 7.17117 11.6711 7.43539 11.3233 7.65086C11.0872 7.79798 10.7208 7.95328 10.5091 7.86337C10.2974 7.77346 10.1508 7.37296 10.0531 7.25035ZM8.74214 11.6396C8.74214 10.7405 9.31209 10.0048 9.93092 10.0048C10.2907 10.0959 10.6088 10.3077 10.8324 10.6049C11.056 10.9022 11.1717 11.2672 11.1605 11.6396C11.1542 12.0129 11.0113 12.3708 10.759 12.6452C10.5068 12.9195 10.1627 13.0911 9.79251 13.1272C9.1981 13.119 8.734 12.4569 8.74214 11.6396ZM47.3296 40.9909H47.5088C47.8345 42.5194 48.1521 44.0478 48.4859 45.6417L47.3296 46.0667V40.9909ZM88.7915 48.0938C89.1172 48.5515 89.1498 48.9765 88.7915 49.2871C88.4311 49.628 88.0153 49.9044 87.562 50.1045C87.4236 50.1617 87.0327 49.941 86.9269 49.7448C86.8683 49.6297 86.8377 49.5022 86.8377 49.3729C86.8377 49.2436 86.8683 49.1162 86.9269 49.001C87.4317 48.5188 87.9121 47.9303 88.7915 48.0938ZM14.2302 2.13368C14.3566 2.12116 14.4842 2.13527 14.6048 2.17512C14.7255 2.21497 14.8365 2.27967 14.9308 2.36508C15.025 2.45049 15.1005 2.55472 15.1524 2.67111C15.2042 2.7875 15.2312 2.91347 15.2317 3.04095C15.2192 3.26213 15.1228 3.4701 14.9623 3.62212C14.8018 3.77415 14.5893 3.85867 14.3686 3.85831C14.2417 3.87183 14.1134 3.85984 13.9911 3.82302C13.8689 3.78621 13.7552 3.72531 13.6566 3.64389C13.5581 3.56248 13.4767 3.46216 13.4172 3.34881C13.3577 3.23547 13.3213 3.11136 13.3101 2.98374C13.3043 2.86413 13.3247 2.74471 13.37 2.63391C13.4152 2.52312 13.4842 2.42365 13.572 2.34256C13.6597 2.26147 13.7642 2.20073 13.878 2.16464C13.9917 2.12854 14.1119 2.11797 14.2302 2.13368ZM11.3233 25.4693C10.5091 25.0851 10.1019 24.5947 10.1508 23.9653C10.1508 23.4586 10.6149 23.0417 10.908 23.2951C11.2589 23.6415 11.5359 24.0558 11.7223 24.513C11.7772 24.5988 11.8106 24.6967 11.8195 24.7984C11.8283 24.9 11.8124 25.0023 11.7732 25.0964C11.7339 25.1905 11.6724 25.2736 11.5941 25.3386C11.5157 25.4035 11.4228 25.4484 11.3233 25.4693ZM98.6114 35.5964C98.7449 35.8721 98.7789 36.1858 98.7076 36.484C98.6363 36.7821 98.4642 37.0462 98.2206 37.2311C98.1513 37.3056 98.0674 37.365 97.9743 37.4056C97.8811 37.4462 97.7806 37.4671 97.6791 37.4671C97.5775 37.4671 97.4771 37.4462 97.3839 37.4056C97.2908 37.365 97.2069 37.3056 97.1376 37.2311C96.9259 36.0214 97.3656 35.5065 98.644 35.5964H98.6114ZM94.361 40.7702C94.9473 41.5304 94.9473 42.078 94.4017 42.5112C94.273 42.6017 94.126 42.6626 93.9712 42.6894C93.8163 42.7163 93.6575 42.7084 93.506 42.6665C93.418 42.6292 93.3402 42.571 93.2793 42.497C93.2183 42.4231 93.1761 42.3354 93.1561 42.2416C93.1362 42.1477 93.139 42.0504 93.1645 41.9579C93.19 41.8654 93.2373 41.7804 93.3025 41.7102C93.6311 41.3642 93.9909 41.0496 94.3773 40.7702H94.361ZM84.2561 52.3604C84.2561 51.8781 84.4027 51.543 84.7935 51.543C85.0215 51.543 85.2576 51.7637 85.5019 51.8945C85.2088 52.6056 84.8505 52.7282 84.2887 52.3604H84.2561Z" fill="#868C96"/>
<path opacity="0.9" d="M24.5387 38.8249L23.5698 38.0076C22.9428 38.3182 22.9754 38.6696 23.3173 39.0129C23.6593 39.3562 24.0502 39.4461 24.5387 38.8249Z" fill="#868C96"/>
<path opacity="0.9" d="M9.81702 47.8813C8.60378 48.2083 8.0338 48.9276 8.18851 49.8348C8.26994 50.2517 8.43278 50.6522 8.93761 50.6522C9.04897 50.6719 9.16317 50.6681 9.27298 50.6411C9.38279 50.614 9.48582 50.5643 9.57544 50.4951C9.66506 50.4259 9.73931 50.3387 9.79352 50.2391C9.84773 50.1395 9.88069 50.0297 9.89028 49.9166C10.0368 49.279 10.3951 48.5679 9.81702 47.8813Z" fill="#868C96"/>
<path opacity="0.9" d="M12.0888 43.6146C12.7565 44.3339 13.3265 44.293 14.3932 43.4348C14.3036 42.7237 14.157 42.5766 13.4974 42.5275C12.6913 42.4948 12.3575 42.7972 12.0888 43.6146Z" fill="#868C96"/>
<path opacity="0.9" d="M21.3225 32.3023C20.5896 31.9509 19.9952 31.1825 19.0832 31.8364C18.9585 32.0631 18.922 32.3281 18.9806 32.5802C19.0393 32.8323 19.189 33.0537 19.4008 33.2014C19.6374 33.3618 19.9097 33.4613 20.1937 33.4912C20.4777 33.5212 20.7646 33.4806 21.0293 33.3731C21.3306 33.2014 21.355 33.0952 21.3225 32.3023Z" fill="#868C96"/>
<path opacity="0.9" d="M17.8373 11.8684L16.4938 12.2526C16.3514 12.4288 16.2814 12.653 16.298 12.8793C16.3146 13.1056 16.4167 13.3171 16.5834 13.4704C16.965 13.8436 17.416 14.138 17.9106 14.3368C18.0365 14.3647 18.1672 14.3622 18.292 14.3294C18.4167 14.2967 18.5319 14.2346 18.6281 14.1484C18.7243 14.0622 18.7988 13.9543 18.8453 13.8336C18.8919 13.7129 18.9092 13.5828 18.8958 13.4541C18.847 12.8002 18.733 12.1463 17.8373 11.8684Z" fill="#868C96"/>
<path opacity="0.9" d="M18.7575 20.9084C18.8517 20.8248 18.9254 20.7204 18.9728 20.6035C19.0202 20.4865 19.0399 20.3601 19.0305 20.2342C19.021 20.1083 18.9825 19.9863 18.9182 19.8778C18.8539 19.7693 18.7655 19.6772 18.6598 19.6088C18.4579 19.3859 18.1857 19.2398 17.889 19.1951C17.5923 19.1505 17.2893 19.21 17.0312 19.3636C16.8114 20.7286 17.2918 21.2026 18.7575 20.9084Z" fill="#868C96"/>
<path opacity="0.9" d="M18.7739 27.6025C19.1418 27.5596 19.5063 27.4914 19.8649 27.3982C20.0175 27.3704 20.1579 27.2963 20.2671 27.1859C20.3764 27.0755 20.4492 26.9341 20.4759 26.7808C20.5025 26.6275 20.4816 26.4697 20.4161 26.3287C20.3505 26.1877 20.2434 26.0703 20.1092 25.9923C19.3246 25.3858 18.3549 25.071 17.3652 25.1014C16.9336 25.1014 16.5509 25.2403 16.3962 25.6899C16.3049 25.9135 16.2922 26.1617 16.3603 26.3935C16.4284 26.6253 16.5732 26.8269 16.7708 26.965C17.35 27.3938 18.0543 27.618 18.7739 27.6025Z" fill="#868C96"/>
<path opacity="0.9" d="M9.76821 54.3138C9.15752 55.1312 9.87402 55.6134 10.1834 56.1529C10.672 56.3164 11.1524 56.3736 11.356 55.875C11.4904 55.5421 11.4904 55.1698 11.356 54.8369C11.0466 54.2403 10.5092 54.1258 9.76821 54.3138Z" fill="#868C96"/>
<path opacity="0.9" d="M22.0389 10.3073C22.617 9.99674 22.5763 9.56354 22.2425 9.13034C21.9893 8.7865 21.6509 8.51508 21.261 8.34303C20.8711 8.17098 20.4431 8.10427 20.0196 8.14951C19.8278 8.13481 19.6377 8.19307 19.4868 8.31271C19.3359 8.43235 19.2354 8.60461 19.2053 8.79523C19.1793 8.98227 19.2268 9.17212 19.3377 9.32466C19.4486 9.47719 19.6143 9.58044 19.7997 9.61258C20.5488 9.86597 21.2898 10.103 22.0389 10.3073Z" fill="#868C96"/>
<path opacity="0.9" d="M19.6125 62.9207C19.9959 63.0369 20.388 63.1216 20.785 63.1741C20.9753 63.1764 21.159 63.1044 21.2973 62.9732C21.4355 62.842 21.5176 62.662 21.526 62.4712C21.5268 62.2666 21.4511 62.0691 21.3139 61.9178C21.1768 61.7664 20.988 61.6723 20.785 61.6539C20.1662 61.5476 19.7591 61.9236 19.6125 62.9207Z" fill="#868C96"/>
<path opacity="0.9" d="M27.6085 62.2258C26.6069 63.2475 26.6069 63.2475 26.6395 63.8605C26.7737 63.9558 26.9261 64.022 27.0871 64.0551C27.2481 64.0882 27.4141 64.0875 27.5748 64.0529C27.7355 64.0184 27.8873 63.9507 28.0206 63.8543C28.154 63.7579 28.2659 63.6348 28.3494 63.4927C28.5937 62.9615 28.3739 62.5528 27.6085 62.2258Z" fill="#868C96"/>
<path opacity="0.9" d="M29.6277 11.7376C29.721 11.303 29.6492 10.849 29.4262 10.4649C29.2032 10.0808 28.8453 9.79423 28.4226 9.66146C28.3253 9.65981 28.2293 9.68283 28.1432 9.72838C28.0572 9.77393 27.9839 9.84054 27.9304 9.92204C27.8768 10.0035 27.8446 10.0973 27.8367 10.1946C27.8288 10.2919 27.8455 10.3897 27.8852 10.4788C28.0121 10.8426 28.2472 11.1585 28.5589 11.3837C28.8706 11.6088 29.2437 11.7324 29.6277 11.7376Z" fill="#868C96"/>
<path opacity="0.9" d="M15.3946 59.4469C14.6943 59.2181 14.1651 59.308 13.9289 59.9128C13.8864 60.0666 13.879 60.2281 13.9072 60.3851C13.9354 60.5422 13.9985 60.6909 14.0918 60.8201C14.2105 60.9007 14.3483 60.9485 14.4913 60.9585C14.6342 60.9686 14.7773 60.9406 14.906 60.8773C15.1481 60.7406 15.3317 60.5193 15.4218 60.2556C15.5118 59.9918 15.5022 59.704 15.3946 59.4469Z" fill="#868C96"/>
<path opacity="0.9" d="M81.1618 46.271C83.1242 46.7123 83.3196 46.5979 83.6046 44.8406C83.1079 44.154 82.7904 44.0232 82.2204 44.3338C81.8345 44.4652 81.5117 44.7371 81.3157 45.0957C81.1198 45.4543 81.0648 45.8737 81.1618 46.271Z" fill="#868C96"/>
<path opacity="0.9" d="M77.0745 50.039C76.8139 49.8643 76.5169 49.7521 76.2063 49.711C75.8957 49.6699 75.5798 49.701 75.2831 49.8019C75.1399 49.866 75.0154 49.9656 74.9213 50.0915C74.8273 50.2174 74.7668 50.3653 74.7457 50.5212C74.7916 50.6717 74.8712 50.8096 74.9785 50.9244C75.0858 51.0392 75.2178 51.1277 75.3645 51.1833C75.9508 51.3876 76.7732 50.8155 77.0745 50.039Z" fill="#868C96"/>
<path opacity="0.9" d="M71.5781 52.8836C70.4707 52.3605 70.031 52.5893 69.4529 53.9625C69.803 54.5183 70.2671 54.2731 70.6824 54.0933C71.0977 53.9135 71.7083 53.6764 71.5781 52.8836Z" fill="#868C96"/>
<path opacity="0.9" d="M90.9411 33.136C90.9885 33.0245 91.016 32.9056 91.0225 32.7845C90.9895 32.6547 90.9431 32.5287 90.8841 32.4086C90.5519 32.2816 90.1875 32.2672 89.8465 32.3675C89.5054 32.4679 89.2064 32.6775 88.9951 32.9644C89.451 33.6264 89.7767 33.6509 90.9411 33.136Z" fill="#868C96"/>
<path opacity="0.9" d="M89.9151 35.8905C88.6204 35.678 88.1888 35.8905 87.6759 36.7651C88.0898 36.9336 88.5523 36.9369 88.9685 36.7743C89.3848 36.6117 89.7234 36.2956 89.9151 35.8905Z" fill="#868C96"/>
<path opacity="0.9" d="M37.5993 70.3014C37.7778 70.1919 37.9253 70.0382 38.0277 69.855C38.1301 69.6718 38.1839 69.4653 38.1839 69.2552C38.1839 69.0452 38.1301 68.8386 38.0277 68.6554C37.9253 68.4722 37.7778 68.3185 37.5993 68.209C37.013 68.209 36.9234 68.6831 36.9071 69.1408C36.8908 69.5985 36.9967 70.1461 37.5993 70.3014Z" fill="#868C96"/>
<path opacity="0.9" d="M41.3856 72.8515C40.9133 72.3529 40.4899 72.0341 39.8874 72.451C40.2294 73.3827 40.5469 73.4808 41.3856 72.8515Z" fill="#868C96"/>
<path opacity="0.9" d="M59.9994 59.7656C60.5694 58.793 60.4147 58.4497 59.462 58.4333C59.234 59.0055 59.5679 59.3406 59.9994 59.7656Z" fill="#868C96"/>
<path opacity="0.9" d="M86.1207 40.5168C86.5316 40.6471 86.9675 40.6773 87.3923 40.6048C87.8171 40.5323 88.2186 40.3593 88.5635 40.0999C87.7981 39.1436 86.9513 39.2907 86.1207 40.5168Z" fill="#868C96"/>
<path opacity="0.9" d="M44.0889 71.7318C44.7647 72.5492 45.6115 72.3367 46.1978 71.2332C45.6848 70.7183 44.895 70.9063 44.0889 71.7318Z" fill="#868C96"/>
<path opacity="0.9" d="M59.4702 62.5774C58.5745 62.749 58.5745 62.749 58.1755 63.5827C58.3628 64.0568 58.6966 64.016 59.063 63.8116C59.1766 63.7645 59.2788 63.6934 59.3626 63.603C59.4463 63.5127 59.5097 63.4053 59.5483 63.2881C59.5869 63.171 59.6 63.0469 59.5865 62.9242C59.573 62.8016 59.5333 62.6833 59.4702 62.5774Z" fill="#868C96"/>
<path opacity="0.9" d="M52.1419 69.8601C51.7687 69.7906 51.3834 69.8307 51.0324 69.9757C50.6814 70.1207 50.3796 70.3644 50.1632 70.6775C50.1632 71.1597 50.3831 71.3559 50.7902 71.3232C51.1367 71.2457 51.4515 71.0642 51.6929 70.8029C51.9344 70.5416 52.0909 70.2128 52.1419 69.8601Z" fill="#868C96"/>
<path opacity="0.9" d="M56.6284 67.1464C55.9282 66.5334 55.5699 66.6397 55.3012 67.5306C55.8223 67.784 56.2865 67.8821 56.6284 67.1464Z" fill="#868C96"/>
</g>
</svg>
