<svg width="419" height="784" viewBox="0 0 419 784" fill="none" xmlns="http://www.w3.org/2000/svg">
<path opacity="0.5" d="M204 206C216 196.4 277.667 242.667 307 267C333.667 272 389.6 284 400 292C413 302 402 350 392 368C382 386 355 370 332 361C313.6 353.8 297.667 305.333 292 282C261 284 196.6 281 187 253C175 218 189 218 204 206Z" fill="#D2DFE6"/>
<path opacity="0.5" d="M62 267C60.4 251.8 63.0987 214.421 87 210C114.491 204.915 109.8 259.4 121 273C135 290 139 294 160 326C181 358 157 372 150 399C143 426 111 447 97 444C83 441 72 364 71 345C70 326 64 286 62 267Z" fill="#D2DFE6"/>
<path opacity="0.5" d="M184 116C195.667 123.666 214.4 143.4 196 161C173 183 185 211 163 195C141 179 101 175 119 153C119.103 152.874 119.206 152.748 119.31 152.623C101.244 151.686 84.1524 148.414 92 137C103 121 68 92.9998 86 85.9998C90.9754 84.0649 98.6409 84.7007 107.231 86.7193C103.531 66.2704 88.5238 52.5408 108 48.9997C130 44.9997 124 19.9997 154 37.9997C158.292 40.5752 161.753 43.6369 164.52 47.0028C172.829 35.3616 179.968 14.2846 196 19C213 24 225 -3.00054 223 37.9997C222.814 41.8179 222.454 45.4112 221.953 48.7865C246.204 47.7095 259.314 43.8235 262 68C265 94.9997 275 114 249 121C228.2 126.6 197 120 184 116Z" fill="#D2DFE6"/>
<path d="M302.658 318.061C308.765 332.966 322.699 365.071 337.014 371.377C348.966 376.642 357.628 373.67 375.379 373.67C389.977 373.67 434.93 397.748 427.486 351.885C425.363 338.805 424.341 333.793 421.172 320.927M302.658 318.061C303.039 318.825 311.386 305.306 294.069 257.292C279.181 216.015 241.961 248.692 277.463 280.223C298.365 298.787 322.126 345.005 335.296 334.113C348.466 323.22 339.304 305.448 327.28 292.836C315.255 280.223 338.57 291.58 354.765 267.611C367.935 248.119 327.852 247.546 320.981 266.464C314.11 285.383 349.039 292.836 383.968 292.836C394.275 292.836 416.089 300.289 421.172 320.927M302.658 318.061C302.467 317.487 299.337 310.264 283.762 297.422C264.293 281.37 216.767 280.223 216.767 280.223C216.767 280.223 191.686 281.599 180.692 257.292C166.95 226.907 167.522 210.649 177.257 197.669C184.566 187.923 231.082 182.421 260.285 209.709C289.488 236.996 279.753 238.345 252.268 214.295C224.783 190.244 197.298 151.233 219.057 131.741C252.271 101.988 310.102 150.66 318.691 200.536C328.081 255.065 317.546 265.932 305.521 224.082C288.057 163.303 303.803 144.353 333.006 123.183C336.505 120.646 339.74 118.74 342.74 117.362M421.172 320.927C440.89 325.956 477.646 318.863 488.182 301.435C501.352 279.65 482.456 260.158 465.278 248.119C448.1 236.08 460.697 224.614 449.818 209.135C438.938 193.656 407.445 197.669 375.379 222.894C343.313 248.119 353.62 248.692 389.121 224.614C424.623 200.536 425.768 167.285 420.042 152.953C417.814 147.374 413.012 143.956 407.409 141.487M407.409 141.487C397.499 137.119 385.081 135.722 379.96 130.594C375.173 125.802 369.246 116.925 359.346 114.828M407.409 141.487C416.583 134.99 428.059 126.581 424.623 107.089C421.476 89.2361 402.291 84.731 387.976 87.0242C373.661 89.3173 363.962 95.0502 385.686 95.0502C407.409 95.0502 450.466 97.5131 449.818 71.5453C449.245 48.6136 409.735 31.4149 383.968 54.9199C358.2 78.4248 356.483 86.4509 381.677 66.959C406.872 47.4671 409.162 2.19863 378.242 1.03045C347.893 -0.116141 337.014 31.4149 338.732 46.3205C340.45 61.226 346.176 65.2391 346.176 48.6136C346.176 26.462 334.724 7.90994 320.408 11.3497C306.093 14.7894 313.537 23.3888 300.94 23.9621C288.342 24.5354 282.044 17.6559 274.6 31.9882C267.156 46.3205 271.164 66.959 295.786 73.8385C320.408 80.718 330.143 70.972 303.23 70.972C276.317 70.972 263.076 76.3981 272.882 92.1061C281.471 105.865 284.334 99.0633 288.342 103.076C292.351 107.089 288.915 113.396 292.923 118.555C296.931 123.715 321.554 133.461 328.997 107.089C336.441 80.7179 326.707 80.1446 326.707 93.3304C326.707 106.516 322.699 120.807 327.852 121.995C331.975 122.945 339.495 119.302 342.74 117.362M342.74 117.362C349.317 114.341 354.758 113.856 359.346 114.828M359.346 114.828C359.155 111.102 357.399 102.388 351.902 97.3434C349.897 95.5034 347.941 93.8099 346.176 92.1061M346.176 92.1061C341.891 87.9704 338.732 82.0547 338.732 75.5583C338.732 66.3857 354.765 65.2391 355.337 76.1316C355.91 87.0242 346.176 92.1061 346.176 92.1061Z" stroke="#868C96" stroke-linecap="round" stroke-linejoin="round"/>
<path d="M193.862 113.969C192.144 103.65 182.07 101.175 174.966 101.356C164.805 101.616 155.497 105.943 155.497 115.115C155.497 123.641 167.596 123.141 176.111 123.141C185.846 123.141 195.255 122.336 193.862 113.969Z" stroke="#868C96" stroke-linecap="round" stroke-linejoin="round"/>
<path d="M83.9226 185.63C83.5408 190.79 81.8612 203.173 78.1965 211.428C73.6157 221.748 57.01 254.425 58.1552 264.171C59.9068 279.077 70.7526 273.917 75.3335 282.517C79.9459 291.175 71.8978 303.728 66.1718 299.142C60.4457 294.556 63.8813 282.517 69.0348 288.823C75.0561 296.191 69.0348 331.82 66.1718 340.419C64.6141 345.098 55.8648 357.787 55.8648 364.497C55.8648 371.95 64.4539 378.83 69.0348 374.817C73.6157 370.804 74.7609 362.204 71.8978 362.204C69.6074 362.204 70.7516 389.149 71.8978 391.442C73.0441 393.735 77.2803 397.978 78.1965 401.188C79.8325 406.921 77.0502 415.52 78.1965 417.813C79.3428 420.107 84.8387 425.266 86.213 429.853C87.9308 435.585 83.8315 443.167 89.0761 449.344C98.8104 460.81 148.055 453.357 157.789 436.159C169.795 414.947 152.063 413.8 152.063 420.107C152.063 424.12 183.209 440.286 177.257 461.957C170.958 484.888 138.319 499.794 89.0761 521.579C36.3977 544.884 4.3291 558.27 1.46606 585.788C-2.98691 628.587 10.0552 641.97 31.8143 685.54C49.622 721.198 62.7361 763.126 71.3252 783" stroke="#868C96" stroke-linecap="round" stroke-linejoin="round"/>
<path d="M103.39 435.012C104.345 431.573 108.429 422.973 117.133 416.094C128.012 407.494 141.182 405.201 142.9 398.322C144.618 391.442 144.045 380.55 148.626 368.51C153.207 356.471 159.506 348.445 157.788 336.98C156.07 325.514 140.61 312.901 140.037 299.715C139.609 289.863 143.337 274.89 147.161 265.318M147.161 265.318C148.454 262.08 149.759 259.459 150.917 257.865C155.498 251.559 164.087 231.494 155.498 229.774C148.626 228.398 147.077 252.897 147.161 265.318ZM147.161 306.595C148.222 300.098 151.489 289.396 160.651 276.784C169.017 265.267 170.826 241.258 168.095 229.774C165.232 217.735 160.651 211.429 151.489 211.429C142.328 211.429 138.892 224.614 138.892 231.494C138.892 238.585 141.182 245.253 135.456 245.826C132.021 246.17 122.286 230.935 122.286 219.455C122.286 194.23 134.753 166.772 143.473 151.806C147.481 144.927 156.557 133.573 169.24 130.595C180.405 127.973 201.561 128.919 204.742 143.78C208.178 159.832 198.443 185.057 178.975 192.51C154.617 201.834 157.216 185.057 138.32 179.324C130.629 176.991 121.141 154.1 136.029 139.194C144.337 130.876 156.077 127.459 170.385 125.435C184.128 123.491 195.008 132.364 204.742 128.301C217.069 123.156 228.219 116.262 236.235 116.262C244.252 116.262 269.251 118.892 270.592 104.796C271.737 92.7573 264.866 92.7573 264.866 84.1579C264.866 71.2239 265.434 61.9074 258.567 50.9071C252.841 41.7344 244.824 37.1481 233.372 41.7344C221.92 46.3207 193.862 69.2524 193.29 77.8517C192.717 86.4511 204.169 88.7443 212.758 70.9722C221.348 53.2002 227.048 17.7945 201.879 13.0698C174.393 7.91027 164.659 49.7605 165.804 71.5456C166.95 93.3307 175.539 104.797 178.974 75.5586C182.464 45.8642 159.658 21.2332 144.045 20.5227C131.448 19.9494 133.235 24.6271 123.432 31.9884C114.27 38.868 109.689 37.7214 106.253 43.4543C98.6053 56.2171 113.125 87.5977 132.021 96.7704C150.917 105.943 163.514 103.65 143.473 92.7573C123.432 81.8648 99.3819 81.2916 94.2285 91.6108C89.075 101.93 95.9463 103.49 95.9463 112.823C95.9463 121.995 84.9219 122.023 83.9218 134.034C83.3489 140.914 90.2202 157.539 103.39 158.686C113.595 159.574 119.423 156.01 121.141 155.819" stroke="#868C96" stroke-linecap="round" stroke-linejoin="round"/>
</svg>
