<svg width="398" height="743" viewBox="0 0 398 743" fill="none" xmlns="http://www.w3.org/2000/svg">
<circle opacity="0.5" cx="363.5" cy="226.5" r="15.5" fill="#D2DFE6"/>
<path opacity="0.5" d="M294.998 289C289.398 269.8 229.998 238.333 200.998 225C194.332 246.333 182.598 295.6 188.998 322C196.998 355 243.998 358 261.998 368C276.398 376 272.665 401.333 268.998 413C279.998 379.667 300.598 308.2 294.998 289Z" fill="#D2DFE6"/>
<path opacity="0.5" d="M118.999 271C121.399 275 101.333 304 90.9994 318C81.3327 328.667 60.1994 350.4 52.9994 352C43.9994 354 38.999 353 32.9994 343C28.1996 335 44.3328 319.667 52.9994 313C46.3327 314.667 29.9993 317 17.999 313C2.99856 308 9.99935 308 8.99935 295C7.99935 282 17.9994 288 32.9994 283C44.9994 279 51.3327 289.333 52.9994 295V278C52.9994 271.6 58.9994 264.667 61.9994 262C64.666 267.333 71.5993 278 77.9994 278C85.9994 278 90.9994 265 105.999 262C120.999 259 115.999 266 118.999 271Z" fill="#D2DFE6"/>
<path opacity="0.5" d="M216.999 148C210.999 130 197.999 121 216.999 112C235.999 103 241.998 79 250.998 98C253.589 103.471 257.175 107.946 260.611 112C258.073 107.333 256.798 99.4 271.998 105C290.998 112 302.998 124 302.998 136C302.998 148 299.998 167 291.998 171C283.998 175 271.386 182 265.998 182C260.611 182 263.998 185 271.998 198C279.998 211 283.386 238 271.998 239C260.611 240 248.998 247 232.998 234C216.999 221 209.999 214 216.999 203C222.598 194.2 225.998 182 226.998 177C221.998 190.667 209.998 216 201.998 208C191.998 198 180.998 183 171.998 177C162.998 171 122.998 160 156.998 148C190.998 136 179.999 136 194.999 148C206.999 157.6 214.665 152 216.999 148Z" fill="#D2DFE6"/>
<ellipse opacity="0.5" cx="314.5" cy="486" rx="47.5" ry="25" fill="#D2DFE6"/>
<path d="M202.251 234.145C201.167 242.997 204.526 267.098 213.626 292.681C225.001 324.659 240.71 337.125 257.502 356.095C270.936 371.271 274.474 377.956 273.211 389.157M202.251 234.145C203.514 237.939 222.293 244.876 241.794 253.115C266.169 263.413 265.627 275.337 286.211 313.277C302.678 343.629 285.308 370.006 273.211 389.157M202.251 234.145C214.348 243.539 236.484 274.253 241.794 305.689C247.104 337.125 275.919 336.041 275.378 356.095C274.944 372.138 274.655 378.317 273.211 389.157" stroke="#868C96"/>
<path d="M271.329 411.861C271.329 401.574 287.437 376.35 297.913 360.16C308.54 343.735 312.746 336.466 312.582 312.694C312.428 290.432 303.911 277.129 292.672 266.665C275.515 250.692 230.96 250.405 198.46 220.594C192.862 232.894 182.101 267.89 183.834 289.971C186.001 317.572 212.543 373.981 260.07 369.645C276.246 368.169 265.457 399.415 271.329 411.861ZM271.329 411.861C271.329 426.02 285.558 431.536 292.672 426.17C300.353 420.377 310.764 415.244 308.678 409.476C306.307 402.917 296.48 402.105 292.672 409.476C288.863 416.846 303.671 420.14 310.253 421.128C320.535 422.673 330.687 417.833 338.913 416.185C349.385 414.088 352.207 429.778 346.028 433.921C338.913 438.691 320.125 432.133 315.2 436.903C309.71 442.22 312.236 454.899 318.479 457.771C326.341 461.387 330.629 454.245 340.921 460.159C345.637 462.869 371.667 477.07 371.255 479.129C370.844 481.189 363.321 483.075 358.797 481.839C354.272 480.604 334.596 477.235 331.642 476.742C326.706 475.918 307.785 475.094 300.792 476.742C300.792 476.742 259.128 483.386 264.183 479.129C269.239 474.873 291.087 457.771 298.129 457.771C305.17 457.771 308.112 462.327 313.296 461.785M308.421 484.569C317.862 484.569 342.184 484.157 349.588 484.569C356.992 484.981 370.433 486.956 371.255 489.427C372.078 491.899 341.196 510.565 318.479 510.565C300.792 510.565 285.42 508.554 269.961 494.305C266.769 491.363 264.602 489.905 262.378 486.175C260.753 483.45 298.979 484.569 308.421 484.569Z" stroke="#868C96" stroke-linejoin="round"/>
<path d="M191.763 428.723C191.763 435.227 188.324 463.647 203.138 481.839C212.875 493.796 222.652 505.633 232.568 516.527M191.763 428.723C193.82 419.148 201.397 399.78 215.251 398.913C229.105 398.046 260.747 401.443 274.836 403.249M191.763 428.723C193.453 428.723 200.517 428.723 215.251 428.723C233.668 428.723 229.335 439.021 253.71 436.853C273.211 435.119 275.919 413.728 274.836 403.249M191.763 428.723C199.953 411.199 214.276 372.355 206.043 357.179C195.751 338.209 170.292 334.415 157.291 319.239C146.891 307.098 135.985 295.03 131.832 290.513C128.041 297.92 122.732 320.648 131.832 352.301C140.933 383.954 175.578 416.438 191.763 428.723ZM191.763 428.723C197.064 437.395 201.167 458.642 175.167 474.251C149.166 489.861 117.749 508.939 105.29 516.527C105.11 513.456 104.207 502.977 102.04 485.633C99.8734 468.289 160.953 440.467 191.763 428.723ZM191.763 428.723C183.522 420.232 160.541 403.249 134.541 403.249C108.54 403.249 85.7897 415.535 77.6646 421.677C79.109 420.413 86.6564 421.135 105.29 434.143C128.582 450.403 134.541 450.403 142.666 442.273C149.166 435.769 178.106 430.53 191.763 428.723ZM191.763 428.723C167.633 428.181 116.557 418.208 105.29 382.653C94.0233 347.098 88.6787 321.588 87.4148 313.277M191.763 428.723C174.956 431.975 139.981 425.146 134.541 371.813C129.101 318.48 132.274 291.416 134.541 284.551M191.763 428.723C187.056 431.559 181.224 435.242 175.167 439.315M445.269 338.209C445.269 378.317 450.964 449.801 425.768 481.839C417.632 492.186 408.222 504.496 397.788 516.527M445.269 338.209L397.788 360.431C393.452 353.746 387.381 337.667 397.788 326.827C410.797 313.277 425.423 302.437 442.215 307.857C455.648 312.193 463.701 320.504 466.049 324.117M445.269 338.209L466.049 324.117M397.788 516.527C374.881 542.944 347.036 568.018 316.891 568.018C286.541 568.018 259.06 545.634 232.568 516.527M397.788 516.527C394.535 521.948 389.499 555.073 394.547 592.408C402.681 652.57 423.437 663.591 431.381 682.922M232.568 516.527C234.018 526.826 226.513 571.221 223.376 592.408C214.709 650.944 191.763 675.334 154.583 698.098C133.511 711 96.2622 732.063 79.2896 742M274.836 403.249C296.322 382.1 337.779 335.903 331.712 320.306C324.129 300.811 278.282 248.779 297.586 207.587C316.891 166.395 325.754 176.151 340.379 142.005C352.079 114.688 356.449 97.7411 357.171 92.6824C371.796 107.136 402.672 142.763 409.172 169.647C417.297 203.251 414.589 236.313 407.006 265.039C399.422 293.765 399.422 333.331 381.547 346.881C367.246 357.721 304.448 388.976 274.836 403.249ZM274.836 403.249C300.836 384.098 353.704 342.003 357.171 326.827C360.638 311.651 358.616 296.294 357.171 290.513M87.4148 313.277C85.4286 305.87 81.673 288.995 82.5397 280.757C83.4064 272.518 98.0678 253.476 105.29 244.985C111.068 249.14 120.891 261.353 113.957 276.963C107.024 292.572 93.3733 307.676 87.4148 313.277ZM87.4148 313.277C88.4981 322.672 84.5981 342.003 60.3308 344.171C36.0636 346.339 18.0798 341.1 12.1214 338.209C14.1075 332.608 22.7383 319.781 41.372 313.277C60.0058 306.773 79.8313 310.567 87.4148 313.277ZM87.4148 313.277C82.5397 310.748 71.9228 303.196 68.456 293.223C64.1226 280.757 72.7894 273.169 68.456 259.077C64.9893 247.803 64.4837 235.229 64.6643 230.351C72.2478 229.989 87.4148 233.276 87.4148 249.321C87.4148 263.611 87.4148 291.574 87.4148 307.857M87.4148 313.277C87.4148 311.677 87.4148 309.855 87.4148 307.857M87.4148 313.277C78.3868 305.689 58.8141 288.562 52.7473 280.757C46.6805 272.952 48.4139 256.547 50.0389 249.321C56.1779 252.573 69.8644 262.112 75.4978 274.253C81.1313 286.394 85.7897 301.714 87.4148 307.857M87.4148 313.277C84.7064 301.172 75.4978 275.662 60.3308 270.459C45.1638 265.256 15.9131 270.459 15.9131 270.459C15.9131 270.459 16.8881 286.936 31.6218 298.643C50.0389 313.277 51.664 325.201 64.6643 319.239C75.0645 314.469 84.1647 313.277 87.4148 313.277ZM87.4148 313.277C82.7202 307.496 67.5893 295.391 44.6221 293.223C21.6549 291.055 5.80177 292.32 0.746094 293.223C4.89897 302.076 16.8881 320.215 31.6218 321.949C46.3555 323.683 74.9562 316.89 87.4148 313.277ZM134.541 284.551C126.777 279.131 111.79 264.497 113.957 249.321C116.665 230.351 120.999 202.167 131.832 207.587C142.666 213.007 161.083 220.053 157.291 230.351C153.5 240.649 150.791 247.695 142.666 259.077C136.166 268.182 134.541 279.854 134.541 284.551ZM134.541 284.551C135.624 289.248 140.933 295.825 153.5 284.551C169.208 270.459 189.25 260.161 184.375 249.321C179.5 238.481 160.541 241.733 153.5 254.199C147.866 264.172 138.513 278.589 134.541 284.551ZM134.541 284.551C139.416 290.513 151.766 303.521 162.167 307.857C175.167 313.277 203.876 287.824 180.584 284.551C161.95 281.933 142.124 283.46 134.541 284.551ZM134.541 284.551C149.823 280.757 182.663 270.35 191.763 259.077C203.138 244.985 193.042 217.885 175.167 215.717C160.867 213.982 157.291 232.338 157.291 241.733C166.5 234.325 181.017 217.126 165.417 207.587C157.032 202.459 149.348 198.234 142.666 195.988M134.541 284.551C127.7 274.976 113.247 253.009 110.165 241.733C106.314 227.638 105.29 190.785 110.165 186.449C114.065 182.98 133.458 191.363 142.666 195.988M142.666 195.988C133.809 193.011 126.714 193.511 122.082 199.999C113.957 211.381 109.624 236.855 122.082 230.351C134.541 223.847 156.75 215.825 142.666 195.988ZM466.049 324.117C458.465 305.508 444.815 264.497 450.882 249.321M466.049 324.117C472.91 313.819 488.907 291.489 498.008 284.551C509.383 275.879 513.716 270.459 507.216 224.389C502.016 187.533 502.883 187.352 503.966 191.869C488.799 204.696 456.948 234.145 450.882 249.321M466.049 324.117C466.033 322.981 466.032 321.705 466.049 320.306M466.049 324.117C449.979 312.143 417.731 283.022 417.297 262.329C416.864 241.636 429.034 232.388 435.173 230.351C434.992 235.229 434.74 251.38 435.173 276.963C435.606 302.545 455.937 316.518 466.049 320.306M450.882 249.321C448.534 238.842 440.806 214.308 428.673 199.999C413.506 182.113 422.173 126.286 428.673 113.82C433.873 103.848 441.903 86.1784 445.269 78.5903C448.765 85.275 457.815 101.029 466.049 110.568C476.341 122.492 492.591 140.921 487.174 162.059C482.841 178.969 461.174 227.279 450.882 249.321ZM450.882 249.321C452.995 237.461 456.015 218.358 458.13 199.999M469.029 284.551C470.612 274.203 472.952 263.524 476.341 254.199C487.174 224.389 505.05 228.183 492.591 249.321C482.624 266.231 472.73 279.854 469.029 284.551ZM469.029 284.551C466.909 298.416 466.149 311.686 466.049 320.306M466.049 320.306C458.468 312.543 438.755 297.776 420.548 300.811C402.34 303.846 382.266 304.966 374.505 305.147C376.195 298.282 384.195 284.551 402.672 284.551C421.149 284.551 452.622 308.388 466.049 320.306ZM458.13 199.999C460.17 182.28 461.367 165.253 460.09 156.097C456.84 132.79 436.256 94.8504 442.215 131.164C446.982 160.216 454.811 189.159 458.13 199.999ZM175.167 439.315C156.907 451.592 136.597 467.414 138.874 474.251C142.666 485.633 141.583 489.969 153.5 474.251C163.033 461.677 171.917 445.721 175.167 439.315ZM357.171 290.513C364.935 289.248 381.438 283.467 385.338 270.459C390.214 254.199 379.922 245.527 374.505 237.939C372.964 235.78 371.554 233.051 370.139 230.351M357.171 290.513C353.74 285.635 346.879 273.711 346.879 265.039C346.879 256.367 353.74 240.468 357.171 233.603M357.171 233.603C352.011 234 350.05 228.867 352.569 224.389M357.171 233.603C360.06 233.422 362.046 236.313 346.879 249.321C327.92 265.581 308.42 288.345 306.253 265.039C304.087 241.733 291.086 229.809 312.753 227.099C330.087 224.931 346.519 224.389 352.569 224.389M357.171 233.603C359.585 233.417 364.671 228.902 370.139 222.676M352.569 224.389C353.487 222.756 355 221.211 357.171 220.053C362.985 216.95 366.58 223.56 370.139 230.351M352.569 224.389C343.63 222.943 323.154 219.186 312.753 215.717C299.753 211.381 311.128 191.869 321.962 179.945C332.796 168.021 331.712 176.693 337.129 186.449C342.546 196.205 359.441 219.3 357.171 211.923C354.901 204.545 348.504 195.988 357.171 179.945C365.838 163.901 385.338 177.235 389.672 186.449C392.52 192.505 380.626 210.736 370.139 222.676M370.139 230.351C374.297 236.674 385.648 249.321 397.788 249.321C409.929 249.321 425.768 227.099 425.768 227.099C425.768 227.099 420.548 207.587 407.006 202.709C390.675 196.826 375.206 215.65 370.139 222.676" stroke="#868C96"/>
<path d="M216.113 154.606C211.532 151.008 200.5 149.01 193.019 169.804C189.906 178.456 187.755 186.177 186.301 192.611M216.113 154.606C212.716 150.229 207.105 136.931 211.834 118.763C216.563 100.594 241.089 99.0021 249.365 96.0996M216.113 154.606C216.374 143.414 211.151 122.671 188.177 129.244M183.581 211.113C187.899 212.511 199.877 212.801 213.243 202.785M183.581 211.113C187.815 206.461 199.001 192.624 209.864 174.487C220.728 156.351 225.2 161.174 226.078 165.852C228.409 163.979 232.688 157.026 231.157 144.198C229.625 131.37 229.317 128.791 229.355 129.106C232.466 128.415 239.928 124.589 244.892 114.812C249.856 105.034 250.422 96.93 249.365 96.0996M183.581 211.113C183.598 208.132 184.262 201.638 186.301 192.611M213.243 202.785C226.608 192.768 233.607 183.449 235.435 180.041C237.423 183.312 244.606 193.085 256.218 197.648C262.752 200.216 270.083 197.426 283.328 192.016M213.243 202.785C210.949 204.972 209.956 212.17 224.333 223.463C238.71 234.756 258.985 243.558 267.325 246.548M283.328 192.016C296.573 186.606 300.021 185.472 296.673 179.419C292.884 172.568 290.297 169.385 287.578 167.432M283.328 192.016C284.007 193.689 284.746 199.883 282.274 211.276C279.802 222.669 271.278 239.538 267.325 246.548M249.365 96.0996C251.526 98.4944 254.62 102.387 257.659 107.067M251.423 169.52C253.613 171.81 259.494 177.74 265.504 183.144M188.177 129.244C165.203 135.817 151.216 148.65 147.094 154.245M188.177 129.244C180.452 128.732 175.21 116.921 169.102 101.866C164.215 89.8214 154.409 81.7772 151.928 82.3926C151.59 79.5629 152.237 73.7454 157.526 73.1132C162.816 72.481 169.68 75.1685 172.451 76.5912M188.177 129.244C192.084 129.503 196.082 128.466 199.551 128.221M147.094 154.245C146.374 156.245 148.508 162.878 162.794 173.416C177.081 183.954 184.419 190.603 186.301 192.611M147.094 154.245C146.756 151.415 173.084 150.469 191.274 155.183M267.325 246.548C264.445 241.152 257.854 227.398 254.523 215.55C251.193 203.702 245.765 199.695 243.467 199.172M287.578 167.432C284.599 165.291 281.464 164.626 276.419 162.227C260.25 154.54 246.984 161.759 243.079 163.82C249.263 162.125 262.715 154.968 267.048 139.908C269.968 129.761 263.933 116.733 257.659 107.067M287.578 167.432C287.46 165.107 288.945 158.817 295.825 152.254C302.706 145.692 307.041 133.852 308.348 128.753M308.348 128.753C303.224 127.293 290.718 123.111 281.685 118.068C272.653 113.024 261.904 108.633 257.659 107.067M308.348 128.753C306.459 128.979 300.882 130.411 293.686 134.332C286.49 138.254 284.076 136.757 283.768 135.518M206.711 75.845L218.123 71.1325C217.49 75.1944 220.59 85.3795 219.162 95.8827C217.376 109.012 212.779 118.65 210.283 121.818C209.049 123.384 202.941 127.98 199.551 128.221M206.711 75.845L215.052 61.4541C214.714 58.6244 211.248 56.073 204.853 60.2815C198.457 64.49 197.009 66.7997 197.196 68.3718C196.353 67.9942 193.109 63.0244 188.233 57.4844C183.356 51.9444 175.356 49.9347 175.356 49.9347C175.356 49.9347 171.782 56.1022 170.762 62.4425C169.742 68.7828 172.245 74.8619 172.451 76.5912M206.711 75.845C205.879 76.9012 203.194 80.0922 199.111 84.4071C195.027 88.722 193.46 95.925 193.187 98.9872M172.451 76.5912C172.945 78.4456 177.377 80.4992 184.943 86.1005C192.509 91.7017 193.075 98.044 193.187 98.9872M193.187 98.9872L194.539 110.306L199.551 128.221M230.18 87.8688C229.748 84.2531 227.662 76.4025 222.768 73.9258C216.65 70.83 212.621 53.1343 210.876 38.514C209.48 26.8178 216.235 12.5208 218.36 8.91836C222.438 10.9821 231.756 18.415 236.4 31.6366C241.044 44.8581 240.911 58.7266 240.265 64.0082M230.18 87.8688L221.895 102.731M230.18 87.8688C232.602 81.9998 236.519 72.65 240.265 64.0082M221.895 102.731C228.589 101.294 244.397 96.2152 254.075 87.4048C263.753 78.5945 284.36 70.9404 284.002 53.2131C283.873 46.8399 279.726 37.4603 279.726 37.4603M221.895 102.731C230.207 93.4465 241.122 77.6824 252.346 62.5642C263.57 47.446 279.726 37.4603 279.726 37.4603M279.726 37.4603C279.726 37.4603 257.719 36.2141 249.007 44.9586C243.228 50.7603 243.798 55.8566 240.265 64.0082" stroke="#868C96"/>
<path d="M339.155 357.248C341.683 348.938 344.68 329.823 336.447 319.85C326.155 307.384 290.946 309.552 307.738 330.69C321.171 347.601 334.28 355.442 339.155 357.248ZM339.155 357.248C337.53 348.938 337.747 329.823 351.614 319.85C368.948 307.384 394.406 328.522 371.114 343.698C352.48 355.839 343.308 354.719 339.155 357.248ZM339.155 357.248C340.239 351.467 346.989 351.878 363.531 353.455C386.281 355.623 372.739 395.189 351.614 380.555C338.221 371.277 335.725 361.765 339.155 357.248ZM339.155 357.248C341.864 362.669 342.547 374.822 333.197 386.517C320.196 402.777 288.779 384.349 299.613 370.257C308.279 358.983 329.586 356.887 339.155 357.248ZM339.155 357.248C333.377 349.48 321.194 337.304 306.654 332.316C287.696 325.812 269.279 357.79 299.613 364.837C323.88 370.473 336.086 359.597 339.155 357.248Z" stroke="#868C96"/>
</svg>
