<svg width="413" height="436" viewBox="0 0 413 436" fill="none" xmlns="http://www.w3.org/2000/svg">
<circle opacity="0.5" cx="225.5" cy="191.5" r="14.5" fill="#D2DFE6"/>
<path opacity="0.5" d="M162.5 315C150.1 315 127.667 329.667 118 337C130.167 342.333 157.4 353.5 169 355.5C180.6 357.5 201.167 346 210 340C199.333 331.667 174.9 315 162.5 315Z" fill="#D2DFE6"/>
<path opacity="0.3" d="M9.00001 78C16.5954 53.37 69.4 75.6 75 78C80.6 80.4 84.163 74.0319 89 70.0001C108.855 53.4499 68.702 9.30583 94 4.00003C105.867 1.51115 115.774 3.09188 124 12C137.323 26.4286 109 60 109 60C109 60 143.251 31.794 152 47.0001C156.479 54.7855 152 70.0001 152 70.0001C152 70.0001 123 67.6667 109 85.0001C95 102.333 83.4469 167.948 66 145C56.9412 133.085 61 107 61 107C61 107 30.0263 123.375 17 112C6.72551 103.028 4.98038 91.0348 9.00001 78Z" fill="#D2DFE6"/>
<path d="M83.8752 47.3828L84.3709 47.3175L83.8752 47.3828ZM111.586 1.17053L111.68 1.66156L111.586 1.17053ZM98.3604 114.972L97.8971 114.784L98.3604 114.972ZM53.6452 130.691L53.9052 130.264L53.6452 130.691ZM54.59 103.341L54.2569 102.968L54.59 103.341ZM64.3517 105.227L64.7334 105.55L64.3517 105.227ZM30.0281 74.4186L30.0856 73.9219L30.0281 74.4186ZM116.309 134.149L116.794 134.27L116.309 134.149ZM77.5772 331.573L77.0929 331.448L77.5772 331.573ZM94.2667 391.617L93.8922 391.948L94.2667 391.617ZM275.961 369.297L275.573 369.612L275.961 369.297ZM225.263 366.782L225.762 366.807L225.263 366.782ZM244.472 335.659L244.547 335.165L244.472 335.659ZM267.459 337.546L267.749 337.139L267.459 337.546ZM233.765 306.737L234.254 306.844L233.765 306.737ZM264.31 257.067L264.329 257.567L264.31 257.067ZM292.651 309.252L292.159 309.344L292.651 309.252ZM319.417 372.755L319.225 372.293L319.417 372.755ZM332.642 329.372L332.353 328.964L332.642 329.372ZM297.689 361.123L297.247 361.356L297.579 361.987L298.059 361.46L297.689 361.123ZM189.365 158.984L189.718 158.63L189.365 158.984ZM233.45 203.31L233.436 203.81L233.458 203.81L233.479 203.809L233.45 203.31ZM197.867 193.565L198.263 193.87L197.867 193.565ZM226.523 180.675L226.558 180.177L226.523 180.675ZM203.22 176.903L203.272 176.406L203.22 176.903ZM176.769 197.023L176.275 196.944L176.769 197.023ZM181.493 243.235L181.955 243.045L181.493 243.235ZM178.344 279.387L178.68 279.758L178.344 279.387ZM172.046 289.761L171.972 289.267L172.046 289.761ZM152.837 280.959L152.739 281.449L152.837 280.959ZM140.556 284.103L140.094 284.292L140.556 284.103ZM167.322 303.279L167.717 302.972L167.322 303.279ZM165.748 314.911L165.48 314.489L165.748 314.911ZM134.573 338.174L134.442 337.692L134.573 338.174ZM155.671 332.201L155.753 332.695L155.671 332.201ZM179.288 332.201L179.174 332.688L179.288 332.201ZM197.867 336.602L197.97 336.113L197.867 336.602ZM207.55 345.531C207.794 345.401 207.885 345.098 207.755 344.854C207.624 344.611 207.321 344.519 207.078 344.65L207.55 345.531ZM71.1956 21.5919C72.964 23.9285 75.7041 28.0388 78.1572 32.7519C80.6139 37.4719 82.761 42.7553 83.3795 47.4481L84.3709 47.3175C83.7298 42.4535 81.5208 37.0483 79.0442 32.2902C76.564 27.525 73.7934 23.3674 71.993 20.9884L71.1956 21.5919ZM83.3795 47.4481C84.1698 53.4446 85.3575 58.7499 86.9887 63.119C88.6182 67.4835 90.7028 70.9475 93.308 73.2233L93.9659 72.4702C91.5328 70.3447 89.5237 67.0498 87.9255 62.7692C86.3291 58.4931 85.1551 53.267 84.3709 47.3175L83.3795 47.4481ZM93.308 73.2233C93.6382 73.5117 93.9463 73.739 94.2333 73.8937C94.5155 74.0457 94.817 74.1491 95.1208 74.1332C95.4501 74.1159 95.7219 73.9615 95.9186 73.7164C96.1011 73.4889 96.2102 73.1962 96.2797 72.888C96.4188 72.2717 96.4368 71.4154 96.3836 70.3786C96.3298 69.3308 96.2002 68.0548 96.0227 66.5783C95.3115 60.6615 93.8201 51.4205 93.1915 40.1245L92.193 40.1801C92.824 51.5187 94.324 60.8255 95.0299 66.6976C95.2066 68.1682 95.3329 69.417 95.3849 70.4299C95.4375 71.4536 95.4113 72.1937 95.3043 72.6679C95.2508 72.9049 95.1865 73.0309 95.1386 73.0905C95.105 73.1325 95.0896 73.1334 95.0683 73.1346C95.0216 73.137 94.9091 73.1219 94.7076 73.0133C94.5109 72.9073 94.2655 72.7319 93.9659 72.4702L93.308 73.2233ZM93.1915 40.1245C92.5671 28.9041 95.2966 19.6339 99.143 12.9916C103.007 6.31947 107.945 2.3787 111.68 1.66156L111.492 0.6795C107.343 1.47595 102.205 5.70878 98.2776 12.4905C94.3332 19.3021 91.5578 28.7659 92.193 40.1801L93.1915 40.1245ZM111.68 1.66156C115.563 0.91615 120.681 2.78013 124.821 6.71982C128.942 10.6417 132.023 16.562 131.869 23.7945L132.869 23.8158C133.03 16.2729 129.813 10.09 125.511 5.99543C121.227 1.91871 115.796 -0.146926 111.492 0.6795L111.68 1.66156ZM131.869 23.7945C131.713 31.121 129.836 40.5802 127.25 48.3248C125.957 52.1966 124.495 55.6173 122.995 58.1188C122.245 59.3701 121.495 60.3751 120.765 61.0899C120.031 61.8095 119.354 62.198 118.751 62.293L118.906 63.2808C119.799 63.1401 120.657 62.5952 121.465 61.8044C122.278 61.0087 123.078 59.9261 123.853 58.633C125.404 56.0457 126.894 52.5502 128.199 48.6415C130.809 40.8247 132.71 31.2645 132.869 23.8158L131.869 23.7945ZM118.751 62.293C117.329 62.5171 116.106 62.3614 115.212 61.962C114.321 61.564 113.778 60.9386 113.617 60.2043C113.455 59.4659 113.656 58.5022 114.498 57.385C115.341 56.2668 116.802 55.0314 119.068 53.7947L118.589 52.9169C116.247 54.1952 114.656 55.514 113.699 56.7831C112.742 58.0531 112.397 59.3096 112.64 60.4182C112.884 61.5309 113.694 62.379 114.804 62.875C115.911 63.3696 117.337 63.5282 118.906 63.2808L118.751 62.293ZM119.068 53.7947C123.637 51.3014 132.075 47.9503 139.773 47.1729C143.623 46.7842 147.234 47.0451 150.075 48.3296C152.888 49.6012 154.981 51.8896 155.813 55.664L156.789 55.4488C155.889 51.364 153.585 48.819 150.487 47.4184C147.418 46.0308 143.605 45.7809 139.672 46.178C131.804 46.9725 123.237 50.3804 118.589 52.9169L119.068 53.7947ZM155.813 55.664C157.508 63.3562 155.2 70.5931 150.911 75.9938C146.615 81.4026 140.364 84.9305 134.234 85.2365L134.283 86.2352C140.748 85.9125 147.251 82.2099 151.694 76.6157C156.143 71.0135 158.558 63.4751 156.789 55.4488L155.813 55.664ZM134.234 85.2365C127.984 85.5485 122.859 84.6138 118.639 84.2164C114.473 83.824 111.076 83.942 108.691 86.6638L109.443 87.3229C111.466 85.0147 114.367 84.8184 118.546 85.212C122.67 85.6004 127.938 86.552 134.283 86.2352L134.234 85.2365ZM108.691 86.6638C106.405 89.2712 104.884 93.4635 103.354 98.358C101.813 103.291 100.248 108.994 97.8971 114.784L98.8236 115.16C101.196 109.319 102.78 103.547 104.309 98.6563C105.85 93.7267 107.32 89.7453 109.443 87.3229L108.691 86.6638ZM97.8971 114.784C96.9545 117.105 94.557 119.736 91.2107 122.264C87.8792 124.782 83.6632 127.157 79.1653 128.986C74.6664 130.816 69.9046 132.093 65.4818 132.428C61.0539 132.764 57.0111 132.154 53.9052 130.264L53.3853 131.118C56.7347 133.157 61.0121 133.77 65.5575 133.425C70.1081 133.08 74.9728 131.771 79.542 129.913C84.1121 128.054 88.4057 125.637 91.8136 123.062C95.2068 120.498 97.7787 117.734 98.8236 115.16L97.8971 114.784ZM53.9052 130.264C49.6255 127.658 47.2335 125.032 46.0978 122.514C44.9678 120.008 45.0563 117.553 45.8499 115.226C47.4548 110.519 51.9139 106.401 54.923 103.713L54.2569 102.968C51.283 105.624 46.6067 109.908 44.9034 114.903C44.043 117.427 43.9342 120.149 45.1862 122.925C46.4326 125.688 49.0019 128.449 53.3853 131.118L53.9052 130.264ZM54.923 103.713C56.647 102.174 58.698 100.822 60.6555 99.838C62.6245 98.848 64.4502 98.254 65.7286 98.1811C66.3738 98.1443 66.8005 98.2451 67.0433 98.4113C67.2453 98.5496 67.388 98.7791 67.356 99.2386C67.3219 99.7276 67.0868 100.431 66.5359 101.389C65.9897 102.339 65.155 103.503 63.9699 104.904L64.7334 105.55C65.9416 104.121 66.8166 102.907 67.4028 101.888C67.9843 100.876 68.3042 100.018 68.3536 99.3081C68.405 98.5692 68.1597 97.9636 67.6082 97.5861C67.0975 97.2366 66.4052 97.1409 65.6717 97.1827C64.193 97.267 62.2233 97.9304 60.2063 98.9446C58.1778 99.9645 56.0523 101.364 54.2569 102.968L54.923 103.713ZM63.9699 104.904C58.1188 111.821 47.0316 115.417 35.9576 115.73C30.4344 115.886 24.9489 115.223 20.1709 113.767C15.3882 112.31 11.347 110.069 8.67212 107.093L7.92843 107.762C10.7643 110.916 14.989 113.233 19.8795 114.724C24.7747 116.215 30.3697 116.888 35.9858 116.729C47.1907 116.413 58.6186 112.779 64.7334 105.55L63.9699 104.904ZM8.67212 107.093C3.2284 101.037 -0.0630932 91.9437 2.25068 84.9463C3.39895 81.4736 5.93761 78.4753 10.3674 76.5839C14.8138 74.6855 21.1828 73.8969 29.9705 74.9152L30.0856 73.9219C21.1997 72.8922 14.6383 73.6732 9.97479 75.6642C5.29477 77.6624 2.54418 80.8734 1.30124 84.6323C-1.16741 92.0982 2.35082 101.557 7.92843 107.762L8.67212 107.093ZM29.9705 74.9152C48.4232 77.0535 61.9799 75.482 72.5739 75.5764C77.8864 75.6238 82.4537 76.0869 86.5804 77.61C90.696 79.129 94.4035 81.7138 97.9743 86.0535L98.7465 85.4182C95.0746 80.9556 91.2247 78.2582 86.9267 76.6719C82.6398 75.0896 77.9373 74.6242 72.5828 74.5764C61.8425 74.4807 48.4757 76.0529 30.0856 73.9219L29.9705 74.9152ZM97.9743 86.0535C112.442 103.637 119.541 119.185 115.824 134.027L116.794 134.27C120.635 118.933 113.249 103.044 98.7465 85.4182L97.9743 86.0535ZM115.824 134.027C113.173 144.614 106.502 151.494 100.358 159.6C94.2236 167.693 88.7283 176.902 88.7283 191.993H89.7283C89.7283 177.204 95.0905 168.205 101.155 160.204C107.21 152.215 114.079 145.113 116.794 134.27L115.824 134.027ZM88.7283 191.993C88.7283 208 93.8971 217.68 98.8723 226.274C103.843 234.859 108.558 242.278 107.938 253.897L108.936 253.95C109.575 241.991 104.686 234.32 99.7377 225.773C94.7936 217.233 89.7283 207.737 89.7283 191.993H88.7283ZM107.938 253.897C107.315 265.561 101.536 277.544 94.9098 290.358C88.3023 303.136 80.8692 316.711 77.0929 331.448L78.0616 331.697C81.8032 317.095 89.1702 303.634 95.7981 290.817C102.408 278.035 108.3 265.864 108.936 253.95L107.938 253.897ZM77.0929 331.448C75.3359 338.305 75.3455 348.685 77.8771 359.703C80.4105 370.728 85.4801 382.441 93.8922 391.948L94.6411 391.286C86.3638 381.931 81.3567 370.381 78.8518 359.479C76.345 348.569 76.3547 338.358 78.0616 331.697L77.0929 331.448ZM93.8922 391.948C101.372 400.402 113.828 411.12 127.383 419.727C140.92 428.323 155.642 434.871 167.637 434.871V433.871C155.94 433.871 141.422 427.457 127.919 418.883C114.433 410.319 102.051 399.66 94.6411 391.286L93.8922 391.948ZM167.637 434.871C192.985 434.871 217.673 420.968 229.09 408.937L228.364 408.249C217.108 420.11 192.672 433.871 167.637 433.871V434.871ZM229.09 408.937C234.768 402.953 245.222 391.497 254.931 382.354C259.787 377.78 264.434 373.808 268.187 371.392C270.068 370.182 271.688 369.387 272.973 369.087C274.257 368.787 275.078 369.001 275.573 369.612L276.35 368.982C275.506 367.942 274.202 367.773 272.746 368.113C271.292 368.453 269.558 369.321 267.646 370.551C263.812 373.019 259.11 377.044 254.245 381.626C244.509 390.794 234.022 402.287 228.364 408.249L229.09 408.937ZM275.573 369.612C275.949 370.076 276.167 370.784 276.174 371.738C276.181 372.688 275.979 373.834 275.567 375.116C274.742 377.68 273.102 380.714 270.769 383.666C266.1 389.575 258.734 395.064 249.782 395.834L249.868 396.831C259.18 396.029 266.775 390.334 271.554 384.286C273.945 381.259 275.651 378.121 276.519 375.423C276.952 374.074 277.182 372.818 277.174 371.731C277.166 370.648 276.92 369.685 276.35 368.982L275.573 369.612ZM249.782 395.834C240.707 396.616 234.483 395.037 230.638 390.545C226.767 386.024 225.181 378.415 225.762 366.807L224.764 366.757C224.18 378.412 225.743 386.365 229.878 391.196C234.039 396.056 240.679 397.622 249.868 396.831L249.782 395.834ZM225.762 366.807C226.392 354.237 228.123 346.108 231.156 341.357C232.661 338.999 234.48 337.486 236.644 336.664C238.816 335.839 241.38 335.694 244.397 336.154L244.547 335.165C241.423 334.689 238.673 334.824 236.289 335.729C233.897 336.638 231.917 338.306 230.313 340.819C227.127 345.81 225.394 354.177 224.764 366.757L225.762 366.807ZM244.397 336.154C249.035 336.86 253.13 337.574 256.58 338.186C260.026 338.798 262.84 339.312 264.903 339.615C265.933 339.766 266.791 339.868 267.453 339.901C267.784 339.918 268.078 339.919 268.326 339.898C268.564 339.877 268.806 339.834 269.004 339.734C269.221 339.624 269.44 339.412 269.452 339.076C269.463 338.801 269.324 338.564 269.197 338.395C268.93 338.042 268.431 337.624 267.749 337.139L267.169 337.953C267.849 338.438 268.234 338.779 268.398 338.997C268.486 339.114 268.45 339.116 268.453 339.037C268.458 338.898 268.56 338.838 268.553 338.841C268.527 338.855 268.437 338.884 268.241 338.901C268.055 338.917 267.811 338.918 267.504 338.903C266.89 338.871 266.07 338.776 265.048 338.626C263.005 338.325 260.212 337.816 256.755 337.202C253.302 336.589 249.198 335.873 244.547 335.165L244.397 336.154ZM267.749 337.139C267.143 336.706 266.079 336.224 264.754 335.682C263.416 335.134 261.744 334.498 259.898 333.77C256.193 332.308 251.733 330.452 247.553 328.073C243.369 325.692 239.502 322.806 236.954 319.303C234.419 315.816 233.186 311.716 234.254 306.844L233.277 306.63C232.14 311.818 233.466 316.206 236.146 319.891C238.813 323.559 242.819 326.529 247.058 328.942C251.302 331.357 255.817 333.235 259.531 334.7C261.395 335.436 263.044 336.062 264.375 336.607C265.72 337.158 266.673 337.599 267.169 337.953L267.749 337.139ZM234.254 306.844C237.06 294.038 242.624 281.754 248.503 272.639C251.442 268.08 254.451 264.329 257.221 261.704C258.605 260.391 259.921 259.369 261.129 258.668C262.342 257.965 263.417 257.602 264.329 257.567L264.291 256.567C263.156 256.611 261.918 257.054 260.627 257.803C259.332 258.555 257.955 259.63 256.533 260.978C253.689 263.674 250.631 267.494 247.662 272.097C241.725 281.302 236.111 293.696 233.277 306.63L234.254 306.844ZM264.329 257.567C267.212 257.456 270.076 258.87 272.859 261.571C275.641 264.272 278.295 268.216 280.74 273.049C285.629 282.713 289.632 295.828 292.159 309.344L293.142 309.16C290.604 295.586 286.577 282.372 281.632 272.598C279.161 267.712 276.447 263.661 273.555 260.854C270.665 258.048 267.549 256.442 264.291 256.567L264.329 257.567ZM292.159 309.344C294.361 321.122 295.139 328.774 294.71 335.312C294.282 341.842 292.649 347.289 289.976 354.666L290.917 355.006C293.597 347.607 295.27 342.052 295.708 335.378C296.145 328.712 295.349 320.961 293.142 309.16L292.159 309.344ZM289.976 354.666C287.27 362.137 286.325 372.875 286.05 383.671C285.774 394.47 286.168 405.433 286.168 413.309H287.168C287.168 405.374 286.774 394.487 287.049 383.697C287.325 372.903 288.27 362.31 290.917 355.006L289.976 354.666ZM286.168 413.309C286.168 421.128 287.352 426.646 289.299 430.229C291.258 433.834 294.007 435.5 297.059 435.5V434.5C294.443 434.5 291.997 433.101 290.177 429.751C288.345 426.378 287.168 421.051 287.168 413.309H286.168ZM297.059 435.5C298.199 435.5 299.681 435.027 301.355 434.24C303.044 433.445 304.986 432.302 307.063 430.9C311.219 428.097 315.955 424.237 320.36 419.995C324.764 415.755 328.855 411.119 331.71 406.76C333.137 404.58 334.265 402.457 334.965 400.478C335.664 398.502 335.95 396.636 335.654 394.987L334.669 395.164C334.924 396.58 334.689 398.26 334.022 400.144C333.357 402.024 332.274 404.074 330.873 406.212C328.073 410.488 324.038 415.066 319.667 419.275C315.296 423.482 310.606 427.305 306.504 430.071C304.453 431.455 302.557 432.569 300.929 433.335C299.286 434.108 297.97 434.5 297.059 434.5V435.5ZM335.654 394.987C335.082 391.805 333.392 388.955 331.315 386.447C329.238 383.937 326.748 381.74 324.541 379.87C322.307 377.976 320.414 376.457 319.429 375.252C318.926 374.637 318.764 374.224 318.783 373.963C318.797 373.775 318.928 373.5 319.609 373.217L319.225 372.293C318.41 372.632 317.841 373.139 317.786 373.889C317.736 374.567 318.135 375.249 318.655 375.885C319.716 377.183 321.721 378.79 323.895 380.633C326.097 382.499 328.528 384.648 330.545 387.084C332.562 389.521 334.139 392.215 334.669 395.164L335.654 394.987ZM319.609 373.217C325.006 370.972 330.058 373.706 335.523 377.185C338.221 378.903 341.01 380.791 343.905 382.222C346.808 383.656 349.863 384.653 353.123 384.572L353.098 383.572C350.061 383.648 347.172 382.72 344.348 381.325C341.516 379.926 338.794 378.082 336.06 376.341C330.66 372.904 325.164 369.823 319.225 372.293L319.609 373.217ZM353.123 384.572C356.393 384.49 360.966 382.872 366.062 380.126C371.175 377.371 376.872 373.449 382.407 368.694C393.465 359.192 403.938 346.302 407.754 332.65L406.791 332.381C403.05 345.765 392.74 358.496 381.755 367.935C376.268 372.65 370.63 376.529 365.587 379.246C360.527 381.972 356.126 383.497 353.098 383.572L353.123 384.572ZM407.754 332.65C409.641 325.899 411.044 320.889 411.816 317.184C412.202 315.331 412.435 313.785 412.488 312.499C412.541 311.216 412.418 310.157 412.065 309.298C411.33 307.51 409.694 306.779 407.338 306.468C404.993 306.157 401.732 306.237 397.511 306.237V307.237C401.791 307.237 404.947 307.16 407.207 307.459C409.456 307.757 410.615 308.401 411.14 309.678C411.417 310.351 411.539 311.248 411.489 312.458C411.439 313.665 411.219 315.15 410.837 316.98C410.074 320.644 408.683 325.614 406.791 332.381L407.754 332.65ZM397.511 306.237C389.539 306.237 378.146 308.454 366.317 312.393C354.482 316.334 342.166 322.012 332.353 328.964L332.931 329.78C342.642 322.9 354.863 317.261 366.633 313.342C378.408 309.421 389.687 307.237 397.511 307.237V306.237ZM332.353 328.964C323.764 335.049 315.005 343.008 308.399 349.437C305.094 352.653 302.325 355.489 300.382 357.522C299.411 358.538 298.645 359.354 298.123 359.916C297.862 360.197 297.661 360.414 297.525 360.562C297.458 360.635 297.406 360.691 297.372 360.729C297.354 360.748 297.341 360.763 297.333 360.772C297.328 360.777 297.325 360.781 297.323 360.783C297.321 360.784 297.321 360.785 297.32 360.786C297.32 360.786 297.319 360.787 297.319 360.787C297.319 360.787 297.319 360.787 297.689 361.123C298.059 361.46 298.059 361.46 298.059 361.459C298.059 361.459 298.06 361.459 298.06 361.459C298.06 361.458 298.061 361.457 298.062 361.456C298.064 361.454 298.067 361.45 298.072 361.446C298.08 361.436 298.093 361.422 298.11 361.404C298.144 361.367 298.195 361.311 298.262 361.238C298.396 361.092 298.595 360.876 298.855 360.597C299.375 360.038 300.137 359.226 301.105 358.213C303.042 356.187 305.802 353.359 309.096 350.153C315.688 343.738 324.405 335.821 332.931 329.78L332.353 328.964ZM297.689 361.123C298.131 360.89 298.132 360.891 298.132 360.891C298.132 360.891 298.132 360.892 298.132 360.892C298.132 360.892 298.133 360.893 298.133 360.893C298.133 360.893 298.133 360.894 298.133 360.893C298.133 360.893 298.132 360.891 298.13 360.888C298.127 360.882 298.122 360.869 298.113 360.851C298.097 360.814 298.072 360.754 298.042 360.669C297.981 360.498 297.899 360.229 297.825 359.853C297.678 359.101 297.561 357.921 297.715 356.257C298.021 352.927 299.408 347.652 303.791 339.995L302.923 339.498C298.489 347.244 297.042 352.658 296.719 356.165C296.557 357.92 296.677 359.196 296.844 360.046C296.928 360.47 297.023 360.788 297.1 361.004C297.139 361.112 297.173 361.195 297.198 361.254C297.211 361.283 297.222 361.306 297.23 361.323C297.234 361.332 297.238 361.339 297.241 361.344C297.242 361.347 297.243 361.349 297.244 361.352C297.245 361.353 297.245 361.353 297.246 361.354C297.246 361.355 297.246 361.355 297.246 361.355C297.247 361.356 297.247 361.356 297.689 361.123ZM303.791 339.995C312.632 324.549 317.791 306.087 307.873 290.437L307.028 290.972C316.634 306.13 311.717 324.135 302.923 339.498L303.791 339.995ZM307.873 290.437C305.422 286.569 302.184 282.115 298.732 277.416C295.275 272.712 291.601 267.759 288.261 262.876C284.921 257.991 281.926 253.192 279.827 248.801C277.721 244.396 276.548 240.465 276.775 237.298L275.777 237.226C275.532 240.66 276.799 244.785 278.925 249.232C281.057 253.692 284.085 258.54 287.436 263.44C290.788 268.341 294.474 273.311 297.926 278.008C301.381 282.711 304.599 287.138 307.028 290.972L307.873 290.437ZM276.775 237.298C277.01 234.016 277.734 228.992 278.509 223.007C279.282 217.036 280.1 210.136 280.515 203.143C280.929 196.152 280.94 189.053 280.093 182.687C279.247 176.329 277.538 170.651 274.473 166.544L273.671 167.142C276.589 171.052 278.265 176.534 279.102 182.819C279.937 189.096 279.929 196.125 279.516 203.084C279.104 210.041 278.289 216.914 277.517 222.879C276.747 228.831 276.015 233.906 275.777 237.226L276.775 237.298ZM274.473 166.544C268.476 158.509 261.575 150.659 251.915 145.381C242.244 140.096 229.853 137.414 212.917 139.626L213.047 140.618C229.805 138.429 241.977 141.09 251.435 146.258C260.905 151.433 267.702 159.144 273.671 167.142L274.473 166.544ZM212.917 139.626C204.464 140.73 198.658 142.41 194.724 144.344C190.787 146.28 188.695 148.484 187.728 150.645C186.76 152.809 186.953 154.855 187.442 156.408C187.925 157.943 188.711 159.038 189.012 159.338L189.718 158.63C189.547 158.459 188.837 157.51 188.395 156.108C187.959 154.723 187.798 152.938 188.641 151.054C189.485 149.167 191.368 147.108 195.165 145.242C198.966 143.374 204.654 141.714 213.047 140.618L212.917 139.626ZM189.012 159.338C190.319 160.642 192.215 160.851 194.531 160.563C196.854 160.274 199.766 159.461 203.242 158.534C210.221 156.674 219.659 154.298 231.87 154.454L231.882 153.454C219.531 153.296 209.985 155.702 202.984 157.568C199.47 158.505 196.644 159.292 194.408 159.57C192.164 159.849 190.682 159.592 189.718 158.63L189.012 159.338ZM231.87 154.454C244.107 154.611 251.1 157.118 255.053 161.254C259.005 165.388 260.031 171.266 260.031 178.475H261.031C261.031 171.219 260.011 164.994 255.776 160.563C251.541 156.132 244.207 153.612 231.882 153.454L231.87 154.454ZM260.031 178.475C260.031 189.856 253.43 195.92 246.772 199.167C243.436 200.793 240.095 201.705 237.583 202.211C236.329 202.463 235.284 202.613 234.555 202.701C234.19 202.744 233.905 202.772 233.711 202.788C233.615 202.797 233.541 202.803 233.492 202.806C233.468 202.808 233.449 202.809 233.438 202.81C233.432 202.81 233.427 202.81 233.425 202.811C233.423 202.811 233.422 202.811 233.422 202.811C233.422 202.811 233.421 202.811 233.421 202.811C233.421 202.811 233.421 202.811 233.45 203.31C233.479 203.809 233.48 203.809 233.48 203.809C233.48 203.809 233.481 203.809 233.481 203.809C233.483 203.809 233.484 203.809 233.486 203.809C233.49 203.808 233.495 203.808 233.502 203.808C233.517 203.807 233.537 203.805 233.564 203.803C233.618 203.8 233.696 203.794 233.798 203.785C234.001 203.767 234.297 203.738 234.673 203.693C235.425 203.604 236.496 203.449 237.78 203.191C240.347 202.675 243.775 201.74 247.21 200.066C254.092 196.71 261.031 190.357 261.031 178.475H260.031ZM233.45 203.31C233.465 202.81 233.465 202.81 233.464 202.81C233.464 202.81 233.464 202.81 233.464 202.81C233.463 202.81 233.462 202.81 233.461 202.81C233.458 202.81 233.454 202.81 233.449 202.81C233.438 202.809 233.422 202.809 233.402 202.808C233.36 202.807 233.297 202.805 233.216 202.803C233.053 202.798 232.812 202.791 232.503 202.781C231.885 202.761 230.993 202.732 229.896 202.692C227.703 202.614 224.694 202.496 221.43 202.339C214.89 202.024 207.36 201.554 203.296 200.93L203.145 201.918C207.269 202.551 214.853 203.024 221.382 203.338C224.651 203.495 227.665 203.613 229.86 203.692C230.958 203.731 231.852 203.761 232.471 203.78C232.781 203.79 233.022 203.797 233.186 203.802C233.268 203.805 233.33 203.807 233.372 203.808C233.393 203.809 233.409 203.809 233.42 203.809C233.425 203.809 233.429 203.81 233.432 203.81C233.433 203.81 233.434 203.81 233.435 203.81C233.435 203.81 233.436 203.81 233.436 203.81C233.436 203.81 233.436 203.81 233.45 203.31ZM203.296 200.93C199.221 200.304 197.565 199.117 197.074 197.946C196.586 196.782 197.131 195.34 198.263 193.87L197.471 193.259C196.309 194.768 195.436 196.626 196.152 198.333C196.865 200.033 199.033 201.286 203.145 201.918L203.296 200.93ZM198.263 193.87C199.774 191.909 204.03 188.525 209.357 185.727C214.677 182.931 220.955 180.78 226.487 181.174L226.558 180.177C220.753 179.763 214.277 182.012 208.891 184.842C203.512 187.668 199.11 191.133 197.471 193.259L198.263 193.87ZM226.487 181.174C232.869 181.629 236.766 186.165 237.143 190.503C237.331 192.665 236.649 194.779 234.969 196.359C233.284 197.942 230.541 199.038 226.523 199.038V200.038C230.716 200.038 233.732 198.893 235.653 197.087C237.579 195.277 238.351 192.852 238.139 190.417C237.717 185.56 233.402 180.665 226.558 180.177L226.487 181.174ZM226.523 199.038C221.169 199.038 218.089 197.741 216.192 195.866C214.281 193.977 213.488 191.423 212.88 188.701C212.283 186.031 211.861 183.14 210.622 180.864C209.991 179.706 209.142 178.687 207.942 177.907C206.744 177.13 205.223 176.608 203.272 176.406L203.169 177.4C204.997 177.59 206.359 178.071 207.398 178.746C208.435 179.42 209.178 180.304 209.743 181.342C210.895 183.457 211.28 186.127 211.904 188.919C212.516 191.659 213.356 194.469 215.489 196.577C217.637 198.701 221.013 200.038 226.523 200.038V199.038ZM203.272 176.406C194.947 175.54 188.737 177.121 184.325 180.747C179.919 184.368 177.388 189.96 176.275 196.944L177.263 197.101C178.354 190.253 180.811 184.929 184.96 181.519C189.102 178.115 195.016 176.552 203.169 177.4L203.272 176.406ZM176.275 196.944C174.361 208.959 175.32 229.489 181.03 243.424L181.955 243.045C176.33 229.316 175.37 208.979 177.263 197.101L176.275 196.944ZM181.03 243.424C184.053 250.802 188.503 256.51 192.16 261.241C193.994 263.615 195.617 265.727 196.784 267.693C197.951 269.66 198.627 271.424 198.627 273.1H199.627C199.627 271.16 198.847 269.21 197.644 267.183C196.439 265.154 194.776 262.991 192.951 260.63C189.287 255.889 184.92 250.28 181.955 243.045L181.03 243.424ZM198.627 273.1C198.627 278.059 197.013 281.437 194.597 283.432C192.175 285.432 188.868 286.106 185.357 285.496L185.186 286.482C188.917 287.13 192.538 286.428 195.233 284.203C197.934 281.974 199.627 278.279 199.627 273.1H198.627ZM185.357 285.496C183.562 285.185 182.035 284.817 180.809 284.396C179.575 283.973 178.681 283.507 178.122 283.019C177.573 282.54 177.389 282.082 177.443 281.627C177.501 281.135 177.849 280.511 178.68 279.758L178.008 279.017C177.106 279.835 176.549 280.665 176.45 281.51C176.346 282.391 176.752 283.151 177.464 283.772C178.164 284.384 179.199 284.901 180.484 285.342C181.777 285.786 183.359 286.165 185.186 286.482L185.357 285.496ZM178.68 279.758C180.484 278.12 182.877 277.429 184.817 277.422C185.788 277.419 186.607 277.587 187.162 277.861C187.724 278.138 187.92 278.462 187.92 278.759H188.92C188.92 277.921 188.335 277.324 187.604 276.964C186.868 276.601 185.884 276.419 184.813 276.422C182.67 276.43 180.025 277.186 178.008 279.017L178.68 279.758ZM187.92 278.759C187.92 280.085 187.292 281.357 186.201 282.555C185.109 283.752 183.586 284.839 181.881 285.779C178.469 287.66 174.432 288.899 171.972 289.267L172.12 290.256C174.698 289.87 178.848 288.593 182.364 286.655C184.123 285.685 185.748 284.536 186.94 283.228C188.132 281.921 188.92 280.419 188.92 278.759H187.92ZM171.972 289.267C170.521 289.484 169.025 289.163 167.469 288.501C165.911 287.838 164.331 286.849 162.72 285.77C161.123 284.701 159.485 283.535 157.866 282.568C156.244 281.6 154.592 280.8 152.935 280.469L152.739 281.449C154.231 281.747 155.767 282.48 157.353 283.427C158.943 284.376 160.533 285.509 162.163 286.601C163.78 287.684 165.427 288.718 167.077 289.421C168.73 290.124 170.421 290.51 172.12 290.256L171.972 289.267ZM152.935 280.469C148.877 279.659 145.438 279.745 143.127 280.415C141.977 280.749 141.053 281.243 140.492 281.896C139.903 282.581 139.736 283.42 140.094 284.292L141.019 283.913C140.811 283.406 140.894 282.962 141.25 282.548C141.632 282.103 142.346 281.683 143.406 281.376C145.514 280.764 148.781 280.659 152.739 281.449L152.935 280.469ZM140.094 284.292C140.858 286.159 142.702 287.926 145 289.6C147.314 291.285 150.169 292.932 153.053 294.532C155.949 296.138 158.869 297.694 161.358 299.218C163.858 300.749 165.852 302.205 166.928 303.587L167.717 302.972C166.518 301.433 164.382 299.897 161.88 298.365C159.367 296.826 156.411 295.251 153.538 293.657C150.654 292.057 147.848 290.437 145.589 288.791C143.313 287.134 141.671 285.505 141.019 283.913L140.094 284.292ZM166.928 303.587C167.924 304.865 168.392 307.077 168.163 309.279C167.935 311.482 167.03 313.504 165.48 314.489L166.016 315.333C167.93 314.117 168.914 311.738 169.158 309.383C169.402 307.027 168.925 304.523 167.717 302.972L166.928 303.587ZM165.48 314.489C164.796 314.923 163.754 315.056 162.377 315.007C161.01 314.958 159.449 314.74 157.757 314.568C154.444 314.23 150.673 314.068 147.826 316.074L148.402 316.892C150.908 315.126 154.311 315.221 157.655 315.563C159.292 315.73 160.93 315.956 162.341 316.007C163.742 316.056 165.056 315.943 166.016 315.333L165.48 314.489ZM147.826 316.074C145.148 317.961 137.537 322.973 130.59 327.742C127.125 330.12 123.831 332.434 121.42 334.253C120.217 335.162 119.223 335.955 118.538 336.575C118.196 336.883 117.917 337.161 117.725 337.397C117.629 337.515 117.542 337.638 117.481 337.761C117.426 337.869 117.351 338.058 117.394 338.273L118.374 338.076C118.397 338.193 118.352 338.254 118.375 338.208C118.39 338.177 118.427 338.118 118.5 338.029C118.645 337.851 118.88 337.613 119.208 337.317C119.861 336.727 120.826 335.955 122.023 335.051C124.414 333.246 127.693 330.943 131.156 328.566C138.065 323.825 145.726 318.777 148.402 316.892L147.826 316.074ZM117.394 338.273C117.45 338.556 117.646 338.742 117.82 338.857C117.998 338.975 118.218 339.063 118.449 339.132C118.913 339.27 119.532 339.365 120.238 339.428C121.657 339.556 123.528 339.569 125.45 339.512C127.375 339.454 129.367 339.327 131.031 339.172C132.679 339.019 134.049 338.835 134.705 338.657L134.442 337.692C133.883 337.844 132.598 338.022 130.938 338.177C129.295 338.329 127.324 338.456 125.42 338.512C123.513 338.569 121.688 338.555 120.328 338.432C119.644 338.371 119.103 338.284 118.735 338.174C118.549 338.118 118.435 338.065 118.373 338.024C118.307 337.98 118.357 337.989 118.374 338.076L117.394 338.273ZM134.705 338.657C136.442 338.184 141.162 336.781 145.713 335.455C147.992 334.791 150.232 334.145 152.042 333.642C153.866 333.135 155.221 332.783 155.753 332.695L155.589 331.708C154.991 331.808 153.576 332.178 151.774 332.679C149.958 333.184 147.713 333.831 145.433 334.495C140.867 335.826 136.168 337.222 134.442 337.692L134.705 338.657ZM155.753 332.695C157.604 332.387 162.139 332.072 166.898 331.994C171.667 331.915 176.566 332.076 179.174 332.688L179.403 331.715C176.657 331.07 171.638 330.916 166.881 330.994C162.114 331.073 157.517 331.387 155.589 331.708L155.753 332.695ZM179.174 332.688C183.139 333.619 191.565 335.789 197.764 337.092L197.97 336.113C191.782 334.813 183.407 332.655 179.403 331.715L179.174 332.688ZM197.764 337.092C200.794 337.729 203.902 337.967 206.299 337.928C207.496 337.908 208.531 337.818 209.299 337.668C209.681 337.593 210.018 337.499 210.282 337.381C210.513 337.277 210.826 337.094 210.937 336.761L209.989 336.444C210.021 336.347 210.069 336.38 209.872 336.469C209.707 336.543 209.454 336.619 209.107 336.686C208.419 336.821 207.448 336.908 206.282 336.928C203.956 336.966 200.923 336.734 197.97 336.113L197.764 337.092ZM210.937 336.761C210.981 336.629 210.967 336.511 210.953 336.444C210.938 336.372 210.913 336.307 210.89 336.256C210.843 336.154 210.777 336.047 210.704 335.943C210.557 335.731 210.341 335.466 210.071 335.16C209.528 334.546 208.731 333.727 207.745 332.775C205.771 330.868 203.015 328.403 199.954 325.919C196.893 323.435 193.52 320.926 190.313 318.936C187.12 316.956 184.039 315.456 181.575 315.047L181.411 316.033C183.67 316.409 186.612 317.818 189.785 319.786C192.945 321.746 196.283 324.227 199.323 326.695C202.363 329.162 205.098 331.609 207.05 333.494C208.028 334.438 208.803 335.236 209.322 335.822C209.582 336.117 209.769 336.348 209.882 336.513C209.94 336.596 209.969 336.647 209.979 336.671C209.985 336.682 209.979 336.673 209.974 336.647C209.969 336.627 209.955 336.547 209.989 336.444L210.937 336.761ZM181.575 315.047C176.809 314.253 173.563 314.479 171.285 315.306C168.984 316.141 167.718 317.573 166.886 319.069L167.759 319.555C168.501 318.222 169.598 316.982 171.626 316.246C173.678 315.501 176.73 315.254 181.411 316.033L181.575 315.047ZM166.886 319.069C166.448 319.855 166.141 321.09 165.858 322.474C165.565 323.907 165.301 325.482 164.944 327.145C164.592 328.785 164.166 330.422 163.582 331.855C162.997 333.293 162.268 334.487 161.332 335.277L161.977 336.041C163.088 335.103 163.894 333.742 164.509 332.233C165.125 330.719 165.565 329.016 165.922 327.355C166.273 325.717 166.561 324.03 166.838 322.674C167.126 321.267 167.409 320.185 167.759 319.555L166.886 319.069ZM161.332 335.277C159.361 336.942 155.973 338.49 152.33 339.663C148.697 340.833 144.883 341.608 142.103 341.762L142.158 342.76C145.047 342.6 148.947 341.803 152.636 340.615C156.314 339.431 159.854 337.835 161.977 336.041L161.332 335.277ZM142.103 341.762C140.696 341.84 138.934 341.879 137.061 341.923C135.192 341.968 133.217 342.017 131.397 342.116C129.582 342.214 127.901 342.363 126.625 342.61C125.99 342.734 125.43 342.886 124.997 343.082C124.588 343.267 124.171 343.544 124.022 343.989L124.971 344.306C124.98 344.279 125.055 344.153 125.409 343.993C125.738 343.844 126.211 343.709 126.816 343.592C128.02 343.358 129.645 343.212 131.451 343.114C133.253 343.016 135.214 342.967 137.085 342.923C138.951 342.879 140.732 342.84 142.158 342.76L142.103 341.762ZM124.022 343.989C123.958 344.182 123.985 344.368 124.03 344.51C124.075 344.654 124.15 344.792 124.235 344.919C124.405 345.174 124.662 345.456 124.977 345.755C125.613 346.356 126.561 347.092 127.751 347.91C130.136 349.547 133.546 351.543 137.516 353.478C145.441 357.34 155.679 360.995 164.488 360.995V359.995C155.907 359.995 145.834 356.419 137.954 352.579C134.021 350.662 130.654 348.69 128.317 347.085C127.146 346.281 126.246 345.578 125.665 345.028C125.371 344.751 125.176 344.529 125.067 344.364C125.012 344.282 124.99 344.232 124.984 344.21C124.976 344.187 124.996 344.23 124.971 344.306L124.022 343.989ZM164.488 360.995C172.305 360.995 180.934 358.264 188.655 354.982C196.383 351.696 203.257 347.831 207.55 345.531L207.078 344.65C202.764 346.961 195.94 350.798 188.264 354.061C180.581 357.328 172.101 359.995 164.488 359.995V360.995Z" fill="#868C96"/>
<path opacity="0.3" d="M265.5 266C275.1 256 286.833 306.833 291.5 333.5C320.333 324 381 307.6 393 318C408 331 367 367 355 376C345.4 383.2 311.667 370.667 296 363.5C303.333 368.833 319.9 382.1 327.5 392.5C337 405.5 310 427.5 291.5 429C276.7 430.2 281.333 382.833 285.5 359C271 372 239.1 398.7 227.5 401.5C213 405 222.5 359.5 232.5 343.5C239.639 332.077 268.017 331.485 285.649 332.912C268.764 330.996 241.376 326.166 232.5 318C220 306.5 253.5 278.5 265.5 266Z" fill="#D2DFE6"/>
</svg>
