<svg width="441" height="608" viewBox="0 0 441 608" fill="none" xmlns="http://www.w3.org/2000/svg">
<path opacity="0.5" d="M237 389C212.2 389.8 200.667 413.333 198 425C198 432 199.8 449.4 207 463C216 480 249 500 290 502C322.8 503.6 354.333 460 366 438C333.333 421.333 261.8 388.2 237 389Z" fill="#D2DFE6"/>
<path opacity="0.5" d="M126 78.9999C159.6 82.9999 183.333 115.333 191 131C172.667 133 130.6 137.4 109 139C87.4 140.6 57.3333 123.667 45 115C58 101.333 92.4 74.9999 126 78.9999Z" fill="#D2DFE6"/>
<path opacity="0.5" d="M347 50C372.6 46.8 369.666 98.6667 365 125C368.667 104.667 381.2 61.2 402 50C428 36.0001 445 88 457 106C469 124 449 154 433 158C420.2 161.2 389.667 144.667 376 136C391 146 421.4 169.8 423 185C425 204 383 206 365 211C347 216 323 210 307 194C294.2 181.2 328.333 150 347 136C328 142 287.4 150.4 277 136C264 118 283 106 290 81C297 56 315 54 347 50Z" fill="#D2DFE6"/>
<path d="M327.328 406.74C337.362 413.284 365.32 428.19 376.955 433.462C360.049 435.462 326.686 444.321 318.057 440.006C306.059 434.007 297.334 424.191 285.881 424.191C266.701 424.191 270.066 430.735 254.251 430.735C238.436 430.735 236.8 422.555 224.257 424.191C214.222 425.5 204.988 430.19 200.807 430.735C197.171 430.735 189.791 426.809 189.354 411.103C188.809 391.47 205.715 383.835 218.803 383.835C231.892 383.835 230.256 389.834 238.436 389.834C246.616 389.834 243.344 386.017 259.159 383.835C274.974 381.654 314.785 398.56 327.328 406.74Z" stroke="#868C96" stroke-linecap="round" stroke-linejoin="round"/>
<path d="M214.853 153.976C217.398 128.89 210.708 73.2639 163.59 51.4499C104.693 24.1824 27.253 -1.99435 10.8925 1.27774C-5.46795 4.54984 1.07624 50.3592 10.8925 61.2662C18.4792 69.6958 24.7628 106.14 46.3595 127.799M46.3595 127.799C52.7065 134.164 60.3762 139.253 69.7903 141.978C102.948 151.576 157.773 145.977 181.042 141.978C173.77 128.526 152.465 101.622 125.416 101.622C91.6042 101.622 66.5566 129.98 46.3595 127.799ZM1.07624 101.622C13.4375 105.258 44.4861 110.348 69.7903 101.622C101.421 90.715 115.6 81.9894 139.595 91.8057C158.791 99.6588 183.95 119.073 194.13 127.799C186.131 105.621 160.1 61.2662 119.962 61.2662C69.7903 61.2662 16.3518 104.84 26.1623 153.976C46.3595 255.133 124.775 333.498 139.595 415.466C155.421 502.999 225.94 598.584 277.023 605.525C339.193 613.973 380.639 584.802 374.095 552.081C367.551 519.36 323.923 530.267 293.384 512.815C262.844 495.364 267.207 496.455 263.935 470.278C260.663 444.101 241.03 437.557 233.395 436.467M233.395 436.467C225.76 435.376 194.13 424.469 194.13 436.467C194.13 448.464 212.672 505.181 263.935 502.999C283.931 502.999 320.116 508.437 339.193 481.185C351.702 463.316 357.371 444.101 358.826 436.467C335.557 441.12 284.004 449.163 263.935 444.101C243.866 439.04 235.213 436.903 233.395 436.467Z" stroke="#868C96" stroke-linecap="round" stroke-linejoin="round"/>
<path d="M257.523 384.381C259.704 382.563 265.158 379.363 265.158 374.564C265.158 365.293 254.796 364.748 250.433 342.934C246.07 321.12 252.069 291.126 271.156 281.31C290.244 271.493 313.333 274.712 324.601 288.944C334.963 302.033 336.053 324.938 322.965 320.029C309.876 315.121 301.696 304.214 288.062 304.76C274.429 305.305 267.885 316.757 277.155 322.756C286.426 328.755 294.607 327.664 297.333 320.029C300.681 310.657 283.7 296.579 273.338 300.942C261.615 305.878 258.403 332.572 242.253 332.572C237.89 332.572 229.165 332.027 223.711 322.756C218.258 313.485 211.168 309.122 207.351 315.121C203.533 321.12 214.44 326.028 217.712 322.756C226.854 313.614 219.348 302.033 208.441 303.669C197.534 305.305 194.262 317.303 189.899 304.76C185.537 292.217 200.806 237.136 207.351 208.233C211.607 189.433 213.349 177.693 214.985 153.152" stroke="#868C96" stroke-linecap="round" stroke-linejoin="round"/>
<path d="M379.636 124.899C385.205 128.334 390.434 138.664 400.36 138.664C420.219 138.664 429.75 124.928 435.912 104.138M379.636 124.899C379.061 119.993 374.283 110.18 359.776 110.18C341.643 110.18 327.828 115.359 333.872 130.896C339.917 146.433 355.459 166.285 367.548 152.475C377.219 141.426 379.636 129.488 379.636 124.899ZM435.912 104.138C437.421 99.0446 437.488 94.8001 437.488 85.149C437.488 64.8498 417.901 45.9972 396.587 48.4455C377.606 50.6258 370.714 73.6403 367.548 85.149C363.806 73.9281 360.938 46.5357 340.416 40.2652C320.783 34.2664 279.337 48.4455 292.971 80.621C299.042 94.949 313.149 111.044 323.511 117.949C316.603 114.496 299.679 108.109 287.245 110.18C271.702 112.77 259.159 122.068 261.34 144.707C264.151 173.88 287.245 179.875 302.787 176.643C312.932 174.534 326.964 163.984 329.554 157.654C325.813 168.299 314.531 194.251 323.511 212.895C334.736 236.201 367.548 233.611 379.636 208.58C389.307 188.555 380.788 166.285 375.319 157.654C378.485 169.738 400.723 186.419 420.582 186.419C447.696 186.419 475.028 177.859 471.3 140.064C469.119 117.949 445.072 108.742 435.912 104.138Z" stroke="#868C96" stroke-linecap="round" stroke-linejoin="round"/>
</svg>
