<svg width="470" height="270" viewBox="0 0 470 270" fill="none" xmlns="http://www.w3.org/2000/svg">
<path d="M243.58 115.795C243.745 116.856 243.918 117.905 244.422 118.92L244.41 118.872C245.792 121.278 244.172 121.859 242.371 123.236L242.398 123.217L242.322 123.277L242.358 123.246C241.721 123.58 241.268 124.091 240.576 124.37L240.598 124.364L240.51 124.402L240.533 124.388C240.176 124.534 239.791 124.631 239.423 124.762C240.662 123.028 241.871 120.757 240.306 118.728C240.441 117.337 242.008 116.147 243.54 115.723L243.58 115.795ZM237.933 126.778L237.916 126.777L237.99 126.783L237.933 126.778ZM235.879 126.449C233.283 128.014 229.941 129.734 226.969 127.304C220.821 124.759 226.226 124.735 229.439 124.367C230.336 124.958 231.349 125.273 232.446 125.411L232.429 125.402C233.728 125.804 235.098 125.853 236.411 126.228C236.222 126.287 236.046 126.37 235.879 126.449ZM228.157 124.375L228.18 124.37L228.157 124.375L228.132 124.378L228.157 124.375ZM229.003 122.86C227.492 121.099 225.777 116.466 230.254 117.989L230.194 117.973L230.301 118.006C231.822 118.282 232.625 119.376 233.676 120.23L233.622 120.175C233.684 120.235 233.751 120.288 233.818 120.35L233.772 120.308C235.572 121.784 236.553 123.708 237.079 125.656C237.006 125.642 236.934 125.619 236.861 125.605L236.917 125.618L236.853 125.6L236.861 125.605L236.754 125.572L236.767 125.579C234.24 124.516 230.862 124.904 229.003 122.86ZM234.77 119.286C234.374 118.61 234.286 117.906 234.629 117.249L234.628 117.258C234.639 117.221 234.658 117.18 234.667 117.143L234.658 117.18C235.073 116.436 235.525 115.652 236.204 115.042C237.854 116.581 239.721 118.434 240.254 120.412L240.262 120.331C240.255 120.387 240.249 120.443 240.247 120.493L240.258 120.414C240.198 121.361 240.174 122.361 239.519 123.145L239.533 123.127L239.478 123.2L239.501 123.161C239.242 123.454 238.932 123.737 238.716 124.044L238.775 123.966C238.639 124.139 238.489 124.313 238.357 124.487C238.379 124.457 238.402 124.427 238.425 124.397C238.361 124.481 238.285 124.55 238.207 124.627C237.698 122.586 235.87 121.053 234.77 119.286ZM236.199 115.04L236.164 115.063L236.199 115.04ZM236.186 115.041L236.16 115.044L236.186 115.041ZM254.15 128.273L254.121 128.249L254.146 128.271C253.547 127.57 253.066 126.643 253.325 125.821L253.31 125.873C253.325 125.813 253.345 125.756 253.361 125.696L253.351 125.717L253.376 125.636L253.375 125.653C253.455 125.407 253.644 125.212 253.817 125.008C253.539 126.202 253.89 127.552 254.794 128.599L254.791 128.589L254.836 128.648L254.828 128.635C254.869 128.691 254.914 128.75 254.959 128.8C254.676 128.646 254.438 128.439 254.159 128.278L254.188 128.303L254.15 128.273ZM254.899 124.491C256.148 125.667 256.751 127.333 255.537 128.536C255.492 128.477 255.451 128.413 255.402 128.352L255.452 128.421C255.348 128.288 255.246 128.156 255.139 128.029L255.185 128.071C254.405 127.016 254.041 125.471 254.899 124.491ZM254.964 128.803L254.931 128.759L254.964 128.803ZM293.045 157.651C292.644 157.407 292.328 157.09 292.003 156.777L292.045 156.825C291.122 155.887 290.199 154.864 290.219 153.648C290.83 153.939 291.446 154.215 292.016 154.561L291.978 154.54L292.054 154.589L292.033 154.578C293.385 155.265 293.913 156.438 294.062 157.636L294.058 157.625L294.062 157.636L294.063 157.611C294.099 157.801 294.148 157.989 294.205 158.173C293.864 157.945 293.416 157.88 293.07 157.665L293.116 157.699C293.079 157.67 293.036 157.647 292.994 157.624L293.045 157.651ZM292.325 153.988L292.244 153.961C293.082 154.316 293.993 154.685 294.648 155.272L294.636 155.249L294.723 155.33L294.661 155.279C295.474 156.021 296.003 156.948 295.259 157.778C295.1 156.797 294.684 155.871 293.761 155.155L293.803 155.195C293.289 154.65 292.601 154.232 291.915 153.85C292.057 153.893 292.184 153.945 292.325 153.988ZM338.601 234.155C338.576 234.116 338.552 234.069 338.528 234.03C338.556 234.071 338.576 234.116 338.601 234.155ZM336.865 216.863C335.889 215.768 336.005 214.093 336.288 212.885C338.097 214.23 339.554 216.285 339.08 218.241C338.688 218.087 338.347 217.841 337.975 217.655L337.995 217.667L337.886 217.607L337.932 217.632L337.873 217.6L337.915 217.623C337.526 217.419 337.187 217.14 336.865 216.863ZM288.439 216.697C287.168 216.872 285.599 216.51 285.092 215.365L285.101 215.378C285.048 215.273 285.005 215.164 284.954 215.059L284.974 215.096C284.88 214.857 284.751 214.634 284.626 214.403L284.629 214.414C284.557 214.273 284.529 214.121 284.513 213.968L284.509 213.982C284.513 213.882 284.465 213.779 284.504 213.69C284.577 213.704 284.641 213.713 284.71 213.734C285.098 215.351 287.044 215.995 288.629 216.69C288.56 216.695 288.504 216.69 288.439 216.697ZM284.475 213.632L284.467 213.636L284.475 213.632ZM284.583 213.537L284.564 213.569L284.583 213.537ZM285.211 213.002C285.118 212.619 285.569 212.695 285.872 212.818L285.834 212.805L285.919 212.835L285.893 212.829C286.491 213.121 287.022 213.479 287.534 213.869L287.45 213.815C288.113 214.304 288.375 215.086 288.581 215.761L288.579 215.717L288.588 215.807L288.585 215.788C288.598 215.872 288.612 215.956 288.63 216.043C288.502 215.99 288.379 215.932 288.247 215.885L288.332 215.914C288.01 215.756 287.646 215.659 287.319 215.515L287.324 215.518C287.059 215.407 286.793 215.279 286.561 215.119L286.611 215.155C285.755 214.619 285.355 213.822 285.211 213.002ZM289.575 216.201L289.568 216.188L289.575 216.201ZM290.792 240.901L290.756 240.933L290.792 240.901ZM290.049 241.382C287.861 243.136 284.875 242.844 282.837 240.71L282.858 240.73C282.825 240.704 282.791 240.668 282.75 240.646L282.779 240.662C282.598 240.529 282.409 240.4 282.237 240.264C282.606 239.92 283.081 239.625 283.587 239.424L283.578 239.428C283.739 239.388 283.902 239.349 284.03 239.283C285.493 240.319 287.44 241.16 289.328 240.946L289.318 240.95L289.401 240.943L289.379 240.949C289.85 240.958 290.322 240.952 290.787 240.899C290.584 241.095 290.302 241.231 290.049 241.382ZM281.766 239.947L281.774 239.952L281.706 239.923L281.766 239.947ZM283.177 237.821L283.172 237.827L283.177 237.821ZM284.912 238.989C284.768 238.885 284.63 238.784 284.486 238.688L284.584 238.75C284.189 238.458 283.794 238.158 283.427 237.838C286.025 237.492 288.989 238.436 290.564 240.334C289.657 240.385 288.727 240.474 287.815 240.351L287.867 240.362L287.772 240.345L287.794 240.348C287.408 240.265 287.023 240.149 286.662 240.003L286.679 240.004C286.087 239.766 285.555 239.433 285.046 239.087L285.105 239.136C285.025 239.067 284.945 239.007 284.861 238.953L284.912 238.989ZM270.379 215.405C269.081 214.544 267.767 213.69 266.46 212.833C266.726 211.836 267.551 211.017 267.539 209.946C272.527 214.004 277.628 218.005 282.284 222.317C279.476 220.845 276.718 219.315 273.992 217.725C274.029 217.754 274.077 217.78 274.118 217.803C274.034 217.757 273.958 217.707 273.874 217.661L273.899 217.675C272.704 216.937 271.537 216.182 270.379 215.405ZM263.673 214.217C259.283 218.185 255.478 220.964 248.619 217.274C248.823 217.061 249.005 216.845 249.225 216.642L249.194 216.676C250.067 215.849 251.065 215.166 252.343 214.79L252.26 214.805C252.356 214.781 252.462 214.753 252.566 214.725L252.549 214.732C253.959 214.429 255.473 215.485 256.985 215.228L256.846 215.237C257.9 215.301 258.951 215.184 259.935 214.946L259.795 214.98C260.793 214.801 261.707 214.481 262.713 214.306L262.657 214.318L262.761 214.299L262.739 214.304C263.154 214.232 263.54 214.068 263.966 214.036C263.868 214.093 263.766 214.157 263.673 214.217ZM249.92 211.518C249.379 210.891 247.97 209.68 248.43 209.036C250.563 209.348 252.482 208.129 254.699 208.623L254.691 208.618L254.764 208.616C256.824 211.128 260.231 212.893 263.755 213.478C261.258 213.589 258.961 214.415 256.45 214.365L256.501 214.368L256.372 214.365L256.445 214.362C253.944 214.259 251.564 213.122 249.92 211.518ZM248.239 209.128L248.213 209.147L248.239 209.128ZM248.248 209.116L248.262 209.106L248.248 209.116ZM248.342 209.048L248.32 209.053L248.342 209.048ZM248.355 209.046L248.364 209.043L248.351 209.044L248.355 209.046ZM248.408 209.033L248.377 209.041L248.408 209.033ZM248.421 209.031L248.412 209.035L248.421 209.031ZM255.464 207.686C254.543 206.519 253.902 205.164 253.658 203.822L253.659 203.899L253.651 203.792L253.658 203.822C253.658 203.728 253.666 203.63 253.683 203.537C254.779 203.488 255.944 203.468 257.047 203.686L257.022 203.672C257.086 203.69 257.15 203.708 257.219 203.72L257.194 203.715L257.3 203.747L257.262 203.735L257.313 203.746L257.3 203.747L257.313 203.746L257.347 203.756L257.287 203.74C259.552 204.235 261.897 204.986 262.524 207.099L262.481 206.982C262.729 207.697 263.015 208.415 263.275 209.136L263.238 208.997C263.496 209.768 263.75 210.545 264.048 211.304L264.025 211.232C264.137 211.642 264.325 212.043 264.569 212.423C264.454 212.463 264.399 212.552 264.348 212.643C264.066 212.54 263.784 212.455 263.493 212.381C263.549 212.394 263.604 212.408 263.656 212.419C263.57 212.398 263.475 212.38 263.394 212.353L263.476 212.372C262.196 212.031 260.901 211.657 259.744 211.051L259.816 211.091C258.969 210.637 258.1 210.214 257.379 209.617C257.421 209.656 257.463 209.688 257.505 209.728C257.417 209.654 257.334 209.583 257.25 209.512C257.288 209.541 257.33 209.581 257.372 209.612C256.646 209.038 256.047 208.362 255.464 207.686ZM263.45 206.472C261.895 203.57 258.58 203.67 259.173 199.76C260.007 200.104 260.889 200.339 261.695 200.727L261.657 200.707L261.746 200.747L261.703 200.732C262.213 201.078 262.788 201.307 263.375 201.533L263.324 201.505L263.418 201.548L263.393 201.534L263.439 201.56L263.435 201.557L263.511 201.59L263.473 201.578C266.808 202.878 268.186 205.682 267.047 208.332L267.047 208.324C266.702 209.251 266.669 210.272 266.093 211.125C266.117 211.087 266.131 211.052 266.149 211.019C265.986 211.305 265.76 211.556 265.664 211.862C265.552 211.664 265.461 211.453 265.388 211.243L265.395 211.264C265.365 211.17 265.329 211.074 265.29 210.985L265.298 210.998C265.236 210.827 265.169 210.663 265.106 210.501L265.122 210.527C264.841 209.36 264.107 208.278 263.713 207.118L263.716 207.137L263.709 207.124L263.724 207.167L263.697 207.084L263.701 207.094C263.627 206.884 263.554 206.673 263.45 206.472ZM251.044 197.813C250.146 197.766 249.313 197.618 248.765 196.928L248.774 196.932C248.649 196.813 248.529 196.688 248.409 196.563L248.416 196.567C248.121 196.278 247.875 195.957 247.699 195.613L247.711 195.637L247.678 195.585L247.682 195.587C247.659 195.54 247.63 195.499 247.602 195.45C247.946 195.297 248.314 195.37 248.688 195.421L248.632 195.424C250.138 195.53 251.239 196.634 251.465 197.804L251.438 197.807L251.465 197.804L251.399 197.811L251.412 197.81C251.291 197.82 251.165 197.819 251.044 197.813ZM247.068 195.482L247 195.47L247.068 195.482ZM247.068 195.482L247.103 195.484L247.068 195.482ZM247.414 195.168L247.414 195.177L247.414 195.168ZM286.411 224.568L286.382 224.544L286.411 224.568ZM265.872 225.391C265.583 225.471 265.375 225.665 265.095 225.759L265.139 225.749L265.056 225.772L265.077 225.767C263.852 226.214 262.383 225.642 261.722 224.652C262.133 224.876 262.561 225.075 263.04 225.14L262.996 225.134C264.045 225.314 265.154 225.484 266.18 225.269C266.087 225.321 265.977 225.354 265.872 225.391ZM261.275 222.9C261.905 222.835 262.549 222.854 263.175 222.982L263.149 222.977C264.374 223.202 265.471 223.886 266.326 224.642C266.003 224.721 265.667 224.785 265.321 224.792L265.372 224.795C263.755 224.875 262.516 223.85 261.239 223.136L261.295 223.149C261.154 223.09 260.992 223.061 260.932 222.926C261.049 222.913 261.162 222.907 261.275 222.9ZM267.291 224.248L267.295 224.25L267.291 224.248ZM266.494 224.776L266.549 224.815L266.481 224.769L266.494 224.776ZM272.585 206.779L272.563 206.775L272.585 206.779ZM272.208 206.556C271.917 206.372 271.851 206.089 271.785 205.814C271.952 206.169 272.188 206.545 272.58 206.776C272.43 206.737 272.312 206.656 272.208 206.556ZM272.499 204.637L272.486 204.621C272.871 204.967 273.218 205.361 273.479 205.767L273.443 205.697C273.649 206.039 273.781 206.401 273.663 206.754C272.501 206.273 272.155 205.216 271.951 204.27C272.156 204.373 272.341 204.491 272.499 204.637ZM273.876 206.112L273.884 206.108L273.876 206.112ZM274.2 206.638L274.156 206.64L274.231 206.621L274.191 206.633L274.2 206.638ZM274.354 206.994L274.35 206.984L274.354 206.994ZM215.333 184.635C214.323 185.183 213.09 185.413 211.833 185.153C212.023 184.925 212.32 184.755 212.524 184.534L212.466 184.587C213.241 183.835 214.624 183.967 215.675 184.396C215.568 184.482 215.461 184.569 215.333 184.635ZM211.833 185.153L211.858 185.158L211.833 185.153ZM207.072 181.27C205.343 182.388 202.776 181.857 200.925 180.898L201.01 180.944C200.742 180.815 200.481 180.664 200.227 180.517C200.312 180.35 200.456 180.199 200.6 180.073C200.676 180.106 200.745 180.144 200.82 180.185L200.727 180.142C202.769 181.316 205.443 181.633 207.539 180.75C207.384 180.929 207.26 181.117 207.072 181.27ZM200.617 180.082L200.6 180.073L200.617 180.082ZM201.229 179.309C203.073 178.756 206.355 178.076 207.449 180.087C205.493 181.252 202.886 180.452 200.852 179.521C200.98 179.446 201.1 179.375 201.229 179.309ZM207.44 180.099L207.453 180.089L207.44 180.099ZM207.202 178.607L207.203 178.599L207.207 178.609L207.202 178.607ZM175.05 172.873C174.979 172.91 174.911 172.967 174.849 173.01L174.871 172.997L174.805 173.037L174.84 173.014C173.742 173.743 172.186 173.585 170.915 173.036L170.962 173.053L170.881 173.018L170.894 173.024L170.838 173.002C170.952 172.877 171.001 172.733 171.067 172.591L171.048 172.623L171.081 172.564L171.077 172.579C171.136 172.492 171.205 172.385 171.299 172.309L171.286 172.319L171.318 172.285C172.588 172.739 174.072 173.063 175.325 172.588C175.235 172.684 175.144 172.779 175.05 172.873ZM170.699 172.926L170.69 172.922L170.699 172.926ZM171.15 172.372L171.255 172.335L171.228 172.355L171.15 172.372ZM171.223 171.321C172.283 170.793 173.663 170.711 174.887 171.14L174.844 171.125L174.925 171.161L174.904 171.149C174.963 171.173 175.027 171.199 175.087 171.223L175.002 171.194C175.235 171.287 175.438 171.415 175.659 171.518L175.642 171.517L175.727 171.555L175.684 171.532C175.748 171.558 175.812 171.585 175.876 171.611C175.116 172.116 174.178 172.397 173.136 172.177L173.183 172.186L173.079 172.172L173.131 172.175C172.307 172.006 171.522 171.74 170.712 171.546C170.876 171.464 171.056 171.392 171.223 171.321ZM176.042 171.676L176.025 171.667L176.042 171.676ZM176.02 171.059L175.96 171.035L176.02 171.059ZM171.85 162.788C171.902 162.791 171.962 162.798 172.018 162.803C169.612 162.266 166.263 163.13 165.701 160.473L165.736 160.56C165.54 160.053 165.297 159.562 165.044 159.075C169.378 160.085 173.591 161.481 177.798 162.839L177.789 162.834C178.47 163.12 179.192 163.352 179.89 163.614L179.861 163.606C180.086 163.695 180.307 163.79 180.529 163.885C177.629 163.573 174.749 163.101 171.85 162.788ZM165.467 163.761C165.068 164.301 164.967 164.962 164.855 165.59L164.862 165.518C164.234 169.664 159.838 169.225 156.108 170.274C156.135 170.041 156.183 169.821 156.21 169.597L156.203 169.652C156.854 164.139 161.671 166.29 165.576 163.522C165.642 163.49 165.708 163.475 165.778 163.453C165.67 163.556 165.558 163.648 165.467 163.761ZM153.395 162.15L153.438 162.164C152.718 161.883 152.02 161.51 151.473 161.016C151.54 160.967 151.62 160.917 151.695 160.873L151.611 160.921C152.276 160.636 152.671 160.085 153.306 159.784L153.258 159.801L153.376 159.763L153.35 159.774C157.659 158.318 162.047 160.089 165.092 162.977C164.096 163.09 163.277 163.665 162.352 163.953C162.405 163.938 162.444 163.926 162.491 163.918C162.291 163.97 162.093 164.033 161.884 164.089L161.988 164.061C160.433 164.541 158.604 164.403 157.012 163.842L157.034 163.854C156.987 163.836 156.949 163.816 156.902 163.799L156.94 163.811C155.756 163.259 154.626 162.625 153.395 162.15ZM164.939 160.806C165.031 160.976 165.168 161.136 165.286 161.303L165.229 161.22C165.482 161.597 165.704 161.982 166.036 162.317C164.187 161.725 163.223 159.811 161.299 159.119C159.7 158.145 157.678 158.498 156.116 157.646L156.154 157.658C155.61 157.421 155.166 157.068 154.712 156.727L154.759 156.761C154.463 156.48 154.181 156.182 153.969 155.861C154.051 155.855 154.129 155.88 154.21 155.899L154.146 155.881C155.597 156.264 156.994 156.08 158.419 155.93L158.41 155.933C158.51 155.928 158.609 155.931 158.704 155.932L158.657 155.932C159.306 155.936 159.958 155.866 160.605 156.015L160.575 156.007L160.691 156.036L160.639 156.025C162.041 156.244 162.806 157.403 163.574 158.299L163.571 158.297L163.641 158.378L163.607 158.343C164.142 159.137 164.479 159.985 164.939 160.806ZM147.482 156.616L147.455 156.635L147.464 156.632L147.437 156.651L147.451 156.641L147.389 156.684L147.415 156.664C146.503 157.377 144.998 157.381 144.367 156.288C145.337 156.808 146.488 156.797 147.518 156.584L147.5 156.6L147.523 156.587L147.482 156.616ZM144.008 155.445C144.521 155.068 145.277 154.987 145.966 155.175L145.927 155.163C146.557 155.336 147.175 155.571 147.646 155.981C147.084 156.083 146.496 156.172 145.904 156.155L145.918 156.154C145.227 156.101 144.56 155.797 143.967 155.499L144.052 155.536L143.942 155.485L144.008 155.445ZM161.082 150.279C160.922 150.379 160.741 150.476 160.536 150.517L160.623 150.497C159.758 150.792 158.759 150.911 157.854 150.494L157.884 150.51L157.799 150.472L157.825 150.478C156.977 150.032 156.053 149.579 155.404 148.935C155.507 148.847 155.613 148.777 155.742 148.711L155.712 148.72L155.72 148.716L155.689 148.734L155.76 148.695L155.738 148.709L155.786 148.684C157.325 149.779 159.488 150.644 161.414 150.102C161.308 150.163 161.197 150.214 161.082 150.279ZM155.309 148.824L155.321 148.848L155.309 148.824ZM156.318 148.071C158.133 147.801 159.999 148.299 161.319 149.462L161.285 149.435L161.361 149.485L161.357 149.483L161.361 149.485C160.683 149.788 159.864 149.691 159.094 149.586L159.124 149.594L159.034 149.57L159.055 149.573C157.865 149.384 156.932 148.713 155.965 148.126C156.083 148.105 156.196 148.082 156.318 148.071ZM161.424 149.537L161.407 149.527L161.424 149.537ZM155.411 142.559L155.437 142.548L155.411 142.559ZM154.37 142.81C152.924 143.043 151.131 142.763 150.417 141.488L150.441 141.527C150.36 141.406 150.292 141.275 150.223 141.144C151.614 142.277 153.679 142.254 155.432 142.546C155.074 142.623 154.736 142.745 154.37 142.81ZM148.721 139.583L148.732 139.632L148.721 139.583ZM148.713 139.578L148.717 139.589L148.713 139.578ZM149.72 139.387C150.171 139.361 150.615 139.296 151.068 139.33L151.056 139.332L151.086 139.331L151.072 139.333L151.167 139.342L151.154 139.335C153.063 139.558 154.798 140.582 155.692 142.015C153.727 141.709 151.372 141.728 150.05 140.197L150.076 140.211L150.018 140.163L150.03 140.169C149.905 140.059 149.779 139.939 149.654 139.828L149.717 139.88C149.605 139.776 149.497 139.666 149.415 139.544C149.446 139.425 149.594 139.412 149.72 139.387ZM182.583 146.795C182.256 146.344 181.99 145.858 181.794 145.376C182.804 145.527 183.782 146.265 184.008 147.104L183.999 147.091L184.043 147.183L184.023 147.146C184.112 147.399 184.231 147.652 184.294 147.908C183.653 147.609 182.99 147.34 182.583 146.795ZM181.741 145.382L181.715 145.385L181.741 145.382ZM181.789 145.374L181.807 145.366L181.789 145.374ZM181.807 145.366L181.811 145.369L181.807 145.366ZM138.351 129.318C137.475 130.194 135.864 130.022 134.945 129.104C136.196 129.625 137.567 129.529 138.681 128.97C138.58 129.094 138.472 129.205 138.351 129.318ZM133.952 127.992L133.977 128.014L133.952 127.992ZM133.975 127.978C135.067 127.603 136.47 127.482 137.614 127.979L137.597 127.969L137.699 128.017L137.665 127.998C137.881 128.108 138.079 128.241 138.263 128.384L138.255 128.379L138.33 128.446L138.318 128.439L138.351 128.457C137.036 129.197 135.197 128.875 133.957 127.986L133.975 127.978ZM133.948 127.981L133.94 127.976L133.952 127.983L133.948 127.981ZM104.055 122.653C103.872 122.902 103.542 123.029 103.305 123.231L103.309 123.225L103.3 123.229L103.314 123.219L103.309 123.225L103.341 123.2L103.327 123.209L103.341 123.2C102.597 123.697 101.47 123.219 100.617 123.009C100.713 122.78 100.822 122.55 101.029 122.373L100.993 122.396L101.06 122.348L101.034 122.367C101.446 122.141 101.808 121.827 102.326 121.761L102.231 121.777C103.058 121.547 103.81 121.659 104.568 122.047C104.54 122.1 104.546 122.163 104.566 122.225C104.37 122.356 104.212 122.5 104.055 122.653ZM100.602 123.077L100.593 123.073L100.598 123.067L100.602 123.077ZM89.9933 120.723C89.873 120.81 89.7691 120.916 89.6488 120.995L89.6978 120.962C89.6174 121.02 89.5377 121.07 89.4573 121.129L89.5024 121.094C89.0116 121.456 88.5481 121.876 87.9375 122.106L87.9812 122.087C87.8936 122.116 87.8061 122.153 87.7224 122.184L87.8015 122.151C87.0667 122.457 86.1622 122.244 85.3827 122.049C85.5754 121.882 85.7512 121.714 85.8211 121.488L85.8119 121.5L85.8264 121.473L85.8165 121.494C85.9314 121.318 85.9457 121.079 86.1503 120.943L86.1373 120.953C86.4752 120.729 86.7922 120.493 87.191 120.361L87.1648 120.364C87.3146 120.309 87.4597 120.244 87.6095 120.189L87.535 120.216C88.4411 119.859 89.479 120.187 90.4208 120.436C90.2651 120.522 90.1227 120.623 89.9933 120.723ZM85.0183 117.421C84.9517 117.47 84.8857 117.502 84.8105 117.538L84.8497 117.525L84.766 117.556L84.8013 117.541C81.7025 118.73 78.0196 117.675 75.2278 116.015C75.4284 115.869 75.6298 115.715 75.839 115.574L75.7677 115.62C76.171 115.389 76.4912 115.061 76.9233 114.862C79.2444 116.52 82.5169 117.113 85.4007 117.17C85.2641 117.24 85.1517 117.341 85.0183 117.421ZM75.159 113.474L75.1407 113.498L75.159 113.474ZM75.1431 113.218L75.1477 113.22L75.1431 113.218ZM75.6427 113.184C76.4036 112.764 77.302 112.598 78.144 112.317L78.061 112.34L78.1885 112.298L78.1793 112.302C78.956 112.036 79.8441 112.018 80.7014 112.102L80.6628 112.098C81.3391 112.186 82.0532 112.277 82.6275 112.625L82.6026 112.602L82.6786 112.652L82.6399 112.631C84.2021 113.696 85.5341 114.968 86.8683 116.216C86.3746 116.321 85.9497 116.558 85.4246 116.595L85.4547 116.594L85.3631 116.604L85.3893 116.601L85.3023 116.613L85.3246 116.609L85.2377 116.621L85.2723 116.614C84.9466 116.641 84.6184 116.632 84.2861 116.596L84.3038 116.597C82.1444 116.279 79.8634 115.989 77.9958 114.885L78.0299 114.903L77.9624 114.858L77.9795 114.867C77.3919 114.411 76.6823 114.1 76.0406 113.716L76.1211 113.76C76.0701 113.732 76.019 113.704 75.9726 113.679L76.0484 113.72C75.8332 113.586 75.6055 113.445 75.3773 113.32C75.4655 113.275 75.5537 113.229 75.6427 113.184ZM74.6516 115.82L74.7072 115.842L74.6516 115.82ZM92.1455 110.662L92.1585 110.661C91.1268 110.915 90.0493 111.333 88.9688 110.777L89.0237 110.807L88.9301 110.765L88.9517 110.768C88.7437 110.672 88.5502 110.549 88.3688 110.416L88.3898 110.436L88.3062 110.373L88.327 110.385C87.7899 109.972 87.2483 109.583 86.7197 109.167C86.8484 109.084 87.0231 109.06 87.18 109.026L87.1623 109.034C87.2538 109.016 87.3545 108.994 87.4487 109.02C87.5821 109.033 87.7227 109.084 87.8542 109.053C87.8993 109.104 87.9452 109.154 87.9857 109.21L87.9739 109.187L88.019 109.246L88.0105 109.241C88.9091 110.549 90.8682 110.468 92.3946 110.602C92.3069 110.622 92.2285 110.639 92.1455 110.662ZM86.6491 109.214L86.6354 109.223L86.6491 109.214ZM87.3716 109.003L87.3454 108.997L87.3716 109.003ZM87.3754 109.005L87.3886 109.004L87.3754 109.005ZM87.8659 108.012C86.1553 105.631 93.2367 108.208 92.6381 110.045C91.5486 109.91 90.3926 110.038 89.3768 109.586L89.3938 109.595L89.3049 109.555L89.3683 109.581C89.0583 109.446 88.8149 109.254 88.6297 109.016L88.6507 109.045L88.6009 108.984L88.6094 108.997C88.3542 108.67 88.0551 108.362 87.8659 108.012ZM87.4437 107.228L87.4339 107.257L87.4437 107.228ZM87.4483 107.222L87.449 107.214L87.4483 107.222ZM87.4411 107.193L87.4281 107.203L87.4411 107.193ZM87.4549 107.183L87.449 107.214L87.4549 107.183ZM87.4549 107.183L87.4411 107.193L87.4549 107.183ZM57.378 101.67C55.9617 102.967 53.8299 101.668 52.4164 100.803C52.589 100.71 52.7288 100.565 52.9176 100.489C54.3286 101.131 55.9155 102.09 57.5043 101.56C57.4638 101.597 57.4232 101.635 57.378 101.67ZM52.7771 100.548L52.7633 100.558L52.7771 100.548ZM52.7994 100.535L52.7817 100.542L52.7994 100.535ZM52.6807 99.942L52.703 99.9371L52.6807 99.942ZM54.1794 101.058L54.133 101.041L54.1794 101.058ZM52.3764 99.5631L52.2907 99.5334L52.3764 99.5631ZM53.2044 99.8274C53.4175 99.7988 53.6307 99.7789 53.8432 99.767L53.7524 99.7685C55.081 99.5478 56.3571 99.9885 57.4808 100.644L57.4514 100.628C57.5312 100.689 57.6156 100.743 57.7084 100.785C56.8234 101.478 55.3919 101.055 54.4172 100.549L54.5022 100.578C54.3407 100.515 54.1745 100.45 54.0123 100.387L54.0935 100.423C53.7206 100.228 53.3471 100.05 52.9558 99.8707C53.0351 99.8543 53.1174 99.8395 53.2044 99.8274ZM68.5087 96.4642C65.4568 96.3922 62.4016 96.1906 59.3556 96.0792C59.4118 96.0843 59.4635 96.0869 59.5152 96.0981C59.4465 96.0862 59.3772 96.0824 59.3078 96.0787L59.3125 96.0812C59.2562 96.0761 59.2045 96.0649 59.1483 96.0683L59.2176 96.0721C58.8592 96.0469 58.5055 96.0243 58.147 95.9991C58.1995 96.0021 58.255 96.0069 58.3113 96.012C56.9269 95.9042 55.5451 95.8318 54.1548 95.7462C54.559 94.7572 54.801 93.7138 55.0077 92.6766C60.4854 93.6376 65.8197 95.2444 71.2336 96.5028C70.3246 96.5009 69.417 96.4742 68.5087 96.4642ZM52.3947 97.1114C51.9406 97.8347 51.3132 98.472 50.5563 98.996L50.5647 98.9921C50.5333 99.0176 50.4981 99.0409 50.4575 99.0699L50.5517 99.002C48.4829 100.591 45.8077 101.567 42.9882 102.048L43.1098 102.038C42.6835 102.086 42.2703 102.15 41.8793 102.286C42.0531 101.862 42.1397 101.423 42.1106 100.964L42.1167 101.044C42.4613 100.014 42.9034 98.9438 44.0068 98.3107L43.9265 98.369C44.348 98.0113 44.9431 98.0634 45.5251 98.1083L45.4912 98.1068C48.0912 98.3242 50.6045 97.8043 52.4367 96.3933C52.5838 96.3969 52.7172 96.41 52.8637 96.4303C52.7076 96.6518 52.5508 96.8814 52.3947 97.1114ZM41.8454 102.379L41.8702 102.307L41.8454 102.379ZM39.898 96.5803C39.1734 96.628 38.453 96.7885 37.7211 96.6874C37.8061 96.5294 37.8733 96.3617 37.9282 96.1872L37.9229 96.2013C37.9575 96.1009 37.9876 96.0066 38.0169 95.9118C38.011 95.9512 37.9967 95.986 37.9869 96.0147C38.3911 94.9235 39.2726 93.9904 40.0627 93.0841L39.9785 93.1489C40.2745 92.8931 40.628 92.6941 41.0322 92.5654L41.0277 92.5714L41.1197 92.5279L41.0975 92.5413L41.1158 92.5173C44.9475 94.3691 50.0248 94.6516 53.6202 92.8567L53.5411 92.8902L53.6241 92.8674C53.5008 93.3367 53.0596 93.6582 52.7917 94.0657L52.8055 94.0476C52.7689 94.1044 52.7324 94.1525 52.6912 94.2067L52.7414 94.132C51.0628 96.2486 47.9514 97.3024 44.7626 96.9683L44.8065 96.9667C44.7457 96.9676 44.6855 96.9603 44.6247 96.9612L44.6855 96.9604C43.0859 96.8117 41.4934 96.403 39.898 96.5803ZM41.0629 92.548L41.0406 92.5615L41.0629 92.548ZM38.3619 89.7203C37.1523 88.8219 36.176 87.6249 35.3488 86.4837C38.3346 85.6254 41.3092 85.2805 44.5669 85.2774L44.5245 85.2713C44.5885 85.2807 44.6493 85.2798 44.7141 85.2811L44.5847 85.2786C45.9644 85.2902 47.2745 85.8345 48.4389 86.4697L48.4257 86.4626C50.5322 87.8672 53.163 89.3365 53.7234 91.6013C53.6352 91.6469 53.5555 91.697 53.4541 91.7354L53.4718 91.728C52.5277 92.0648 51.5392 92.3262 50.491 92.4528L50.5472 92.4494C50.0614 92.4825 49.6233 92.6098 49.1571 92.6877L49.1748 92.6888C48.2574 92.7846 47.4003 93.1177 46.431 92.8956L46.4789 92.9046C46.3755 92.8908 46.2676 92.8831 46.1688 92.8633L46.2205 92.8745C46.1727 92.8654 46.1211 92.8628 46.0694 92.8516L46.091 92.8549L45.9962 92.8458L46.0486 92.8488C45.2454 92.794 44.4516 92.7442 43.6785 92.4928C43.7302 92.504 43.7812 92.5233 43.8329 92.5345C42.3993 92.2379 41.265 91.4232 40.009 90.8062L40.0261 90.8155C39.9797 90.7902 39.9371 90.767 39.8945 90.7438L39.9456 90.7716C39.3655 90.4722 38.9062 90.0598 38.3619 89.7203ZM35.3488 86.4837L35.371 86.4703L35.3488 86.4837ZM35.3271 86.3782L35.3362 86.3576L35.3271 86.3782ZM45.2747 83.5256C44.8352 83.1751 44.3916 82.8053 44.054 82.3912C44.082 82.432 44.1194 82.4779 44.1475 82.5274C43.2079 81.393 42.7142 80.2378 43.5492 79.0749C43.9724 79.3058 44.4002 79.5392 44.8319 79.7662L44.7646 79.7295L44.794 79.7455L44.6841 79.6856C46.2279 80.6641 47.858 81.5362 49.5566 82.3095C49.5101 82.2842 49.4506 82.2602 49.4088 82.2289C52.9512 83.7355 54.5698 86.2624 54.8854 89.3221L54.8789 89.2845L54.9051 89.3839L54.9012 89.3733C55.0054 89.6857 54.9833 90.0058 54.9018 90.3106C53.1957 86.8586 48.6416 85.5241 45.2747 83.5256ZM52.5317 84.1539L52.4479 84.0827L52.5317 84.1539ZM41.2739 102.493L41.2786 102.495L41.2739 102.493ZM41.6332 102.816L41.6286 102.822L41.6332 102.816ZM27.083 91.7871C26.1056 91.9863 25.0055 91.7014 24.274 91.0639L24.2957 91.0757L24.1989 91.0058L24.2492 91.0418C23.8718 90.7507 23.4857 90.455 23.2416 90.0748C23.311 90.0785 23.3841 90.0759 23.4535 90.0796L23.4235 90.0802C24.9948 90.1623 27.0192 90.0657 28.1865 91.1539L28.1668 91.2028L28.1623 91.2088L28.1427 91.2663L28.1264 91.3426L28.1225 91.3405C28.0102 91.654 27.4132 91.652 27.083 91.7871ZM22.8212 90.0924L22.8173 90.0903L22.8257 90.0864L22.8212 90.0924ZM25.0348 89.1876L25.017 89.1865L25.1133 89.1707L25.0825 89.1796L25.1786 89.1553L25.1486 89.1645L25.244 89.1484L25.2394 89.1459C25.3579 89.1253 25.484 89.1004 25.6108 89.0674L25.5055 89.0951C25.9254 89.0005 26.3693 89.0297 26.8069 89.1321L26.7899 89.1315L26.8926 89.1534L26.8239 89.1414C27.3151 89.2987 27.705 89.6051 28.0817 89.9043L28.0648 89.895C28.2107 90.0428 28.3729 90.1909 28.4836 90.3535C28.4594 90.4085 28.4359 90.4552 28.4209 90.5067L28.411 90.5269C27.2597 89.6944 25.687 89.6371 24.2907 89.3864C24.5163 89.2795 24.7856 89.239 25.0348 89.1876ZM19.1658 77.7152L19.1874 77.7184L19.1658 77.7152ZM19.1574 77.7191L19.1658 77.7152L19.1574 77.7191ZM19.1396 77.718L19.1619 77.7131L19.1396 77.718ZM15.8601 77.3939C15.3946 77.2592 15.0308 76.95 14.6736 76.687L14.7364 76.7383C14.6899 76.7044 14.6441 76.6624 14.5983 76.6204L14.6603 76.6798C14.6316 76.6471 14.5944 76.6183 14.5603 76.5912C15.3466 77.0456 16.2656 77.334 17.1804 77.4839C17.0411 77.5016 16.9117 77.5076 16.773 77.5001L16.8555 77.5025C16.518 77.4973 16.1943 77.474 15.8601 77.3939ZM15.1622 74.6878C16.0997 74.4071 17.0069 74.7572 17.8088 75.2458L17.7879 75.2258L17.8507 75.2772L17.8383 75.2704C17.9136 75.337 17.9972 75.3997 18.0718 75.4744C18.45 75.8596 18.5857 76.3596 18.8711 76.7878C18.006 75.8218 16.8142 75.1291 15.4199 74.837L15.433 74.8355C15.3342 74.8157 15.2446 74.7925 15.1459 74.7727L15.1629 74.7734C15.0772 74.7522 14.9916 74.7396 14.9098 74.7205C14.9967 74.7083 15.0798 74.694 15.1622 74.6878ZM19.8129 77.0375L19.8089 77.0268L19.8129 77.0375ZM13.2183 75.0328L13.1744 75.0344L13.2183 75.0328ZM14.6254 75.9623C14.1217 75.6875 13.6586 75.3752 13.2183 75.0328L13.2483 75.0322L13.2437 75.0382C13.8571 75.0576 14.4529 75.1953 15.0586 75.3213L14.9644 75.2955L15.0879 75.3287L15.0671 75.3259C15.1481 75.3446 15.2338 75.3657 15.3148 75.3844L15.2168 75.365C16.409 75.615 17.4857 76.1683 18.2212 77.0125L18.1388 77.0101L18.2042 77.0117C16.9461 76.9812 15.6628 76.6134 14.6254 75.9623ZM36.9252 72.4205C36.6793 72.4993 36.4466 72.5853 36.1843 72.6382L36.2066 72.6333L36.1235 72.6476L36.1804 72.636C35.5528 72.7536 34.8746 72.7159 34.2356 72.5717L34.2533 72.5729C32.8746 72.204 31.6677 71.3668 30.664 70.5041C31.9191 70.7203 33.1962 70.71 34.4447 70.9651L34.4145 70.9572C35.5368 71.1351 36.5565 71.5977 37.4213 72.2313C37.2593 72.2962 37.0957 72.3602 36.9252 72.4205ZM32.3476 69.8723C33.947 69.7993 36.2571 69.5008 37.2008 70.9611C35.3856 69.8516 33.1711 70.2619 31.1569 69.9978C31.5453 69.9201 31.944 69.8906 32.3476 69.8723ZM49.2318 73.6572C49.1762 73.6439 49.1207 73.6306 49.069 73.6194L49.1292 73.6353C48.9494 73.5968 48.7793 73.5211 48.6405 73.4113C48.893 73.4809 49.1363 73.5625 49.3699 73.6814L49.2966 73.667L49.3568 73.6828L49.2318 73.6572ZM47.5034 69.9205C49.5851 70.332 51.7753 71.9953 50.6222 73.7427C50.5796 73.7195 50.5416 73.6903 50.5083 73.6636C50.4643 72.1064 49.2308 70.5306 47.4132 69.9053L47.5034 69.9205ZM46.6148 71.2159C46.3569 70.8538 46.3391 70.4522 46.2859 70.0655C47.9132 70.6892 49.5812 71.6843 49.76 73.2383C48.546 72.7635 47.166 72.3343 46.6148 71.2159ZM70.7826 87.7645C70.6538 87.7368 70.5295 87.7116 70.4091 87.68L70.5125 87.7023C69.047 87.5587 68.1878 86.4682 68.359 85.3351C68.4003 85.3917 68.437 85.4457 68.4782 85.5023L68.4527 85.4799C69.0405 86.4564 69.8918 87.4319 71.2057 87.7909C71.0618 87.8061 70.9239 87.799 70.7826 87.7645ZM69.6086 85.148C70.7565 85.5527 72.1746 86.2155 72.2621 87.3365C71.7547 87.3663 71.2656 87.2784 70.8214 87.0276L70.8515 87.0355C70.6343 86.934 70.4277 86.8213 70.2379 86.6923L70.2503 86.699L70.179 86.643L70.2176 86.6641C69.6104 86.154 69.2438 85.4941 68.8146 84.8852C69.0892 84.9413 69.3496 85.0408 69.6086 85.148ZM68.5599 84.4481L68.5554 84.4541L68.5599 84.4481ZM70.4439 85.4673L70.4477 85.4694L70.423 85.4559L70.4439 85.4673ZM80.5893 87.6118C79.5148 87.4345 78.6727 86.6515 78.2864 85.836C78.8538 86.5629 79.7246 87.1827 80.6285 87.6076L80.5893 87.6118ZM79.7563 85.4623C80.4745 85.8711 81.1752 86.5175 81.2803 87.2307C80.0161 86.8306 79.028 85.8998 78.4017 84.9278C78.8667 85.0878 79.3088 85.2778 79.7563 85.4623ZM102.03 80.7564L102.117 80.7357C100.825 81.1127 99.6096 81.6337 98.3098 81.9893L98.349 81.9852C97.4749 82.1983 96.5019 82.187 95.63 81.8136L95.6894 81.8375L95.6045 81.8082L95.6253 81.811C94.1275 81.1984 92.8075 80.4698 91.958 79.2313C92.4354 79.2106 92.893 79.1196 93.3351 79.0115L93.2474 79.0318C93.4527 78.982 93.6529 78.9634 93.8646 78.9511L93.8476 78.9504C94.5106 78.9203 95.1737 78.8987 95.8402 79.0153L95.814 79.0095L95.9004 79.0225L95.8479 79.0195C98.3896 79.929 100.902 79.9708 103.557 80.329C102.986 80.3409 102.542 80.6098 102.03 80.7564ZM91.748 79.0827L91.7434 79.0887L91.748 79.0827ZM96.8335 77.8876C95.965 76.4939 94.6695 75.259 93.9853 73.8041C96.4457 74.3711 99.5811 74.3014 101.358 76.1479L101.32 76.1105L101.395 76.1938L101.357 76.156L101.419 76.2325L101.353 76.1453C102.136 77.2282 102.539 78.4701 103.444 79.5093C103.356 79.5463 103.31 79.6146 103.294 79.6913C102.864 79.6269 102.446 79.5697 102.016 79.5139L102.033 79.5146C100.179 79.2527 98.0429 79.4332 96.8335 77.8876ZM102.684 76.6244C102.331 75.9546 101.806 75.3279 101.053 74.9087C100.612 73.7565 99.1746 72.3931 100.237 71.2778C100.825 71.5301 101.337 71.9032 101.85 72.2515L101.8 72.2155C102.202 72.5372 102.614 72.8383 103.139 73.0055L103.106 72.9874L103.191 73.0252L103.147 73.0101C103.318 73.0859 103.456 73.1957 103.603 73.3011L103.528 73.2516C104.16 73.6478 104.581 74.2521 104.646 74.8839L104.647 74.8758C105.137 76.3104 104.224 77.4815 104.133 78.8459C103.591 78.1243 103.062 77.41 102.684 76.6244ZM100.183 71.1289L100.179 71.1268L100.183 71.1289ZM102.827 72.1878L102.86 72.2145L102.827 72.1878ZM105.252 73.3916C105.524 72.6628 106.046 71.9681 106.62 71.3864L106.674 71.5186L106.648 71.4444L106.686 71.5592L106.674 71.5186C106.726 71.6487 106.781 71.7728 106.832 71.9029L106.832 71.8943L106.86 71.9689L106.856 71.9498L106.872 72.001L106.876 71.9949L106.898 72.0752L106.9 72.0504C107.473 73.0531 107.473 74.126 107.684 75.1785L107.686 75.1451L107.687 75.2225L107.689 75.181C107.602 76.9903 105.748 78.1936 105.436 79.889L105.432 79.8865L105.436 79.889C105.273 79.655 105.016 79.4891 104.873 79.2498C104.854 77.8254 105.922 76.5852 105.381 75.0975L105.388 75.1441C105.352 74.758 105.298 74.3709 105.067 74.0064C105.26 73.8557 105.162 73.598 105.252 73.3916ZM104.995 79.4525L105 79.4551L104.995 79.4525ZM104.953 79.4126L104.987 79.4479L104.953 79.4126ZM120.726 100.402L120.679 100.402L120.696 100.402C119.292 100.352 118.129 99.3516 117.433 98.401L117.438 98.4036L117.4 98.3577L117.409 98.3623L117.405 98.3516C117.652 98.3583 117.91 98.3633 118.147 98.4154C118.311 98.6243 118.529 98.8028 118.737 98.9847C118.771 99.02 118.809 99.0492 118.847 99.0785L118.784 99.0186C119.471 99.6744 120.345 100.211 121.377 100.357C121.164 100.402 120.947 100.42 120.726 100.402ZM117.231 98.163L117.226 98.169L117.231 98.163ZM117.984 98.3778L117.996 98.3845L117.984 98.3778L117.967 98.377L117.98 98.3756L117.937 98.3691L117.984 98.3778ZM118.21 97.3939C118.149 97.2925 118.067 97.1879 118.024 97.0796C119.766 97.4419 121.037 98.5186 121.77 99.8556C120.86 99.7682 120.051 99.3523 119.421 98.7868L119.425 98.7974C119.366 98.7401 119.304 98.6807 119.237 98.6268L119.304 98.6888C118.847 98.3037 118.445 97.8884 118.21 97.3939ZM118.02 97.077L118.033 97.0756L118.02 97.077ZM121.766 99.8616L121.774 99.8577L121.779 99.8602L121.766 99.8616ZM106.464 88.2859C106.117 88.2928 105.773 88.2328 105.43 88.1733L105.455 88.1787L105.365 88.1635L105.421 88.1687C104.817 88.0431 104.334 87.6775 103.858 87.3499L103.874 87.3673L103.791 87.2961L103.816 87.31C103.707 87.2334 103.607 87.1447 103.524 87.0487L103.537 87.0639L103.475 86.996L103.495 87.0241L103.433 86.9394L103.576 86.9405L103.564 86.9423L103.65 86.9468L103.641 86.9417C103.762 86.94 103.888 86.9403 104.004 86.9442L103.983 86.9409C104.688 86.934 105.432 86.9397 106.092 87.206L106.089 87.2039L106.169 87.2392L106.135 87.2292C106.611 87.4293 106.735 87.8972 107.099 88.1978C106.877 88.2217 106.684 88.2783 106.464 88.2859ZM106.569 71.2482L106.569 71.2567L106.566 71.2294L106.569 71.2482ZM119.622 80.5749C119.431 80.59 119.236 80.6111 119.047 80.5681L119.133 80.5892C119.06 80.5667 118.983 80.5583 118.91 80.5357L118.996 80.5569C118.768 80.5094 118.536 80.4597 118.309 80.4208L118.395 80.4334C117.827 80.2262 117.275 79.8907 116.902 79.4747L116.943 79.5308L116.878 79.444L116.899 79.4725C116.644 79.1292 116.552 78.7299 116.486 78.3445L116.492 78.4074L116.483 78.3172L116.482 78.3253C116.481 78.265 116.483 78.1983 116.477 78.1354C116.962 78.9789 117.721 79.7762 118.763 80.2001L118.755 80.1959L118.84 80.2334L118.823 80.2326C119.005 80.3237 119.206 80.3821 119.417 80.4117L119.396 80.4089C119.562 80.4488 119.725 80.5031 119.882 80.5636C119.795 80.5672 119.704 80.5773 119.622 80.5749ZM115.732 76.775L115.741 76.7545L115.737 76.7605L115.723 76.7871L115.732 76.775ZM118.071 77.6591L118.016 77.6377C119.158 78.09 119.615 79.0637 119.98 79.9696L119.96 79.9333L119.984 79.9888L119.98 79.9781L119.984 79.9888L119.968 79.9543L119.984 79.9888C119.69 79.8793 119.37 79.8667 119.091 79.7229L119.146 79.7528L119.064 79.7171L119.077 79.7243L118.996 79.6885L119.026 79.6964C117.861 79.2054 117.201 78.1981 116.708 77.2559L116.712 77.2584L116.672 77.1771C117.17 77.253 117.625 77.4583 118.071 77.6591ZM146.925 102.445L146.871 102.374L146.925 102.445ZM140.377 96.5733L140.316 96.5742L140.359 96.5722C139.631 96.5156 138.941 96.3521 138.415 95.8777L138.423 95.8909C138.118 95.6138 137.896 95.2455 137.815 94.8863C138.423 95.6779 139.431 96.2022 140.455 96.5732L140.364 96.5748L140.377 96.5733ZM139.041 93.792L139.084 93.8066L139.041 93.792C139.207 93.8738 139.362 93.9757 139.501 94.0855L139.501 94.0769L139.526 94.099L139.505 94.0876C139.983 94.4507 140.266 94.9456 140.479 95.4368L140.456 95.3814C140.541 95.6238 140.688 95.8486 140.795 96.0861C139.336 95.6566 138.195 94.7017 137.778 93.4774L137.781 93.4963C137.757 93.4408 137.734 93.3773 137.706 93.3193L137.742 93.39L137.707 93.2941C137.75 93.3092 137.788 93.3298 137.835 93.3384L137.827 93.3424L137.869 93.357L137.835 93.3384L137.929 93.381L137.89 93.3684L137.912 93.3802L137.873 93.3591L137.878 93.3616L137.869 93.357L137.873 93.3591L137.869 93.357C138.238 93.5412 138.65 93.6298 139.036 93.7895L138.995 93.7667L139.041 93.792ZM140.795 96.0861L140.775 96.0494L140.799 96.0882L140.795 96.0861ZM137.698 93.2894L137.698 93.3061L137.698 93.2894ZM137.705 93.123L137.696 93.135L137.705 93.123ZM197.459 141.222L197.475 141.248L197.459 141.222ZM182.576 128.41L182.614 128.405C181.718 128.411 180.906 128.07 180.436 127.404C181.084 127.851 181.82 128.245 182.632 128.406L182.641 128.411L182.576 128.41ZM181.028 125.64C181.97 125.865 182.605 126.527 183.123 127.184L183.045 127.082C183.242 127.342 183.413 127.606 183.584 127.878C181.933 128.025 180.355 126.73 179.945 125.458C180.306 125.494 180.671 125.565 181.028 125.64ZM262.589 168.592C261.4 168.327 260.333 167.574 260.785 166.552C260.996 167.101 261.426 167.591 261.956 167.983L261.922 167.956L261.988 168.017L261.972 168C262.238 168.264 262.562 168.492 262.914 168.684C262.806 168.651 262.695 168.624 262.589 168.592ZM262.143 165.742C262.691 165.982 263.191 166.331 263.604 166.718L263.588 166.692C264.234 167.3 264.572 168.132 264.235 168.859C262.823 167.927 261.102 166.938 261.164 165.336C261.524 165.413 261.792 165.636 262.143 165.742ZM226.512 143.511C225.31 145.189 222.768 144.688 221.155 143.399L221.16 143.402C220.992 143.268 220.829 143.128 220.653 142.998C221.359 143.076 222.018 143.351 222.714 143.475L222.68 143.465C222.735 143.478 222.792 143.492 222.843 143.502L222.83 143.504C224.176 143.804 225.496 143.477 226.781 143.275C226.709 143.354 226.615 143.439 226.512 143.511ZM220.709 142.151C222.277 140.843 225.558 141.031 227.068 142.597C225.767 142.892 224.311 143.043 222.922 142.949L222.948 142.955L222.853 142.937L222.879 142.943L222.763 142.914L222.789 142.919C221.983 142.735 221.215 142.47 220.388 142.385C220.503 142.32 220.61 142.234 220.709 142.151ZM206.891 131.538C206.189 131.862 205.175 131.488 204.655 130.991C205.043 131.212 205.499 131.4 205.967 131.392L205.949 131.391C206.406 131.427 206.867 131.372 207.308 131.28C207.199 131.391 207.032 131.462 206.891 131.538ZM205.167 130.623L205.159 130.619L205.167 130.623ZM204.307 129.737C205.358 129.569 206.548 129.98 207.241 130.698C206.212 131.006 205.095 130.797 204.311 130.08L204.324 130.087L204.252 130.03L204.264 130.046C204.199 129.984 204.127 129.928 204.047 129.876L204.03 129.858L204.038 129.871L204.026 129.856L204.034 129.86L203.985 129.816L203.997 129.832L203.926 129.776L203.942 129.793L203.917 129.771L203.934 129.78L203.917 129.771C204.051 129.776 204.177 129.751 204.307 129.737ZM201.171 124.15C200.167 124.77 198.744 124.666 197.504 124.509L197.594 124.524C195.679 124.366 193.655 123.381 192.875 121.856L192.884 121.93C192.859 121.797 192.821 121.674 192.779 121.548C194.624 124.242 198.463 123.806 201.528 124.089C201.406 124.1 201.289 124.113 201.171 124.15ZM191.854 119.494C191.972 119.49 192.085 119.492 192.201 119.487L192.184 119.486C195.055 119.34 197.792 120.22 199.82 122.034L199.771 121.99C199.867 122.068 199.972 122.142 200.077 122.216L199.997 122.164C200.34 122.453 200.665 122.759 201.057 123.015L201.023 122.988L201.099 123.046L201.069 123.022C201.187 123.128 201.308 123.237 201.437 123.342C201.427 123.395 201.419 123.451 201.404 123.503C199.267 123.282 197.038 123.522 194.991 122.687L195.016 122.701L194.931 122.671L194.952 122.675C194.412 122.448 194.089 121.99 193.706 121.628L193.734 121.678C193.504 121.373 193.199 121.113 192.951 120.825L192.959 120.846C192.579 120.4 192.231 119.938 191.854 119.494ZM195.36 119.047L195.457 119.117L195.36 119.047ZM194.823 118.549C194.485 118.144 194.222 117.693 193.968 117.248L193.995 117.322L193.947 117.203L193.959 117.244L193.932 117.169L193.944 117.201L193.927 117.175C194.394 117.191 194.786 117.439 195.256 117.474L195.187 117.462L195.282 117.48L195.265 117.479C195.685 117.588 196.093 117.743 196.528 117.793L196.524 117.791L196.606 117.81L196.576 117.802C198.756 118.225 200.307 119.565 200.823 121.329L200.779 121.228C200.823 121.329 200.871 121.431 200.91 121.529L200.876 121.425C201.018 121.758 201.186 122.08 201.341 122.412C200.924 122.125 200.593 121.765 200.163 121.496L200.205 121.528L200.13 121.47L200.15 121.481C199.252 120.702 198.133 120.031 196.98 119.547C196.158 119.346 195.293 119.231 194.823 118.549ZM193.907 117.138L193.902 117.144L193.907 117.138ZM193.868 117.023L193.864 117.03L193.868 117.023ZM191.255 107.216C189.387 107.194 187.786 105.793 187.961 104.27C188.619 105.634 190.142 106.592 191.672 107.274C191.534 107.266 191.397 107.234 191.255 107.216ZM189.992 103.81C190.911 104.295 191.444 105.13 191.796 105.936L191.796 105.927C191.863 106.211 191.946 106.503 192.073 106.777L191.965 106.786C191.715 106.658 191.469 106.532 191.21 106.408L191.286 106.45C190.802 106.211 190.316 105.954 189.918 105.618L189.969 105.655C189.931 105.625 189.898 105.599 189.864 105.563L189.931 105.625C189.898 105.59 189.86 105.561 189.823 105.532L189.894 105.588C189.021 104.916 188.433 104.05 188.247 103.105C188.869 103.24 189.395 103.612 189.992 103.81ZM194.753 113.187L194.744 113.191L194.784 113.162L194.753 113.187ZM194.718 113.211L194.744 113.191L194.718 113.211ZM193.394 113.289C192.124 113.662 190.769 112.53 189.983 111.752C190.302 111.671 190.634 111.818 190.948 111.853C191.481 112.68 192.474 113.154 193.571 113.199C193.509 113.233 193.456 113.264 193.394 113.289ZM191.3 111.295C191.213 111.18 191.11 111.073 191.05 110.946L191.175 110.971L191.17 110.969C191.798 111.167 192.43 111.358 193.007 111.664L192.952 111.634C193.429 111.929 193.988 112.2 194.3 112.625C193.042 112.808 191.874 112.265 191.3 111.295ZM191.008 110.804L191.008 110.812L191.008 110.804ZM195.125 112.658L195.129 112.66L195.125 112.658ZM208.741 113.331C208.547 113.2 208.367 113.042 208.21 112.88L208.222 112.895L208.168 112.84L208.18 112.855C207.882 112.539 207.61 112.203 207.465 111.826C207.649 111.884 207.856 111.903 208.045 111.929L207.955 111.923C208.418 112.005 208.881 112.215 209.18 112.54L209.15 112.515L209.209 112.581L209.184 112.551C209.443 112.863 209.747 113.165 209.822 113.538L209.815 113.5L209.83 113.576L209.823 113.546C209.841 113.625 209.851 113.698 209.843 113.779C209.77 113.765 209.702 113.745 209.634 113.716L209.676 113.739L209.595 113.703L209.604 113.708C209.51 113.674 209.416 113.64 209.322 113.606L209.326 113.608C209.131 113.535 208.935 113.446 208.753 113.338L208.783 113.354L208.703 113.311L208.741 113.331ZM209.807 112.227C210.194 112.497 210.557 112.823 210.562 113.243L210.562 113.234C210.575 113.327 210.52 113.399 210.491 113.485C210.403 112.978 210.006 112.531 209.625 112.127C209.676 112.155 209.731 112.177 209.777 112.21L209.769 112.197L209.845 112.247L209.807 112.227ZM210.808 113.88L210.909 113.952L210.808 113.88ZM239.351 135.992C238.98 135.969 238.574 135.866 238.284 135.648C238.785 135.863 239.389 135.919 239.934 135.91C239.746 135.969 239.546 135.988 239.351 135.992ZM237.072 134.067C237.555 134.007 238.035 134.014 238.533 134.106L238.52 134.099L238.614 134.125L238.584 134.117L238.601 134.127L238.593 134.122C239.133 134.246 239.671 134.421 240.086 134.749L240.027 134.7C240.237 134.857 240.346 135.061 240.489 135.259L240.488 135.284C239.822 135.389 239.082 135.385 238.455 135.069L238.485 135.077C237.933 134.802 237.447 134.434 236.972 134.073L237.072 134.067ZM236.628 133.8L236.621 133.796L236.628 133.8ZM243.611 115.165C241.873 115.324 240.359 116.67 239.766 117.965C239.56 117.7 239.35 117.44 239.167 117.17L239.175 117.183L239.118 117.1L239.138 117.12C238.407 116.168 237.225 114.202 235.68 114.399C234.33 115.357 232.895 116.994 233.309 118.608C227.414 114.745 224.299 118.531 228.045 123.223C220.085 124.554 222.706 126.486 228.425 129.257C231.069 130.299 233.991 128.784 236.049 127.675C238.682 124.554 253.421 138.574 257.055 140.693C252.056 138.732 247.085 136.71 241.832 135.344L241.836 135.346L241.751 135.317L241.767 135.325C241.716 135.315 241.668 135.306 241.617 135.295C241.447 135.117 241.25 134.967 241.115 134.766L241.172 134.848C241.14 134.804 241.107 134.761 241.07 134.715L241.078 134.72C240.411 133.887 239.074 133.465 237.931 133.472L238.022 133.47C237.919 133.465 237.81 133.465 237.694 133.461L237.784 133.468C235.661 133.451 235.57 133.657 236.76 135.116C237.863 136.739 240.193 136.878 241.748 135.895C260.392 139.949 272.501 153.08 284.272 164.986C266.649 154.836 248.679 144.905 229.776 136.51C225.981 132.727 221.31 129.174 218.267 125.001L218.291 125.04C218.178 124.834 218.053 124.62 217.948 124.41L217.948 124.419L217.9 124.333L217.904 124.335C217.783 124.116 217.658 123.894 217.533 123.673L217.545 123.696C217.517 123.647 217.489 123.597 217.461 123.548L217.497 123.602C215.86 120.358 213.794 117.144 210.95 114.442C211.165 114.253 211.224 113.962 211.261 113.701L211.256 113.715L211.264 113.634L211.262 113.659C211.506 112.054 209.113 110.885 207.396 111.09L207.43 111.092L207.318 111.098L207.383 111.091C207.313 111.096 207.24 111.099 207.17 111.103L207.183 111.102L207.097 111.106C206.076 111.401 207.213 112.711 207.672 113.208L207.618 113.145C208.045 113.625 208.64 114 209.311 114.196L209.277 114.186C209.332 114.207 209.387 114.229 209.443 114.251L209.438 114.248C209.609 114.307 209.76 114.338 209.932 114.356C212.17 116.241 213.757 118.564 215.155 120.885L215.111 120.81C215.303 121.17 215.527 121.522 215.724 121.885L215.671 121.797C216.055 122.466 216.316 123.171 216.691 123.844L216.687 123.833L216.74 123.921L216.731 123.917C216.868 124.17 217.013 124.42 217.163 124.672L217.155 124.667L217.167 124.682C215.764 123.457 214.383 122.21 212.93 121.025L212.946 121.042C212.569 120.735 212.192 120.427 211.811 120.125L211.815 120.136L211.727 120.062L211.811 120.125L211.719 120.05C206.004 115.484 199.974 111.104 193.409 107.437C193.346 107.395 193.296 107.342 193.233 107.299C192.077 105.203 191.193 102.898 187.914 102.472L187.952 102.485C187.2 102.372 187.113 103.211 187.081 103.67C186.534 105.322 187.787 107.258 190.011 107.577L189.964 107.568C190.596 107.768 191.274 107.798 191.929 107.857L191.843 107.852C191.899 107.857 191.959 107.856 192.016 107.861L191.929 107.857C192.197 107.875 192.486 107.905 192.719 107.794C196.933 109.922 200.726 112.715 204.509 115.349L204.425 115.278C205.388 116.059 206.306 116.867 207.262 117.643C206.256 117.359 205.31 116.902 204.286 116.651L204.295 116.655C201.195 115.424 198.377 113.648 195.134 112.663C194.719 111.687 189.955 109.054 190.396 111.177C189.815 111.082 188.517 111.31 189.313 111.924L189.28 111.897C190.553 113.452 193.173 114.779 194.84 113.167C198.179 114.171 201.059 116.006 204.243 117.266L204.235 117.261C205.137 117.515 205.973 117.929 206.885 118.162L206.86 118.157L206.954 118.182L206.928 118.177L207 118.199L206.979 118.196C207.633 118.399 208.289 118.647 208.896 118.935L208.879 118.934L208.874 118.932C209.371 119.279 209.835 119.669 210.318 120.035L210.28 120.006C210.313 120.032 210.347 120.059 210.381 120.086L210.377 120.075C216.043 124.657 221.26 129.573 226.146 134.7C218.634 130.159 206.394 127.605 201.712 121.081L201.731 121.134C201.316 120.192 200.866 119.231 199.849 118.583L199.938 118.64C198.609 117.608 196.758 117.279 195.086 116.878L195.116 116.886L195.022 116.869L195.069 116.878C194.532 116.679 193.048 116.244 193.209 117.073C193.205 117.181 193.261 117.288 193.317 117.395L193.296 117.367C193.61 117.956 193.962 118.54 194.451 119.054C193.557 119.009 190.472 118.39 191.256 119.747C192.058 122.135 193.702 124.778 197.15 125.023L197.055 125.014C199.014 125.546 200.675 124.834 202.444 124.649L202.392 124.655C202.617 124.649 202.855 124.643 203.087 124.676L203.079 124.672C203.186 124.679 203.281 124.713 203.383 124.752C203.464 124.779 203.545 124.806 203.621 124.84L203.604 124.83L203.69 124.86L203.626 124.842C208.986 127.596 214.245 130.508 219.814 132.966C219.546 132.939 219.283 132.915 219.026 132.86L219.111 132.881C217.611 132.54 216.079 132.334 214.579 131.976L214.596 131.985C214.348 131.926 214.108 131.855 213.859 131.804L213.945 131.826C213.624 131.753 213.297 131.702 212.975 131.629L213.061 131.65C212.551 131.517 212.032 131.412 211.508 131.314L211.598 131.329C210.353 130.897 208.748 131.086 207.706 130.322L207.757 130.366C206.8 129.325 205.161 128.976 203.741 129.206L203.763 129.202C201.093 129.304 206.493 134.387 208.15 131.211C209.539 131.535 210.955 131.719 212.344 132.051L212.253 132.036C212.737 132.155 213.222 132.258 213.712 132.346L213.626 132.325C213.715 132.348 213.814 132.368 213.908 132.394L213.824 132.364C215.362 132.735 216.914 133.071 218.48 133.303L218.39 133.279C219.323 133.533 220.299 133.563 221.237 133.802L221.22 133.801C230.157 138.089 239.21 142.406 247.927 147.084C246.934 146.832 245.911 146.76 244.931 146.498L244.956 146.511C244.896 146.487 244.828 146.476 244.764 146.458L244.828 146.476C244.545 146.398 244.263 146.329 243.985 146.254L244.061 146.279C241.286 145.481 238.434 144.955 235.638 144.247C235.685 144.265 235.745 144.28 235.796 144.291C233.334 143.655 230.857 142.968 228.319 142.691C228.246 142.498 227.998 142.413 227.875 142.244L227.887 142.259C225.84 139.737 221.624 140.308 219.568 142.108C218.853 142.356 218.811 142.751 219.596 143.026L219.579 143.017C219.774 143.106 219.952 143.212 220.12 143.329L220.107 143.313L220.166 143.371L220.166 143.363C220.771 143.897 221.488 144.348 222.271 144.69L222.241 144.682C224.517 146.043 226.676 144.887 227.891 143.335C228.77 143.422 229.628 143.601 230.475 143.841C230.432 143.827 230.385 143.818 230.343 143.803C230.796 143.923 231.254 144.037 231.708 144.157L231.7 144.152L231.772 144.175L231.76 144.168L231.836 144.192L231.824 144.186C231.995 144.228 232.162 144.277 232.329 144.316L232.3 144.309C232.371 144.331 232.445 144.345 232.517 144.368L232.5 144.359C232.547 144.376 232.594 144.385 232.642 144.393L232.551 144.378C234.646 145.001 236.735 145.664 238.874 146.149L238.87 146.147C242.035 146.962 245.146 147.884 248.342 148.555C248.275 148.535 248.202 148.512 248.133 148.492C249.045 148.733 249.957 148.959 250.869 149.2C250.796 149.186 250.724 149.164 250.651 149.149C251.471 149.307 252.262 149.748 253.091 149.791C265.234 157.037 278.181 163.256 289.952 170.938C300.397 182.531 309.988 194.73 318.651 207.199C323.765 215.661 328.013 224.41 334.425 232.363C319.136 219.09 301.822 207.098 285.816 194.755C279.289 186.152 272.967 177.388 265.131 169.476L265.173 169.516C264.655 169.174 265.112 168.767 265.052 168.351C265.098 167.652 264.736 166.97 264.17 166.414L264.195 166.461C263.361 165.674 260.748 163.772 260.308 165.508L260.337 165.439C259.24 167.6 260.73 168.949 263.468 169.396L263.541 169.418L263.485 169.405C263.817 169.535 264.149 169.665 264.459 169.834L264.378 169.79C271.975 177.307 277.766 186.25 284.226 194.492C263.38 180.088 242.163 166.086 218.974 154.39C200.309 147.368 198.343 138.757 184.736 128.157C184.309 127.073 183.551 125.935 182.295 125.318L182.355 125.342C176.089 122.409 179.34 130.282 183.71 128.816L183.627 128.83C183.889 128.777 184.15 128.74 184.393 128.634C190.392 133.432 195.605 139.052 200.209 144.75C190.511 139.195 180.645 133.805 170.146 129.406C167.246 125.541 162.784 122.587 159.568 119.035L159.584 119.07L159.54 118.978L159.548 118.991C158.487 116.785 156.823 114.753 155.279 112.727L155.287 112.739L155.217 112.65L155.255 112.688C155.205 112.627 155.151 112.563 155.098 112.5C154.97 112.345 154.842 112.19 154.714 112.035L154.768 112.099C153.454 110.487 152.32 108.796 150.869 107.254L150.923 107.301C150.877 107.251 150.836 107.203 150.8 107.149L150.804 107.151L150.725 107.065L150.754 107.098C150.573 106.88 150.395 106.664 150.213 106.454L150.222 106.458L150.148 106.367L150.164 106.384C149.357 105.407 148.575 104.427 147.789 103.436L147.814 103.467C145.913 101.161 144.33 98.7216 141.952 96.6747C141.962 96.6293 141.93 96.5858 141.909 96.5406L141.918 96.5539C141.735 96.1642 141.63 95.7582 141.452 95.3711L141.459 95.392C141.433 94.0319 136.595 91.1968 136.969 93.6584L136.959 93.593C136.969 93.6836 136.973 93.7799 136.978 93.8761L136.983 93.8533L136.992 93.9517L136.988 93.9496C136.902 95.2913 137.952 96.9202 139.764 97.0484L139.73 97.0384C140.153 97.1585 140.583 97.1373 141.011 97.1492L140.972 97.1452L141.062 97.1518L141.024 97.1478C141.217 97.1682 141.431 97.259 141.615 97.1807C144.458 99.9158 146.448 103.105 148.818 106.093L148.744 106.001C149.118 106.47 149.471 106.943 149.859 107.402L149.846 107.387L149.921 107.478L149.913 107.457C149.962 107.518 150.007 107.585 150.056 107.646L149.982 107.546C150.571 108.301 151.283 108.979 151.875 109.728L151.867 109.724C152.679 110.797 153.434 111.899 154.345 112.932L154.328 112.906C154.588 113.219 154.839 113.534 155.09 113.85L155.082 113.837L155.156 113.929L155.115 113.881C156.223 115.345 157.327 116.816 158.299 118.335C157.037 117.237 155.618 116.284 154.257 115.27L154.265 115.274C153.665 114.827 153.064 114.38 152.465 113.934C152.527 113.977 152.595 114.031 152.657 114.073C149.825 111.821 146.938 109.616 143.98 107.474L143.983 107.485C143.921 107.433 143.849 107.386 143.787 107.335L143.807 107.346C134.589 99.5912 129.644 88.802 120.951 80.5673C120.43 79.2437 119.834 77.6158 118.037 77.0271L118.041 77.0292C117.693 76.8735 117.34 76.732 116.962 76.662L117.047 76.6746C116.623 76.5879 115.961 76.3631 115.732 76.7665C115.206 78.3193 115.842 80.5233 118.153 80.949L118.063 80.9338C118.256 80.9879 118.462 81.0151 118.655 81.0607L118.642 81.054C118.753 81.0805 118.865 81.099 118.968 81.1294L118.887 81.1022C119.302 81.2095 119.758 81.1604 120.18 81.1094L120.136 81.1195C120.308 81.0682 120.501 81.0886 120.677 81.1335C127.55 88.0432 132.067 96.3074 138.545 103.487C128.828 95.0005 117.244 88.2385 106.334 80.8812C105.647 77.5766 110.382 77.025 107.361 71.4588L107.377 71.5014C107.357 71.4481 107.338 71.4034 107.318 71.3586L107.325 71.3795L107.271 71.2392L107.279 71.2519L107.235 71.1517L107.251 71.1858C106.935 69.8377 105.593 71.4141 105.273 71.9464L105.31 71.8816C104.988 72.2424 104.692 72.6005 104.493 73.0203L104.544 72.9456C104.493 73.0204 104.434 73.0986 104.404 73.1844C104.278 73.0818 104.162 72.9757 104.027 72.8852L104.035 72.8898C103.994 72.8585 103.947 72.8246 103.905 72.7933L103.973 72.8471C102.538 72.1497 101.406 70.8589 99.8438 70.4328C98.2501 71.3181 98.9913 73.0768 99.8486 74.3281C98.1755 73.6539 96.3601 73.2938 94.5591 73.112L94.6917 73.1333C93.4261 72.6558 92.6165 73.5173 93.2697 74.4784L93.2572 74.4631C93.9904 75.8937 95.1304 77.2225 96.2022 78.5228C95.4691 78.3528 94.7085 78.3212 93.9748 78.381L94.0134 78.3849C93.228 78.3313 92.5096 78.5611 91.734 78.581L91.8334 78.5841C89.1823 78.5433 93.5681 81.7621 94.5739 81.9189L94.5398 81.9003L94.6256 81.9386L94.5909 81.9282C96.2152 83.0442 98.1828 82.874 99.8217 82.1583L99.774 82.1663C100.589 82.0063 101.256 81.5865 102.035 81.3557L101.948 81.376C102.786 81.1944 103.51 80.7378 104.444 80.8807L104.439 80.8781C104.564 80.9037 104.687 80.937 104.81 80.9019C109.806 84.019 114.327 87.6265 119.232 90.8389C118.646 90.6558 118.041 90.5469 117.44 90.4153L117.539 90.4436C116.431 90.2477 115.346 89.9884 114.248 89.7471L114.262 89.7462C114.189 89.7318 114.115 89.7173 114.043 89.7033L114.055 89.7015C111.992 89.2658 109.989 88.6248 107.927 88.1725C107.766 87.9658 107.544 87.7933 107.37 87.5965L107.387 87.6139L107.333 87.5506L107.358 87.5812C106.796 86.4997 105.228 86.3342 104.019 86.373L104.041 86.3762L103.954 86.3803L103.959 86.3743L103.807 86.3767L103.816 86.3728L103.776 86.3769L103.781 86.3794C103.699 86.3771 103.612 86.3811 103.526 86.3766L103.535 86.3812L103.448 86.3767L103.478 86.3761C101.313 86.2086 103.48 88.2339 104.531 88.458L104.514 88.4487L104.56 88.474C105.594 89.0041 106.737 88.7844 107.816 88.7593C109.874 89.1073 111.89 89.8659 113.955 90.2515L113.951 90.2494L114.037 90.2706L114.011 90.2652C114.878 90.423 115.702 90.719 116.564 90.8914L116.543 90.8796C116.62 90.8961 116.702 90.9153 116.779 90.9318L116.714 90.922C116.839 90.9476 116.95 90.9741 117.066 90.9947L116.968 90.9668C117.268 91.0369 117.577 91.103 117.882 91.1671L117.865 91.1578L117.963 91.1857L117.95 91.1789C126.875 93.7478 132.58 101.298 139.679 106.295L139.633 106.253C139.696 106.304 139.759 106.356 139.83 106.403L139.781 106.367C140.032 106.564 140.284 106.753 140.54 106.944L140.511 106.919C140.888 107.202 141.262 107.482 141.644 107.767C141.577 107.714 141.51 107.668 141.438 107.621C141.695 107.803 141.938 107.987 142.19 108.176C142.118 108.128 142.055 108.077 141.984 108.029C143.222 108.96 144.474 109.882 145.73 110.797C138.328 107.381 131.074 103.747 123.482 100.636L123.562 100.68C123.278 100.525 123 100.365 122.721 100.196C122.705 100.051 122.549 99.9568 122.489 99.822L122.53 99.8868C122.197 99.3477 121.949 98.7523 121.431 98.2993L121.461 98.3239C121.406 98.2772 121.347 98.228 121.294 98.1732L121.306 98.1886C121.269 98.1512 121.227 98.1113 121.185 98.0714L121.235 98.124C120.633 97.5146 119.884 96.97 118.949 96.8003L118.956 96.8045C117.664 96.142 116.771 96.7197 117.709 97.8018C117.605 97.7962 117.505 97.7931 117.402 97.7878C114.524 97.5892 119.886 102.124 122.22 100.808L122.202 100.807C122.303 100.785 122.432 100.804 122.504 100.741C132.135 105.808 143.053 109.601 151.899 115.474L151.841 115.425C151.904 115.476 151.967 115.528 152.034 115.573L152.021 115.566C152.29 115.772 152.562 115.972 152.831 116.17C152.769 116.119 152.701 116.073 152.642 116.024C153.637 116.771 154.65 117.511 155.663 118.251L155.633 118.226C159.483 121.434 163.661 124.42 166.944 128.034C142.279 115.703 112.972 110.754 90.0375 96.4202L90.0997 96.4967L90.0794 96.46L90.0787 96.4682L90.018 96.3839L90.0211 96.3942C89.9473 96.3113 89.8543 96.2435 89.7496 96.1609L89.8379 96.2261C89.662 96.0875 89.5042 95.9163 89.3773 95.7449L89.3812 95.747C89.1764 95.4734 88.9448 95.2193 88.7616 94.9405L88.827 95.0272C86.7931 92.393 84.4552 89.8911 81.9735 87.5152C82.0411 85.7548 79.6642 84.5348 77.7656 84.189C77.5647 83.9176 77.0377 84.0986 77.1603 84.3954L77.1556 84.3929C77.3227 86.128 79.1193 88.8456 81.5991 87.9923C84.1154 90.2679 85.9486 92.946 88.1184 95.4243C83.0575 92.7487 78.0469 89.9982 72.9671 87.3548C73.1775 85.9194 68.9662 83.6136 67.8813 84.4442C66.0249 86.9749 70.2021 89.3558 72.978 88.0422C80.8922 92.3681 88.9894 96.5553 96.3802 101.516C90.0395 99.7601 83.5107 98.5836 77.3136 96.3784C77.1785 96.9265 76.2256 96.628 76.6471 96.1595C71.6727 93.6929 67.2417 90.1173 62.641 87.0879C62.3694 86.6416 61.7453 86.3352 61.3998 85.8997L61.4875 85.9902C57.811 82.2555 55.6981 77.6361 51.4529 74.2641C51.5542 74.1234 51.6051 73.9383 51.6416 73.7793L51.6201 73.8782C51.6312 73.8247 51.6508 73.7672 51.6573 73.7197L51.6358 73.8187C52.6548 71.8703 50.4125 69.7699 47.9903 69.4365L48.0158 69.4419L47.9779 69.4298C47.2546 69.4355 45.7338 68.6399 45.3902 69.2191C45.0659 71.4357 46.6599 74.5539 49.9392 74.4605L49.8267 74.4587C49.9607 74.4551 50.0995 74.4627 50.2335 74.4591L50.1642 74.4639C50.3113 74.4675 50.4401 74.4781 50.584 74.463C51.5823 75.229 52.3041 76.1935 53.1868 77.0498L53.1573 77.0252C55.1302 79.3536 56.7011 81.8885 58.7355 84.1908C52.5037 79.7776 46.2769 74.9242 38.7769 72.1104C38.784 72.0376 38.7604 71.9737 38.7552 71.9027L38.7592 71.9134C38.4582 68.2654 33.5572 68.4453 30.6446 69.514L30.6661 69.5086L30.5785 69.529L30.6184 69.5167C27.5482 69.4602 31.0703 71.8926 32.3314 72.4784L32.4203 72.5269L32.3863 72.5084C34.0328 73.5088 36.2495 73.4744 37.8689 72.7139C50.6814 77.8892 59.8205 88.0195 71.6254 94.6382C66.2385 93.3775 60.9003 91.8538 55.4494 90.8819C57.6822 84.5532 50.539 81.5763 44.8508 78.567C44.9064 78.5888 44.9529 78.6141 45.004 78.642C44.5128 78.3825 44.0201 78.1393 43.5204 77.8838L43.5799 77.9163C42.3665 77.2203 42.4491 78.6877 42.1107 79.2357C41.3523 80.6362 42.3021 82.3724 43.4034 83.595C43.3569 83.5526 43.3111 83.5106 43.2653 83.4771C43.5034 83.6751 43.6801 83.9078 43.9182 84.1058C43.2075 84.0418 42.5341 84.3218 41.835 84.2726L41.8559 84.284L41.8304 84.2701L41.835 84.2726L41.818 84.2633L41.8219 84.274C41.5753 84.1564 41.3156 84.0575 41.0638 83.9712L40.9958 83.9426L41.0082 83.9493C40.3012 83.6829 39.6413 83.3229 38.929 83.0706L38.9544 83.076C38.6601 82.9665 38.3665 82.8574 38.0767 82.7419L38.1618 82.7798C38.0126 82.7155 37.855 82.6636 37.7019 82.5971L37.7104 82.6018L37.7019 82.5971L37.6764 82.5832L37.5829 82.5492L37.6679 82.5785C37.4763 82.5081 37.2892 82.4231 37.1022 82.3466L37.1872 82.3844C34.1516 80.9669 30.9278 79.9068 27.6739 78.9494L27.7813 78.9825C27.657 78.9487 27.5242 78.9103 27.4 78.8766L27.5118 78.9036C25.048 78.0962 22.5126 77.5733 19.9515 77.1216C19.9188 77.0782 19.8729 77.0362 19.8174 77.023C19.2697 76.4431 19.1673 75.6717 18.5759 75.1191L18.5968 75.139L18.5588 75.1098L18.5627 75.1119L18.5588 75.1098L18.534 75.0878L18.5425 75.0924C16.8949 73.4696 14.4419 74.2012 12.4293 74.4321C11.501 74.8115 13.6304 76.4842 14.0904 76.9736L14.0276 76.9223C14.9921 77.8914 16.5368 78.3082 17.9176 77.9712L17.8353 77.9859C18.2537 77.899 18.7167 77.9046 19.1129 77.7374L19.1044 77.7413C19.2404 77.6962 19.3967 77.6878 19.5476 77.685C21.4658 77.8796 23.4454 78.3462 25.3238 78.8684L25.3277 78.8705L25.3323 78.873L25.3578 78.8784L25.3493 78.8738L25.4566 78.9068L25.4133 78.8917C29.4724 80.2627 33.5496 81.6011 37.4676 83.2529L37.3826 83.215C37.4374 83.2364 37.4892 83.2562 37.5487 83.2801L37.4544 83.2457C37.6801 83.3348 37.9011 83.4298 38.1229 83.5167L38.0425 83.4814C38.153 83.5246 38.2636 83.5765 38.3825 83.6158L38.3695 83.6172L38.4506 83.6443L38.4467 83.6422L38.4846 83.6629L38.4638 83.6515L38.5318 83.6801L38.5147 83.6708C39.0823 83.8527 39.6201 84.1546 40.1747 84.3379C38.5876 84.3154 37.2509 85.1534 35.7588 85.4468L35.9072 85.417C31.4282 85.9634 37.9322 90.8061 39.7579 91.768C39.8678 91.8279 39.9823 91.8904 40.096 91.9524L40.0457 91.925C40.0875 91.9478 40.13 91.971 40.1811 91.9903L40.1262 91.9689C40.1726 91.9942 40.2152 92.0174 40.2616 92.0428C39.6784 92.2271 39.1796 92.5683 38.7954 92.972C37.872 92.809 36.957 92.6421 36.0473 92.461L36.0669 92.3949C33.9277 91.9179 31.6636 91.6198 29.736 90.6193C28.377 89.3499 26.8401 87.7874 24.6061 88.5619L24.6407 88.5553C24.119 88.6284 23.6535 88.7918 23.1507 88.9093L23.1768 88.9066L23.0591 88.9275L23.1199 88.9181C21.5982 88.7865 21.7213 90.2164 22.5706 90.9352C24.1212 92.4796 26.9424 92.8943 28.7956 91.8014L28.7963 91.7932C30.3958 91.7288 32.0152 92.3397 33.5841 92.693L33.4938 92.6693C33.5756 92.6884 33.6521 92.713 33.7332 92.7402L33.6482 92.7109C33.7293 92.7382 33.8359 92.7708 33.9177 92.7898L33.9432 92.7952L33.9216 92.7919L34.0242 92.8224L34.0072 92.8131C35.4049 93.2349 36.8469 93.4167 38.2876 93.6405C34.329 98.5848 38.8828 97.2787 43.2749 97.9115C42.622 98.4326 42.0344 99.0405 41.8518 99.8011L41.8805 99.7316C41.3427 100.494 41.3464 101.348 41.1685 102.214C40.6177 102.986 41.2319 103.202 42.0785 102.915L42.07 102.918C47.1599 102.671 51.7916 100.309 53.7897 96.5266C64.8939 97.678 75.651 96.8342 86.1906 101.068C82.0267 101.428 77.765 101.403 73.5485 101.249L73.648 101.252C72.6259 101.172 71.6115 101.096 70.5927 101.042L70.7267 101.047C66.5852 100.534 62.4721 100.692 58.3412 100.449C57.2918 99.3485 55.409 99.0454 53.8749 99.1966L53.888 99.1952C53.3329 99.2331 51.1992 99.3468 52.0877 100.061L52.0792 100.057C52.1387 100.081 52.1975 100.113 52.2524 100.143C50.8581 100.711 52.1544 101.375 53.031 101.845L52.955 101.795C54.7627 103.301 58.0583 103.131 58.6077 101.02C61.0764 101.183 63.543 101.174 66.0044 101.299L65.9658 101.295L66.0737 101.303L66.0429 101.303C74.0149 102.645 82.0205 102.098 89.8144 101.971C103.073 104.817 114.884 111.201 127.744 115.099C123.414 114.866 119.147 115.179 114.84 115.206L114.892 115.209C114.823 115.205 114.754 115.21 114.685 115.206L114.693 115.202C113.222 115.099 111.747 115.29 110.309 115.23L110.33 115.233C109.337 114.989 108.328 114.78 107.324 114.564L107.423 114.584C106.385 114.375 105.39 114.054 104.346 113.868L104.428 113.878C102.752 113.475 101.07 113.035 99.5153 112.323L99.6004 112.361C97.7571 111.509 95.7095 111.107 93.8147 110.363C93.4421 109.427 93.2701 108.337 92.1228 107.728C90.6123 106.58 85.0743 105.51 87.3575 108.399L87.3136 108.401L87.3482 108.394C87.2228 108.411 87.092 108.433 86.9691 108.477L86.9822 108.476L86.903 108.492L86.9645 108.474C84.4727 108.887 87.7219 110.906 88.822 111.404C89.979 111.882 91.1441 111.547 92.2255 111.242L92.2164 111.246C92.3963 111.199 92.5839 111.157 92.7584 111.116L92.68 111.132C92.7584 111.116 92.8499 111.097 92.9376 111.077L92.9153 111.082L93.0029 111.062L92.9814 111.067C93.0552 111.047 93.1252 111.035 93.1998 111.016L93.1168 111.038C93.2482 110.999 93.3861 111.007 93.5214 110.97L93.4822 110.982C93.5476 110.975 93.5967 110.943 93.6449 110.909C95.3959 111.583 97.2656 111.99 98.9931 112.711L98.9846 112.706C101.793 113.88 104.777 114.759 107.762 115.502C106.242 115.66 104.724 115.837 103.164 115.77C103.243 115.77 103.298 115.775 103.364 115.777C99.6815 115.667 96.0418 115.888 92.3511 115.774C92.4073 115.779 92.4589 115.773 92.5106 115.784C90.7568 115.722 88.9997 115.717 87.2466 115.741C86.3306 114.866 85.4094 114.006 84.3816 113.215L84.3863 113.218L84.3234 113.158L84.3482 113.18C83.0881 111.845 81.0279 111.317 79.1245 111.523L79.0329 111.532C78.521 111.577 78.0313 111.702 77.582 111.882L77.5867 111.885L77.5076 111.91L77.5429 111.895C76.2654 112.246 72.8955 113.057 75.6249 114.137L75.6164 114.132L75.6884 114.18L75.6753 114.173C75.8696 114.287 76.0638 114.402 76.2627 114.51C76.1032 114.61 75.964 114.73 75.8084 114.833L75.8797 114.787C75.8038 114.839 75.7287 114.883 75.6528 114.936C75.3156 115.348 73.383 115.937 74.5891 116.391L74.5675 116.388L74.5937 116.393L74.559 116.383C74.6277 116.403 74.6872 116.427 74.7513 116.454L74.6656 116.424C78.279 118.523 83.3463 119.686 86.6856 117.172L86.6726 117.182C86.7746 117.119 86.8805 117.066 86.9988 117.028L86.9857 117.029C87.2936 116.908 87.6297 116.835 87.9776 116.804L87.9292 116.811C88.0993 116.793 88.3033 116.777 88.4157 116.677C89.1592 116.682 89.9065 116.706 90.6502 116.737L90.6462 116.726C91.9463 116.788 93.2279 116.866 94.5207 116.881C94.469 116.878 94.4089 116.88 94.3527 116.874C96.7631 116.98 99.1525 116.955 101.558 116.963C100.76 117.21 99.9296 117.413 99.1889 117.75L99.2633 117.722C99.2157 117.739 99.1673 117.755 99.1189 117.771L99.1404 117.766C98.7149 117.917 98.2815 118.047 97.8676 118.213L97.8814 118.203C97.4191 118.385 96.9863 118.601 96.5124 118.768L96.5162 118.77C94.7287 119.209 92.8732 119.713 91.0496 119.979L91.0712 119.982C89.6762 119.698 88.1633 119.128 86.884 119.827L86.937 119.814C86.6159 119.928 86.2943 120.068 86.0355 120.267L86.0485 120.257C85.5805 120.496 85.3021 120.838 85.163 121.273L85.169 121.251L85.154 121.294L85.1539 121.285C83.4252 122.727 86.9893 123.181 88.1523 122.666L88.1392 122.667C88.8499 122.433 89.3917 121.987 89.933 121.567L89.8656 121.616C89.9284 121.573 89.9904 121.522 90.0532 121.479L90.0302 121.501C90.4218 121.144 90.9638 120.903 91.3919 120.591C95.1776 119.761 98.8697 118.776 102.436 117.502L102.326 117.544C107.045 116.328 112.345 116.545 117.37 116.526C115.45 117.123 113.754 118.055 111.879 118.727L111.989 118.685C111.2 119.029 110.383 119.342 109.577 119.669L109.674 119.628C108.295 120.238 106.878 120.811 105.611 121.551C104.428 121.57 103.367 120.77 102.15 121.205L102.163 121.203L102.076 121.215L102.093 121.216C101.068 121.423 99.3871 122.423 100.108 123.412C101.242 123.819 102.872 124.367 103.847 123.612L103.784 123.663C103.829 123.628 103.878 123.587 103.923 123.552L103.869 123.599C104.469 123.211 105.009 122.713 105.534 122.258C106.219 122.01 106.727 121.538 107.412 121.298L107.333 121.323C107.741 121.172 108.138 120.996 108.535 120.821L108.504 120.83C116.606 117.532 121.525 115.735 131.149 116.479L131.14 116.475C144.705 120.288 157.315 126.81 170.294 132.033C160.033 130.388 149.64 129.412 139.308 128.435C139.289 128.382 139.23 128.349 139.183 128.315L139.196 128.322C139.092 128.231 139.018 128.131 138.904 128.044L138.946 128.075C137.67 126.689 134.265 126.603 133.14 127.855C132.94 129.254 137.103 131.465 138.54 129.966L138.536 129.964C138.905 129.722 139.202 129.433 139.433 129.09L139.392 129.153C139.424 129.111 139.456 129.06 139.488 129.01C165.453 131.581 176.488 132.499 198.376 146.509C220.814 158.383 243.92 169.583 264.257 184.033C264.152 183.959 264.042 183.882 263.938 183.808C264.421 184.148 264.909 184.483 265.398 184.818C264.962 184.665 264.523 184.511 264.088 184.358L264.126 184.371C262.147 183.675 260.159 182.999 258.169 182.331L258.233 182.349C257.615 182.139 257 181.94 256.381 181.73C256.492 181.765 256.604 181.8 256.714 181.844C244.087 177.732 231.093 174.349 218.33 170.827L218.377 170.853C218.288 170.805 218.199 170.756 218.11 170.707L218.136 170.721C211.45 166.614 204.076 163.469 197.276 159.512L197.288 159.519L197.2 159.454L197.234 159.472C197.146 159.407 197.057 159.342 196.961 159.272L197.054 159.34C192.848 156.066 189.975 151.841 185.626 148.685L185.697 148.741C185.588 148.647 185.483 148.556 185.375 148.472C185.43 146.909 183.044 143.776 181.056 145.11C181.152 146.653 182.814 148.131 184.598 148.635C184.993 148.927 185.378 149.24 185.782 149.528C189.172 152.119 191.551 155.409 194.691 158.179C191.162 156.339 187.314 154.998 183.882 153.006C183.928 153.032 183.971 153.055 184.014 153.078C175.389 148.032 164.086 146.04 155.839 141.166C154.625 139.439 150.07 137.593 148.694 139.509L148.709 139.551L148.706 139.532L148.717 139.572L148.709 139.551C148.756 139.9 148.99 140.207 149.189 140.52L149.173 140.485L149.218 140.553L149.214 140.551C149.384 140.924 149.525 141.299 149.761 141.65L149.786 141.689L149.782 141.686L149.807 141.717L149.793 141.71C150.991 143.837 154.583 143.829 156.473 142.705C164.635 145.428 172.581 148.639 180.307 152.197C178.639 151.918 176.958 151.75 175.297 151.449L175.416 151.471C171.025 150.72 166.619 149.884 162.192 149.393C162.138 149.321 162.054 149.275 161.982 149.219L162.003 149.239L161.911 149.163L161.936 149.186L161.874 149.135L161.89 149.143L161.815 149.094L161.84 149.108L161.802 149.087L161.831 149.103C160.395 147.825 158.347 147.245 156.36 147.481C155.825 147.522 154.443 147.67 155.218 148.298C153.006 149.484 159.432 152.223 160.83 151.052L160.751 151.069C161.126 151.001 161.429 150.8 161.734 150.634L161.663 150.664C162.004 150.492 162.41 150.304 162.6 149.991C166.05 150.374 169.462 151.051 172.886 151.675L172.838 151.666C173.069 151.716 173.301 151.765 173.529 151.813L173.508 151.81L173.623 151.831L173.606 151.829L173.726 151.853L173.713 151.854C173.962 151.905 174.207 151.953 174.461 151.998L174.413 151.997C176.575 152.555 178.81 152.599 180.987 153.003L180.881 152.979C181.357 153.06 181.85 153.184 182.324 153.221C192.064 158.202 201.702 163.324 211.57 168.119L211.523 168.094C211.574 168.121 211.621 168.147 211.672 168.175L211.642 168.159C212.953 168.891 214.178 169.729 215.521 170.428C198.409 166.399 181.376 163.666 164.674 158.396C164.549 158.183 164.383 157.991 164.236 157.791L164.256 157.819C162.959 155.689 160.399 154.812 157.731 155.188L157.752 155.191L157.661 155.193L157.683 155.187C156.858 155.146 156.047 155.308 155.219 155.249L155.236 155.249C154.457 155.25 151.92 154.548 152.937 155.81L152.887 155.748C153.082 156.068 153.347 156.374 153.625 156.653L153.557 156.633L153.454 156.619L153.475 156.623C153.42 156.609 153.359 156.602 153.299 156.586L153.342 156.601C152.985 156.534 152.627 156.518 152.271 156.451L152.356 156.464C152.296 156.456 152.227 156.445 152.163 156.435L152.249 156.448C152.146 156.425 152.038 156.41 151.931 156.394L151.961 156.402C151.579 156.329 151.202 156.234 150.819 156.179L150.866 156.188C150.544 156.131 150.226 156.094 149.907 156.048L149.972 156.057C149.447 155.967 148.923 155.869 148.392 155.835C148.351 155.795 148.313 155.757 148.267 155.724L148.288 155.735L148.226 155.684L148.23 155.686C146.943 154.465 144.039 153.945 143.078 155.44C142.575 155.881 143.443 156.456 143.773 156.841C144.604 158.214 146.867 157.89 147.926 157.079L147.912 157.089L147.975 157.047L147.966 157.05C147.994 157.022 148.033 156.993 148.065 156.968L148.038 156.987L148.096 156.942L148.082 156.96C148.311 156.787 148.572 156.623 148.753 156.432C148.926 156.449 149.102 156.477 149.274 156.503L149.218 156.489C149.437 156.532 149.652 156.573 149.867 156.605L149.78 156.592C150.026 156.632 150.276 156.666 150.525 156.7L150.516 156.695C150.593 156.712 150.68 156.725 150.761 156.735L150.718 156.729C151.217 156.805 151.723 156.927 152.221 157.012L152.131 156.997C152.505 157.056 152.867 157.1 153.237 157.148L153.146 157.133L153.237 157.148L153.22 157.148L153.31 157.163L153.288 157.16C153.4 157.178 153.511 157.205 153.624 157.215L153.606 157.214C153.693 157.227 153.792 157.221 153.874 157.24L153.861 157.233C153.99 157.253 154.117 157.314 154.246 157.325L154.221 157.319L154.233 157.326L154.243 157.322L154.238 157.328C154.802 157.61 155.317 158.019 155.912 158.284C155.242 158.379 154.571 158.49 153.952 158.697L153.979 158.695L153.904 158.714L153.925 158.708L153.799 158.742L153.803 158.744C152.541 159.137 150.96 160.114 150.657 161.176C152.483 162.964 155.603 164.146 158.163 165.109C157.552 165.567 156.994 166.089 156.551 166.665L156.614 166.606C156.416 166.779 156.291 166.983 156.173 167.209L156.192 167.185C155.842 168.135 154.657 170.64 155.781 171.288C157.056 170.91 158.351 170.441 159.785 170.397C164.977 170.222 165.053 167.104 166.19 163.951C168.786 162.377 173.601 164.51 176.943 164.57C184.295 165.625 191.729 166.265 198.947 168.158C191.414 169.082 183.925 170.431 176.382 171.206L176.437 171.227L176.356 171.192L176.365 171.196L176.309 171.174L176.314 171.177L176.297 171.168L176.331 171.178C176.283 171.161 176.237 171.144 176.195 171.121L176.275 171.156C175.93 171.044 175.643 170.845 175.312 170.707L175.32 170.712L175.235 170.674L175.24 170.676C174.934 170.535 174.599 170.463 174.268 170.402L174.306 170.414C173.197 169.826 168.04 171.178 170.603 172.099C169.056 173.504 171.803 174.074 173.231 174.078C175 174.089 176.131 172.866 176.933 171.779C184.573 170.879 192.267 170.221 199.828 169.039L199.793 169.037C199.945 169.035 200.1 169.026 200.257 169.017L200.105 169.028C200.313 169.014 200.517 169.006 200.726 168.992L200.616 169C200.903 168.986 201.183 169.012 201.47 168.989L201.378 168.999C215.38 171.543 229.257 175.442 242.85 179.613C241.896 179.569 240.94 179.575 239.993 179.561L240.135 179.563C236.232 179.145 232.395 179.548 228.503 179.392L228.598 179.393C221.807 179.334 214.994 179.374 208.263 179.756C206.995 176.901 201.181 177.707 199.894 179.663C198.949 180.544 199.712 181.028 200.786 181.554C203.189 182.882 207.907 183.046 208.4 180.325C210.687 180.159 212.984 179.972 215.318 180.044L215.274 180.046C215.875 180.067 216.48 180.082 217.081 180.086L217.012 180.091C221.214 180.177 225.373 179.942 229.593 180.234C227.436 180.616 225.399 181.319 223.26 181.771L223.304 181.761C220.725 182.168 218.459 183.419 215.983 183.865L216.004 183.869C214.231 183.003 211.018 183.703 211.162 185.469C212.906 186.301 215.428 185.675 216.524 184.484C218.569 183.785 220.547 182.948 222.732 182.505L222.675 182.516C222.947 182.451 223.222 182.38 223.494 182.315L223.406 182.336C223.502 182.311 223.598 182.296 223.694 182.263L223.637 182.274C223.899 182.213 224.158 182.141 224.416 182.077L224.372 182.088C224.451 182.071 224.529 182.054 224.613 182.031L224.525 182.052C225.9 181.779 227.213 181.397 228.54 181.022L228.505 181.029L228.587 181.014L228.553 181.021C229.615 180.757 230.745 180.743 231.815 180.509L231.767 180.525C233.464 180.157 235.295 180.269 237.078 180.254L237.043 180.252C243.258 180.141 249.015 181.153 254.823 183.427C254.913 183.459 255.011 183.487 255.101 183.519C255.019 183.491 254.934 183.462 254.849 183.441C273.538 188.27 287.611 199.737 302.31 210.278C328.814 229.591 351.723 251.509 373.088 274.552C370.885 273.198 368.61 271.922 366.397 270.57C366.507 270.63 366.617 270.699 366.723 270.757C365.87 270.24 365.026 269.72 364.173 269.204C364.279 269.262 364.388 269.33 364.499 269.39C348.209 258.255 330.726 248.598 313.282 238.818C310.12 235.62 306.576 232.579 303.646 229.209L303.738 229.301C300.239 225.451 295.925 222.169 292.026 218.594L292.084 218.66C291.888 218.476 291.697 218.286 291.501 218.103L291.563 218.163C290.927 217.551 290.098 217.057 289.661 216.35C289.208 215.566 289.393 214.628 288.604 213.95C287.796 213.066 284.44 210.904 284.544 213.116L284.488 213.111L284.544 213.124C283.954 212.93 283.722 213.536 283.82 213.913L283.814 213.841C283.813 214.284 284.038 214.705 284.268 215.111L284.248 215.066C284.291 215.175 284.339 215.278 284.386 215.389L284.374 215.357C285.028 217.246 287.421 217.343 289.301 217.312L289.288 217.305L289.275 217.306L289.279 217.308L289.249 217.301C296.564 223.054 302.795 230.014 309.063 236.61C300.894 232.605 292.265 228.707 285.194 223.436L285.252 223.501C285.185 223.44 285.123 223.38 285.06 223.32L285.073 223.336C284.718 223.014 284.396 222.66 284.019 222.352L284.035 222.361L283.964 222.305L283.993 222.329C282.784 221.218 281.608 220.048 280.942 218.663L280.966 218.702C279.79 216.569 279.14 214.273 277.697 212.216L277.733 212.279C277.64 212.126 277.538 211.968 277.436 211.819L277.502 211.914C277.25 211.496 276.994 211.084 276.731 210.667L276.759 210.717L276.697 210.624L276.707 210.629C276.005 209.479 275.206 208.362 274.422 207.244C274.483 207.116 274.327 207.014 274.35 206.89L274.348 206.931C274.788 205.809 272.679 203.218 271.246 203.663C270.524 204.786 270.528 206.798 272.365 207.391L272.348 207.39C272.877 207.552 273.424 207.722 273.975 207.699C274.645 208.55 274.969 209.519 275.568 210.4L275.512 210.301C275.727 210.665 275.923 211.036 276.16 211.387L276.152 211.374C276.209 211.473 276.27 211.574 276.33 211.667L276.27 211.574C278.003 214.053 278.474 216.908 280.221 219.352C276.345 215.755 272.082 212.476 267.678 209.315C270.05 205.26 267.623 201.874 262.343 200.323L262.373 200.331L262.253 200.283L262.352 200.328C262.118 200.217 261.884 200.124 261.65 200.021L261.68 200.038L261.586 199.995L261.603 200.005C261.015 199.692 260.337 199.56 259.729 199.28L259.742 199.287C259.016 198.823 258.163 199.073 258.42 199.861L258.41 199.787C258.419 199.886 258.433 199.987 258.437 200.091L258.431 200.012C258.392 200.757 258.564 201.515 258.785 202.249C256.837 200.692 254.604 199.423 252.521 197.997C252.064 197.015 251.694 195.808 250.353 195.239C249.392 194.621 245.671 194.209 246.934 195.784L246.894 195.703C246.922 195.752 246.947 195.799 246.975 195.849L246.963 195.825L246.991 195.875L246.987 195.873L247.019 195.924L247.008 195.901C247.048 195.974 247.088 196.047 247.129 196.12L247.121 196.099C247.996 197.76 250 198.581 252.042 198.375C254.426 199.973 256.764 201.632 259.022 203.349C252.837 201.687 251.091 202.796 254.161 207.801L254.114 207.793L254.161 207.801L254.166 207.804C252.921 207.653 251.602 207.853 250.448 208.144L250.465 208.144C250.399 208.16 250.334 208.175 250.269 208.191L250.282 208.189C249.183 208.476 246.815 208.087 247.732 209.677L247.701 209.609C247.895 210.022 248.121 210.426 248.417 210.801L248.405 210.786C248.889 211.527 249.444 212.264 250.206 212.859L250.182 212.836L250.278 212.914L250.278 212.906C250.886 213.383 251.453 213.913 252.224 214.215C250.361 214.689 248.986 215.83 247.891 217.098C247.662 217.825 249.238 218.233 249.881 218.567L249.801 218.532C257.061 221.291 259.897 218.188 264.432 214.486L264.357 214.522C264.641 214.353 264.97 214.252 265.326 214.199C268.079 215.99 270.763 217.855 273.588 219.566L273.579 219.553L273.668 219.61L273.647 219.598C277.839 222.158 282.28 224.419 286.532 226.908C286.443 226.852 286.35 226.801 286.266 226.746C286.506 226.894 286.747 227.043 286.992 227.185C286.899 227.134 286.81 227.077 286.721 227.029C287.697 227.612 288.664 228.216 289.639 228.799C289.551 228.743 289.457 228.691 289.369 228.635C289.849 228.931 290.336 229.222 290.826 229.507C287.767 228.749 284.716 227.936 281.609 227.408C281.682 227.414 281.747 227.424 281.811 227.442C280.613 227.197 279.418 226.903 278.201 226.708L278.219 226.709C274.587 225.895 270.698 225.451 267.24 224.212L267.286 224.246C267.227 224.197 267.164 224.154 267.101 224.111L267.211 224.188C265.748 222.487 261.549 221.159 259.956 222.785C260.894 225.648 263.695 227.721 266.863 225.607L266.792 225.646C267.229 225.416 267.875 225.598 268.323 225.433C272.939 226.827 277.657 227.851 282.39 228.831L282.356 228.821C282.498 228.847 282.643 228.876 282.794 228.898C282.721 228.884 282.652 228.872 282.583 228.86C296.451 231.085 308.146 238.7 319.968 245.046C319.896 245.007 319.824 244.959 319.752 244.92C320.082 245.117 320.411 245.314 320.74 245.51L320.689 245.482C320.787 245.544 320.888 245.599 320.985 245.661L320.9 245.606C321.808 246.169 322.724 246.72 323.641 247.271C316.744 245.247 309.74 243.436 302.599 242.386L302.655 242.399C302.604 242.388 302.552 242.377 302.501 242.374L302.535 242.376C302.441 242.359 302.35 242.343 302.256 242.326L302.299 242.332C302.248 242.321 302.191 242.316 302.14 242.305L302.161 242.308L302.14 242.305L302.161 242.308C302.11 242.297 302.059 242.286 302.012 242.278L302.024 242.285C301.092 242.108 300.171 241.879 299.234 241.734L299.26 241.739C299.212 241.73 299.165 241.722 299.118 241.713L299.122 241.715C296.752 241.282 294.402 240.758 292.037 240.295C292.028 240.196 291.948 240.11 291.874 240.035L291.928 240.091C291.849 240.005 291.766 239.925 291.696 239.836C291.725 239.877 291.762 239.915 291.791 239.956C290.489 238.471 288.552 237.158 286.301 237.072C285.1 236.817 280.746 236.725 282.825 238.361L282.725 238.29C282.797 238.337 282.864 238.383 282.931 238.445L282.927 238.434C282.994 238.487 283.06 238.541 283.128 238.595C282.397 238.784 281.807 239.254 281.271 239.677L281.293 239.647C280.011 240.412 281.56 241.053 282.383 241.578C285.036 244.176 289.222 243.52 291.379 241.247C291.433 241.2 291.487 241.153 291.536 241.103L291.487 241.153C291.563 241.084 291.648 241.011 291.725 240.933C295.773 241.728 299.728 242.864 303.792 243.607L303.697 243.589C303.839 243.615 303.976 243.639 304.113 243.663L304.006 243.647C330.726 248.164 344.914 259.379 365.717 272.933C365.606 272.873 365.501 272.807 365.391 272.747C381.996 280.494 391.325 293.811 398.683 307.57C402.349 314.433 402.866 319.749 406.063 318.802C407.72 318.317 405.594 312.728 403.945 309.461C394.329 290.399 377.545 274.122 361.028 258.204C360.954 257.38 360.231 256.653 359.803 255.9L359.811 255.913C359.767 255.838 359.718 255.768 359.668 255.699L359.702 255.734C359.575 255.554 359.452 255.368 359.335 255.185L359.334 255.193C359.073 254.795 358.795 254.413 358.543 254.012C358.584 254.077 358.624 254.149 358.678 254.213C352.824 242.698 346.528 231.307 340.888 219.747C341.789 217.717 337.844 209.22 334.769 212.457C334.201 215.018 335.702 217.983 338.913 219.044C343.971 230.007 350.285 240.674 355.087 251.752C351.949 248.302 348.437 245.1 345.347 241.634C345.38 241.669 345.409 241.702 345.438 241.735C345.405 241.691 345.368 241.654 345.326 241.614L345.33 241.617C345.289 241.569 345.248 241.521 345.207 241.472L345.223 241.49C344.303 240.392 343.295 239.339 342.348 238.26C342.39 238.3 342.427 238.346 342.464 238.384C341.569 237.308 340.493 236.329 339.594 235.25L339.615 235.27C328.803 222.268 323.301 207.129 312.224 194.23C310.094 186.756 307.459 178.947 304.149 171.579L304.164 171.613C304.124 171.523 304.08 171.44 304.032 171.354L304.048 171.38C304.02 171.33 303.992 171.272 303.968 171.217L303.996 171.274C303.748 170.765 303.502 170.247 303.25 169.735L303.254 169.746C303.226 169.688 303.199 169.63 303.17 169.58L303.198 169.638C303.034 169.318 302.874 168.993 302.705 168.679C302.733 168.729 302.766 168.781 302.785 168.842C301.224 165.231 298.282 162.152 295.766 158.931C297.927 156.89 295.691 154.206 292.733 153.538L292.776 153.552C292.656 153.513 292.545 153.469 292.422 153.428L292.478 153.449C291.902 153.229 291.293 153.093 290.699 152.922C287.745 151.821 290.651 157.879 292.237 158.25C303.332 165.103 305.263 180.696 309.66 191.025C300.194 178.519 289.565 166.553 277.52 155.536C267.52 148.233 261.562 138.961 256.084 129.226C257.239 127.565 257.199 125.269 255.047 123.933C251.229 123.963 251.875 128.787 255.59 129.681C258.404 134.819 261.6 139.816 264.871 144.795C256.651 138.121 247.926 131.922 239.089 125.824C239.182 125.756 239.28 125.681 239.37 125.611L239.321 125.652C240.187 125.128 241.39 125.001 242.12 124.3L242.088 124.325C243.431 123.133 246.044 122.403 245.718 120.437L245.713 120.451C245.797 119.901 245.532 119.382 245.311 118.86L245.323 118.884L245.283 118.794L245.299 118.837C245.214 118.484 245.003 118.156 244.865 117.816L244.877 117.848L244.846 117.755L244.845 117.763C244.777 117.538 244.703 117.319 244.621 117.104L244.642 117.141C244.23 116.525 244.614 115.397 243.611 115.165Z" fill="#868C96"/>
</svg>
