<svg width="291" height="258" viewBox="0 0 291 258" fill="none" xmlns="http://www.w3.org/2000/svg">
<g opacity="0.85">
<path d="M300.661 18.9772C293.007 18.9772 285.362 19.031 277.718 19.1206C270.933 19.2103 264.158 19.4344 257.374 19.4882C247.363 19.5778 237.343 19.6943 227.333 19.4882C222.478 19.3819 217.672 20.4782 213.343 22.6794C207.348 25.5061 202.182 29.828 198.34 35.2293C195.256 39.6392 193.4 44.7905 192.963 50.1547C192.517 54.9144 193.101 59.7144 194.675 64.2285C195.584 67.0491 196.996 69.682 198.842 72.0004C199.451 72.7176 200.097 73.3988 200.715 74.0891C200.572 74.5642 200.249 74.5373 199.962 74.349C199.07 73.8599 198.227 73.2866 197.444 72.6369C196.189 71.4446 195.096 70.091 193.859 68.8271C192.963 67.859 191.977 66.9267 191.036 65.9675C190.426 65.4122 189.856 64.813 189.333 64.1747C187.278 61.5173 185.767 58.4802 184.887 55.2375C184.007 51.9948 183.776 48.6104 184.207 45.2781C184.759 41.1142 186.502 37.1983 189.226 34.0012C191.989 30.746 195.294 27.9925 198.994 25.8617C202.91 23.582 207.083 21.7765 211.425 20.4832L212.321 20.1874C212.451 20.1122 212.574 20.0252 212.689 19.9274C211.945 19.9274 211.389 19.9274 210.833 19.9274C200.291 20.6143 190.072 23.847 181.052 29.3488C176.804 31.9036 172.395 34.2074 168.021 36.5201C162.395 39.446 156.318 41.4066 150.043 42.32C144.594 43.2164 139.11 43.7363 133.652 44.5341C126.572 45.574 119.492 46.7124 112.421 47.824C111.659 47.9507 110.919 48.1862 110.225 48.5232C110.48 48.637 110.743 48.7299 111.013 48.8011C115.172 49.6975 118.264 52.1447 120.872 55.3629C121.69 56.4475 122.113 57.7788 122.073 59.1368C122.073 61.1448 122.025 63.1528 121.929 65.1607C121.791 67.5543 121.881 69.9556 122.198 72.3321C122.535 74.1138 122.492 75.9465 122.073 77.7106C121.779 78.9421 121.16 80.072 120.28 80.9825C119.915 81.4031 119.463 81.7391 118.954 81.9671C118.446 82.1951 117.894 82.3096 117.338 82.3028C116.781 82.296 116.232 82.1679 115.729 81.9275C115.227 81.6872 114.783 81.3402 114.428 80.9108C113.541 79.8596 112.733 78.7451 112.008 77.5761C111.166 76.3391 110.368 75.0751 109.544 73.8201C109.398 73.5939 109.175 73.4283 108.916 73.354C109.087 74.3221 109.239 75.2992 109.418 76.2674C110.536 81.9525 110.113 87.8335 108.19 93.2993C107.231 96.0872 106.631 98.9916 105.78 101.824C105.306 103.348 104.75 104.844 104.113 106.306C103.571 107.511 102.618 108.484 101.424 109.049C100.73 109.469 99.9207 109.654 99.114 109.578C98.3073 109.502 97.5462 109.169 96.9429 108.628C96.2085 107.973 95.5691 107.219 95.043 106.387C92.7491 102.76 91.8154 98.4373 92.4081 94.1868C92.7039 91.8561 93.3043 89.5613 93.8062 87.2575C93.9258 86.8291 93.9713 86.3834 93.9407 85.9397C93.6897 86.3073 93.4388 86.6748 93.1968 87.0513C90.6816 91.0653 87.5446 94.6539 83.9031 97.6828C81.7238 99.579 79.1201 100.923 76.3121 101.6C74.3751 101.959 72.3863 101.932 70.4599 101.52C69.2123 101.357 67.9528 101.303 66.6958 101.358C64.9034 101.358 63.111 101.6 61.3993 101.466C59.6731 101.316 58.0594 100.547 56.8567 99.2991C55.6539 98.0516 54.9435 96.4107 54.8569 94.6798C54.7197 92.8295 54.9669 90.9708 55.5828 89.2206C55.6993 88.8979 55.78 88.5573 55.9144 88.1001C55.0182 88.1898 54.3371 88.2884 53.6022 88.3511C50.1091 88.7682 46.5676 88.4631 43.1972 87.4547C41.6137 87.0032 40.1664 86.167 38.9843 85.0206C37.8022 83.8742 36.9219 82.4531 36.4218 80.8839C35.1193 76.8799 33.8826 72.852 32.7115 68.8002C32.3865 67.5432 32.209 66.2526 32.1828 64.9546C31.9766 59.9525 34.2172 56.1338 38.1516 53.3011C39.5975 52.352 41.0933 51.4812 42.6326 50.6925C42.3369 50.4684 42.0411 50.2443 41.7364 50.0381C40.7115 49.3465 39.8616 48.4258 39.2539 47.3489C38.8232 46.6813 38.5663 45.9165 38.5068 45.1243C38.4473 44.332 38.5871 43.5374 38.9133 42.813C39.7238 41.1509 40.2825 39.3775 40.5713 37.551C40.7469 36.6513 41.2244 35.8386 41.9246 35.2472C43.0681 34.1551 44.4178 33.3018 45.8948 32.7372C48.473 31.6377 51.2179 30.9801 54.0144 30.792C57.0416 30.5722 60.0794 30.5363 63.111 30.6844C67.4727 31.0273 71.7651 31.9778 75.864 33.5082C79.8626 34.8994 83.6118 36.9242 86.9681 39.5052C87.2459 39.7293 87.5327 39.9265 88.0615 40.312C87.9572 40.0841 87.8343 39.8652 87.694 39.6576C85.5915 37.4043 83.8828 34.8133 82.6394 31.9932C82.1686 30.8835 81.4598 29.8908 80.5631 29.0853C79.6665 28.2798 78.6038 27.6812 77.4504 27.3318C75.1202 26.6057 72.799 25.8438 70.4778 25.0818C68.6797 24.4932 66.9656 23.6736 65.3784 22.6436C64.7669 22.2662 64.262 21.7386 63.9119 21.111C63.5617 20.4834 63.3779 19.7766 63.3779 19.0579C63.3779 18.3392 63.5617 17.6324 63.9119 17.0048C64.262 16.3772 64.7669 15.8496 65.3784 15.4722C66.194 14.9133 67.1054 14.5092 68.0671 14.28C72.0939 13.4304 76.268 13.5875 80.2197 14.7371C86.7697 16.3357 92.6968 19.846 97.2477 24.8219C100.875 28.8762 103.211 33.9194 103.96 39.308C104.437 42.5642 104.26 45.8829 103.44 49.07C103.44 49.2582 103.369 49.4465 103.342 49.6437C103.342 49.6437 103.342 49.7065 103.396 49.7423C103.449 49.7782 103.557 49.814 103.602 49.7423C107.293 48.0489 111.222 46.9333 115.253 46.4345C121.472 45.4216 127.701 44.5162 133.939 43.6377C137.873 43.0819 141.834 42.6696 145.768 42.1496C150.813 41.5324 155.787 40.4277 160.619 38.8508C160.995 38.7253 161.363 38.5819 161.721 38.4295C161.829 38.4295 161.909 38.304 161.972 38.1068C160.923 38.2682 159.866 38.4474 158.808 38.5998C155.99 38.9672 153.137 38.9943 150.312 38.6805C144.841 37.9767 139.459 36.7028 134.252 34.8797C127.082 32.558 122.709 27.3139 120.388 20.3039C119.283 17.2305 118.888 13.9469 119.233 10.6992C119.577 7.45143 120.652 4.32383 122.377 1.5508C122.592 1.2012 122.861 0.878489 123.103 0.546814L123.309 0.654383C123.296 0.863139 123.263 1.07018 123.211 1.27291C121.986 4.26187 121.928 7.60211 123.05 10.6315C126.903 22.1505 134.7 29.4563 146.638 31.9574C152.874 33.188 159.259 33.49 165.584 32.8538C168.145 32.6722 170.677 32.197 173.13 31.4374C174.922 30.8458 176.715 30.3079 178.507 29.6446C179.395 29.3164 180.253 28.9115 181.07 28.4344C185.186 26.0257 189.519 24.0089 194.011 22.4105C198.536 20.9085 203.213 19.9134 207.957 19.4433C213.175 18.9431 218.416 18.7157 223.658 18.7621C235.569 18.7621 247.47 18.7621 259.381 18.7621C264.973 18.7621 270.575 18.4483 276.167 18.3856C283.184 18.3049 290.202 18.3318 297.219 18.3138C298.366 18.3138 299.504 18.3138 300.652 18.3138L300.661 18.9772ZM98.6547 57.5232C97.63 57.207 96.5426 57.1515 95.4911 57.3619C90.8137 58.2898 86.2622 59.7672 81.9314 61.7633C77.0753 63.859 72.5735 66.6955 68.5868 70.1717C65.8619 72.4651 63.6406 75.2973 62.0624 78.4905C60.8074 81.1643 59.3917 83.7597 57.8233 86.2625C56.2192 88.676 55.4135 91.5326 55.5201 94.4288C55.5358 95.8665 56.0231 97.2593 56.9072 98.393C57.7912 99.5266 59.0231 100.339 60.4134 100.704C61.5205 100.96 62.6566 101.068 63.7921 101.026C64.9662 101.026 66.1402 100.749 67.3142 100.731C68.5315 100.688 69.75 100.763 70.9528 100.955C72.6123 101.3 74.3231 101.318 75.9895 101.009C79.0323 100.28 81.8335 98.7722 84.1182 96.634C90.7466 90.8352 95.5504 83.2371 97.9467 74.7614C99.3944 69.9571 99.7978 64.8987 99.1297 59.9256C99.0132 59.083 98.7981 58.33 98.6547 57.5591V57.5232ZM98.592 56.6896C98.6104 56.4988 98.6104 56.3067 98.592 56.1159C98.4217 55.5153 98.2514 54.9057 98.0363 54.323C96.6129 50.5522 94.3831 47.1379 91.5029 44.319C83.437 36.1885 73.5787 32.2442 62.394 31.2671C59.0098 30.9801 55.6026 31.1338 52.2579 31.7243C49.5257 32.1145 46.8835 32.9823 44.4519 34.288C42.5609 35.3727 41.0732 36.7622 41.0373 39.1646C41.0323 39.2418 41.0141 39.3176 40.9836 39.3887C40.6685 40.3993 40.3005 41.3927 39.8812 42.3648C38.7341 44.7313 38.985 46.6048 41.3779 48.7921C42.1095 49.4538 42.9414 49.9954 43.8425 50.3967C45.5184 51.1676 47.2749 51.7772 48.9777 52.4943C50.2515 53.0016 51.4962 53.5791 52.706 54.2244C54.5632 55.3329 56.5538 56.2004 58.6299 56.8061C63.1237 57.9851 67.6932 58.8537 72.3061 59.4057C74.9646 59.7238 77.641 59.8675 80.3182 59.836C83.4672 59.7608 86.5862 59.2045 89.5671 58.1866C92.4529 57.2543 95.3746 56.3758 98.592 56.7254V56.6896ZM82.8276 60.5711L82.7828 60.3918C82.4039 60.365 82.0235 60.365 81.6446 60.3918C79.0533 60.6608 76.4394 60.6247 73.8565 60.2842C69.5493 59.8568 65.2744 59.1501 61.0587 58.1687C57.6886 57.5094 54.4723 56.2232 51.5768 54.3768C51.0422 54.0408 50.4708 53.7671 49.8739 53.5611C48.0815 52.8798 46.3519 52.2164 44.5684 51.5889C44.2162 51.4337 43.8234 51.396 43.4481 51.4814C40.5893 52.4307 38.0323 54.1192 36.0365 56.3758C35.5155 57.0245 35.2283 57.8297 35.2209 58.6617C35.22 60.2064 35.6991 61.7132 36.5921 62.9735C37.4077 64.3271 38.3039 65.6627 39.1374 66.9625C40.5787 69.3886 41.0764 72.2606 40.5354 75.0303C40.1659 76.9596 39.9027 78.9078 39.7468 80.866C39.7289 82.2313 40.1568 83.5653 40.9655 84.6654C41.7742 85.7654 42.9196 86.5716 44.2278 86.9617C45.7512 87.3506 47.3038 87.6144 48.8702 87.7505C51.437 87.9425 54.018 87.7613 56.5328 87.2127C57.9578 84.631 59.5441 82.0851 60.8077 79.3869C62.6269 75.5255 65.2448 72.0944 68.4883 69.3201C72.4631 65.9515 76.9109 63.1849 81.6894 61.1089C82.0389 60.9386 82.4064 60.7503 82.8276 60.5711ZM103.351 40.6526C103.375 40.2586 103.375 39.8634 103.351 39.4693C102.645 34.6484 100.662 30.1045 97.6061 26.3099C93.0086 20.6714 86.9771 17.274 80.0404 15.4184C76.2527 14.3223 72.2576 14.1502 68.3897 14.9164C67.3417 15.1206 66.3599 15.5793 65.5308 16.2521C63.595 17.8925 63.5949 20.4473 65.6921 21.8726C67.0657 22.7884 68.5316 23.5575 70.0656 24.1675C71.6877 24.8487 73.4084 25.3059 75.0933 25.8438C77.2014 26.4836 79.2377 27.3398 81.1697 28.3986C84.1675 29.9804 87.4086 31.0499 90.7591 31.5629C94.9883 32.3843 98.7947 34.6655 101.514 38.0082C102.087 38.7701 102.625 39.6486 103.351 40.6526ZM115.898 56.5641C115.779 55.6899 115.569 54.8306 115.27 54.0003C114.751 52.8606 113.982 51.8523 113.02 51.0501C112.058 50.2479 110.928 49.6723 109.714 49.3658C109.339 49.2544 108.948 49.2089 108.558 49.2314C105.197 49.4824 100.707 51.7234 99.4255 56.3131C99.2035 56.9439 99.1701 57.6257 99.3292 58.2752C99.4884 58.9247 99.8332 59.5138 100.322 59.9705C103.111 62.5934 105.419 65.685 107.142 69.105C107.594 70.0373 108.112 70.936 108.692 71.7942C110.037 73.8291 111.381 75.8371 112.797 77.854C113.308 78.6483 113.861 79.4144 114.455 80.1489C114.866 80.6237 115.361 81.0187 115.916 81.3142C116.336 81.5841 116.835 81.7067 117.333 81.6629C117.831 81.6191 118.3 81.4114 118.667 81.0722C120.173 79.602 120.943 77.854 120.137 75.6937C119.845 74.8804 119.482 74.0945 119.052 73.345C118.452 72.3321 117.771 71.364 117.072 70.4138C116.026 69.0224 115.306 67.4145 114.963 65.7082C114.621 64.0018 114.664 62.2404 115.091 60.5531C115.396 59.2802 115.602 57.9625 115.862 56.5372L115.898 56.5641ZM99.9363 60.4725C99.9811 61.4854 100.116 62.4984 100.071 63.5024C100.063 66.0564 99.8921 68.6074 99.5599 71.1399C99.0547 73.4863 98.39 75.7954 97.5703 78.0512C96.6741 80.9736 95.5986 83.869 94.7293 86.8093C93.7972 89.6542 93.231 92.6062 93.0444 95.5942C92.9366 97.3974 93.0753 99.207 93.4567 100.973C93.9332 103.264 94.9366 105.412 96.3873 107.248C98.2783 109.471 100.492 109.489 102.446 107.328C102.86 106.856 103.165 106.299 103.342 105.697C103.619 104.716 103.799 103.71 103.88 102.694C104.015 100.129 103.59 97.5655 102.634 95.1818C102.066 93.6311 101.582 92.0511 101.182 90.4487C100.028 86.0842 99.9972 81.4986 101.092 77.119C101.72 74.7255 102.553 72.3859 103.207 69.9476C103.529 68.9811 103.65 67.9596 103.566 66.9446C103.181 64.4101 101.876 62.1062 99.9004 60.4725H99.9363ZM99.1565 55.2463C99.8891 53.7093 100.891 52.3158 102.114 51.1318C102.423 50.7262 102.64 50.2582 102.75 49.7602C103.364 47.7998 103.587 45.7377 103.405 43.6915C103.325 42.1434 102.778 40.6557 101.836 39.4245C99.0849 35.9912 95.8047 33.3647 91.3774 32.3787C88.3572 31.7064 85.2743 31.1685 82.4781 29.6894C82.4333 29.6894 82.3437 29.7432 82.2361 29.788C82.5082 30.2194 82.7565 30.6652 82.98 31.1237C85.2474 36.3677 89.1728 40.4196 92.8383 44.6238C95.3639 47.3936 97.3516 50.6099 98.6995 54.1079C98.7623 54.4485 98.9594 54.7443 99.1207 55.2463H99.1565ZM121.66 4.73309C120.661 6.93745 120.06 9.30182 119.886 11.7162C119.769 16.1902 120.862 20.6128 123.05 24.5171C123.697 25.7441 124.655 26.7796 125.828 27.5201C126.76 28.1113 127.724 28.6529 128.714 29.1426C130.949 30.1425 133.296 30.8737 135.704 31.3209C138.998 31.8916 142.221 32.8112 145.32 34.0639C149.203 35.9122 153.386 37.0478 157.67 37.4165C159.471 37.6513 161.301 37.514 163.047 37.0132C166.276 35.883 169.418 34.5199 172.449 32.9344C172.759 32.7585 173.058 32.5639 173.345 32.3518C173.157 32.2801 173.076 32.2263 173.013 32.2442C172.951 32.2621 172.628 32.3338 172.44 32.3876C169.063 33.3316 165.577 33.8289 162.071 33.8667C158.253 33.9535 154.433 33.7978 150.635 33.4006C146.545 33.0652 142.549 31.9931 138.841 30.2362C134.749 28.285 131.14 25.4515 128.274 21.9394C125.407 18.4272 123.354 14.3236 122.261 9.92336C121.919 8.21166 121.706 6.47668 121.625 4.73309H121.66ZM197.077 71.2385L197.229 71.104C196.718 70.1448 196.18 69.1946 195.687 68.2265C194.166 65.0721 192.826 61.8338 191.672 58.5272C190.073 54.3994 189.486 49.9484 189.961 45.5471C190.384 41.3272 192.032 37.3232 194.702 34.0281C197.999 30.0314 202.111 26.7856 206.765 24.5081C209.918 22.8041 213.217 21.3851 216.623 20.268C215.738 20.1001 214.823 20.1904 213.988 20.528C208.212 21.987 202.715 24.3823 197.713 27.6187C194.755 29.5173 192.102 31.8537 189.844 34.548C187.824 36.882 186.351 39.6386 185.533 42.6158C184.558 46.4936 184.558 50.5528 185.533 54.4306C186.409 58.2513 188.262 61.7788 190.911 64.6677C192.703 66.5233 194.495 68.3072 196.144 70.2703C196.395 70.6199 196.727 70.8799 197.041 71.2385H197.077ZM104.337 103.151H104.471C104.588 102.783 104.713 102.425 104.821 102.057C105.86 98.4269 106.945 94.8143 107.904 91.1569C108.438 89.2679 108.81 87.3365 109.015 85.3839C109.325 81.9633 109.098 78.5153 108.343 75.1648C107.733 72.1094 106.58 69.1884 104.937 66.5412C104.722 66.2095 104.471 65.9137 104.229 65.6448C104.434 67.1478 104.309 68.6774 103.862 70.1269C103.225 72.117 102.616 74.116 102.015 76.106C101.042 79.2777 100.707 82.6109 101.03 85.9128C101.383 89.2044 102.157 92.4369 103.333 95.5314C104.223 97.7728 104.552 100.198 104.292 102.595C104.288 102.782 104.303 102.968 104.337 103.151ZM113.433 50.2622L113.245 50.4595C113.496 50.6925 113.756 50.9166 114.007 51.1587C114.826 51.8433 115.468 52.7162 115.877 53.7028C116.286 54.6893 116.45 55.7603 116.355 56.824C116.218 58.1107 116.008 59.3886 115.728 60.6517C115.18 62.6791 115.252 64.824 115.934 66.8101C116.496 68.1911 117.231 69.4953 118.12 70.6916C119.536 72.7176 120.89 74.7435 121.185 77.4148C121.679 75.9891 121.785 74.4574 121.49 72.9775C121.074 69.894 120.984 66.7751 121.221 63.6727C121.302 62.2205 121.365 60.7683 121.329 59.3161C121.361 58.1225 121.023 56.9482 120.361 55.9545C118.571 53.5007 116.187 51.542 113.433 50.2622ZM34.4771 58.7782C34.262 59.0382 34.1993 59.092 34.1634 59.1547C34.1276 59.2175 34.02 59.4326 33.9483 59.576C32.8749 61.9318 32.6164 64.578 33.2134 67.097C34.2826 71.9427 35.7054 76.7035 37.4704 81.3411C37.9426 82.6036 38.7182 83.7304 39.7288 84.622C39.9571 84.7987 40.1967 84.9604 40.4458 85.1061C40.3269 84.6318 40.1365 84.1784 39.8812 83.7614C39.1626 82.5244 38.8816 81.0812 39.0836 79.6648C39.2449 78.4546 39.4152 77.2445 39.6751 76.0791C40.119 74.3753 40.1772 72.5939 39.8454 70.8648C39.5136 69.1357 38.8002 67.5024 37.7572 66.084C37.3181 65.4834 36.9327 64.838 36.5204 64.2105C35.3424 62.638 34.6339 60.7638 34.4771 58.8051V58.7782ZM208.118 24.786C207.974 24.7322 207.894 24.6695 207.831 24.6874C207.682 24.7263 207.538 24.7804 207.401 24.8487C202.617 27.1386 198.399 30.4602 195.051 34.5749C192.128 38.2877 190.486 42.8483 190.373 47.573C190.287 51.1208 190.852 54.6544 192.04 57.9983C192.142 58.25 192.258 58.4955 192.389 58.7334C190.427 44.05 196.252 33.0331 208.118 24.786ZM126.177 28.6675C126.229 28.7973 126.295 28.9206 126.375 29.035C126.473 29.1605 126.581 29.2681 126.688 29.3846C128.79 31.603 131.43 33.2397 134.351 34.1357C137.496 35.1128 140.723 35.9195 143.904 36.8159C147.823 37.8886 151.881 38.3601 155.94 38.2144L157.132 38.1427V37.8648C156.236 37.7751 155.34 37.7034 154.444 37.5779C151.494 37.1051 148.62 36.2461 145.894 35.0231C143.475 33.9674 140.956 33.1566 138.375 32.6028C134.216 31.7064 130.094 30.7472 126.177 28.6675Z" fill="#868C96"/>
<path d="M219.231 19.9095C218.72 20.0619 218.209 20.2232 217.689 20.3666C212.233 21.7546 206.992 23.8839 202.113 26.6954C197.426 29.3477 193.495 33.1558 190.695 37.7572C188.219 41.9178 187.136 46.7606 187.603 51.58C188.08 56.2155 189.577 60.688 191.986 64.6767C192.882 66.2723 193.958 67.8051 194.952 69.3649C195.192 69.6904 195.36 70.0632 195.445 70.4586C195.338 70.3958 195.194 70.3599 195.132 70.2703C191.332 65.34 188.464 59.9256 187.433 53.7493C185.945 44.7851 188.679 37.2731 195.302 31.1416C199.638 27.222 204.715 24.2105 210.233 22.285C212.814 21.3348 215.476 20.6266 218.102 19.8288C218.443 19.7461 218.791 19.6951 219.141 19.6764L219.231 19.9095Z" fill="#868C96"/>
<path d="M122.485 2.51893C122.413 2.76993 122.359 3.02092 122.279 3.27192C119.877 10.0309 121.042 16.27 125.12 22.034C127.989 25.9139 131.728 29.067 136.036 31.2402L136.869 31.6795C136.921 31.7271 136.966 31.7814 137.003 31.8408C135.833 31.717 134.714 31.2975 133.75 30.6217C129.414 28.0819 125.804 24.4704 123.265 20.1336C121.132 16.4665 120.228 12.2137 120.683 7.99605C120.861 6.23459 121.327 4.51438 122.064 2.90439C122.148 2.74781 122.243 2.59795 122.35 2.45618L122.485 2.51893Z" fill="#868C96"/>
<path d="M148.349 35.4175C149.98 35.6148 151.612 35.8747 153.243 35.9823C154.857 36.0764 156.476 36.0764 158.091 35.9823C159.739 35.9092 161.382 35.7416 163.011 35.4803C164.636 35.2034 166.243 34.8322 167.824 34.3687C169.366 33.9189 170.883 33.3862 172.368 32.7731C173.864 32.1546 175.289 31.3837 176.75 30.6844L176.885 30.9265C176.58 31.1327 176.284 31.3657 175.989 31.554C172.449 33.5333 168.615 34.9344 164.634 35.7044C160.524 36.4358 156.341 36.6676 152.176 36.3946C151.16 36.3193 150.151 36.1725 149.156 35.9554C148.844 35.8599 148.544 35.7307 148.26 35.5699L148.349 35.4175Z" fill="#868C96"/>
<path d="M67.4219 37.1924C69.9492 37.9275 72.4855 38.6177 74.9949 39.4066C80.0745 40.9543 84.9676 43.0587 89.5851 45.6815C92.1091 47.0667 94.4135 48.8189 96.4232 50.8808C96.8982 51.3917 97.3195 51.9744 97.7227 52.5212L97.5345 52.6826C97.1223 52.2164 96.728 51.7324 96.2978 51.2841C94.0511 49.0678 91.5013 47.1815 88.7248 45.6815C83.2695 42.6928 77.5137 40.289 71.5534 38.5102C70.1732 38.0799 68.811 37.6138 67.4488 37.1118L67.4219 37.1924Z" fill="#868C96"/>
<path d="M99.1207 70.3689C98.6635 72.7983 97.8321 75.1419 96.6562 77.3162C93.8197 82.8155 89.9455 87.7135 85.2474 91.7396C85.0622 91.8705 84.8603 91.9761 84.647 92.0533C86.4394 90.2156 88.2318 88.4676 89.9346 86.5224C93.9113 82.0937 96.9047 76.8725 98.7174 71.2026C98.8269 70.9119 98.9587 70.6302 99.1118 70.36L99.1207 70.3689Z" fill="#868C96"/>
<path d="M53.7188 43.7901C62.8106 44.8146 71.7743 46.7639 80.4706 49.6078C80.7785 49.7139 81.0781 49.8427 81.3668 49.9933L76.7245 48.7204C70.3111 46.9009 63.7924 45.4759 57.205 44.4534C56.0489 44.2831 54.9107 44.0231 53.7725 43.799L53.7188 43.7901Z" fill="#868C96"/>
<path d="M77.316 69.84C77.0992 70.0564 76.8621 70.2515 76.6081 70.4227C70.5769 73.9192 65.0197 78.1762 60.073 83.0891C59.694 83.4155 59.2927 83.715 58.8721 83.9855C64.0112 78.3465 70.0725 73.6236 76.7963 70.0193C76.9726 69.9405 77.1555 69.8775 77.343 69.8311L77.316 69.84Z" fill="#868C96"/>
<path d="M69.0799 55.4077C71.4817 55.7842 73.8746 56.1786 76.2496 56.5282C81.0577 57.3238 85.9347 57.6242 90.8041 57.4246C91.7003 57.4246 92.5965 57.4246 93.4927 57.4694C92.7238 57.5929 91.949 57.6767 91.1715 57.7204C88.7338 57.7204 86.2872 57.828 83.8585 57.7204C81.6251 57.5907 79.3996 57.3484 77.1906 56.9943C74.5916 56.6089 72.0195 56.0979 69.4294 55.5959C69.2875 55.5467 69.1521 55.4805 69.0261 55.3987L69.0799 55.4077Z" fill="#868C96"/>
<path d="M76.9127 60.1945C73.516 60.5083 70.1104 60.7145 66.7317 61.1627C63.353 61.6109 60.0908 62.3101 56.7927 62.8928C60.4224 61.4585 72.9156 59.7015 76.9127 60.1945Z" fill="#868C96"/>
<path d="M54.83 40.6437C50.0891 40.3568 45.3302 39.9176 40.5534 40.5271C40.5534 40.4195 40.5086 40.303 40.4817 40.1954C40.8411 40.0422 41.217 39.9309 41.602 39.8638C42.9252 39.7042 44.2573 39.6294 45.5901 39.6397C48.6968 39.6487 51.7939 39.9853 54.83 40.6437Z" fill="#868C96"/>
<path d="M97.4629 38.3757C99.2572 41.9335 100.129 45.8851 99.9991 49.8678C99.9768 51.8028 99.4617 53.7002 98.5025 55.3808C98.5742 55.0401 98.6369 54.6995 98.7355 54.3768C99.3153 52.4976 99.6173 50.5436 99.6317 48.577C99.5126 45.5507 98.9074 42.5632 97.8393 39.7293C97.6959 39.2901 97.5884 38.8329 97.4629 38.3757Z" fill="#868C96"/>
<path d="M58.4956 72.9865C58.9186 72.7159 59.3553 72.4675 59.8041 72.2424C63.7922 70.3958 67.8072 68.585 71.7864 66.7115C72.9067 66.1826 73.9463 65.4834 75.1114 64.9635C74.9069 65.1608 74.6915 65.3463 74.4661 65.5193C71.9073 67.2126 69.1803 68.6365 66.3285 69.7683C63.7295 70.8799 61.0946 71.9018 58.4688 72.9685L58.4956 72.9865Z" fill="#868C96"/>
<path d="M76.8857 94.0164C76.46 94.4751 76.0114 94.912 75.5414 95.3252C73.2703 97.2792 70.8151 99.0084 68.2104 100.489C67.6291 100.928 66.8994 101.124 66.176 101.035C66.3105 100.874 66.3642 100.749 66.4538 100.704C69.8684 99.1709 72.7273 96.8581 75.7565 94.6798C76.106 94.4198 76.4735 94.1957 76.832 93.9537L76.8857 94.0164Z" fill="#868C96"/>
<path d="M99.6943 65.089C100.886 68.1458 101.639 77.9257 100.833 79.7186C100.834 74.8198 100.454 69.9285 99.6943 65.089Z" fill="#868C96"/>
<path d="M86.7889 74.8152C86.5648 75.0303 86.3677 75.2723 86.1347 75.4606L72.9693 85.8232C72.7794 85.9539 72.5785 86.0679 72.3689 86.1638C72.5522 85.914 72.7528 85.6773 72.9693 85.4557C77.1514 81.7993 81.522 78.3643 86.063 75.1648C86.2975 75.028 86.5399 74.9053 86.7889 74.7972V74.8152Z" fill="#868C96"/>
<path d="M111.103 62.086C107.456 60.7952 103.817 59.4954 99.8557 59.576V59.2892C100.453 59.254 101.051 59.254 101.648 59.2892C104.774 59.631 107.822 60.4819 110.673 61.8081C110.809 61.8855 110.932 61.9822 111.04 62.095L111.103 62.086Z" fill="#868C96"/>
<path d="M57.9131 70.0731C56.5688 70.5751 55.2244 71.1309 53.8622 71.5612C52.1146 72.1169 50.3401 72.61 48.5566 73.0582C47.3012 73.3668 46.0253 73.5855 44.7388 73.7126C46.2444 73.363 47.7769 73.0582 49.2198 72.6369C51.5948 71.9735 53.9428 71.2205 56.3088 70.5123C56.8286 70.3599 57.3574 70.2344 57.8862 70.091L57.9131 70.0731Z" fill="#868C96"/>
<path d="M46.9793 58.6975L42.9016 59.7912L36.0903 61.6647C37.0493 60.8489 42.9105 59.2264 46.9973 58.7155L46.9793 58.6975Z" fill="#868C96"/>
<path d="M52.1953 82.1031C52.0266 82.259 51.8401 82.3944 51.6397 82.5064C48.908 83.6167 46.0426 84.3641 43.1167 84.7296C42.4535 84.8091 41.7861 84.848 41.1182 84.8461C44.9091 84.3875 48.633 83.4849 52.2133 82.1568L52.1953 82.1031Z" fill="#868C96"/>
<path d="M99.551 57.9804C101.888 57.1372 104.398 56.8877 106.855 57.2543C107.674 57.3386 108.484 57.4945 109.275 57.7204L106.676 57.4874C104.485 57.2578 102.271 57.4125 100.134 57.9445C99.9401 57.967 99.7446 57.967 99.551 57.9445V57.9804Z" fill="#868C96"/>
<path d="M98.0632 44.8837C98.2604 45.6277 98.5203 46.3628 98.6458 47.1248C99.0369 49.0081 99.0703 50.9482 98.7444 52.8439C98.6861 53.1104 98.5895 53.3671 98.4576 53.6059C98.8306 50.6893 98.7033 47.7305 98.0812 44.8568L98.0632 44.8837Z" fill="#868C96"/>
<path d="M70.3793 59.2892L61.5068 60.0959V59.9256L70.3435 59.1278L70.3793 59.2892Z" fill="#868C96"/>
<path d="M100.913 85.8411C100.869 88.1587 100.605 90.4669 100.125 92.7346C100.313 90.4308 100.492 88.127 100.68 85.8142L100.913 85.8411Z" fill="#868C96"/>
<path d="M82.2989 75.2903C81.806 75.7295 81.34 76.1867 80.8292 76.599C79.6193 77.5941 78.3915 78.5622 77.1637 79.5303C76.9114 79.7004 76.6479 79.8531 76.375 79.9875C78.3347 78.4098 80.3034 76.8381 82.281 75.2723L82.2989 75.2903Z" fill="#868C96"/>
<path d="M58.6299 89.4985C58.9436 89.1041 59.2214 88.6738 59.5262 88.3152C60.512 87.3023 61.5157 86.2983 62.5284 85.3212C62.8563 85.0481 63.2038 84.7994 63.5681 84.5771C62.2058 85.9576 60.8794 87.356 59.4724 88.7365C59.2035 89.0055 58.8988 89.2475 58.5762 89.5075L58.6299 89.4985Z" fill="#868C96"/>
<path d="M95.5629 43.315C94.3679 41.2771 93.173 39.2422 91.978 37.2104C92.1181 37.2737 92.2456 37.3618 92.3544 37.4703C93.7156 39.2438 94.792 41.2188 95.5449 43.3239L95.5629 43.315Z" fill="#868C96"/>
<path d="M67.0993 98.2027C67.0187 98.3282 66.9649 98.4986 66.8573 98.5703C65.3579 99.6053 63.7785 100.52 62.1343 101.304L62.0178 101.098L67.1262 98.2207L67.0993 98.2027Z" fill="#868C96"/>
<path d="M115.172 55.2194H109.571C112.779 54.6188 113.693 54.6457 115.172 55.2194Z" fill="#868C96"/>
<path d="M69.0441 48.559L62.9409 47.5102C65.0075 47.5958 67.0537 47.9545 69.0262 48.577L69.0441 48.559Z" fill="#868C96"/>
<path d="M55.2871 93.4607L58.6479 89.4985L55.2871 93.4338V93.4607Z" fill="#868C96"/>
<path d="M110.682 66.7832L113.989 70.3689L110.682 66.7832Z" fill="#868C96"/>
<path d="M50.4207 84.3262L55.0989 82.4078C53.6654 83.3343 52.0686 83.9793 50.3938 84.3082L50.4207 84.3262Z" fill="#868C96"/>
<path d="M99.5688 78.5263L99.8287 74.8779H99.9722C99.8825 76.115 99.784 77.352 99.6943 78.5801L99.5688 78.5263Z" fill="#868C96"/>
<path d="M72.36 86.1638L69.761 88.5304L72.36 86.1728V86.1638Z" fill="#868C96"/>
<path d="M66.6958 91.3541L69.3127 89.0503L66.6958 91.3182V91.3541Z" fill="#868C96"/>
<path d="M82.3079 75.2992L85.1578 73.2016L82.3258 75.3172L82.3079 75.2992Z" fill="#868C96"/>
<path d="M57.9309 70.091L61.22 68.8898L57.9399 70.1L57.9309 70.091Z" fill="#868C96"/>
<path d="M109.992 66.0392L108.325 64.6767L109.992 66.0302V66.0392Z" fill="#868C96"/>
<path d="M88.4291 73.6229L86.7891 74.8151L88.4381 73.6319L88.4291 73.6229Z" fill="#868C96"/>
<path d="M55.574 82.1568L57.214 81.2156L55.5829 82.1748L55.574 82.1568Z" fill="#868C96"/>
<path d="M115.432 71.9556L114.249 70.5572C114.643 71.0233 115.037 71.4536 115.423 71.9645L115.432 71.9556Z" fill="#868C96"/>
<path d="M78.9291 68.854L77.3159 69.84L78.9381 68.8629L78.9291 68.854Z" fill="#868C96"/>
<path d="M76.832 93.9537L78.2659 92.8421L76.9037 94.0344L76.832 93.9537Z" fill="#868C96"/>
<path d="M82.5679 65.1338L84.1721 64.3987L82.5768 65.1338H82.5679Z" fill="#868C96"/>
<path d="M71.8581 49.2851L70.0657 48.7652L71.8581 49.2762V49.2851Z" fill="#868C96"/>
<path d="M99.4793 79.8441V80.9646H99.4255V79.8441H99.4793Z" fill="#868C96"/>
<path d="M53.7457 43.7722H52.0967V43.6377L53.7098 43.7901L53.7457 43.7722Z" fill="#868C96"/>
<path d="M80.4438 66.0571L82.057 65.3669L80.4438 66.0571Z" fill="#868C96"/>
<path d="M115.405 71.9825L116.301 73.1568L115.405 71.9735V71.9825Z" fill="#868C96"/>
<path d="M91.0371 36.0091L90.1409 34.8169L91.0371 36.0091Z" fill="#868C96"/>
<path d="M83.0071 93.4786L83.9839 92.8601L83.0161 93.4786H83.0071Z" fill="#868C96"/>
<path d="M91.2969 36.2601L91.978 37.2283L91.3058 36.2601H91.2969Z" fill="#868C96"/>
<path d="M84.1721 64.3988L85.3371 63.9057L84.1631 64.3898L84.1721 64.3988Z" fill="#868C96"/>
<path d="M87.1832 63.1617L86.1167 63.7085L87.1832 63.1438V63.1617Z" fill="#868C96"/>
<path d="M89.9258 72.7265L90.822 71.9556L89.9258 72.7265Z" fill="#868C96"/>
<path d="M96.0469 44.4803L95.563 43.315L96.0469 44.4803Z" fill="#868C96"/>
<path d="M89.3701 34.1267L89.0295 33.7233L89.1192 33.6695L89.3343 34.1536L89.3701 34.1267Z" fill="#868C96"/>
<path d="M46.9792 58.7155L47.6513 58.5451V58.6437L46.9434 58.6975L46.9792 58.7155Z" fill="#868C96"/>
<path d="M67.9058 55.1746L69.0798 55.4077L67.9237 55.1656L67.9058 55.1746Z" fill="#868C96"/>
<path d="M76.3393 50.4684L75.4968 50.1815L76.3393 50.4684Z" fill="#868C96"/>
<path d="M75.2368 80.9556L75.9269 80.5612L75.2457 80.9736L75.2368 80.9556Z" fill="#868C96"/>
<path d="M57.8771 80.7405L57.196 81.2425L57.8771 80.7494V80.7405Z" fill="#868C96"/>
<path d="M91.4672 71.4715L90.7502 71.9287L91.4672 71.4715Z" fill="#868C96"/>
<path d="M91.4941 71.4984L92.2111 71.0412L91.4941 71.4984Z" fill="#868C96"/>
<path d="M74.699 49.9754L73.8745 49.6796L74.699 49.9843V49.9754Z" fill="#868C96"/>
<path d="M107.151 63.7085L107.85 64.1119L107.151 63.7175V63.7085Z" fill="#868C96"/>
<path d="M92.211 71.0412L92.937 70.584C92.686 70.7275 92.4351 70.8709 92.1931 71.0233L92.211 71.0412Z" fill="#868C96"/>
<path d="M73.8656 49.6796L72.8977 49.4554L73.8656 49.6706V49.6796Z" fill="#868C96"/>
<path d="M66.4808 36.9594L67.377 37.1924L66.436 36.9594H66.4808Z" fill="#868C96"/>
<path d="M71.8313 49.303L72.8799 49.4823L71.8313 49.312V49.303Z" fill="#868C96"/>
<path d="M99.1388 70.3868V69.849H99.2374C99.1926 70.0193 99.1388 70.1807 99.094 70.351L99.1388 70.3868Z" fill="#868C96"/>
<path d="M70.0298 48.7652L69.0439 48.559L70.0298 48.7742V48.7652Z" fill="#868C96"/>
<path d="M98.1172 44.821C98.1172 44.6596 98.0365 44.4982 97.9917 44.3369H98.0992V44.8837L98.1172 44.821Z" fill="#868C96"/>
<path d="M67.0007 54.8878L67.8969 55.1746L67.0007 54.9236V54.8878Z" fill="#868C96"/>
<path d="M48.9331 58.3658L48.8883 58.3838L48.8435 58.3658H48.9331Z" fill="#868C96"/>
<path d="M58.5763 80.2295L57.8772 80.6957L58.5852 80.2206L58.5763 80.2295Z" fill="#868C96"/>
<path d="M56.0042 40.8498H56.0938L56.0759 40.8767L56.0042 40.8498Z" fill="#868C96"/>
<path d="M59.2931 79.7634C59.0601 79.9248 58.8181 80.0771 58.5762 80.2295L59.3021 79.7724L59.2931 79.7634Z" fill="#868C96"/>
<path d="M59.329 79.7903L60.055 79.36L59.3201 79.7903H59.329Z" fill="#868C96"/>
<path d="M117.332 74.3669L117.726 75.0751L117.332 74.3669Z" fill="#868C96"/>
<path d="M98.7266 85.9308L98.7535 85.9666L98.7355 86.0204L98.7266 85.9308Z" fill="#868C96"/>
<path d="M77.2981 50.6925L76.3391 50.4684L77.2981 50.6836V50.6925Z" fill="#868C96"/>
<path d="M117.054 74.107L116.669 73.3719L117.045 74.098L117.054 74.107Z" fill="#868C96"/>
<path d="M89.1459 73.1568L88.429 73.6229L89.1459 73.1568Z" fill="#868C96"/>
<path d="M89.8988 72.6727L89.146 73.1299L89.9078 72.6817L89.8988 72.6727Z" fill="#868C96"/>
<path d="M85.373 72.8968L86.081 72.4934L85.364 72.8968H85.373Z" fill="#868C96"/>
<path d="M62.6271 68.4237L61.9907 68.6836L62.6271 68.4237Z" fill="#868C96"/>
<path d="M99.4255 68.7823L99.4614 68.7374V68.8271L99.4255 68.7823Z" fill="#868C96"/>
<path d="M63.1919 68.1906L63.8013 67.9037L63.1919 68.1547V68.1906Z" fill="#868C96"/>
<path d="M52.9123 81.9058L52.1953 82.103L52.9212 81.8969L52.9123 81.9058Z" fill="#868C96"/>
<path d="M61.2202 68.8898L62.0088 68.7105L61.2112 68.8898H61.2202Z" fill="#868C96"/>
<path d="M57.7339 73.1837L58.4688 72.9865L57.7339 73.1837Z" fill="#868C96"/>
<path d="M96.4502 46.049C96.4502 46.1028 96.4502 46.1656 96.4502 45.9773C96.5219 46.0759 96.5577 46.1387 96.4502 45.9773V46.049Z" fill="#868C96"/>
<path d="M86.1169 63.7085L85.3193 63.8878L86.1169 63.7175V63.7085Z" fill="#868C96"/>
<path d="M96.1992 45.3409C96.2799 45.574 96.3606 45.807 96.4502 46.0491L96.2082 45.3409H96.1992Z" fill="#868C96"/>
<path d="M87.9093 62.9376L87.1833 63.1617L87.9183 62.9555L87.9093 62.9376Z" fill="#868C96"/>
<path d="M55.7264 63.1169L55.6458 63.1258L55.6637 63.081L55.7264 63.1169Z" fill="#868C96"/>
<path d="M88.6351 62.7225L87.9092 62.9376L88.6261 62.7135L88.6351 62.7225Z" fill="#868C96"/>
<path d="M89.3523 62.4984L88.6353 62.7225L89.3612 62.4984H89.3523Z" fill="#868C96"/>
<path d="M89.3792 62.5163L90.0782 62.2742L89.3792 62.5163Z" fill="#868C96"/>
<path d="M90.0781 62.2743L90.7682 62.0233L90.0781 62.2743Z" fill="#868C96"/>
<path d="M74.6721 50.0023L75.4697 50.2084L74.6721 50.0023Z" fill="#868C96"/>
<path d="M82.0391 50.2084L81.3401 49.9664L82.0391 50.2084Z" fill="#868C96"/>
<path d="M82.0211 50.2622L82.7202 50.5043L82.0122 50.2533L82.0211 50.2622Z" fill="#868C96"/>
<path d="M82.7202 50.4774L83.4192 50.7194L82.7112 50.4863L82.7202 50.4774Z" fill="#868C96"/>
<path d="M96.0288 44.5072L96.1991 45.3409L96.0378 44.5072H96.0288Z" fill="#868C96"/>
<path d="M84.1451 50.9345L83.4551 50.6925L84.1541 50.9256L84.1451 50.9345Z" fill="#868C96"/>
<path d="M90.7681 62.0232L90.9115 61.9784H90.7412L90.7681 62.0232Z" fill="#868C96"/>
<path d="M110.341 57.9177L110.27 57.8997L110.333 57.8728L110.341 57.9177Z" fill="#868C96"/>
<path d="M55.0989 82.3899L55.5739 82.1568L55.1078 82.3899H55.0989Z" fill="#868C96"/>
<path d="M106.452 63.2155L106.873 63.4396L106.452 63.2603V63.2155Z" fill="#868C96"/>
<path d="M86.3408 72.1886L86.7799 72.0273L86.3318 72.1886H86.3408Z" fill="#868C96"/>
<path d="M53.3602 81.6369L52.9121 81.8789L53.3602 81.601V81.6369Z" fill="#868C96"/>
<path d="M53.3872 81.6369L53.4858 81.6817C53.4858 81.6817 53.4858 81.6369 53.4858 81.61L53.3245 81.6548L53.3872 81.6369Z" fill="#868C96"/>
<path d="M60.3239 79.0552L60.7451 78.8759L60.3149 79.0463L60.3239 79.0552Z" fill="#868C96"/>
<path d="M62.645 68.4506L63.1917 68.2085L62.645 68.4416V68.4506Z" fill="#868C96"/>
<path d="M80.0225 68.4954L80.4168 68.2534L80.0225 68.5044V68.4954Z" fill="#868C96"/>
<path d="M82.5498 65.1069L82.03 65.34L82.5409 65.1069H82.5498Z" fill="#868C96"/>
<path d="M63.8013 67.9217H63.9536V67.841L63.8102 67.9038L63.8013 67.9217Z" fill="#868C96"/>
<path d="M80.417 66.0302L79.96 66.2812L80.417 66.0302Z" fill="#868C96"/>
<path d="M82.2811 94.2495L81.833 94.4109L82.2901 94.2495H82.2811Z" fill="#868C96"/>
<path d="M78.9561 68.8809L79.449 68.6747L78.9561 68.8719V68.8809Z" fill="#868C96"/>
<path d="M79.449 68.6747L80.0226 68.4954L79.449 68.6836V68.6747Z" fill="#868C96"/>
<path d="M79.449 66.5054L79.9867 66.3081L79.4849 66.5143L79.449 66.5054Z" fill="#868C96"/>
<path d="M67.8968 97.7725L68.3449 97.5753L67.8699 97.7545L67.8968 97.7725Z" fill="#868C96"/>
<path d="M67.5923 98.0504L67.0635 98.2027L67.5923 98.0593V98.0504Z" fill="#868C96"/>
<path d="M89.872 34.6287L90.123 34.8438L89.863 34.6376L89.872 34.6287Z" fill="#868C96"/>
<path d="M89.6211 34.4135L89.872 34.6287L89.6211 34.4045V34.4135Z" fill="#868C96"/>
<path d="M81.6357 94.6888L81.8508 94.4378L81.6357 94.6888Z" fill="#868C96"/>
<path d="M63.6221 84.5772L63.8551 84.3441L63.6221 84.5861V84.5772Z" fill="#868C96"/>
<path d="M81.3579 94.9308L81.6357 94.6888L81.3848 94.9488L81.3579 94.9308Z" fill="#868C96"/>
<path d="M64.0522 84.0662L63.8281 84.3172L64.0522 84.0662Z" fill="#868C96"/>
<path d="M58.8719 83.9855L58.603 84.2993L58.8719 83.9945V83.9855Z" fill="#868C96"/>
<path d="M64.285 83.8331L64.052 84.0662L64.276 83.8242L64.285 83.8331Z" fill="#868C96"/>
<path d="M64.5182 83.5911L64.2852 83.8331L64.5182 83.5911Z" fill="#868C96"/>
<path d="M81.3669 94.9218L81.3042 94.9667H81.358L81.3669 94.9218Z" fill="#868C96"/>
<path d="M64.8049 83.3491L64.5181 83.5911L64.778 83.3222L64.8049 83.3491Z" fill="#868C96"/>
<path d="M67.655 98.0772L67.897 97.7545L67.646 98.0772H67.655Z" fill="#868C96"/>
<path d="M65.2352 92.8152C65.1802 92.8852 65.1203 92.9511 65.0559 93.0125L65.2352 92.8242V92.8152Z" fill="#868C96"/>
<path d="M64.8408 93.2904L65.0828 93.0663L64.8408 93.2993V93.2904Z" fill="#868C96"/>
<path d="M84.1811 92.5822L83.957 92.8242L84.1811 92.5732V92.5822Z" fill="#868C96"/>
<path d="M64.6077 93.5055L64.8407 93.2635L64.6077 93.5055Z" fill="#868C96"/>
<path d="M78.4721 92.5822L78.248 92.8242L78.4721 92.5732V92.5822Z" fill="#868C96"/>
<path d="M65.4771 92.5822L65.2351 92.8152L65.4771 92.5732V92.5822Z" fill="#868C96"/>
<path d="M84.405 92.3312L84.1809 92.5822L84.405 92.3222V92.3312Z" fill="#868C96"/>
<path d="M55.2783 93.4248L55.2962 93.4965L55.2783 93.4517V93.4248Z" fill="#868C96"/>
<path d="M64.321 93.7475L64.6078 93.5055L64.3569 93.7475H64.321Z" fill="#868C96"/>
<path d="M78.4899 92.5911L78.7499 92.3401L78.4541 92.5822L78.4899 92.5911Z" fill="#868C96"/>
<path d="M65.5039 92.6091C65.5756 92.5284 65.6563 92.4477 65.728 92.3581L65.5039 92.6001V92.6091Z" fill="#868C96"/>
<path d="M82.9891 93.4427L82.783 93.7117C82.8547 93.622 82.9263 93.5414 82.9891 93.4517V93.4427Z" fill="#868C96"/>
<path d="M64.3298 93.7296L64.2671 93.7924L64.3209 93.7475L64.3298 93.7296Z" fill="#868C96"/>
<path d="M84.4319 92.3939L84.6739 92.125L84.4319 92.4029V92.3939Z" fill="#868C96"/>
<path d="M78.75 92.3401H78.8306V92.2684L78.7679 92.3312L78.75 92.3401Z" fill="#868C96"/>
<path d="M65.9342 92.0891L65.7012 92.3401L65.9342 92.0981V92.0891Z" fill="#868C96"/>
<path d="M66.1581 91.8471L65.9341 92.0891L66.1581 91.8471Z" fill="#868C96"/>
<path d="M82.5947 93.9896C82.6682 93.91 82.737 93.8262 82.8008 93.7386L82.5857 93.9985L82.5947 93.9896Z" fill="#868C96"/>
<path d="M66.3912 91.6051L66.1582 91.8471L66.3912 91.6051Z" fill="#868C96"/>
<path d="M66.4182 91.632L66.6871 91.3541L66.4182 91.641V91.632Z" fill="#868C96"/>
<path d="M89.639 34.3866L89.3701 34.1087L89.6569 34.3866H89.639Z" fill="#868C96"/>
<path d="M69.304 89.0503L69.537 88.7993L69.304 89.0413V89.0503Z" fill="#868C96"/>
<path d="M69.5369 88.8083L69.7789 88.5573L69.5369 88.8083Z" fill="#868C96"/>
<path d="M82.3079 94.2764L82.5947 93.9896L82.3079 94.2675V94.2764Z" fill="#868C96"/>
<path d="M86.0811 72.4934C86.1707 72.3948 86.2603 72.2962 86.3409 72.1886L86.09 72.4934H86.0811Z" fill="#868C96"/>
<path d="M106.479 63.2334L106.407 63.1796H106.452L106.479 63.2334Z" fill="#868C96"/>
<path d="M86.78 72.0273L87.031 71.7404L86.7532 71.9914L86.78 72.0273Z" fill="#868C96"/>
<path d="M107.178 63.7085C107.088 63.601 106.99 63.5024 106.9 63.4037L107.178 63.6996V63.7085Z" fill="#868C96"/>
<path d="M108.083 64.3808L107.877 64.1119L108.083 64.3719V64.3808Z" fill="#868C96"/>
<path d="M113.989 70.3331L114.231 70.5751L113.989 70.3331Z" fill="#868C96"/>
<path d="M108.325 64.6767L108.083 64.3808L108.334 64.6856L108.325 64.6767Z" fill="#868C96"/>
<path d="M92.9371 70.5751L92.9819 70.5303L92.9192 70.5751H92.9371Z" fill="#868C96"/>
<path d="M109.974 66.0571L110.207 66.3081L109.974 66.0571Z" fill="#868C96"/>
<path d="M110.458 66.5233L110.225 66.2902C110.307 66.3633 110.385 66.4412 110.458 66.5233Z" fill="#868C96"/>
<path d="M80.6411 67.9038L80.3901 68.2175L80.6321 67.8948L80.6411 67.9038Z" fill="#868C96"/>
<path d="M110.44 66.5412L110.682 66.7832L110.44 66.5412Z" fill="#868C96"/>
<path d="M74.941 81.2335L74.8872 81.2694L74.9589 81.2514L74.941 81.2335Z" fill="#868C96"/>
<path d="M74.959 81.2604C75.0486 81.1528 75.1472 81.0542 75.2369 80.9556L74.959 81.2515V81.2604Z" fill="#868C96"/>
<path d="M76.124 80.2654L75.8999 80.5254L76.124 80.2564V80.2654Z" fill="#868C96"/>
<path d="M99.5511 57.9445L99.5332 58.0163L99.5511 57.9714V57.9445Z" fill="#868C96"/>
<path d="M76.3749 79.9875L76.124 80.2654C76.2047 80.1757 76.2853 80.0771 76.3749 79.9875Z" fill="#868C96"/>
<path d="M60.2969 79.0283L60.0281 79.3331L60.2969 79.0283Z" fill="#868C96"/>
<path d="M61.023 78.616L60.7273 78.858L60.9872 78.5891L61.023 78.616Z" fill="#868C96"/>
<path d="M118.506 76.0164L118.542 76.0522L118.506 76.0164Z" fill="#868C96"/>
<path d="M91.0103 36.036L91.2971 36.2601L91.0103 36.0271V36.036Z" fill="#868C96"/>
<path d="M117.726 75.0751L118.04 75.3261L117.726 75.0751Z" fill="#868C96"/>
<path d="M117.359 74.3401L117.054 74.107L117.368 74.349L117.359 74.3401Z" fill="#868C96"/>
<path d="M116.669 73.3719L116.373 73.1389L116.669 73.3809V73.3719Z" fill="#868C96"/>
<path d="M85.3462 72.8699L85.1311 73.1747L85.3462 72.8699Z" fill="#868C96"/>
<path d="M156.317 180.243L155.286 183.058C153.799 187.119 152.365 191.206 150.805 195.249C149.727 198.007 148.305 200.618 146.575 203.021C143.941 206.936 140.296 210.065 136.027 212.075C134.971 212.621 133.791 212.884 132.603 212.837C129.843 212.577 128.499 210.685 128.741 207.647C128.857 206.087 129.135 204.527 129.395 202.976C129.6 201.212 129.46 199.425 128.983 197.714C128.355 194.828 127.746 191.941 127.19 189.046C126.766 186.353 126.709 183.615 127.02 180.906C127.32 176.736 128.247 172.635 129.771 168.742C130.675 166.383 131.857 164.141 133.293 162.064C133.455 161.849 133.58 161.607 133.858 161.167C133.338 161.347 133.016 161.436 132.72 161.571C127.397 163.939 121.762 165.533 115.988 166.304C111.641 166.985 107.33 167.917 103.01 168.778C101.087 169.209 99.1193 169.404 97.1492 169.361C96.416 169.368 95.6906 169.21 95.0276 168.896C94.3646 168.583 93.7813 168.124 93.3215 167.553C92.8616 166.981 92.5373 166.313 92.3729 165.598C92.2085 164.884 92.2084 164.141 92.3724 163.426C92.7423 161.483 93.6381 159.678 94.9624 158.209C98.1809 154.456 102.071 151.337 106.434 149.012L107.653 148.295C107.5 148.169 107.447 148.088 107.402 148.097C104.498 148.304 101.576 148.42 98.6907 148.779C97.1064 149.086 95.5461 149.505 94.0214 150.034C91.5575 150.86 88.9837 151.314 86.3857 151.378C83.4909 151.316 81.9046 149.11 82.9174 146.376C83.4022 145.076 84.1742 143.903 85.1758 142.943C86.1096 141.971 87.1163 141.072 88.1871 140.254C92.3897 137.248 96.9854 134.835 101.845 133.082C105.942 131.722 110.296 131.323 114.572 131.917C119.581 132.428 124.564 133.199 129.592 133.575C136.41 134.061 143.253 133.077 149.658 130.689C150.554 130.384 151.289 129.9 152.123 129.542C154.342 128.517 156.723 127.886 159.158 127.677C159.865 127.608 160.578 127.647 161.273 127.794C162.351 128.062 163.482 128.032 164.545 127.707C165.607 127.382 166.561 126.773 167.305 125.947C168.326 124.907 169.25 123.776 170.065 122.567C172.216 119.502 174.295 116.382 176.41 113.298C176.939 112.528 176.966 112.545 177.952 112.402L177.288 113.406C174.86 116.992 172.458 120.524 169.993 124.038C169.214 125.135 168.718 126.408 168.549 127.744C168.381 129.079 168.544 130.436 169.025 131.693C169.27 132.44 169.569 133.168 169.921 133.871C171.303 136.778 171.78 140.031 171.293 143.212C171.064 145.048 170.696 146.864 170.19 148.644C169.5 151.181 169.697 153.718 169.841 156.273C170.244 163.363 172.915 169.827 175.299 176.371C177.683 182.914 180.228 189.413 182.648 195.948C183.609 198.323 184.214 200.827 184.44 203.38C184.485 204.005 184.458 204.634 184.359 205.253C184.353 205.545 184.266 205.828 184.108 206.073C183.949 206.318 183.726 206.513 183.463 206.638C183.199 206.763 182.906 206.812 182.617 206.779C182.327 206.747 182.052 206.634 181.823 206.454C181.3 206.179 180.82 205.829 180.398 205.415C179.58 204.619 178.814 203.772 178.104 202.878C176.911 201.301 175.437 199.958 173.757 198.915C171.382 197.445 168.998 195.975 166.659 194.433C161.819 191.348 158.277 186.597 156.702 181.077C156.655 180.927 156.598 180.78 156.532 180.637C156.466 180.503 156.395 180.371 156.317 180.243ZM170.782 140.048C170.621 139.151 170.396 137.6 169.984 136.05C169.668 134.73 168.909 133.56 167.833 132.733C166.543 131.756 165.055 131.281 164.087 133.629C164.017 133.813 163.93 133.99 163.827 134.158C162.796 136.011 161.665 137.807 160.44 139.537C153.9 147.878 145.712 154.781 136.385 159.814C135.769 160.151 135.229 160.612 134.799 161.167C133.257 163.167 131.98 165.357 130.999 167.684C129.65 170.731 129.109 174.075 129.431 177.392C129.75 179.889 130.281 182.354 131.017 184.761C132.053 188.243 132.61 191.85 132.675 195.482C132.726 199.07 132.119 202.637 130.883 206.006C130.559 206.851 130.313 207.725 130.148 208.615C130.014 209.054 129.995 209.52 130.092 209.968C130.19 210.417 130.4 210.833 130.704 211.177C131.007 211.522 131.394 211.782 131.827 211.935C132.26 212.087 132.725 212.126 133.177 212.048C133.844 212.029 134.501 211.883 135.113 211.618C136.553 210.987 137.938 210.237 139.253 209.377C142.195 207.306 144.701 204.678 146.629 201.641C148.657 198.444 150.316 195.027 151.576 191.457C152.992 187.576 154.265 183.649 155.717 179.804C157.81 174.566 160.203 169.454 162.886 164.493C165.194 160.188 167.166 155.71 168.783 151.1C169.997 147.522 170.664 143.78 170.764 140.003L170.782 140.048ZM97.4987 168.518C99.9492 168.526 102.361 167.909 104.507 166.725C106.111 165.891 107.68 164.977 109.221 164.036C117.692 158.618 126.881 154.418 136.52 151.558C140.221 150.491 143.887 149.281 147.507 147.972C150.302 146.996 152.934 145.602 155.313 143.839C158.575 141.347 160.825 138.022 162.868 134.553C163.172 133.988 163.398 133.385 163.54 132.76C163.797 131.981 163.735 131.133 163.369 130.399C163.003 129.666 162.363 129.106 161.587 128.842C160.375 128.347 159.036 128.256 157.769 128.582C154.934 129.104 152.223 130.153 149.775 131.675C148.529 132.5 147.238 133.271 146.011 134.122C140.79 137.814 134.955 140.546 128.776 142.19C124.932 143.194 121.15 144.413 117.323 145.489C110.723 147.25 104.599 150.462 99.3987 154.892C97.8951 156.226 96.4903 157.667 95.1954 159.204C94.0537 160.456 93.3003 162.014 93.0266 163.686C92.6054 166.51 94.2007 168.455 97.0596 168.491L97.4987 168.518ZM139.056 137.475L138.913 137.26C135.824 138.266 132.65 138.993 129.431 139.429C126.434 139.898 123.39 139.991 120.37 139.707C116.543 139.277 112.725 138.694 108.899 138.273C105.291 137.899 101.651 137.947 98.0544 138.416C94.0923 139.002 90.3007 140.426 86.9324 142.593C85.3462 143.513 84.1366 144.964 83.5179 146.69C83.303 147.139 83.2099 147.637 83.2477 148.133C83.2856 148.629 83.4531 149.107 83.7335 149.518C84.014 149.929 84.3974 150.26 84.8455 150.476C85.2937 150.692 85.7908 150.787 86.2871 150.751C88.2599 150.746 90.2208 150.444 92.1035 149.854C93.3224 149.532 94.5233 149.164 95.6884 148.779C98.3042 147.991 101.022 147.595 103.754 147.604C106.315 147.635 108.868 147.303 111.336 146.618C116.48 145.014 121.643 143.463 126.796 141.912C130.114 141.055 133.367 139.962 136.529 138.64C137.362 138.273 138.196 137.842 139.038 137.43L139.056 137.475ZM183.141 206.239C183.413 205.944 183.615 205.59 183.73 205.205C183.845 204.819 183.87 204.413 183.804 204.016C183.699 202.606 183.456 201.21 183.078 199.848C181.832 196.038 180.47 192.264 179.081 188.499C176.392 181.193 173.399 173.986 171.095 166.537C170.088 163.47 169.486 160.285 169.303 157.062C169.249 155.771 169.106 154.48 168.98 152.893C168.703 153.566 168.496 153.969 168.353 154.399C166.843 159.287 165.966 164.348 165.745 169.459C165.611 171.897 165.664 174.345 165.745 176.783C165.715 178.639 166.019 180.485 166.641 182.233C166.883 182.754 167.162 183.257 167.475 183.739C168.514 184.08 169.411 183.587 170.163 184.286C170.157 184.587 170.124 184.887 170.065 185.182C169.709 186.567 169.849 188.032 170.459 189.324C171.692 192.396 173.3 195.305 175.245 197.983C176.724 199.919 178.167 201.892 179.726 203.792C180.342 204.505 181.04 205.143 181.805 205.692C182.226 205.93 182.674 206.113 183.141 206.239ZM154.148 145.677L153.969 145.426C151.218 147.043 148.316 148.385 145.303 149.433C142.739 150.33 140.14 151.091 137.541 151.88C130.264 154.103 123.13 156.667 116.516 160.513C112.561 162.808 108.603 165.091 104.642 167.362C104.497 167.414 104.347 167.447 104.193 167.46L104.444 167.756C104.633 167.756 104.83 167.756 105.009 167.702C109.185 166.931 113.362 166.178 117.556 165.362C120.19 164.917 122.798 164.333 125.371 163.614C134.333 160.854 142.139 156.067 149.264 150.079C150.94 148.617 152.508 147.076 154.148 145.632V145.677ZM88.4739 140.747C88.6215 140.808 88.7745 140.856 88.9309 140.89C89.2177 140.765 89.5045 140.639 89.8272 140.496C93.3709 138.66 97.2825 137.646 101.272 137.529C106.27 137.334 111.275 137.67 116.203 138.533C120.268 139.264 124.417 139.415 128.526 138.981C133.891 138.39 139.109 136.844 143.931 134.418C145.105 133.817 146.199 133.073 147.337 132.401C147.243 132.332 147.134 132.285 147.02 132.263C146.905 132.241 146.787 132.246 146.674 132.276C144.532 132.769 142.399 133.324 140.248 133.746C136.566 134.444 132.804 134.625 129.072 134.284C124.062 133.844 119.07 133.163 114.061 132.625C110.46 132.152 106.801 132.417 103.306 133.405C98.2937 135.075 93.5418 137.444 89.1908 140.442C88.9575 140.544 88.7181 140.63 88.4739 140.702V140.747ZM169.491 184.6C169.198 184.528 168.897 184.495 168.595 184.501C167.34 184.689 166.686 183.981 166.247 182.959C166.006 182.464 165.828 181.94 165.718 181.399C165.408 179.7 165.187 177.985 165.055 176.263C164.828 171.169 165.204 166.066 166.175 161.06C166.292 160.477 166.364 159.876 166.453 159.267C166.193 159.414 165.991 159.644 165.88 159.921C164.526 162.61 163.191 165.3 161.82 168.061C160.287 171.252 158.8 174.47 157.276 177.67C156.922 178.421 156.858 179.277 157.097 180.073C158.52 185.582 161.929 190.371 166.668 193.519C169.169 195.24 171.777 196.8 174.331 198.431C174.545 198.525 174.767 198.6 174.994 198.656C174.743 198.243 174.618 198.001 174.456 197.759C172.642 195.223 171.137 192.478 169.975 189.584C169.272 188.2 169.09 186.609 169.464 185.102C169.491 184.921 169.5 184.738 169.491 184.555V184.6ZM128.794 174.99C128.102 177.413 127.71 179.912 127.629 182.43C127.54 184.163 127.567 185.9 127.71 187.63C128.069 190.963 128.702 194.261 129.601 197.49C130.115 199.151 130.289 200.898 130.112 202.627C129.942 203.873 129.682 205.11 129.556 206.356C129.337 207.305 129.337 208.293 129.556 209.242C129.924 207.808 130.228 206.392 130.65 205.011C131.675 201.879 132.172 198.598 132.119 195.303C132.017 191.997 131.511 188.715 130.614 185.532C129.798 182.943 129.243 180.28 128.956 177.581C128.911 176.702 128.848 175.824 128.794 174.945V174.99Z" fill="#868C96"/>
<path d="M212.948 81.3411C213.298 81.0811 213.665 80.8391 213.988 80.5522C216.933 77.7957 219.339 74.5159 221.086 70.8799C222.305 68.4058 223.524 65.9316 224.787 63.4844C230.774 51.9654 239.414 42.8668 250.034 35.4892C255.819 31.5122 261.921 28.0193 268.281 25.046C277.458 20.7163 284.547 14.0648 290.211 5.77294C291.483 3.91735 292.693 2.01694 293.975 0.0627491L294.728 0C294.718 0.130668 294.693 0.259883 294.656 0.385461C290.618 7.54828 285.352 13.9446 279.098 19.282C276.337 21.5166 273.33 23.4294 270.136 24.9832C263.968 27.9738 257.983 31.3263 252.211 35.0231C239.915 43.0909 230.299 53.5611 223.972 66.9356C222.968 69.0781 221.857 71.1667 220.763 73.2106C219.092 76.2615 216.92 79.0099 214.338 81.3411C213.836 81.8252 213.827 81.8162 212.948 81.3411Z" fill="#868C96"/>
<path d="M146.315 192.067C147.077 190.131 147.821 188.185 148.601 186.258C152.06 177.706 156.227 169.495 160.368 161.266C162.705 156.922 164.756 152.431 166.507 147.82C167.189 145.899 167.752 143.938 168.192 141.948C168.443 140.465 168.611 138.968 168.694 137.466C169.133 140.899 168.147 144.368 166.982 147.82C165.615 151.502 164.016 155.095 162.196 158.577C160.099 162.897 157.805 167.12 155.761 171.467C152.75 177.877 149.891 184.358 146.952 190.803C146.763 191.215 146.512 191.601 146.288 192.004L146.315 192.067Z" fill="#868C96"/>
<path d="M96.2081 143.848C97.651 143.535 99.085 143.149 100.546 142.952C102.831 142.593 105.134 142.325 107.429 142.056C108.441 141.93 109.463 141.849 110.485 141.778C113.03 141.598 115.593 141.5 118.138 141.249C122.835 140.839 127.477 139.953 131.994 138.604C132.254 138.524 132.523 138.443 132.791 138.38C132.791 138.38 132.899 138.434 133.168 138.577C131.797 139.017 130.596 139.474 129.368 139.788C125.889 140.768 122.323 141.407 118.721 141.697C115.665 141.939 112.6 142.118 109.553 142.414C105.6 142.809 101.666 143.311 97.7227 143.723C97.2119 143.786 96.701 143.804 96.1902 143.839L96.2081 143.848Z" fill="#868C96"/>
<path d="M130.246 144.046C132.182 143.104 134.118 142.154 136.071 141.24C141.713 138.623 147.172 135.628 152.409 132.276C154.19 131.195 156.023 130.205 157.903 129.309C159.36 128.685 160.96 128.478 162.528 128.708C162.908 128.764 163.27 128.908 163.585 129.129C160.654 128.556 158.064 129.434 155.627 130.922C152.938 132.536 150.249 134.221 147.561 135.817C142.277 138.788 136.821 141.443 131.223 143.768C130.893 143.88 130.554 143.964 130.21 144.019L130.246 144.046Z" fill="#868C96"/>
<path d="M144.881 139.546C144.435 139.972 143.962 140.37 143.465 140.738C140.455 142.672 137.276 144.328 133.966 145.686C127.145 148.617 120.307 151.495 113.487 154.426C111.695 155.188 110.001 156.049 108.262 156.864L108.199 156.793C110.332 155.717 112.412 154.525 114.598 153.566C120.307 151.065 126.079 148.68 131.806 146.206C136.293 144.43 140.6 142.226 144.666 139.626C144.739 139.591 144.818 139.569 144.899 139.564L144.881 139.546Z" fill="#868C96"/>
<path d="M152.938 158.926C154.901 155.843 156.873 152.768 158.835 149.675C161.017 146.355 162.9 142.848 164.464 139.196C165.137 137.515 165.545 135.74 165.673 133.934C165.651 133.271 165.555 132.613 165.387 131.971C165.387 131.801 165.387 131.621 165.306 131.236C165.6 131.518 165.831 131.858 165.986 132.234C166.14 132.611 166.214 133.016 166.202 133.423C166.205 135.55 165.762 137.654 164.903 139.599C163.528 142.796 161.854 145.854 159.902 148.734C157.867 151.862 155.761 154.955 153.673 158.057C153.437 158.37 153.183 158.67 152.911 158.953L152.938 158.926Z" fill="#868C96"/>
<path d="M146.073 162.503C145.867 162.924 145.688 163.355 145.446 163.749C143.187 167.487 140.893 171.207 138.67 174.963C136.179 179.176 134.44 183.739 132.576 188.248C132.388 188.705 132.182 189.145 131.922 189.772C131.831 189.558 131.795 189.324 131.817 189.093C131.838 188.861 131.918 188.639 132.047 188.445C133.987 182.87 136.523 177.52 139.611 172.489C141.547 169.432 143.483 166.366 145.428 163.319C145.629 163.037 145.85 162.77 146.091 162.521L146.073 162.503Z" fill="#868C96"/>
<path d="M168.326 189.207C168.198 189.12 168.08 189.018 167.977 188.903C165.104 184.845 163.197 180.185 162.402 175.277C161.881 172.367 161.902 169.385 162.465 166.483C162.655 165.333 163.139 164.252 163.872 163.346C163.54 164.466 163.128 165.569 162.868 166.707C162.38 169.067 162.316 171.496 162.68 173.879C162.979 175.856 163.395 177.813 163.926 179.741C164.686 182.434 165.837 185.001 167.34 187.361C167.699 187.961 167.986 188.607 168.308 189.234L168.326 189.207Z" fill="#868C96"/>
<path d="M158.611 136.238C158.407 136.52 158.182 136.786 157.939 137.036C151.866 142.694 144.948 147.37 137.434 150.894C136.798 151.181 136.125 151.369 135.462 151.611C137.192 150.715 138.939 149.819 140.651 148.922C146.715 145.499 152.42 141.475 157.679 136.91C157.981 136.673 158.295 136.452 158.62 136.247L158.611 136.238Z" fill="#868C96"/>
<path d="M147.74 184.295C146.952 186.267 146.181 188.239 145.365 190.193C143.483 194.687 141.592 199.169 139.692 203.64C139.576 203.987 139.369 204.297 139.092 204.536C139.092 204.42 139.155 204.303 139.199 204.186C141.834 197.923 144.472 191.649 147.113 185.362C147.304 184.987 147.522 184.628 147.767 184.286L147.74 184.295Z" fill="#868C96"/>
<path d="M108.217 154.453C107.904 154.677 107.608 154.928 107.276 155.125C103.553 157.262 100.013 159.702 96.692 162.422C95.4463 163.498 94.2813 164.672 92.928 165.73C93.1306 165.368 93.3709 165.029 93.6449 164.717C95.0231 163.318 96.4932 162.012 98.0453 160.809C101.003 158.729 104.104 156.847 107.16 154.901C107.504 154.723 107.864 154.579 108.235 154.471L108.217 154.453Z" fill="#868C96"/>
<path d="M137.837 172.498L131.331 186.142H131.241C131.393 185.675 131.519 185.191 131.698 184.734C133.149 180.873 134.921 177.139 136.995 173.574C137.261 173.203 137.561 172.858 137.891 172.543L137.837 172.498Z" fill="#868C96"/>
<path d="M102.544 140.801C108.549 139.781 114.653 139.48 120.728 139.904C114.625 140.119 108.549 140.092 102.544 140.801Z" fill="#868C96"/>
<path d="M161.022 179.947C160.78 179.085 160.583 178.212 160.431 177.33C160.036 174.112 159.947 170.911 161.398 167.864C161.327 168.267 161.264 168.679 161.174 169.092C161.085 169.504 160.977 169.988 160.879 170.472C160.489 172.201 160.398 173.984 160.61 175.743C160.816 177.141 160.879 178.567 161.004 179.974L161.022 179.947Z" fill="#868C96"/>
<path d="M163.352 186.375C163.035 186.11 162.775 185.784 162.589 185.415C162.402 185.047 162.293 184.644 162.268 184.232C162.626 184.949 162.985 185.666 163.352 186.384V186.375Z" fill="#868C96"/>
<path d="M150.823 177.634C150.993 176.77 151.429 175.98 152.069 175.376L150.814 177.634H150.823Z" fill="#868C96"/>
<path d="M108.262 156.864L106.129 158.039L108.146 156.775L108.262 156.864Z" fill="#868C96"/>
<path d="M146.288 192.049C146.154 192.542 146.028 193.035 145.894 193.528L146.288 192.058V192.049Z" fill="#868C96"/>
<path d="M144.908 139.564L145.867 138.882L144.908 139.573V139.564Z" fill="#868C96"/>
<path d="M109.158 154.005L108.262 154.453L109.212 154.014L109.158 154.005Z" fill="#868C96"/>
<path d="M96.1901 143.822L95.6882 144.019V143.884H96.235L96.1901 143.822Z" fill="#868C96"/>
<path d="M146.091 162.521L146.566 161.822L146.1 162.521H146.091Z" fill="#868C96"/>
<path d="M147.023 161.113L146.539 161.804L147.023 161.122V161.113Z" fill="#868C96"/>
<path d="M147.516 160.405C147.355 160.638 147.185 160.871 147.023 161.113L147.48 160.405H147.516Z" fill="#868C96"/>
<path d="M168.308 189.252L168.756 189.951L168.299 189.261L168.308 189.252Z" fill="#868C96"/>
<path d="M129.26 144.53L128.624 144.772L129.26 144.548V144.53Z" fill="#868C96"/>
<path d="M161.004 179.974C161.004 180.073 161.085 180.18 161.004 180.073C161.02 180.366 161.151 180.642 161.367 180.841C161.584 181.04 161.869 181.147 162.163 181.139C162.457 181.131 162.736 181.008 162.941 180.798C163.146 180.587 163.261 180.304 163.261 180.01C163.261 179.716 163.146 179.433 162.941 179.223C162.736 179.012 162.457 178.889 162.163 178.881C161.869 178.873 161.584 178.98 161.367 179.179C161.151 179.378 161.02 179.654 161.004 179.947V179.974Z" fill="#868C96"/>
<path d="M138.24 171.512L137.998 171.906L138.24 171.512Z" fill="#868C96"/>
<path d="M147.991 183.829L148.242 183.452L147.955 183.829H147.991Z" fill="#868C96"/>
<path d="M148.251 183.407L148.305 183.255H148.233C148.229 183.285 148.229 183.315 148.233 183.345L148.251 183.407Z" fill="#868C96"/>
<path d="M106.129 158.039L105.618 158.236L106.156 158.057L106.129 158.039Z" fill="#868C96"/>
<path d="M137.998 171.906L137.837 172.498L137.99 171.906H137.998Z" fill="#868C96"/>
<path d="M138.769 170.795L138.518 171.216L138.733 170.777L138.769 170.795Z" fill="#868C96"/>
<path d="M150.545 178.128V178.235L150.608 178.145L150.545 178.128Z" fill="#868C96"/>
<path d="M150.796 177.617C150.707 177.787 150.626 177.957 150.545 178.128L150.796 177.617Z" fill="#868C96"/>
<path d="M130.219 144.019L129.807 144.315L130.219 144.028V144.019Z" fill="#868C96"/>
<path d="M169.052 190.22L169.24 190.642C169.186 190.498 169.124 190.355 169.061 190.211L169.052 190.22Z" fill="#868C96"/>
<path d="M129.287 144.557L129.834 144.333L129.287 144.548V144.557Z" fill="#868C96"/>
<path d="M128.624 144.772L128.301 144.924L128.651 144.781L128.624 144.772Z" fill="#868C96"/>
<path d="M135.462 151.611L135.399 151.665H135.489L135.462 151.611Z" fill="#868C96"/>
<path d="M134.467 151.961L134.548 151.952L134.53 152.006L134.467 151.961Z" fill="#868C96"/>
<path d="M111.13 153.064H111.273V152.983L111.157 153.064H111.13Z" fill="#868C96"/>
<path d="M110.664 153.35L111.13 153.108L110.664 153.35Z" fill="#868C96"/>
<path d="M110.189 153.548L110.664 153.306L110.189 153.539V153.548Z" fill="#868C96"/>
<path d="M110.171 153.53L109.705 153.79L110.162 153.53H110.171Z" fill="#868C96"/>
<path d="M109.185 154.032L109.732 153.808L109.185 154.023V154.032Z" fill="#868C96"/>
<path d="M147.964 183.757L147.74 184.295L147.964 183.757Z" fill="#868C96"/>
<path d="M168.756 189.951L169.052 190.22L168.756 189.951Z" fill="#868C96"/>
<path d="M169.5 190.91L169.258 190.624L169.518 190.884L169.5 190.91Z" fill="#868C96"/>
<path d="M169.5 190.902L169.572 190.973V190.893H169.5V190.902Z" fill="#868C96"/>
<path d="M145.885 193.528L145.849 193.537L145.921 193.528H145.885Z" fill="#868C96"/>
<path d="M159.077 135.727L158.853 135.996L159.077 135.736V135.727Z" fill="#868C96"/>
<path d="M158.853 135.996L158.611 136.238L158.853 135.996Z" fill="#868C96"/>
<path d="M145.858 138.882L145.885 138.802L145.84 138.855L145.858 138.882Z" fill="#868C96"/>
<path d="M149.631 157.304H149.73L149.622 157.196V157.295L149.631 157.304Z" fill="#868C96"/>
<path d="M149.631 157.304H149.551L149.64 157.402V157.313L149.631 157.304Z" fill="#868C96"/>
<path d="M149.147 158.012H149.237L149.138 157.913V158.003L149.147 158.012Z" fill="#868C96"/>
<path d="M149.147 158.012H149.067L149.165 158.093V158.012H149.147Z" fill="#868C96"/>
<path d="M104.919 158.729H104.848L104.937 158.819V158.738L104.919 158.729Z" fill="#868C96"/>
<path d="M148.448 158.944L148.385 159.025H148.457V158.953L148.448 158.944Z" fill="#868C96"/>
<path d="M138.751 170.804L138.805 170.723H138.733V170.795L138.751 170.804Z" fill="#868C96"/>
<path d="M138.518 171.216L138.24 171.512L138.509 171.216H138.518Z" fill="#868C96"/>
<path d="M315.896 43.7184C314.489 43.8977 313.091 44.0859 311.684 44.2473C308.995 44.5431 306.307 44.8748 303.618 45.1437C299.773 45.4754 295.929 45.7532 292.075 46.0401C289.123 46.2373 286.172 46.4046 283.22 46.5421C280.155 46.6676 277.072 46.7124 274.007 46.8379C270.736 46.909 267.475 47.2418 264.257 47.8329C259.272 48.8081 254.691 51.2489 251.1 54.8429C246.165 59.7387 242.138 65.4722 239.208 71.7763C237.242 75.9596 235.279 80.1758 233.319 84.4248C232.576 85.8056 232.162 87.3396 232.11 88.9069C232.062 89.1678 232.073 89.4361 232.141 89.6924C232.209 89.9487 232.334 90.1866 232.505 90.3889C232.677 90.5913 232.891 90.7531 233.132 90.8627C233.374 90.9722 233.637 91.0268 233.902 91.0224C238.186 91.6858 242.47 91.8203 246.628 90.3412C248.294 89.7445 249.897 88.9849 251.414 88.0732C255.418 85.5127 259.075 82.4455 262.294 78.9477C263.19 78.0512 264.033 77.1548 264.983 76.2584C267.784 73.438 271.452 71.6415 275.397 71.1578C276.337 71.0029 277.302 71.0769 278.208 71.3733C279.114 71.6698 279.936 72.18 280.604 72.861C281.281 73.478 281.741 74.2967 281.917 75.1959C282.093 76.0952 281.975 77.0272 281.58 77.854C281.294 78.5041 280.961 79.1332 280.586 79.7365C280.153 80.4853 279.91 81.3285 279.878 82.1927C279.588 87.6044 277.989 92.8647 275.217 97.5215C274.704 98.3736 274.103 99.1698 273.425 99.897C269.521 104.117 264.508 107.153 258.96 108.655C256.589 109.295 254.087 109.274 251.728 108.592C251.459 108.521 251.199 108.467 250.831 108.377C250.88 108.655 250.952 108.927 251.047 109.193C253.466 114.925 254.501 121.147 254.067 127.354C253.708 130.961 253.565 134.586 253.637 138.21C253.753 140.451 253.861 142.692 253.852 144.933C253.833 145.838 253.647 146.731 253.305 147.569C253.206 147.915 253.014 148.228 252.75 148.474C252.487 148.72 252.162 148.89 251.809 148.966C251.457 149.041 251.09 149.019 250.749 148.903C250.408 148.786 250.105 148.579 249.872 148.304C249.326 147.793 248.887 147.174 248.394 146.618L247.238 145.354C246.484 145.572 245.718 145.743 244.943 145.865C243.484 145.989 242.019 145.713 240.704 145.068C237.353 143.44 234.463 140.999 232.298 137.968C230.623 135.719 229.3 133.228 228.372 130.581C228.202 130.106 228.005 129.685 227.727 128.968C227.503 129.99 227.351 130.761 227.136 131.585C226.169 135.666 224.335 139.491 221.758 142.8C220.757 144.015 219.647 145.137 218.442 146.152C217.598 146.792 216.657 147.295 215.655 147.64C213.549 148.429 210.278 146.95 209.875 145.032C209.6 144.05 209.5 143.027 209.579 142.011C209.892 139.992 209.794 137.931 209.292 135.951C208.37 132.219 208.432 128.312 209.471 124.611C209.668 123.903 209.982 123.231 210.269 122.469C210.139 122.464 210.009 122.479 209.884 122.514C206.299 124.791 202.714 126.996 199.263 129.389C197.346 130.689 195.58 132.222 193.797 133.71C192.318 135.08 190.513 136.049 188.554 136.525C185.686 137.098 183.687 135.745 183.472 132.805C183.407 131.193 183.449 129.579 183.598 127.973C183.723 125.732 184.001 123.491 184.046 121.259C184.165 116.949 185.285 112.726 187.317 108.924C187.533 108.551 187.664 108.134 187.702 107.705C187.478 107.839 187.254 107.965 187.03 108.108C185.103 109.327 183.212 110.609 181.241 111.766C178.777 113.108 176.066 113.934 173.273 114.195C172.584 114.33 171.908 114.532 171.257 114.795C170.208 115.23 169.126 115.58 168.022 115.844C166.283 116.14 165.19 115.459 164.356 113.899C163.542 112.225 163.383 110.307 163.908 108.521C164.395 106.439 165.311 104.482 166.597 102.774C167 102.206 167.287 101.563 167.439 100.883C167.728 99.8233 168.188 98.8179 168.801 97.9069C174.367 89.5164 182.146 84.2365 191.816 81.6459C201.004 79.2498 210.708 79.7539 219.598 83.0891C221.242 83.6381 222.784 84.456 224.16 85.5095C226.849 87.7953 231.33 86.4059 232.8 83.5194C233.373 82.4347 233.947 81.359 234.467 80.2564C236.259 76.4018 237.908 72.4665 239.844 68.6926C242.807 62.8809 246.779 57.6421 251.575 53.2204C255.727 49.4657 260.979 47.1517 266.551 46.6228C270.342 46.2015 274.169 46.0939 277.987 45.8787C282.235 45.6367 286.483 45.4664 290.731 45.2154C294.665 44.9913 298.599 44.7851 302.525 44.4265C306.719 44.0411 310.895 43.4763 315.072 42.9833C315.343 42.9357 315.609 42.8667 315.869 42.7771L315.896 43.7184ZM253.574 124.315C253.395 122.523 253.296 120.389 252.938 118.265C251.029 106.799 244.674 98.4717 234.727 92.7346C234.08 92.3496 233.388 92.0484 232.665 91.8382C231.9 91.5418 231.055 91.5269 230.28 91.7962C229.505 92.0655 228.851 92.6014 228.435 93.3083C227.851 94.154 227.493 95.1355 227.396 96.1589C226.64 100.716 226.247 105.326 226.221 109.946C226.221 111.398 226.374 112.85 226.437 114.302C226.491 117.302 226.73 120.296 227.154 123.267C227.865 128.155 229.66 132.822 232.405 136.928C234.556 140.211 237.566 142.84 241.108 144.53C241.892 144.95 242.755 145.203 243.642 145.273C244.529 145.342 245.421 145.226 246.261 144.933C246.587 144.784 246.955 144.752 247.302 144.842C247.65 144.932 247.956 145.138 248.17 145.426C248.51 145.803 248.806 146.224 249.138 146.618C249.501 147.082 249.896 147.519 250.321 147.927C250.475 148.112 250.675 148.253 250.9 148.336C251.126 148.419 251.369 148.441 251.606 148.4C251.843 148.359 252.065 148.257 252.25 148.103C252.435 147.949 252.576 147.749 252.66 147.524C252.985 146.896 253.172 146.205 253.206 145.498C253.206 143.49 253.126 141.491 253.072 139.483C253.018 137.475 252.884 135.548 252.964 133.584C253.108 130.617 253.341 127.677 253.574 124.315ZM184.028 130.59H183.858C183.977 131.756 184.174 132.912 184.449 134.051C184.636 134.729 185.082 135.307 185.69 135.66C186.298 136.014 187.021 136.115 187.702 135.942C188.163 135.834 188.602 135.649 189.002 135.395C190.341 134.552 191.466 133.411 192.291 132.061C193.661 129.94 195.224 127.95 196.96 126.117C200.77 122.384 205.298 119.462 210.269 117.53C212.223 116.714 214.167 115.835 216.041 114.84C216.939 114.349 217.723 113.674 218.344 112.859C222.84 106.993 225.927 100.172 227.369 92.9228C227.745 90.8611 227.369 88.4407 224.205 87.6967C222.874 87.3519 221.502 87.192 220.127 87.2216C217.891 87.3501 215.664 87.6136 213.459 88.0105C207.445 89.0933 201.885 91.9315 197.48 96.1679C192.633 100.774 188.868 106.398 186.457 112.635C185.282 115.4 184.705 118.381 184.763 121.384C184.766 122.016 184.733 122.647 184.664 123.276C184.458 125.777 184.234 128.251 184.028 130.635V130.59ZM222.914 86.5493L222.959 86.37C222.699 86.2445 222.439 86.0921 222.171 85.9935C218.8 84.7702 215.284 83.9926 211.712 83.6808C206.759 83.2591 201.77 83.6099 196.924 84.7206C188.527 86.6904 180.71 90.6088 174.107 96.1589C171.833 97.9894 169.755 100.05 167.905 102.308C166.212 104.302 165.061 106.697 164.562 109.265C164.368 110.047 164.331 110.861 164.454 111.658C164.577 112.456 164.858 113.22 165.279 113.908C165.559 114.438 166.019 114.851 166.576 115.071C167.133 115.291 167.751 115.305 168.317 115.109C169.214 114.867 170.11 114.437 171.006 114.141C171.879 113.818 172.779 113.572 173.695 113.406C175.926 113.153 178.097 112.516 180.111 111.524C182.822 110.157 185.392 108.527 187.783 106.656C188.729 105.883 189.559 104.977 190.248 103.967C191.673 101.889 193.201 99.8848 194.827 97.9607C198.426 93.8503 202.995 90.7042 208.118 88.8083C212.583 87.2272 217.301 86.4797 222.036 86.6031L222.914 86.5493ZM238.007 93.5951L237.935 93.7744C238.213 93.9896 238.473 94.2137 238.759 94.4109C243.197 97.5193 246.892 101.573 249.577 106.279C249.746 106.589 249.976 106.86 250.254 107.077C250.531 107.294 250.849 107.453 251.19 107.543C253.829 108.4 256.664 108.444 259.327 107.669C263.248 106.444 266.898 104.481 270.082 101.887C272.51 99.969 274.461 97.5144 275.782 94.7157C277.019 92.0318 277.939 89.213 278.524 86.3162C278.807 85.3331 278.964 84.318 278.99 83.2953C278.908 81.5553 279.375 79.8336 280.326 78.374C280.754 77.7138 281.029 76.9666 281.132 76.1867C281.173 75.2525 280.894 74.3325 280.342 73.5781C279.789 72.8236 278.997 72.2798 278.094 72.0363C274.859 70.9068 270.423 72.5831 268.827 75.6219C267.868 77.4686 267.098 79.4138 266.184 81.2873C265.318 83.2295 264.349 85.1237 263.28 86.9617C261.782 89.5554 259.605 91.6909 256.984 93.138C254.362 94.585 251.395 95.2886 248.403 95.1729C245.608 95.1578 242.826 94.7934 240.122 94.0882C239.423 93.9806 238.715 93.8103 238.007 93.64V93.5951ZM226.051 100.982H225.791C225.675 101.233 225.567 101.475 225.442 101.717C224.268 104.074 223.219 106.504 221.857 108.772C219.291 113.404 215.919 117.542 211.9 120.99C211.649 121.173 211.443 121.413 211.3 121.689C210.728 122.94 210.249 124.231 209.866 125.553C209.041 129.096 209.087 132.787 210 136.31C210.463 137.738 210.577 139.256 210.332 140.738C210.224 141.231 210.179 141.742 210.117 142.253C209.633 146.421 213.37 147.936 216.05 146.825C216.813 146.508 217.52 146.073 218.147 145.534C222.579 141.721 225.6 136.527 226.723 130.788C227.21 129.161 227.287 127.44 226.947 125.777C226.355 123.368 226.015 120.905 225.935 118.426C225.935 116.579 225.702 114.733 225.666 112.877C225.612 110.448 225.666 108.001 225.666 105.562C225.755 104.047 225.935 102.55 226.051 101.026V100.982ZM268.935 74.0891L268.791 73.9277C267.707 74.8241 266.569 75.6668 265.529 76.617C264.49 77.5672 263.593 78.5891 262.635 79.5751C259.455 82.97 255.888 85.9787 252.005 88.5393C250.379 89.5817 248.626 90.4131 246.79 91.0135C243.466 92.0394 239.965 92.363 236.51 91.9637C236.268 91.9502 236.026 91.9502 235.784 91.9637C236.166 92.2599 236.597 92.4874 237.057 92.636C241.079 94.0689 245.337 94.72 249.604 94.5543C252.938 94.4881 256.159 93.3292 258.772 91.2555C261.304 89.161 263.306 86.4981 264.615 83.4835C266.067 80.4447 267.492 77.2983 268.935 74.1608V74.0891ZM222.502 85.2854L222.565 85.1329C222.388 84.9855 222.2 84.8535 222 84.7385C221.04 84.2801 220.056 83.8732 219.052 83.5194C212.648 81.2433 205.823 80.3958 199.057 81.0363C194.308 81.4611 189.662 82.6729 185.309 84.622C178.796 87.5456 173.247 92.262 169.312 98.2207C168.891 98.8571 168.559 99.5563 168.183 100.22L168.407 100.372C168.649 100.148 168.9 99.9328 169.133 99.6908C172.813 95.8919 177.01 92.6299 181.599 90.0005C188.989 85.6275 197.351 83.163 205.931 82.8292C211.177 82.6147 216.418 83.3683 221.391 85.0523C221.785 85.2226 222.144 85.2226 222.502 85.3571V85.2854ZM191.135 134.588L191.269 134.777C192.022 134.167 192.802 133.593 193.519 132.984C195.58 131.091 197.802 129.382 200.16 127.874C202.848 126.153 205.537 124.45 208.226 122.738C210.937 121.07 213.379 119 215.467 116.597C215.646 116.373 215.79 116.122 216.023 115.773L209.749 118.525C203.816 121.079 198.573 124.665 194.639 129.891C193.465 131.469 192.309 133.065 191.153 134.651L191.135 134.588Z" fill="#868C96"/>
<path d="M190.248 117.727C193.429 105.867 199.837 96.5085 211.129 90.9866C213.924 89.6253 216.891 88.6512 219.948 88.0911C221.676 87.6654 223.478 87.6379 225.218 88.0105C225.764 88.1539 226.284 88.378 226.813 88.5573L226.723 88.8083C226.06 88.6738 225.406 88.4856 224.734 88.4138C222.416 88.2195 220.082 88.4566 217.851 89.1131C212.395 90.592 207.341 93.2787 203.063 96.9747C198.627 100.857 195.135 105.701 192.856 111.138C192.067 112.931 191.422 114.795 190.705 116.624C190.561 116.992 190.391 117.341 190.23 117.7L190.248 117.727Z" fill="#868C96"/>
<path d="M173.014 104.54C173.188 104.227 173.386 103.928 173.605 103.644C181.243 95.2671 191.146 89.2854 202.114 86.4238C206.933 85.2421 211.909 84.8366 216.856 85.2226C218.806 85.423 220.744 85.7222 222.664 86.119C222.764 86.1391 222.858 86.1841 222.936 86.2499C223.014 86.3157 223.075 86.4002 223.112 86.4955C222 86.3162 220.889 86.11 219.778 85.9666C218.371 85.7963 216.964 85.6081 215.557 85.5632C203.673 85.1688 193.053 88.9069 183.365 95.5942C179.936 97.9851 176.756 100.715 173.874 103.743C173.605 104.021 173.291 104.254 172.978 104.505L173.014 104.54Z" fill="#868C96"/>
<path d="M232.854 91.4975C234.607 92.3029 236.171 93.4698 237.442 94.9219C240.465 98.2714 242.543 102.364 243.465 106.781C244.098 109.735 244.517 112.731 244.719 115.746C244.918 119.011 244.87 122.286 244.576 125.544C244.289 130.026 243.68 134.445 243.169 138.9C243.153 138.995 243.118 139.085 243.066 139.165C243.013 139.246 242.945 139.314 242.864 139.366C243.034 137.896 243.205 136.417 243.366 134.938C243.581 132.984 243.913 131.039 243.975 129.084C244.137 124.557 244.37 120.022 244.182 115.504C244.094 109.896 242.698 104.385 240.104 99.4129C238.55 96.4747 236.308 93.9559 233.57 92.0712C233.325 91.886 233.092 91.6854 232.871 91.4706L232.854 91.4975Z" fill="#868C96"/>
<path d="M265.422 101.645C265.11 101.913 264.77 102.147 264.409 102.344C262.225 103.223 259.93 103.796 257.589 104.047C255.253 104.428 252.864 104.322 250.571 103.734C249.453 103.367 248.361 102.926 247.3 102.416C246.961 102.26 246.632 102.083 246.314 101.887C246.314 102.111 246.314 102.246 246.377 102.317C248.459 105.486 249.874 109.045 250.536 112.779C251.462 116.895 251.862 121.112 251.728 125.328C251.647 127.569 251.414 129.81 251.235 132.043C251.189 132.355 251.092 132.658 250.948 132.939C251.02 131.55 251.037 130.16 251.172 128.789C251.409 126 251.409 123.196 251.172 120.407C250.948 117.468 250.492 114.552 249.81 111.685C249.047 108.097 247.615 104.685 245.588 101.627C245.521 101.488 245.464 101.344 245.418 101.197C245.83 100.901 246.171 101.143 246.494 101.367C248.852 102.958 251.643 103.784 254.488 103.734C256.639 103.687 258.782 103.438 260.887 102.99C262.443 102.616 263.978 102.158 265.484 101.618L265.422 101.645Z" fill="#868C96"/>
<path d="M211.067 93.631C210.945 93.7809 210.807 93.9163 210.654 94.0344C204.288 97.9624 199.078 103.508 195.553 110.107C192.947 114.868 190.99 119.957 189.737 125.239C189.664 125.63 189.512 126.003 189.289 126.332C189.548 125.167 189.773 123.993 190.086 122.836C191.866 115.88 195.009 109.347 199.335 103.617C202.23 99.8305 205.819 96.63 209.91 94.1868C210.291 93.9929 210.683 93.8222 211.084 93.6758L211.067 93.631Z" fill="#868C96"/>
<path d="M187.209 85.8501C188.536 85.2764 189.826 84.6309 191.18 84.129C194.652 82.8735 198.263 82.0428 201.934 81.6548C205.42 81.2828 208.938 81.337 212.411 81.8162C215.838 82.2762 219.191 83.1802 222.386 84.5054C222.624 84.5965 222.824 84.7676 222.95 84.9895C222.803 84.9933 222.655 84.9782 222.511 84.9447C219.042 83.4495 215.369 82.4797 211.613 82.0672C208.091 81.6743 204.534 81.7074 201.02 82.1658C196.492 82.7095 192.063 83.8894 187.864 85.6708C187.642 85.7445 187.414 85.7985 187.183 85.8321L187.209 85.8501Z" fill="#868C96"/>
<path d="M216.292 142.325C224.169 126.556 224.707 119.86 225.666 109.157C225.744 116.052 224.619 122.908 222.341 129.416C220.638 134.275 217.591 140.801 216.292 142.325Z" fill="#868C96"/>
<path d="M218.882 129.075C222.224 119.753 224.994 110.295 225.809 100.39C226.284 106.387 222.135 123.562 218.882 129.075Z" fill="#868C96"/>
<path d="M213.755 112.599C213.967 112.236 214.201 111.886 214.454 111.55C217.114 108.748 219.585 105.771 221.848 102.64C224.262 99.2286 226.03 95.4034 227.064 91.3541C227.225 90.6728 227.342 89.9736 227.539 89.3013C227.672 90.7538 227.479 92.2177 226.974 93.5862C225.46 98.1724 223.02 102.398 219.805 106.002C217.842 108.261 215.736 110.385 213.693 112.572L213.755 112.599Z" fill="#868C96"/>
<path d="M217.448 97.1898C217.089 97.6008 216.709 97.9927 216.309 98.3641C209.344 104.201 203.446 111.205 198.878 119.062C198.878 119.062 198.815 119.062 198.564 119.26C199.022 118.363 199.344 117.718 199.738 117.081C203.962 109.887 209.444 103.51 215.924 98.2565C216.408 97.8711 216.955 97.5573 217.474 97.2077L217.448 97.1898Z" fill="#868C96"/>
<path d="M268.567 91.7485C268.445 91.9905 268.298 92.2188 268.128 92.4298C264.72 96.2802 260.186 98.9588 255.169 100.085C251.851 100.787 248.405 100.567 245.203 99.4488C244.8 99.3143 244.388 99.1978 243.975 99.0723H243.689L242.497 98.1759V98.0504C242.765 98.149 243.034 98.2207 243.285 98.3372C248.663 100.829 254.04 100.614 259.354 98.3372C262.493 96.9484 265.33 94.96 267.707 92.4836C267.949 92.2416 268.236 92.0354 268.496 91.8113L268.567 91.7485Z" fill="#868C96"/>
<path d="M234.287 139.25C234.138 138.749 234.018 138.24 233.929 137.726C233.642 135.144 233.23 132.571 233.167 129.99C233.051 125.427 233.167 120.855 233.167 116.284C233.167 114.984 233.355 113.693 233.472 112.133C233.472 115.342 233.472 118.283 233.472 121.223C233.472 124.163 233.418 127.292 233.57 130.321C233.723 133.351 234.108 136.256 234.386 139.214L234.287 139.25Z" fill="#868C96"/>
<path d="M257.239 95.3163L259.032 93.9716C262.912 90.8627 266.086 86.9636 268.343 82.5333C269.114 81.0722 269.795 79.5662 270.539 78.0512C270.745 77.6389 271.005 77.2534 271.238 76.859C270.844 77.8809 270.485 78.9118 270.046 79.9158C268.218 84.366 265.504 88.3979 262.07 91.7665C260.905 92.8601 259.596 93.8193 258.333 94.8053C258.002 95.0101 257.651 95.1784 257.284 95.3073L257.239 95.3163Z" fill="#868C96"/>
<path d="M181.931 101.672C181.8 101.946 181.644 102.207 181.465 102.452C178.355 106.037 175.111 109.453 172.565 113.469C172.428 113.639 172.272 113.792 172.099 113.926L171.884 113.8C171.968 113.489 172.088 113.188 172.243 112.904C173.085 111.667 173.901 110.412 174.833 109.247C176.976 106.519 179.357 103.987 181.949 101.681L181.931 101.672Z" fill="#868C96"/>
<path d="M215.852 126.834C215.053 129.911 213.982 132.911 212.653 135.799C211.894 137.643 211.024 139.439 210.045 141.177C209.982 140.956 209.958 140.725 209.973 140.496C210.08 140.161 210.212 139.834 210.368 139.519C212.106 135.485 213.848 131.454 215.593 127.426C215.673 127.256 215.772 127.085 215.861 126.915L215.852 126.834Z" fill="#868C96"/>
<path d="M247.291 145.211C246.682 144.942 246.861 144.512 246.906 144.153C247.031 143.024 247.229 141.894 247.336 140.765C247.569 138.174 247.757 135.583 247.972 133.002C247.992 132.869 248.019 132.737 248.053 132.607C248.418 136.823 248.162 141.07 247.291 145.211Z" fill="#868C96"/>
<path d="M240.606 105.401C242.927 111.515 242.828 117.825 242.04 123.769C242.04 121.017 242.165 117.843 242.138 114.67C242.04 111.526 241.525 108.409 240.606 105.401Z" fill="#868C96"/>
<path d="M229.806 97.2167C229.582 99.5205 229.269 101.824 229.152 104.128C229.077 106.013 229.101 107.902 229.224 109.784C229.322 111.461 229.555 113.128 229.609 114.822C229.385 113.469 229.089 112.133 228.955 110.771C228.64 107.638 228.688 104.48 229.098 101.358C229.26 100.112 229.448 98.875 229.636 97.629C229.68 97.4876 229.746 97.3544 229.833 97.2346L229.806 97.2167Z" fill="#868C96"/>
<path d="M276.597 85.1329C276.616 85.2487 276.616 85.3667 276.597 85.4825C274.805 89.7764 272.242 93.4965 268.281 96.1051C268.008 96.257 267.723 96.386 267.429 96.4906C267.552 96.3423 267.687 96.2044 267.833 96.0782C270.774 94.0366 273.193 91.3311 274.895 88.1808C275.45 87.1499 276.069 86.1638 276.687 85.1598L276.597 85.1329Z" fill="#868C96"/>
<path d="M273.291 78.9477C274.285 76.4287 275.289 73.9098 276.284 71.3819L276.499 71.4446C276.493 71.6447 276.462 71.8433 276.409 72.0363C275.585 74.0801 274.76 76.115 273.9 78.1319C273.728 78.4253 273.517 78.6937 273.273 78.9297L273.291 78.9477Z" fill="#868C96"/>
<path d="M183.49 88.0284L180.425 89.8212L180.264 89.5612L183.302 87.7684L183.49 88.0284Z" fill="#868C96"/>
<path d="M270.468 89.373L271.884 87.2664C271.418 87.9656 270.987 88.6648 270.477 89.373H270.468Z" fill="#868C96"/>
<path d="M272.592 86.0563L273.228 84.7385L273.398 84.8371L272.565 86.0294L272.592 86.0563Z" fill="#868C96"/>
<path d="M269.75 90.3411L268.567 91.7485L269.75 90.3411Z" fill="#868C96"/>
<path d="M244.692 100.264L243.984 99.3681L244.692 100.264Z" fill="#868C96"/>
<path d="M245.4 101.224L244.692 100.264L245.409 101.224H245.4Z" fill="#868C96"/>
<path d="M270.45 89.3551L269.75 90.3411L270.45 89.3551Z" fill="#868C96"/>
<path d="M267.393 96.4906L266.901 96.9209L266.793 96.7685L267.393 96.4906Z" fill="#868C96"/>
<path d="M257.222 95.2983L256.281 95.7645L257.177 95.2894L257.222 95.2983Z" fill="#868C96"/>
<path d="M172.745 104.765C172.682 104.908 172.619 105.06 172.548 105.213L172.306 105.016L172.772 104.782L172.745 104.765Z" fill="#868C96"/>
<path d="M271.928 87.2664C272.107 87.0513 272.287 86.8361 272.457 86.612L271.928 87.2754V87.2664Z" fill="#868C96"/>
<path d="M232.379 91.2734L231.742 91.0314L232.388 91.2913L232.379 91.2734Z" fill="#868C96"/>
<path d="M271.453 76.3749C271.525 76.1419 271.588 75.9088 271.659 75.6667C271.579 75.8909 271.507 76.1239 271.426 76.348L271.453 76.3749Z" fill="#868C96"/>
<path d="M271.193 76.868L271.453 76.3749L271.202 76.8769L271.193 76.868Z" fill="#868C96"/>
<path d="M273.066 79.4138L273.29 78.9297L273.066 79.3958V79.4138Z" fill="#868C96"/>
<path d="M272.824 79.9158L273.075 79.4138L272.86 79.9516L272.824 79.9158Z" fill="#868C96"/>
<path d="M265.449 101.663L265.933 101.448L265.449 101.645V101.663Z" fill="#868C96"/>
<path d="M265.933 101.448C265.933 101.448 265.995 101.448 266.022 101.448C266.049 101.448 266.022 101.403 266.022 101.385L265.879 101.439L265.933 101.448Z" fill="#868C96"/>
<path d="M187.192 85.8322L186.726 86.0742L187.192 85.8322Z" fill="#868C96"/>
<path d="M186.304 86.361L186.744 86.0921L186.295 86.3521L186.304 86.361Z" fill="#868C96"/>
<path d="M272.565 86.0294C272.502 86.2086 272.448 86.3969 272.385 86.5851L272.565 86.0294Z" fill="#868C96"/>
<path d="M186.277 86.3342L185.829 86.5941L186.286 86.3431L186.277 86.3342Z" fill="#868C96"/>
<path d="M185.327 86.7734L185.847 86.612L185.327 86.7644V86.7734Z" fill="#868C96"/>
<path d="M276.624 85.1598C276.714 85.0164 276.804 84.882 276.902 84.7475C276.813 84.8909 276.714 85.0343 276.615 85.1688L276.624 85.1598Z" fill="#868C96"/>
<path d="M231.742 91.0314H231.644L231.715 91.0852L231.742 91.0314Z" fill="#868C96"/>
<path d="M232.361 91.3003L232.854 91.5334L232.361 91.3003Z" fill="#868C96"/>
<path d="M211.64 93.4517L211.703 93.3352L211.613 93.4338L211.64 93.4517Z" fill="#868C96"/>
<path d="M211.084 93.6579L211.64 93.4517L211.093 93.6489L211.084 93.6579Z" fill="#868C96"/>
<path d="M218.156 96.7326L217.726 96.9119L218.147 96.7057L218.156 96.7326Z" fill="#868C96"/>
<path d="M255.877 96.0693L256.307 95.7914L255.877 96.0693Z" fill="#868C96"/>
<path d="M218.156 96.7326L218.425 96.4906L218.12 96.7326H218.156Z" fill="#868C96"/>
<path d="M271.659 75.6668H271.74L271.633 75.5771V75.6668H271.659Z" fill="#868C96"/>
<path d="M217.475 97.2167L217.735 96.9388L217.484 97.2167H217.475Z" fill="#868C96"/>
<path d="M218.425 96.4906H218.505V96.4099L218.434 96.4727L218.425 96.4906Z" fill="#868C96"/>
<path d="M213.182 113.065L213.155 113.128L213.2 113.083L213.182 113.065Z" fill="#868C96"/>
<path d="M213.442 112.841L213.182 113.065L213.442 112.85V112.841Z" fill="#868C96"/>
<path d="M213.728 112.572L213.442 112.841L213.737 112.572H213.728Z" fill="#868C96"/>
<path d="M185.31 86.7465L185.283 86.8092L185.319 86.7644L185.31 86.7465Z" fill="#868C96"/>
<path d="M243.976 99.0723V99.377L243.725 99.0992H244.011L243.976 99.0723Z" fill="#868C96"/>
<path d="M172.996 104.522L172.745 104.765L172.987 104.522H172.996Z" fill="#868C96"/>
<path d="M272.825 79.9158L272.771 79.9964H272.825V79.9247V79.9158Z" fill="#868C96"/>
<path d="M183.203 100.749H183.284L183.194 100.659V100.74L183.203 100.749Z" fill="#868C96"/>
<path d="M182.2 101.466L181.931 101.672L182.191 101.439L182.2 101.466Z" fill="#868C96"/>
<path d="M182.209 101.457H182.28L182.2 101.502L182.209 101.457Z" fill="#868C96"/>
<path d="M183.203 100.749H183.114L183.212 100.847V100.758L183.203 100.749Z" fill="#868C96"/>
<path d="M0 242.096C0.773375 241.958 1.55457 241.868 2.3391 241.827C5.69233 241.784 9.01837 241.219 12.1974 240.151C16.7632 238.642 21.2016 236.771 25.4703 234.557C30.2919 232.146 35.1583 229.788 40.4011 228.408C44.9696 227.131 49.7457 226.771 54.4538 227.35C60.3364 228.119 65.724 231.045 69.5728 235.561C70.2271 236.296 70.944 236.977 71.6609 237.65C74.009 239.846 74.3496 241.935 72.6916 244.714C71.2953 247.059 69.424 249.087 67.1978 250.666C62.9269 253.662 58.0907 255.758 52.984 256.824C47.1166 258.066 41.084 258.326 35.1315 257.595C26.9817 256.56 19.1372 253.837 12.0988 249.599C8.62154 247.591 5.12629 245.61 1.649 243.602C1.07542 243.261 0.376408 243.046 0 242.096ZM1.59523 242.571V242.93L2.61692 243.485C5.69988 245.225 8.78287 246.982 11.8838 248.694C13.8465 249.778 15.7912 250.899 17.8256 251.84C28.5289 256.982 40.6106 258.514 52.258 256.206C57.3762 255.214 62.2284 253.155 66.4988 250.164C68.7407 248.607 70.6282 246.594 72.0374 244.256C73.552 241.737 73.2831 240.187 71.1412 238.188C70.5286 237.69 69.9589 237.141 69.4384 236.547C67.6769 234.414 65.5533 232.609 63.1649 231.213C58.4867 228.237 53.3066 227.511 47.9293 228.04C44.379 228.452 40.9891 229.75 38.071 231.814C36.2786 233.006 34.6027 234.27 32.9178 235.57C30.2307 237.832 27.179 239.62 23.8929 240.859C21.656 241.622 19.3251 242.074 16.9653 242.204C13.0911 242.535 9.20089 242.64 5.31452 242.517C4.10464 242.455 2.84992 242.526 1.59523 242.526V242.571ZM8.85456 241.962C9.34748 241.962 9.75078 242.033 10.0913 242.015C12.7172 241.881 15.3521 241.791 17.978 241.576C22.2383 241.238 26.3227 239.731 29.7811 237.22C31.0268 236.323 32.2366 235.373 33.4555 234.45C36.0144 232.353 38.8341 230.596 41.8441 229.223C42.0117 229.134 42.1707 229.029 42.319 228.91C40.5969 229.176 38.9083 229.627 37.2823 230.254C33.115 232.047 29.0103 233.912 24.8698 235.731C21.6704 237.139 18.4799 238.573 15.2266 239.873C13.2012 240.635 11.0682 241.2 8.85456 241.917V241.962Z" fill="#868C96"/>
<path d="M52.7958 244.785C51.1468 245.251 49.5157 245.807 47.8487 246.166C44.6672 246.847 41.4857 247.573 38.2683 247.959C33.9384 248.544 29.5597 248.683 25.2015 248.371C21.1252 248.107 17.0747 247.534 13.0847 246.659C8.91744 245.667 4.84962 244.296 0.932122 242.562C0.87835 242.562 0.842532 242.455 0.627441 242.195C1.1114 242.338 1.41606 242.392 1.70285 242.508C5.97618 244.303 10.4202 245.661 14.9668 246.56C17.3866 247.035 19.8511 247.331 22.2978 247.672C25.617 248.093 28.9647 248.246 32.3085 248.129C36.9436 248.008 41.5538 247.407 46.0653 246.336L52.8138 244.749L52.7958 244.785Z" fill="#868C96"/>
<path d="M20.7114 250.944C22.5576 251.302 24.3859 251.724 26.25 252.019C28.1141 252.315 29.8348 252.512 31.6273 252.629C33.9012 252.822 36.1838 252.893 38.4654 252.844C47.4275 252.441 55.8608 250.37 63.5592 245.673C65.1007 244.776 66.4809 243.548 67.9507 242.49C68.2006 242.33 68.4611 242.186 68.7304 242.06C64.796 245.915 60.0371 248.335 54.9198 250.2C47.6563 252.831 39.9037 253.835 32.2098 253.14C28.6866 252.911 25.195 252.332 21.7869 251.41C21.4202 251.284 21.0611 251.138 20.7114 250.971V250.944Z" fill="#868C96"/>
<path d="M47.2034 241.737C48.8614 241.146 50.5373 240.617 52.1594 239.945C56.766 238.08 61.2918 236.054 65.2889 233.024C65.5316 232.888 65.7905 232.782 66.0596 232.711L66.212 232.962C65.9665 233.241 65.6998 233.502 65.4144 233.741C64.5182 234.387 63.6219 235.059 62.7257 235.615C58.2649 238.281 53.4322 240.269 48.3864 241.513C48.001 241.603 47.6157 241.639 47.2303 241.702L47.2034 241.737Z" fill="#868C96"/>
<path d="M43.1256 236.511C40.8851 237.318 38.6446 238.215 36.3951 238.914C32.9538 240.03 29.3728 240.658 25.7571 240.778C25.3627 240.778 24.9684 240.778 24.5741 240.778C24.3497 240.752 24.1279 240.707 23.9109 240.644C24.2514 240.5 24.4038 240.375 24.5561 240.375C30.5966 240.303 36.3503 238.797 42.0143 236.789C42.389 236.681 42.7688 236.591 43.1525 236.52L43.1256 236.511Z" fill="#868C96"/>
<path d="M52.8495 252.154C51.223 253.03 49.4309 253.555 47.5888 253.696C45.1063 254.027 42.5879 254.171 40.0875 254.395C40.002 254.406 39.915 254.398 39.8329 254.372C39.7507 254.346 39.6755 254.301 39.6125 254.242L41.1988 254.072C44.2638 253.678 47.3289 253.301 50.3939 252.862C51.233 252.692 52.0595 252.464 52.8675 252.181L52.8495 252.154Z" fill="#868C96"/>
<path d="M55.9954 234.181L58.684 231.993C59.392 231.429 60.1 230.864 60.817 230.326C61.106 230.139 61.4052 229.969 61.7132 229.815C61.7065 230.076 61.6276 230.33 61.4851 230.548C61.3427 230.766 61.1424 230.941 60.9066 231.052C59.2665 232.11 57.5996 233.132 55.9326 234.163L55.9954 234.181Z" fill="#868C96"/>
<path d="M47.1855 241.711L46.6836 241.926V241.791L47.2392 241.737L47.1855 241.711Z" fill="#868C96"/>
<path d="M52.8137 244.785L53.7727 244.57L52.8137 244.785Z" fill="#868C96"/>
<path d="M55.2693 244.104L55.3679 244.032H55.2424L55.2693 244.104Z" fill="#868C96"/>
<path d="M55.2425 244.077L54.5435 244.337L55.2425 244.077Z" fill="#868C96"/>
<path d="M54.5435 244.337L53.7549 244.543L54.5525 244.337H54.5435Z" fill="#868C96"/>
<path d="M43.5469 236.224L43.1257 236.511L43.5469 236.224Z" fill="#868C96"/>
<path d="M43.5739 236.251L44.031 236L43.5649 236.224L43.5739 236.251Z" fill="#868C96"/>
<path d="M55.4397 234.378L55.9953 234.181L55.4755 234.405L55.4397 234.378Z" fill="#868C96"/>
<path d="M20.7294 250.917L20.5681 250.863L20.7115 250.944L20.7294 250.917Z" fill="#868C96"/>
<path d="M56.3987 243.754L56.3359 243.719L56.4077 243.701L56.3987 243.754Z" fill="#868C96"/>
<path d="M58.0207 243.127H57.8862L57.949 243.19L58.0386 243.082L58.0207 243.127Z" fill="#868C96"/>
<path d="M58.0386 243.109L58.173 243.217C58.1822 243.16 58.1822 243.103 58.173 243.046C58.173 243.046 58.1013 243.046 58.0744 243.046C58.069 243.076 58.069 243.106 58.0744 243.136L58.0386 243.109Z" fill="#868C96"/>
<path d="M68.7214 242.024L68.7573 241.953L68.7483 242.006L68.7214 242.024Z" fill="#868C96"/>
<path d="M55.4486 234.387H55.3679L55.4486 234.476V234.405V234.387Z" fill="#868C96"/>
</g>
</svg>
