<svg width="365" height="289" viewBox="0 0 365 289" fill="none" xmlns="http://www.w3.org/2000/svg">
<g opacity="0.85">
<path d="M138.442 116.016C138.674 115.92 138.919 115.858 139.17 115.831C140.154 115.831 141.13 115.936 142.114 115.984C143.636 116.064 145.15 116.153 146.68 116.201C152.249 116.325 157.76 117.323 163.001 119.156C167.97 120.963 172.284 124.146 175.408 128.31C177.498 131.048 178.787 134.283 179.139 137.674C179.371 139.633 179.42 141.616 179.577 143.584C179.677 144.917 179.793 146.258 179.958 147.599C180.207 149.002 180.007 150.445 179.387 151.734C179.112 152.397 178.601 152.942 177.946 153.269C177.292 153.597 176.538 153.684 175.822 153.517C174.896 153.381 173.969 153.22 172.919 153.051C172.667 153.454 172.438 153.869 172.232 154.296C171.929 155.056 171.434 155.731 170.792 156.257C170.15 156.783 169.382 157.144 168.559 157.307C166.522 157.891 164.344 157.815 162.356 157.091C157.242 155.089 152.655 152.002 148.93 148.057C148.757 147.872 148.608 147.671 148.442 147.486C147.456 146.489 146.753 145.261 146.399 143.921C146.045 142.582 146.054 141.177 146.424 139.842C147.16 137.105 147.527 134.287 147.516 131.458C147.491 130.332 147.392 129.208 147.218 128.094C146.647 124.464 144.472 121.782 141.659 119.509C140.832 118.859 139.955 118.305 139.12 117.686C138.826 117.526 138.598 117.273 138.475 116.968C138.351 116.664 138.34 116.328 138.442 116.016ZM139.203 116.578L139.12 116.795C140.096 117.237 141.089 117.638 142.04 118.12C143.476 118.799 144.873 119.552 146.226 120.377C148.59 121.895 150.293 124.209 151.007 126.873C151.873 129.742 151.736 132.808 150.618 135.594C149.824 137.532 148.997 139.451 148.136 141.351C147.704 142.232 147.542 143.215 147.668 144.183C147.794 145.151 148.203 146.063 148.848 146.812C149.249 147.361 149.706 147.87 150.213 148.33C151.867 149.775 153.579 151.237 155.358 152.586C157.567 154.203 160.001 155.509 162.587 156.464C164.502 157.185 166.613 157.245 168.568 156.633C169.242 156.473 169.866 156.16 170.39 155.719C170.914 155.277 171.321 154.721 171.579 154.095C171.818 153.517 172.158 152.979 172.48 152.369C173.034 152.425 173.498 152.465 173.961 152.529C174.714 152.634 175.466 152.77 176.219 152.867C176.746 152.949 177.287 152.855 177.751 152.6C178.216 152.344 178.577 151.943 178.775 151.461C179.339 150.422 179.544 149.234 179.362 148.073C179.213 147.101 179.073 146.121 178.998 145.134C178.833 142.885 178.792 140.621 178.552 138.38C178.344 135.548 177.467 132.8 175.987 130.35C173.419 126.205 169.662 122.876 165.176 120.77C160.079 118.492 154.577 117.191 148.972 116.94C146.689 116.779 144.406 116.659 142.114 116.546C141.163 116.546 140.146 116.578 139.203 116.578ZM146.937 143.303C147.276 142.339 147.574 141.367 147.954 140.428C148.558 138.95 149.195 137.497 149.849 136.043C150.534 134.56 150.916 132.962 150.974 131.338C151.161 128.536 150.349 125.757 148.674 123.468C147.169 121.602 145.226 120.113 143.008 119.124C142.735 118.987 142.454 118.899 142.181 118.787C142.372 119.096 142.622 119.369 142.917 119.59C144.594 120.973 145.938 122.697 146.854 124.639C147.77 126.582 148.236 128.696 148.219 130.832C148.176 133.439 147.899 136.037 147.392 138.597C147.127 140.195 146.631 141.721 146.937 143.303Z" fill="#868C96"/>
<path d="M171.578 138.187C171.503 138.118 171.437 138.039 171.38 137.955C168.071 131.089 162.686 126.206 155.986 122.561C152.005 120.36 147.679 118.806 143.181 117.959C142.354 117.815 141.585 117.686 140.559 117.51C142.702 117.577 144.824 117.94 146.862 118.586C154.307 120.754 160.924 124.327 166.185 129.981C168.208 132.068 169.883 134.45 171.148 137.039C171.322 137.425 171.421 137.842 171.562 138.236L171.578 138.187Z" fill="#868C96"/>
<path d="M171.984 130.615C172.16 130.723 172.321 130.853 172.464 131C175.592 134.908 177.912 139.367 179.296 144.13C179.511 144.933 179.553 145.776 179.71 146.812C179.437 146.595 179.313 146.555 179.305 146.491C178.731 143.038 177.509 139.717 175.698 136.694C174.532 134.622 173.217 132.623 172.001 130.591L171.984 130.615Z" fill="#868C96"/>
<path d="M163.042 135.248C163.257 135.57 163.513 135.859 163.695 136.196C165.857 140.15 167.364 144.41 168.162 148.819C168.542 150.915 168.642 153.05 168.46 155.171C168.311 153.565 168.17 151.493 167.947 149.478C167.493 146.156 166.561 142.912 165.176 139.842C164.647 138.565 163.993 137.344 163.406 136.1C163.274 135.81 163.174 135.513 163.059 135.216L163.042 135.248Z" fill="#868C96"/>
<path d="M159.518 142.508C159.907 143.592 160.346 144.652 160.668 145.72C161.498 148.674 161.915 151.724 161.909 154.786C161.912 155.165 161.815 155.538 161.628 155.87C161.413 153.629 161.289 151.381 160.941 149.157C160.594 146.932 160.006 144.692 159.535 142.46L159.518 142.508Z" fill="#868C96"/>
<path d="M153.86 136.324C154.128 136.596 154.372 136.888 154.588 137.2C156.257 140.131 157.401 143.316 157.971 146.619C158.075 147.133 158.142 147.654 158.17 148.177C157.576 145.215 156.673 142.32 155.473 139.537C154.969 138.452 154.415 137.384 153.877 136.324H153.86Z" fill="#868C96"/>
<path d="M171.579 138.203C172.216 139.525 172.597 140.948 172.704 142.403C172.329 141.001 171.954 139.601 171.579 138.203Z" fill="#868C96"/>
<path d="M157.169 127.845L158.625 129.314L157.169 127.845Z" fill="#868C96"/>
<path d="M153.174 137.858L154.092 139.464L153.174 137.858Z" fill="#868C96"/>
<path d="M162.174 133.763L163.042 135.248L162.174 133.763Z" fill="#868C96"/>
<path d="M165.003 125.99L166.061 127.001L165.011 125.982L165.003 125.99Z" fill="#868C96"/>
<path d="M172.687 142.403C172.737 142.813 172.786 143.206 172.844 143.64H172.704V142.379L172.687 142.403Z" fill="#868C96"/>
<path d="M153.248 135.24C153.455 135.602 153.662 135.963 153.86 136.324L153.265 135.232L153.248 135.24Z" fill="#868C96"/>
<path d="M154.307 139.93L154.779 140.918L154.307 139.938V139.93Z" fill="#868C96"/>
<path d="M160.883 131.811L160.23 131.008L160.892 131.811H160.883Z" fill="#868C96"/>
<path d="M160.23 131.008L159.626 130.125L160.238 131.016L160.23 131.008Z" fill="#868C96"/>
<path d="M162.405 123.805L163.232 124.424L162.405 123.797V123.805Z" fill="#868C96"/>
<path d="M164.382 125.227L163.481 124.673L164.374 125.227H164.382Z" fill="#868C96"/>
<path d="M152.984 135.024L152.562 134.421L152.984 135.024Z" fill="#868C96"/>
<path d="M152.156 133.787L152.537 134.445L152.148 133.787H152.156Z" fill="#868C96"/>
<path d="M162.19 133.747L161.735 133.136L162.198 133.747H162.19Z" fill="#868C96"/>
<path d="M161.272 132.526L161.71 133.153L161.264 132.526H161.272Z" fill="#868C96"/>
<path d="M160.867 131.836C160.999 132.068 161.131 132.301 161.272 132.526C161.14 132.293 161.007 132.06 160.867 131.828V131.836Z" fill="#868C96"/>
<path d="M171.579 129.957L171.976 130.615C171.852 130.398 171.719 130.181 171.587 129.965L171.579 129.957Z" fill="#868C96"/>
<path d="M159.816 122.087L160.354 122.569L159.808 122.087H159.816Z" fill="#868C96"/>
<path d="M161.537 123.107L160.949 122.681L161.545 123.107H161.537Z" fill="#868C96"/>
<path d="M162.422 123.781L161.744 123.396L162.43 123.781H162.422Z" fill="#868C96"/>
<path d="M159.32 141.881L159.518 142.508L159.295 141.865L159.32 141.881Z" fill="#868C96"/>
<path d="M154.927 141.665L155.2 142.195L154.936 141.665H154.927Z" fill="#868C96"/>
<path d="M154.779 140.918L154.928 141.665L154.787 140.918H154.779Z" fill="#868C96"/>
<path d="M158.898 121.718L159.262 121.926L158.89 121.718H158.898Z" fill="#868C96"/>
<path d="M159.841 122.063L159.295 121.902L159.849 122.063H159.841Z" fill="#868C96"/>
<path d="M160.949 122.681L160.387 122.545L160.949 122.681Z" fill="#868C96"/>
<path d="M158.344 121.22L158.699 121.436L158.344 121.171V121.22Z" fill="#868C96"/>
<path d="M157.872 120.979L158.302 121.22L157.872 121.011V120.979Z" fill="#868C96"/>
<path d="M152.14 135.891L152.305 136.292L152.123 135.899L152.14 135.891Z" fill="#868C96"/>
<path d="M156.756 120.609L156.838 120.649L156.78 120.593L156.756 120.609Z" fill="#868C96"/>
<path d="M152.818 136.87L152.612 136.517L152.827 136.87H152.818Z" fill="#868C96"/>
<path d="M153.025 137.304L152.818 136.87L153.017 137.312L153.025 137.304Z" fill="#868C96"/>
<path d="M153.19 137.834C153.133 137.657 153.083 137.481 153.025 137.304L153.199 137.834H153.19Z" fill="#868C96"/>
<path d="M156.78 120.593L156.375 120.36L156.789 120.617L156.78 120.593Z" fill="#868C96"/>
<path d="M154.332 139.914L154.109 139.44C154.175 139.593 154.249 139.753 154.324 139.906L154.332 139.914Z" fill="#868C96"/>
<path d="M159.312 141.849C159.333 141.825 159.35 141.798 159.361 141.769C159.361 141.769 159.32 141.769 159.303 141.721V141.881L159.312 141.849Z" fill="#868C96"/>
<path d="M158.658 121.436L158.897 121.717L158.658 121.436Z" fill="#868C96"/>
<path d="M153.28 135.216L152.984 135.024L153.272 135.216H153.28Z" fill="#868C96"/>
<path d="M152.305 136.292L152.586 136.532L152.305 136.292Z" fill="#868C96"/>
<path d="M165.027 125.933L164.812 125.717L165.027 125.933Z" fill="#868C96"/>
<path d="M164.581 125.508L164.787 125.74L164.581 125.516V125.508Z" fill="#868C96"/>
<path d="M156.269 126.938L156.218 126.905L156.244 126.954L156.269 126.938Z" fill="#868C96"/>
<path d="M156.482 127.145L156.267 126.937L156.49 127.145H156.482Z" fill="#868C96"/>
<path d="M166.061 126.969L166.284 127.169L166.053 126.969H166.061Z" fill="#868C96"/>
<path d="M156.689 127.37L156.474 127.146L156.68 127.37H156.689Z" fill="#868C96"/>
<path d="M166.285 127.17L166.499 127.386L166.285 127.17Z" fill="#868C96"/>
<path d="M156.689 127.387L156.912 127.595L156.698 127.387H156.689Z" fill="#868C96"/>
<path d="M166.5 127.387L166.731 127.587L166.508 127.387H166.5Z" fill="#868C96"/>
<path d="M156.896 127.596L157.168 127.844L156.888 127.596H156.896Z" fill="#868C96"/>
<path d="M166.962 127.788L166.748 127.572L166.954 127.796L166.962 127.788Z" fill="#868C96"/>
<path d="M164.357 125.251L164.58 125.507L164.357 125.243V125.251Z" fill="#868C96"/>
<path d="M166.938 127.812L167.169 128.013L166.946 127.812H166.938Z" fill="#868C96"/>
<path d="M167.442 128.253L167.219 127.989L167.467 128.221L167.442 128.253Z" fill="#868C96"/>
<path d="M167.443 128.246L167.5 128.302V128.238H167.434L167.443 128.246Z" fill="#868C96"/>
<path d="M158.625 129.314L158.856 129.522L158.617 129.322L158.625 129.314Z" fill="#868C96"/>
<path d="M171.125 129.476V129.427L171.074 129.467H171.125V129.476Z" fill="#868C96"/>
<path d="M159.104 129.707L158.89 129.499L159.112 129.707H159.104Z" fill="#868C96"/>
<path d="M171.33 129.691L171.124 129.475L171.338 129.691H171.33Z" fill="#868C96"/>
<path d="M159.08 129.732L159.327 129.916L159.08 129.732Z" fill="#868C96"/>
<path d="M171.314 129.716L171.586 129.956L171.306 129.708L171.314 129.716Z" fill="#868C96"/>
<path d="M159.625 130.124L159.353 129.892L159.617 130.116L159.625 130.124Z" fill="#868C96"/>
<path d="M163.249 124.424L163.464 124.697L163.307 124.384L163.249 124.424Z" fill="#868C96"/>
<path d="M161.743 123.395L161.537 123.107L161.743 123.395Z" fill="#868C96"/>
<path d="M152.172 133.762L151.908 133.506L152.18 133.77L152.172 133.762Z" fill="#868C96"/>
<path d="M217.934 200.007H202.299C197.638 200.007 216.892 185.353 224.188 181.167C231.484 176.98 237.738 174.886 242.95 174.886C248.813 174.886 253.017 178.605 254.415 179.073C257.543 180.12 261.436 177.642 262.754 176.98C264.839 175.933 270.05 174.886 274.219 174.886C278.389 174.886 283.601 175.933 289.855 181.167C296.108 186.4 293.587 192.072 291.939 193.727C289.855 195.82 283.601 196.17 279.431 194.774C273.177 192.68 261.711 192.68 256.5 192.68C251.288 192.68 237.738 193.727 231.484 196.867C226.481 199.379 220.366 200.007 217.934 200.007Z" stroke="#868C96"/>
<path d="M214.807 217.801C208.97 213.615 204.037 205.59 202.299 202.101C200.562 198.612 203.342 200.007 203.342 200.007L215.85 200.007C216.197 200.356 218.559 200.217 221.061 201.054C223.563 201.892 233.569 204.194 238.781 204.194C247.814 203.845 261.321 204.325 267.966 202.101C271.093 201.054 278.389 198.961 282.558 198.961C285.685 198.96 287.269 199.025 289.855 201.054C294.525 204.719 290.897 210.474 286.728 215.708C281.478 222.298 267.998 230.362 251.289 230.362C235.654 230.362 222.103 223.035 214.807 217.801Z" stroke="#868C96"/>
<path d="M288.812 49.2822C294.024 43.3508 307.463 31.4882 320.082 31.4882C338.844 31.4882 358.648 47.1888 361.775 47.1888C364.276 47.1888 354.131 49.2822 350.309 50.3289M350.309 50.3289C343.708 46.1421 336.597 36.2637 320.082 38.8152C306.532 40.9085 284.643 57.6558 283.601 60.7959C282.767 63.308 319.039 61.8426 333.632 59.7492C348.225 57.6558 350.309 50.3289 350.309 50.3289Z" stroke="#868C96" stroke-linecap="round"/>
<path d="M278.389 62.8893C280.474 29.3949 296.357 1.13379 331.547 1.13391C360.733 1.13402 364.902 18.9277 363.859 36.7217C362.817 54.5156 357.606 73.3564 357.606 93.2437C357.606 119.411 341.97 138.252 331.547 162.326C321.124 186.4 291.939 266.996 265.881 274.323C239.823 281.65 182.495 270.136 161.648 246.062C140.802 221.988 128.294 194.774 144.971 191.634C161.648 188.493 199.224 195.178 210.638 185.353C225.23 172.793 234.611 156.046 233.569 145.579C232.527 135.112 227.315 124.645 221.061 128.831C214.287 133.366 215.849 143.485 221.061 145.579C227.835 148.3 229.4 143.485 240.865 143.485C252.331 143.485 253.373 148.719 259.627 150.812C265.881 152.906 283.601 156.046 286.727 143.485C289.854 130.925 279.562 113.131 276.304 86.9635C275.262 78.59 277.672 74.4031 278.389 62.8893Z" stroke="#868C96"/>
<path d="M65.5867 288.84C65.7608 288.398 65.9608 287.963 66.1115 287.506C66.7589 285.477 67.4087 283.439 68.0327 281.394C69.6639 276.086 71.2873 270.773 72.9029 265.454C75.2837 257.248 76.6825 248.785 77.0699 240.244C77.4536 233.613 78.0613 227.006 78.9399 220.454C79.5961 215.706 80.6001 211.014 81.9437 206.415C82.9456 202.932 83.8982 199.426 85.0952 196.005C86.249 192.711 87.6409 189.491 89.0047 186.273C90.9903 181.565 93.2048 176.966 95.6482 172.475C95.7792 172.193 95.9434 171.928 96.1372 171.686C96.2539 171.56 96.5191 171.568 96.8964 171.467C96.8114 171.821 96.6939 172.166 96.5454 172.498C93.3601 178.238 90.7481 184.246 88.1362 190.253C86.5549 193.912 85.2334 197.678 84.1815 201.524C82.9159 206.227 81.6479 210.939 80.5712 215.693C79.9802 218.529 79.5648 221.399 79.3276 224.287C78.6925 231.099 78.1845 237.917 77.5946 244.733C77.1949 249.225 76.5498 253.691 75.6621 258.112C74.5812 262.905 73.2406 267.635 71.6461 272.282C70.564 275.789 69.5271 279.3 68.4622 282.812C67.8283 284.928 67.1679 287.073 66.5323 289.161L65.5867 288.84Z" fill="#868C96"/>
<path d="M112.528 85.4314C115.099 84.8674 117.601 84.7643 119.872 86.443C120.547 86.8577 121.08 87.4693 121.4 88.1957C121.719 88.9222 121.81 89.7288 121.659 90.5074C121.349 92.0737 120.871 93.6129 120.472 95.1644L120.135 96.4192C123.333 93.3513 126.277 90.4727 126.93 86.0577C127.188 84.1794 127.161 82.2722 126.849 80.401C126.229 76.9501 126.079 73.4314 126.404 69.9416C126.728 67.2632 127.173 64.6174 127.625 61.9739C128.188 58.8531 128.833 55.7361 129.483 52.6301C131.747 41.6721 131.602 30.5751 131.412 19.475C131.364 16.7783 131.176 14.0895 131.08 11.3983C130.964 10.4299 131.178 9.4511 131.688 8.62187C132.406 7.62754 133.362 7.42641 134.225 8.28833C134.758 8.8303 135.17 9.48002 135.433 10.194C135.781 11.2243 136.048 12.2806 136.23 13.353C136.538 14.982 137.185 16.5281 138.129 17.8905C140.624 21.2867 142.123 25.314 142.456 29.5165C142.461 29.6351 142.482 29.7525 142.518 29.8656C142.518 29.8656 142.564 29.9335 142.655 30.0411C142.82 29.8343 142.971 29.6165 143.106 29.3892C145.794 24.043 148.464 18.6922 151.193 13.3662C151.721 12.3743 152.367 11.4509 153.118 10.6163C153.632 10.0479 154.256 9.5901 154.952 9.27065C155.509 9.02469 156.133 8.97779 156.721 9.13779C157.309 9.29779 157.825 9.65501 158.183 10.1499C158.696 10.821 159.075 11.5848 159.299 12.3994C159.424 13.0289 159.699 13.6193 160.098 14.1212C160.498 14.623 161.011 15.0217 161.596 15.2839C162.901 16.007 164.039 16.9986 164.935 18.1936C165.727 19.1407 166.276 20.2678 166.533 21.4762C166.791 22.6846 166.749 23.9374 166.411 25.1247C166.056 26.6879 165.58 28.2185 165.352 29.9549C165.682 29.7218 166.018 29.4995 166.341 29.2555C167.855 28.0497 169.621 27.2001 171.507 26.7693C174.441 26.1198 176.325 27.2225 177.045 30.1207C177.418 31.6424 177.555 33.2198 177.812 34.7651C177.93 35.7241 178.108 36.6748 178.343 37.612C178.654 38.4898 179.019 39.3471 179.438 40.1785C180.332 39.6932 181.069 39.3127 181.787 38.8994C182.307 38.6075 182.79 38.25 183.314 37.9408C183.517 37.786 183.753 37.6788 184.003 37.627C184.253 37.5752 184.511 37.5802 184.759 37.6415C185.007 37.7028 185.238 37.8189 185.436 37.9813C185.634 38.1438 185.793 38.3484 185.902 38.5803C186.434 39.4335 186.842 40.3582 187.114 41.3264C187.662 43.3851 188.479 45.3626 189.544 47.2074C190.493 48.8105 191.036 50.6212 191.128 52.4818C191.219 54.3423 190.856 56.1963 190.07 57.8822C189.484 59.0008 188.822 60.078 188.09 61.1063C188.226 61.1666 188.371 61.206 188.519 61.2229C191.896 61.0812 194.251 62.8934 196.022 65.4778C196.907 66.8265 197.561 68.3137 197.958 69.8779C198.617 72.3289 199.592 74.6838 200.859 76.8829C202.271 79.3461 202.945 82.1651 202.798 85.0006C202.717 88.8206 201.328 92.4938 198.862 95.4021C198.274 96.1426 197.741 96.9253 197.267 97.744C197.071 98.1561 196.915 98.5863 196.802 99.0286C197.277 99.4161 197.704 99.7811 198.15 100.105C200.088 101.422 201.687 103.181 202.814 105.239C203.12 105.739 203.314 106.3 203.383 106.882C203.452 107.464 203.394 108.055 203.214 108.612C202.775 109.867 202.253 110.269 200.956 109.962C200.139 109.761 199.353 109.448 198.621 109.032C196.824 108.054 195.095 106.956 193.284 105.993C189.026 103.684 184.305 102.368 179.472 102.143C174.426 101.923 169.376 101.821 164.328 101.711C160.754 101.658 157.193 101.257 153.694 100.515C151.034 99.9387 148.366 99.3235 145.73 98.6247C141.781 97.4958 138.064 95.6692 134.753 93.2308C134.164 92.8215 133.579 92.395 132.995 91.9685C131.949 91.1617 130.663 90.7317 129.345 90.748C128.027 90.7642 126.754 91.2258 125.731 92.0581C125.443 92.2757 125.165 92.508 124.9 92.7542C120.355 97.2077 116.025 101.821 113.167 107.628C111.287 111.323 110.07 115.321 109.57 119.441C108.828 126.239 108.231 133.048 107.5 139.84C107.193 142.799 106.706 145.738 106.291 148.687C106.235 148.963 106.162 149.236 106.072 149.503C105.412 149.425 105.499 149.034 105.562 148.627C105.818 146.852 106.109 145.087 106.305 143.296C106.686 139.618 106.988 135.928 107.377 132.253C107.912 127.253 108.304 122.232 109.131 117.274C110.128 111.619 112.432 106.28 115.859 101.684C117.247 99.9148 118.345 97.9345 119.11 95.8175C119.679 94.2057 119.645 92.4401 119.013 90.8498C118.381 89.2594 117.195 87.9526 115.675 87.173C114.626 86.5925 113.559 86.044 112.503 85.4892C113.42 85.877 114.332 86.282 115.251 86.6612C117.733 87.696 119.598 89.3471 120.137 92.1682C120.186 92.3119 120.255 92.4484 120.34 92.574C120.592 91.9483 120.609 91.252 120.389 90.6136C120.232 89.9898 119.991 89.3904 119.672 88.8323C119.328 88.2895 118.909 87.7995 118.425 87.3773C117.976 87.0193 117.5 86.6956 117.002 86.4091C117.93 86.686 118.773 87.1967 119.449 87.8924C120.125 88.5882 120.612 89.4458 120.865 90.3834C120.995 89.9443 121.006 89.4779 120.896 89.0327C120.786 88.5876 120.559 88.1799 120.239 87.8522C119.201 86.5964 117.718 85.793 116.104 85.6113C114.933 85.4495 113.722 85.4705 112.528 85.4314ZM164.815 31.2013L164.439 31.0253C164.433 30.6223 164.462 30.2197 164.524 29.8216C164.953 28.2232 165.434 26.6387 165.81 25.0348C166.133 23.9068 166.173 22.7156 165.927 21.5673C165.68 20.4189 165.154 19.349 164.396 18.4528C163.438 17.2612 162.252 16.2737 160.908 15.5487C160.4 15.3051 159.953 14.9486 159.602 14.5063C159.25 14.064 159.004 13.5474 158.881 12.9958C158.682 12.2172 158.363 11.4741 157.937 10.793C157.795 10.5218 157.596 10.285 157.353 10.0992C157.11 9.91353 156.829 9.78343 156.531 9.71812C156.233 9.65281 155.924 9.65389 155.627 9.72126C155.329 9.78864 155.05 9.92068 154.809 10.1081C154.142 10.5498 153.561 11.1106 153.095 11.7628C152.259 12.9412 151.511 14.1803 150.857 15.4699C148.005 21.2232 145.283 27.0396 142.364 32.7656C140.376 36.7434 138.156 40.6215 135.924 44.4777C133.79 47.9271 131.948 51.5506 130.419 55.3101C128.606 60.1798 127.48 65.2805 127.073 70.4649C126.751 73.5549 126.931 76.6778 127.605 79.712C127.993 81.2294 128.563 82.6943 129.302 84.0749C129.915 85.2191 131 85.3208 132.096 84.6322C132.329 84.4747 132.552 84.3047 132.767 84.1229C135.283 82.0487 138.066 80.3245 141.043 78.997C144.758 77.3678 148.649 76.1767 152.639 75.4477C156.972 74.6253 161.361 73.7998 165.567 72.5925C172.78 70.4306 179.54 66.9737 185.519 62.3896C187.513 60.996 189.027 59.0182 189.856 56.7266C190.421 55.1447 190.616 53.4533 190.428 51.7824C190.239 50.1115 189.671 48.5056 188.767 47.0881C187.843 45.5763 187.152 43.9333 186.719 42.2149C186.389 41.1535 185.982 40.118 185.5 39.1166C185.425 38.8728 185.268 38.6626 185.056 38.5223C184.843 38.382 184.589 38.3203 184.336 38.348C183.523 38.7723 183.298 39.6793 182.855 40.4351C182.087 41.8583 180.835 42.1355 179.592 41.0781C179.203 40.7293 178.865 40.3269 178.589 39.8828C177.897 38.7407 177.468 37.4582 177.334 36.1293C177.154 34.8167 177.042 33.486 176.823 32.1812C176.66 31.1778 176.422 30.188 176.11 29.2206C175.945 28.7409 175.657 28.3132 175.274 27.9808C174.892 27.6484 174.429 27.4231 173.932 27.3278C172.987 27.1456 172.01 27.2276 171.109 27.5649C169.294 28.1129 167.616 29.039 166.184 30.2827C165.74 30.6058 165.279 30.9051 164.803 31.1794L164.815 31.2013ZM196.153 99.4238C196.313 97.827 196.997 96.3296 198.098 95.1665C199.59 93.4762 200.7 91.4818 201.352 89.3197C202.006 87.3668 202.251 85.2985 202.07 83.2448C201.889 81.1911 201.286 79.1963 200.3 77.3858C198.988 75.0728 197.974 72.6028 197.281 70.0349C196.535 67.1297 195.186 64.5495 192.444 62.9456C190.432 61.7711 188.451 61.5089 186.427 62.8118C185.306 63.5582 184.179 64.3305 183.054 65.0942C176.51 69.627 169.14 72.8262 161.363 74.5105C157.515 75.308 153.605 75.9963 149.794 76.8961C144.32 78.0849 139.148 80.3839 134.595 83.652C133.347 84.485 132.427 85.7281 131.994 87.1682C131.723 87.8723 131.691 88.6469 131.904 89.3719C132.116 90.0968 132.562 90.7314 133.17 91.1772C137.001 94.3254 141.426 96.6623 146.18 98.0462C148.349 98.6362 150.547 99.1146 152.744 99.6015C156.43 100.416 160.186 100.873 163.958 100.965C169.438 101.11 174.862 100.916 180.306 101.438C184.995 101.86 189.556 103.204 193.73 105.395C195.647 106.406 197.474 107.585 199.389 108.604C200.146 108.945 200.93 109.223 201.732 109.435C202.108 109.207 202.401 108.865 202.569 108.457C202.736 108.05 202.769 107.599 202.663 107.171C202.497 106.467 202.233 105.79 201.879 105.159C200.793 103.357 199.321 101.819 197.569 100.658C197.047 100.239 196.558 99.7646 196.11 99.4121L196.153 99.4238ZM133.143 8.34436C132.714 8.50495 132.352 8.80476 132.113 9.1961C131.875 9.58743 131.774 10.0478 131.826 10.5039C131.873 12.5548 131.967 14.6001 132.07 16.6477C132.421 24.3597 132.341 32.0845 131.831 39.7859C131.641 44.6886 130.929 49.5558 129.705 54.3042C129.633 54.5707 129.602 54.8573 129.548 55.1284C129.682 55.0425 129.784 54.9148 129.839 54.7649C131.133 52.1383 132.349 49.4627 133.739 46.8899C135.996 42.736 138.36 38.6297 140.698 34.5164C141.189 33.6347 141.36 32.6095 141.184 31.6143C140.835 29.0984 139.905 26.698 138.468 24.6044C137.696 23.4721 136.924 22.3398 136.253 21.1426C135.123 19.224 134.544 17.03 134.58 14.8038C134.621 13.2839 134.554 11.7532 134.504 10.2272C134.54 9.7944 134.417 9.36293 134.159 9.01402C133.9 8.6651 133.524 8.4228 133.1 8.3327L133.143 8.34436ZM141.669 30.6304C141.76 30.5632 141.821 30.5428 141.819 30.5147C141.87 30.3256 141.852 30.1179 141.85 29.9234C141.665 26.0315 140.378 22.2709 138.14 19.0831C136.78 17.1773 135.874 14.984 135.493 12.6728C135.43 12.259 135.301 11.846 135.199 11.44C135.064 12.5112 135.022 13.5924 135.076 14.6712C135.089 17.0616 135.782 19.3998 137.072 21.4118C137.699 22.5044 138.441 23.5086 139.126 24.5528C140.243 26.1869 141.04 28.0187 141.474 29.9504C141.484 30.1558 141.55 30.3861 141.626 30.6188L141.669 30.6304ZM182.612 39.1515L180.275 40.5906C181.52 41.2615 181.925 41.0212 182.543 39.1328L182.612 39.1515Z" fill="#868C96"/>
<path d="M127.072 67.9469C126.89 66.1132 127.171 64.2639 127.891 62.5701C130.666 56.1198 134.607 50.3649 138.495 44.5679C142.511 38.8164 146.186 32.8325 149.5 26.6472C151.393 23.0292 152.97 19.2882 154.699 15.5611C154.913 15.0333 155.204 14.5403 155.562 14.0983C154.893 15.835 154.319 17.6256 153.528 19.3016C151.715 23.1351 149.891 26.9748 147.881 30.6812C144.92 36.149 141.355 41.2589 137.974 46.4373C135.227 50.6258 132.613 54.9056 130.073 59.215C129.123 60.936 128.33 62.7396 127.704 64.6039C127.398 65.6845 127.179 66.7877 127.047 67.9032L127.072 67.9469Z" fill="#868C96"/>
<path d="M130.679 85.1663C130.07 85.0007 130.1 84.4092 130.078 83.9788C130.049 82.617 130.138 81.2554 130.343 79.9093C131.148 76.1316 132.648 72.5385 134.766 69.3138C137.138 65.5918 139.756 62.0325 142.6 58.6595C146.705 53.6602 150.806 48.678 154.908 43.6873C155.182 43.3557 155.506 43.0749 155.808 42.7699C154.523 44.5049 153.273 46.2775 151.935 47.9704C147.87 53.0916 143.747 58.1596 139.714 63.2987C137.135 66.5256 134.916 70.0269 133.097 73.7398C131.497 76.7637 130.631 80.1249 130.57 83.5501C130.575 84.1142 130.664 84.6734 130.708 85.2295L130.679 85.1663Z" fill="#868C96"/>
<path d="M174.798 38.1169C159.944 47.0422 148.186 59.2353 138.004 73.0932C147.873 58.8921 159.67 46.7278 174.798 38.1169Z" fill="#868C96"/>
<path d="M145.017 42.8143C144.744 43.2475 144.515 43.7204 144.204 44.1247C140.706 48.5817 137.488 53.2527 134.568 58.1107C132.946 60.872 131.582 63.7777 130.493 66.7911C128.824 71.2754 127.991 76.0306 128.038 80.8197C128.047 81.7447 128.153 82.6501 128.116 83.6088C128.026 83.3897 127.955 83.1634 127.902 82.9324C127.493 80.0647 127.561 77.1497 128.104 74.3061C128.34 73.0511 128.579 71.7874 128.869 70.5378C130.085 65.7455 132.032 61.1716 134.643 56.9778C137.57 52.2329 140.842 47.711 144.432 43.4486C144.608 43.2383 144.829 43.0677 145.02 42.8705L145.017 42.8143Z" fill="#868C96"/>
<path d="M149.581 74.0485C151.876 73.2071 154.142 72.3025 156.464 71.5328C161.828 69.8769 167.086 67.8963 172.209 65.6019C176.618 63.6393 180.668 60.9524 184.194 57.6519C185.088 56.7888 185.886 55.8353 186.764 54.9308C186.959 54.7069 187.19 54.5174 187.448 54.3701C186.773 55.5839 185.918 56.6879 184.913 57.6447C182.108 60.3734 178.923 62.6805 175.459 64.4946C171.414 66.6324 167.194 68.4174 162.844 69.8298C158.788 71.234 154.711 72.5493 150.637 73.884C150.296 73.9726 149.948 74.0321 149.596 74.0618L149.581 74.0485Z" fill="#868C96"/>
<path d="M197.024 85.5204C194.191 85.5973 191.355 85.5814 188.524 85.7878C182.947 86.1872 177.366 86.6404 171.799 87.2083C164.177 88.1192 156.511 88.6172 148.833 88.6999C149.107 88.673 149.366 88.6329 149.635 88.6232C159.232 88.3132 168.757 87.0717 178.301 86.1025C184.304 85.4969 190.336 85.2126 196.371 85.2505C196.604 85.2615 196.836 85.2907 197.064 85.3378L197.024 85.5204Z" fill="#868C96"/>
<path d="M139.212 58.6867C143.851 51.8616 148.495 45.0315 153.142 38.1964C156.105 33.7647 158.736 29.1183 161.012 24.2953C161.212 23.7626 161.506 23.2708 161.881 22.8435C161.124 24.5287 160.402 26.2233 159.607 27.8796C156.455 34.5034 152.243 40.4794 148.156 46.5076C145.604 50.2504 142.926 53.9129 140.297 57.5979C139.969 57.9807 139.612 58.3369 139.228 58.6632L139.212 58.6867Z" fill="#868C96"/>
<path d="M131.615 88.0247C132.86 89.9187 134.765 90.9701 136.71 91.9038C139.184 93.1471 141.788 94.1112 144.474 94.778C147.736 95.574 151.057 96.1042 154.404 96.3634C159.133 96.6825 163.877 96.9501 168.621 97.3191C166.891 97.3275 165.157 97.4177 163.438 97.3185C159.362 97.1311 155.269 96.9391 151.252 96.5006C148.214 96.2102 145.219 95.578 142.321 94.6162C139.253 93.6902 136.337 92.3177 133.667 90.5428C132.755 89.8993 131.818 89.2489 131.587 88.0263L131.615 88.0247Z" fill="#868C96"/>
<path d="M140.687 84.967C141.327 84.6712 141.956 84.3169 142.625 84.0842C149.116 81.8894 155.717 80.0369 162.401 78.5344C167.664 77.3211 172.935 76.1103 178.297 75.3847C178.927 75.2981 179.567 75.2418 180.192 75.1724C179.617 75.3292 179.058 75.5274 178.48 75.628C167.195 77.5625 156.045 80.208 145.095 83.5488C143.612 84.0026 142.091 84.4642 140.649 84.9382L140.687 84.967Z" fill="#868C96"/>
<path d="M182.295 93.5642C179.495 93.7237 176.723 94.0196 173.934 94.1362C168.832 94.4578 163.714 94.4624 158.61 94.1499C154.785 93.8466 150.985 93.3842 147.181 92.939C145.931 92.7694 144.692 92.5248 143.471 92.2066C152.738 93.7794 162.147 94.3213 171.528 93.8226C174.482 93.705 177.428 93.5851 180.39 93.4699C181.025 93.4748 181.659 93.512 182.291 93.5814L182.295 93.5642Z" fill="#868C96"/>
<path d="M134.518 21.024C134.967 25.6206 133.147 41.0866 131.491 46.2828C132.079 42.0786 132.729 37.8822 133.226 33.6719C133.722 29.4615 134.095 25.2358 134.518 21.024Z" fill="#868C96"/>
<path d="M196.658 99.4184C196.288 99.5313 195.905 99.6003 195.519 99.6241C194.081 99.5004 192.64 99.3938 191.224 99.1562C187.635 98.5581 184.048 97.8866 180.466 97.2627C179.913 97.1675 179.363 97.1285 178.817 97.0075C184.72 97.167 190.517 98.2644 196.359 98.9596C196.432 98.961 196.485 99.141 196.658 99.4184Z" fill="#868C96"/>
<path d="M136.031 28.7603C135.729 36.7328 134.594 44.5439 131.032 51.8243C132.483 48.1341 133.564 44.3084 134.262 40.4031C134.835 36.5269 135.438 32.6405 136.031 28.7603Z" fill="#868C96"/>
<path d="M152.307 65.8365C151.975 66.1149 151.649 66.4043 151.304 66.6609C147.569 69.3334 143.757 71.9848 140.093 74.7689C137.053 76.99 134.395 79.6927 132.221 82.7712C133.155 81.0075 134.387 79.4207 135.864 78.0816C139.172 74.9387 142.745 72.088 146.542 69.5611C148.125 68.4611 149.746 67.4266 151.355 66.3703C151.665 66.1943 151.984 66.0349 152.311 65.8927L152.307 65.8365Z" fill="#868C96"/>
<path d="M170.604 47.2472C170.83 46.9855 171.08 46.7448 171.349 46.5279C174.486 44.359 177.837 42.5182 181.349 41.0342C181.582 40.9571 181.822 40.9019 182.065 40.8693C182.154 41.668 181.545 41.7788 181.121 41.9863C179.542 42.7644 177.957 43.4948 176.359 44.2768C174.416 45.242 172.502 46.2423 170.581 47.2316L170.604 47.2472Z" fill="#868C96"/>
<path d="M179.346 82.2075C179.638 82.1038 179.937 82.019 180.241 81.9536C186.209 81.0167 192.259 80.7051 198.294 81.0238C199.597 81.1017 200.891 81.3802 202.183 81.5658L202.183 81.8419C202.044 81.878 201.903 81.9593 201.789 81.9376C198.301 81.1933 194.722 80.9775 191.171 81.2971C187.538 81.4788 183.916 81.857 180.289 82.1509C179.97 82.1747 179.65 82.1704 179.359 82.1926L179.346 82.2075Z" fill="#868C96"/>
<path d="M174.159 61.4425C175.97 60.1828 177.841 59.0043 179.582 57.6611C183.322 54.878 186.534 51.4449 189.067 47.5243C189.083 47.4641 189.204 47.46 189.501 47.3105C189.013 48.0999 188.663 48.7517 188.246 49.3481C185.239 53.5226 181.472 57.0879 177.143 59.8564C176.212 60.4792 175.212 60.9819 174.235 61.5369L174.159 61.4425Z" fill="#868C96"/>
<path d="M135.668 40.2115C136.537 34.6536 137.771 29.3797 137.925 23.6735C138.685 25.7439 137.462 34.2962 135.668 40.2115Z" fill="#868C96"/>
<path d="M151.826 67.704C152.04 67.4805 152.276 67.279 152.53 67.1026C157.734 64.0931 162.942 61.0937 168.153 58.1045C168.504 57.9474 168.87 57.8245 169.245 57.7377C163.623 61.0023 157.999 64.2604 152.374 67.512C152.199 67.6025 152.016 67.6762 151.828 67.7321L151.826 67.704Z" fill="#868C96"/>
<path d="M187.536 94.7254C189.287 94.6397 191.027 94.5237 192.774 94.4552C194.52 94.3867 196.036 94.4214 197.685 94.3726C198.016 94.3854 198.345 94.4165 198.671 94.4657L198.706 94.8159C198.336 94.9575 197.95 95.0506 197.556 95.0927C194.84 95.054 192.127 94.9916 189.417 94.9055C188.781 94.8798 188.148 94.7722 187.515 94.7012L187.536 94.7254Z" fill="#868C96"/>
<path d="M145.458 47.6832C146.158 46.6192 146.881 45.5707 147.567 44.4934C149.625 41.2528 151.666 38.0075 153.722 34.7755C153.874 34.4766 154.098 34.2205 154.374 34.0302C153.525 35.5796 152.767 37.1999 151.79 38.6776C149.86 41.6118 147.81 44.4767 145.776 47.3547C145.669 47.4639 145.548 47.5581 145.415 47.6348L145.458 47.6832Z" fill="#868C96"/>
<path d="M155.209 56.816C155.839 56.1483 156.434 55.443 157.106 54.8237C159.722 52.4613 162.352 50.1027 164.996 47.7481C165.342 47.4792 165.714 47.2437 166.105 47.0446C165.535 47.5537 164.919 48.0317 164.41 48.5572L155.87 56.3778C155.673 56.564 155.452 56.7345 155.238 56.916L155.209 56.816Z" fill="#868C96"/>
<path d="M187.434 67.0907L194.531 64.6254C194.531 64.6254 194.677 64.665 194.965 64.7895C194.162 65.1655 193.315 65.4428 192.445 65.6154C191.616 65.8938 190.774 66.1532 189.919 66.3937C189.082 66.6359 188.223 66.854 187.389 67.051L187.434 67.0907Z" fill="#868C96"/>
<path d="M186.816 73.9551C187.8 73.7158 188.793 73.4422 189.816 73.2599C190.84 73.0776 192.086 72.9558 193.407 72.7255C191.259 73.3708 189.047 73.7794 186.81 73.9442L186.816 73.9551Z" fill="#868C96"/>
<path d="M190.791 79.8419C191.914 79.6962 193.026 79.5286 194.166 79.4242C195.307 79.3666 196.451 79.3975 197.588 79.5167L190.772 79.8092L190.791 79.8419Z" fill="#868C96"/>
<path d="M173.092 55.4475L177.351 52.6044C176.159 53.8536 174.709 54.8249 173.101 55.4498L173.092 55.4475Z" fill="#868C96"/>
<path d="M153.142 59.04C152.309 59.9846 151.469 60.9182 150.638 61.8542L153.131 59.0462L153.142 59.04Z" fill="#868C96"/>
<path d="M173.315 62.0636L170.429 63.4632L173.274 61.9785L173.315 62.0636Z" fill="#868C96"/>
<path d="M155.588 63.7089L152.899 65.5036L155.586 63.7175L155.588 63.7089Z" fill="#868C96"/>
<path d="M155.262 56.9024L153.142 59.0373L155.19 56.8275L155.262 56.9024Z" fill="#868C96"/>
<path d="M150.901 68.1839L149.405 69.2985L150.904 68.2034L150.901 68.1839Z" fill="#868C96"/>
<path d="M176.288 82.6514L178.058 82.3589L176.282 82.6405L176.288 82.6514Z" fill="#868C96"/>
<path d="M149.582 63.0827L148.468 64.5229C148.836 64.0421 149.213 63.5636 149.58 63.0913L149.582 63.0827Z" fill="#868C96"/>
<path d="M131.616 88.0351L131.274 87.2225L131.494 87.1535L131.619 88.0265L131.616 88.0351Z" fill="#868C96"/>
<path d="M179.35 82.2019L178.037 82.3331L179.35 82.2019Z" fill="#868C96"/>
<path d="M148.047 64.9264L147.256 65.8827L148.047 64.9264Z" fill="#868C96"/>
<path d="M177.351 52.6013L178.25 51.8223L177.349 52.6099L177.351 52.6013Z" fill="#868C96"/>
<path d="M176.27 82.6203L174.972 82.728L176.272 82.6117L176.27 82.6203Z" fill="#868C96"/>
<path d="M156.59 41.7329C156.325 42.0668 156.06 42.4006 155.787 42.7321L156.59 41.7329Z" fill="#868C96"/>
<path d="M139.573 85.443L140.687 84.9904L139.575 85.4344L139.573 85.443Z" fill="#868C96"/>
<path d="M139.562 85.4137L138.872 85.8253L138.8 85.6489L139.573 85.4441L139.562 85.4137Z" fill="#868C96"/>
<path d="M127.044 67.9519L127.056 68.6284L126.953 68.6005L127.079 67.9245L127.044 67.9519Z" fill="#868C96"/>
<path d="M190.772 79.8128L190.018 79.8473L190.769 79.8214L190.772 79.8128Z" fill="#868C96"/>
<path d="M139.211 58.6697C139.073 58.909 138.946 59.1419 138.816 59.3835C138.961 59.1552 139.107 58.9183 139.243 58.6877L139.211 58.6697Z" fill="#868C96"/>
<path d="M187.515 94.7067L187.381 94.7257L187.527 94.7655L187.515 94.7067Z" fill="#868C96"/>
<path d="M156.608 41.7651L156.712 41.3783L156.832 41.411L156.599 41.6979L156.608 41.7651Z" fill="#868C96"/>
<path d="M145.076 48.3871C144.929 48.5591 144.787 48.7421 144.638 48.9227L145.065 48.3934L145.076 48.3871Z" fill="#868C96"/>
<path d="M145.462 47.6706L145.076 48.3867L145.467 47.6534L145.462 47.6706Z" fill="#868C96"/>
<path d="M138.816 59.3836L138.707 59.4826L138.886 59.5314L138.795 59.3595L138.816 59.3836Z" fill="#868C96"/>
<path d="M149.929 62.678L150.287 62.305L149.921 62.6757L149.929 62.678Z" fill="#868C96"/>
<path d="M149.575 63.1077L149.947 62.6831L149.577 63.0991L149.575 63.1077Z" fill="#868C96"/>
<path d="M150.638 61.8558L150.275 62.2827C150.404 62.1428 150.526 62.0005 150.647 61.8582L150.638 61.8558Z" fill="#868C96"/>
<path d="M186.329 74.1306L186.817 73.9591C186.648 74.0053 186.479 74.0516 186.317 74.1088L186.329 74.1306Z" fill="#868C96"/>
<path d="M186.311 74.0982C186.251 74.0819 186.174 74.1258 186.251 74.0819L186.336 74.1053L186.311 74.0982Z" fill="#868C96"/>
<path d="M174.972 82.729L174.483 82.9091L174.965 82.7547L174.972 82.729Z" fill="#868C96"/>
<path d="M174.482 82.9093L174.241 82.9174L174.505 82.9249L174.482 82.9093Z" fill="#868C96"/>
<path d="M173.176 83.0526L173.104 82.978C173.104 82.978 173.09 83.0294 173.032 83.0411L173.194 83.0853L173.176 83.0526Z" fill="#868C96"/>
<path d="M148.42 64.5293L148.042 64.943L148.423 64.5207L148.42 64.5293Z" fill="#868C96"/>
<path d="M190.018 79.848L189.444 79.9314L190.039 79.8722L190.018 79.848Z" fill="#868C96"/>
<path d="M144.245 49.3236L144.665 48.9583L144.296 49.3376L144.245 49.3236Z" fill="#868C96"/>
<path d="M144.269 49.3027L144.155 49.4188L144.238 49.4872L144.279 49.333L144.269 49.3027Z" fill="#868C96"/>
<path d="M145.414 42.4905L145.014 42.8151L145.412 42.4991L145.414 42.4905Z" fill="#868C96"/>
<path d="M187.096 67.2898L186.62 67.3537L187.102 67.3008L187.096 67.2898Z" fill="#868C96"/>
<path d="M189.444 79.9317L189.35 79.9062L189.416 80.0345L189.439 79.9489L189.444 79.9317Z" fill="#868C96"/>
<path d="M150.954 68.2241L151.261 68.0689L150.956 68.2156L150.954 68.2241Z" fill="#868C96"/>
<path d="M170.726 56.8001L170.811 56.8233L170.743 56.7036L170.72 56.7892L170.726 56.8001Z" fill="#868C96"/>
<path d="M151.219 68.0563L151.521 67.8902L151.219 68.0563Z" fill="#868C96"/>
<path d="M149.406 69.2997L149.34 69.3377L149.412 69.3107L149.406 69.2997Z" fill="#868C96"/>
<path d="M172.764 55.6101L172.708 55.6499L172.792 55.6451L172.764 55.6101Z" fill="#868C96"/>
<path d="M172.79 55.6528L173.092 55.4501L172.786 55.6333L172.79 55.6528Z" fill="#868C96"/>
<path d="M169.654 47.7429L169.938 47.6087L169.673 47.7756L169.654 47.7429Z" fill="#868C96"/>
<path d="M166.1 47.0558L166.164 47.0265L166.1 47.0558Z" fill="#868C96"/>
<path d="M178.25 51.8216L178.581 51.7182L178.21 51.8014L178.25 51.8216Z" fill="#868C96"/>
<path d="M130.686 85.2082L130.672 85.2596L130.676 85.1779L130.686 85.2082Z" fill="#868C96"/>
<path d="M169.663 47.746L169.577 47.7228L169.554 47.8084L169.652 47.7523L169.663 47.746Z" fill="#868C96"/>
<path d="M157.971 62.3983L157.73 62.5441L157.969 62.4068L157.971 62.3983Z" fill="#868C96"/>
<path d="M158.025 62.4394L158.309 62.2686L158.014 62.4456L158.025 62.4394Z" fill="#868C96"/>
<path d="M158.546 62.0376L158.268 62.2193L158.559 62.0228L158.546 62.0376Z" fill="#868C96"/>
<path d="M158.568 62.0608L158.88 61.8885L158.536 62.043L158.568 62.0608Z" fill="#868C96"/>
<path d="M169.543 64.0261L169.833 63.8662L169.54 64.0347L169.543 64.0261Z" fill="#868C96"/>
<path d="M170.08 63.6657L169.79 63.8256L170.08 63.6657Z" fill="#868C96"/>
<path d="M174.209 61.5391L173.916 61.7081L173.866 61.6207L174.159 61.4517L174.209 61.5391Z" fill="#868C96"/>
<path d="M170.091 63.6959L170.446 63.4698C170.324 63.5473 170.204 63.6161 170.091 63.6959Z" fill="#868C96"/>
<path d="M186.26 67.5607C186.386 67.5028 186.512 67.4448 186.632 67.376L186.26 67.5607Z" fill="#868C96"/>
<path d="M187.115 67.3222C187.218 67.2487 187.329 67.1774 187.433 67.0953L187.106 67.3199L187.115 67.3222Z" fill="#868C96"/>
<path d="M173.576 61.8096L173.866 61.621L173.916 61.7084L173.62 61.886L173.576 61.8096Z" fill="#868C96"/>
<path d="M173.619 61.886L173.322 62.035L173.334 61.9922L173.618 61.8214L173.619 61.886Z" fill="#868C96"/>
<path d="M151.522 67.8893L151.825 67.7146L151.524 67.8807L151.522 67.8893Z" fill="#868C96"/>
<path d="M170.584 47.2214L170.273 47.3572L170.593 47.2237L170.584 47.2214Z" fill="#868C96"/>
<path d="M170.716 56.7981L170.439 56.9431L170.721 56.781L170.716 56.7981Z" fill="#868C96"/>
<path d="M170.166 57.1367L170.442 56.9636L170.152 57.1234L170.166 57.1367Z" fill="#868C96"/>
<path d="M170.264 47.3926L169.919 47.6125L170.264 47.3926Z" fill="#868C96"/>
<path d="M152.32 65.8454L152.613 65.677L152.32 65.8454Z" fill="#868C96"/>
<path d="M152.903 65.4881L152.565 65.6534L152.866 65.4873L152.903 65.4881Z" fill="#868C96"/>
<path d="M170.147 57.1048L169.863 57.2756L170.155 57.1072L170.147 57.1048Z" fill="#868C96"/>
<path d="M155.892 63.5316L155.602 63.6915L155.903 63.5253L155.892 63.5316Z" fill="#868C96"/>
<path d="M155.888 63.5479C155.991 63.501 156.091 63.4484 156.187 63.3904L155.886 63.5565L155.888 63.5479Z" fill="#868C96"/>
<path d="M169.589 57.5058L169.872 57.307L169.572 57.5011L169.589 57.5058Z" fill="#868C96"/>
<path d="M156.5 63.2171L156.187 63.3614L156.492 63.2147L156.5 63.2171Z" fill="#868C96"/>
<path d="M156.787 63.1102L156.49 63.2592L156.793 63.1211L156.787 63.1102Z" fill="#868C96"/>
<path d="M169.562 57.4719L169.228 57.6855C169.339 57.6143 169.453 57.5345 169.573 57.4657L169.562 57.4719Z" fill="#868C96"/>
<path d="M156.813 63.1162L157.106 62.9478L156.813 63.1162Z" fill="#868C96"/>
<path d="M157.392 62.7394L157.093 62.8969L157.383 62.737L157.392 62.7394Z" fill="#868C96"/>
<path d="M157.729 62.5448L157.393 62.7382L157.742 62.53L157.729 62.5448Z" fill="#868C96"/>
<path d="M66.0002 297.451C66.08 289.354 66.2397 281.257 66.2308 273.16C66.2308 270.025 65.8494 266.925 65.6276 263.754C65.2152 259.663 65.1707 255.543 65.4946 251.444C65.9292 247.24 66.488 243.045 66.8872 238.84C67.1996 235.79 67.1161 232.712 66.6388 229.684C65.8937 225.23 65.193 220.696 64.2616 216.252C63.8285 214.204 63.1245 212.224 62.1683 210.364C58.9223 203.868 53.2796 198.902 46.4417 196.522C42.7188 195.184 38.7252 194.786 34.8131 195.364C31.9566 195.816 29.1936 196.737 26.6349 198.09C24.9189 199.089 23.5267 200.564 22.6256 202.338C21.0198 205.227 19.947 208.384 19.459 211.655C19.3613 212.045 19.2338 212.426 19.0776 212.796H18.8203C18.7405 212.626 18.5986 212.466 18.5986 212.297C18.5986 209.126 18.3325 205.928 19.0776 202.793C19.4848 200.729 20.2893 198.766 21.4459 197.012C22.5686 195.398 23.7736 193.843 25.056 192.353C26.8744 190.296 29.3846 189.485 31.9658 188.96C35.8678 188.202 39.8508 187.954 43.8162 188.22C45.4579 188.389 47.0515 188.876 48.5084 189.654C51.4025 190.983 53.8627 193.108 55.6045 195.783C58.4163 200.12 60.6249 204.77 63.0198 209.331C63.144 209.571 63.2682 209.82 63.5077 210.31C63.5609 209.767 63.6053 209.473 63.623 209.179C63.8447 203.585 64.102 197.992 64.2794 192.398C64.4923 185.869 64.6785 179.34 64.7761 172.802C64.7947 171.154 64.2683 169.546 63.2796 168.231C62.2908 166.916 60.8954 165.967 59.3121 165.533C58.0792 165.248 56.7576 165.364 55.498 165.177C53.1209 164.83 50.7614 164.393 48.402 164.001C46.3087 163.654 44.2153 163.289 42.122 162.986C39.2303 162.558 36.3298 162.095 33.4293 161.801C29.0824 161.285 24.7003 161.133 20.3282 161.347C18.1728 161.472 15.9997 161.489 13.8442 161.712C10.9437 162.006 8.05209 162.487 5.14271 162.799C4.11147 162.907 3.07043 162.877 2.04707 162.71C1.82101 162.696 1.60301 162.621 1.41697 162.491C1.23093 162.361 1.08404 162.183 0.992408 161.975C0.900778 161.767 0.867949 161.538 0.897523 161.312C0.927097 161.087 1.01793 160.874 1.16006 160.697C1.46256 160.127 1.89024 159.633 2.41074 159.254C3.52607 158.47 4.69377 157.765 5.90554 157.143C7.84721 156.277 9.69585 155.214 11.4227 153.972C12.6995 153.124 14.137 152.551 15.6449 152.288C18.2502 151.452 21.0128 151.233 23.7166 151.647C24.4617 151.798 25.1979 152.003 25.9253 152.208C26.8123 152.466 27.6993 152.751 28.5331 153.028L28.6927 152.832L27.8855 151.887C24.0803 147.514 20.7895 142.829 18.9002 137.279C17.3042 132.717 16.1691 128.005 15.5118 123.215C15.1079 120.852 15.1531 118.434 15.6449 116.089C16.5319 112.481 19.1929 110.673 22.8917 111.145C25.4662 111.526 28.0712 111.657 30.6707 111.537C34.8397 111.279 38.6538 112.686 42.2018 114.833C43.0179 115.332 43.8073 115.875 44.5613 116.365C44.4903 114.049 44.3306 111.769 44.3927 109.498C44.3588 108.099 44.6414 106.711 45.2191 105.438C45.7968 104.165 46.6546 103.041 47.7279 102.149C48.6019 101.45 49.5618 100.866 50.584 100.412C51.9137 99.8585 53.12 99.0439 54.132 98.016C55.7907 96.2345 57.9284 96.0742 60.1548 96.3325C61.6775 96.5211 63.1242 97.1077 64.3503 98.0338C69.2802 101.543 72.8224 106.683 74.3558 112.553C74.7549 114.031 75.0299 115.537 75.3758 117.006C75.4468 117.318 75.5444 117.621 75.6863 118.102C75.8992 117.701 76.0322 117.443 76.1741 117.211C76.8571 115.982 77.478 114.708 78.2497 113.541C79.3458 111.77 80.8137 110.26 82.551 109.117C84.2884 107.974 86.2532 107.225 88.3084 106.923C90.3659 106.58 92.3349 105.829 94.1005 104.714C95.2808 103.959 96.5704 103.391 97.9235 103.031C100.638 102.416 102.359 104.242 101.658 106.941C101.379 108.074 100.971 109.171 100.443 110.21C96.8946 117.131 95.1206 124.569 93.861 132.202C93.3651 136.16 92.4126 140.045 91.0226 143.782C90.2332 145.715 89.2486 147.576 88.3616 149.465C88.1931 149.812 87.9979 150.15 87.7407 150.64C89.1155 150.355 90.313 150.097 91.5193 149.883C95.2487 149.29 99.0453 149.257 102.784 149.785C103.742 149.901 104.691 150.035 105.649 150.133C108.284 150.442 110.841 151.226 113.198 152.449C115.695 153.832 118.386 154.826 121.181 155.397C124.365 155.913 127.017 160.242 126.379 163.485C126.207 164.447 125.745 165.333 125.057 166.023C124.262 166.817 123.421 167.564 122.538 168.259C119.948 170.29 117.305 172.267 114.706 174.298C113.152 175.595 111.262 176.422 109.258 176.68C107.254 176.939 105.218 176.619 103.387 175.759C102.155 175.243 100.968 174.623 99.8394 173.906C92.4466 169.328 84.2521 166.209 75.6951 164.714C74.3608 164.436 73.004 164.281 71.6415 164.251C70.7106 164.239 69.794 164.482 68.9895 164.953C68.1851 165.423 67.5228 166.104 67.0734 166.923C66.1797 168.464 65.6941 170.208 65.6631 171.991C65.4857 177.825 65.3615 183.669 65.1486 189.503C65.0156 193.004 64.6785 196.504 64.581 200.005C64.4657 204.111 64.3503 208.235 64.5366 212.332C64.8071 215.024 65.2187 217.7 65.7696 220.349C66.4348 224.598 67.242 228.838 67.6855 233.113C67.8506 235.564 67.7764 238.025 67.4637 240.462C66.9847 245.663 65.9558 250.83 66.0445 256.085C66.0889 258.9 66.284 261.714 66.4437 264.529C66.63 267.709 66.9936 270.88 67.0202 274.06C67.0202 279.404 66.9227 284.749 66.834 290.093C66.834 291.875 66.692 293.656 66.6743 295.437C66.7043 296.119 66.7784 296.797 66.896 297.468L66.0002 297.451ZM64.4657 163.556C64.9216 161.027 65.0765 158.452 64.9269 155.887C64.8205 154.043 64.5366 152.208 64.3326 150.364C63.7489 145.313 62.1849 140.426 59.729 135.979C56.3732 130.048 52.1917 124.628 47.311 119.883C45.5144 118.092 43.4927 116.544 41.2971 115.278C37.9279 113.2 34.0185 112.176 30.0676 112.339C28.3448 112.377 26.6213 112.318 24.9052 112.161C23.7432 112.09 22.5901 111.929 21.437 111.858C20.7927 111.824 20.1491 111.936 19.5545 112.188C18.96 112.439 18.4299 112.823 18.0043 113.31C16.7821 114.616 16.0948 116.336 16.0795 118.129C15.8489 122.484 16.7625 126.689 17.7737 130.884C19.1472 137.033 21.8046 142.82 25.5705 147.861C29.3491 152.778 33.6954 156.991 39.3368 159.681C40.7826 160.376 42.255 161.017 43.7718 161.641C47.1874 163.012 50.765 163.934 54.4159 164.384C57.4934 164.717 60.6041 164.558 63.6319 163.912C63.9219 163.824 64.2015 163.705 64.4657 163.556ZM65.8937 157.027C66.7807 154.711 67.6677 152.208 68.6701 149.767C69.5571 147.576 70.6481 145.456 71.6327 143.292C73.8492 138.451 75.1285 133.23 75.4024 127.909C75.6544 122.587 75.0004 117.262 73.4688 112.161C71.9035 106.732 68.5633 101.991 63.9867 98.7019C62.7045 97.7138 61.1633 97.1226 59.5516 97.0006C57.8841 96.8848 56.1633 97.0006 54.9392 98.2654C53.586 99.5783 51.9967 100.621 50.2558 101.338C49.1007 101.824 48.073 102.571 47.2529 103.521C46.4328 104.471 45.8425 105.599 45.5281 106.816C44.7391 109.997 44.7573 113.327 45.5813 116.499C45.7619 117.068 46.0822 117.583 46.5127 117.995C48.4375 120.053 50.4776 121.994 52.3403 124.097C56.2385 128.448 59.4728 133.356 61.9377 138.66C63.3479 141.707 64.3043 144.945 64.7761 148.271C65.1841 151.219 65.5389 154.212 65.8937 157.027ZM65.5478 163.503C65.8376 163.58 66.1351 163.625 66.4348 163.636C70.9495 163.463 75.3039 161.909 78.915 159.182C85.2159 154.396 89.6777 147.571 91.5459 139.863C92.5837 135.774 93.1958 131.579 94.0029 127.437C95.017 121.642 96.8479 116.021 99.4403 110.745C99.9121 109.812 100.327 108.851 100.682 107.867C100.913 107.268 101.053 106.638 101.099 105.997C101.143 105.695 101.118 105.387 101.027 105.096C100.936 104.805 100.78 104.538 100.572 104.316C100.364 104.093 100.109 103.92 99.8256 103.811C99.5421 103.701 99.2376 103.656 98.9347 103.681C98.4152 103.669 97.8979 103.753 97.409 103.93C96.5389 104.24 95.7059 104.647 94.9254 105.142C92.807 106.526 90.4174 107.437 87.9181 107.814C85.6019 108.176 83.4427 109.214 81.709 110.798C79.1694 113.112 77.2896 116.063 76.2628 119.349C76.0891 119.84 76.0138 120.361 76.0411 120.881C76.387 124.729 76.7329 128.568 77.1587 132.407C77.5106 135.53 77.3487 138.69 76.6797 141.76C76.0486 144.476 74.8381 147.023 73.1317 149.224C71.8101 151.006 70.382 152.689 68.9539 154.381C67.6884 155.79 66.7761 157.482 66.2929 159.316C66.0268 160.403 65.8228 161.507 65.6099 162.612C65.5665 162.907 65.5457 163.204 65.5478 163.503ZM96.318 165.195C97.0063 165.292 97.6991 165.355 98.3936 165.382C99.1197 165.302 99.8499 165.491 100.446 165.914C101.043 166.338 101.464 166.966 101.631 167.68C102.084 169.096 102.623 170.482 103.246 171.831C103.74 173.035 104.6 174.051 105.704 174.734C106.808 175.417 108.099 175.732 109.392 175.634C111.206 175.53 112.934 174.825 114.307 173.63C116.817 171.688 119.345 169.773 121.846 167.823C122.757 167.104 123.644 166.338 124.507 165.524C125.221 164.804 125.671 163.862 125.784 162.852C126.095 160.768 124.01 156.617 121.092 156.154C118.145 155.552 115.307 154.504 112.674 153.045C110.796 152.035 108.759 151.357 106.652 151.041C103.671 150.685 100.682 150.329 97.684 150.15C94.8355 150.034 91.9858 150.349 89.2309 151.086C87.8529 151.385 86.6281 152.172 85.7804 153.304C83.1026 156.95 79.6323 159.935 75.6331 162.033C75.4367 162.165 75.25 162.311 75.0742 162.469C75.4468 162.469 75.6065 162.469 75.7484 162.469C79.1722 161.81 82.5695 161.08 86.0022 160.519C88.9488 159.986 91.9758 160.104 94.8722 160.866C95.6109 161.048 96.3255 161.317 97.001 161.668C97.2278 161.761 97.427 161.911 97.5797 162.103C97.7324 162.296 97.8336 162.524 97.8736 162.767C97.9136 163.01 97.8911 163.259 97.8082 163.491C97.7254 163.722 97.5849 163.929 97.4002 164.09C97.0631 164.393 96.7615 164.705 96.318 165.195ZM43.0977 162.523L43.1509 162.336C42.9577 162.212 42.7562 162.102 42.5477 162.006C38.4317 160.383 34.6038 158.103 31.2118 155.254C30.4285 154.542 29.4278 154.118 28.3734 154.052C26.9745 153.973 25.5716 154.006 24.1779 154.15C21.4391 154.559 18.7972 155.464 16.3811 156.822C13.8046 158.151 10.9487 158.841 8.05209 158.835C6.40095 158.81 4.76114 159.113 3.22678 159.726C2.77005 159.838 2.36955 160.113 2.10018 160.5C1.8308 160.887 1.71102 161.359 1.76323 161.828C2.62451 162.24 3.59499 162.361 4.53068 162.175C6.23373 161.926 7.91904 161.507 9.63096 161.365C13.386 161.05 17.1469 160.81 20.9137 160.643C27.5674 160.473 34.2206 161.001 40.7649 162.22C41.5366 162.336 42.3083 162.407 43.08 162.523H43.0977ZM105.188 175.581C103.237 173.986 102.35 171.866 101.64 169.604C101.418 168.874 101.108 168.17 100.833 167.457C100.71 167.073 100.475 166.735 100.159 166.485C99.843 166.236 99.4598 166.088 99.0589 166.059C98.2162 165.988 97.3736 165.943 96.5398 165.854C96.2398 165.798 95.9435 165.724 95.6528 165.631C95.5907 164.304 97.1252 164.046 97.205 162.959C96.9921 162.166 96.318 161.997 95.6528 161.783C92.498 160.791 89.1524 160.571 85.8957 161.142C83.3589 161.516 80.8575 162.033 78.3384 162.505C76.5644 162.834 74.7904 163.2 73.0164 163.547C74.409 163.894 75.7927 164.073 77.1676 164.34C85.3789 165.871 93.2389 168.909 100.354 173.301C101.507 174.022 102.758 174.601 103.973 175.216C104.363 175.36 104.763 175.476 105.17 175.563L105.188 175.581ZM59.2767 204.155L59.4629 204.066C59.1791 203.461 58.9219 202.828 58.5759 202.285C57.3785 200.236 56.1012 198.232 54.9304 196.166C53.8227 194.236 52.2447 192.621 50.3445 191.471C48.333 190.047 45.996 189.156 43.5501 188.879C39.7453 188.606 35.9211 188.842 32.1786 189.583C29.4858 189.949 26.9901 191.202 25.0826 193.146C21.8716 196.709 19.6541 200.708 19.1929 205.563C19.0081 206.509 19.0817 207.488 19.4058 208.395C19.906 206.166 20.7563 204.032 21.9249 202.071C22.9102 200.083 24.1903 198.257 25.7212 196.656C30.2982 192.416 35.7533 190.999 41.8381 191.73C44.3987 192.021 46.8749 192.827 49.1193 194.099C51.3638 195.37 53.3309 197.082 54.9037 199.132C56.3496 200.824 57.8486 202.481 59.2767 204.155ZM25.81 197.68C26.1219 197.51 26.4449 197.361 26.7768 197.234C29.2771 196.26 31.8297 195.428 34.4228 194.74C37.9708 193.992 41.5188 194.536 45.0668 195.319C48.3853 196.141 51.493 197.659 54.1853 199.773L55.5513 200.806C47.3553 188.648 31.7795 190.492 25.8277 197.68H25.81ZM76.3693 128.969H76.0677C75.979 129.557 75.8992 130.145 75.8193 130.75C75.6951 131.641 75.6064 132.585 75.4379 133.494C74.6577 137.5 73.3761 141.39 71.6238 145.073C70.2933 148.004 69.0337 150.961 67.7564 153.918C67.6202 154.279 67.5076 154.648 67.4194 155.023L67.6411 155.147C69.1579 153.286 70.6924 151.433 72.1915 149.563C75.2981 145.652 76.9314 140.766 76.8039 135.765C76.8394 133.458 76.5555 131.214 76.4047 128.969H76.3693ZM26.4575 153.152C25.6769 152.876 25.1624 152.653 24.6302 152.52C22.5226 151.998 20.3255 151.955 18.1994 152.395C15.3344 152.983 12.496 153.66 10.2164 155.7C9.63667 156.127 9.00466 156.477 8.33593 156.742C7.33362 157.25 6.31356 157.713 5.31125 158.212C5.02233 158.388 4.74392 158.581 4.47746 158.791C5.63944 158.648 6.57967 158.452 7.52876 158.425C10.4972 158.389 13.4196 157.683 16.0795 156.359C17.9761 155.418 19.9423 154.626 21.9603 153.99C23.4403 153.616 24.9424 153.336 26.4575 153.152Z" fill="#868C96"/>
<path d="M52.7483 131.534C53.8305 133.218 54.9836 134.857 55.9682 136.602C58.4702 140.858 60.6295 145.308 62.4256 149.91C63.6811 153.38 64.5294 156.985 64.9535 160.652C65.0158 161.664 65.0158 162.678 64.9535 163.69C65.4683 163.646 65.9691 163.499 66.4262 163.257C66.8833 163.015 67.2874 162.684 67.6145 162.282C68.5725 161.204 69.4506 160.046 70.3643 158.933C70.586 158.657 70.8255 158.408 71.065 158.14C70.7349 158.863 70.3617 159.565 69.9474 160.242C69.3619 161.133 68.6878 161.908 68.0226 162.71C67.6388 163.178 67.1639 163.562 66.6271 163.839C66.0902 164.117 65.5026 164.281 64.9003 164.322C63.5077 164.438 62.1062 164.598 60.7136 164.589C56.3063 164.554 51.9464 163.671 47.8698 161.988C38.3877 158.069 31.1941 151.593 25.8366 142.927C25.7149 142.679 25.6111 142.423 25.5261 142.161C25.7922 142.517 26.0761 142.846 26.3067 143.212C32.1432 152.315 40.0109 158.88 50.2558 162.389C53.5922 163.523 57.0852 164.125 60.6072 164.171C60.943 164.18 61.2766 164.113 61.5829 163.975C60.9265 163.734 60.2613 163.511 59.6138 163.244C56.7754 162.004 54.1847 160.256 51.9678 158.087C47.6131 153.883 43.8768 149.079 40.8713 143.817C37.703 138.455 35.0819 132.785 33.0479 126.894C32.9344 126.513 32.8426 126.126 32.773 125.736C33.0923 126.466 33.4205 127.187 33.7132 127.927C36.977 136.604 41.5188 144.741 47.1868 152.066C49.9622 155.731 53.3291 158.905 57.1479 161.454C59.0208 162.702 61.1378 163.534 63.3569 163.894C63.7029 163.948 64.0577 163.948 64.5455 163.984C64.6744 162.728 64.6744 161.462 64.5455 160.207C63.9311 155.499 62.5967 150.914 60.5895 146.614C58.4776 141.917 56.1086 137.341 53.4934 132.906C53.2362 132.469 53.041 132.015 52.8193 131.516L52.7483 131.534Z" fill="#868C96"/>
<path d="M68.1467 115.581C68.6168 117.265 69.1933 118.93 69.5393 120.641C70.4384 125.428 70.8308 130.298 70.7101 135.168C70.7101 137.841 70.3553 140.45 70.0981 143.096C69.9295 144.797 69.6457 146.481 69.4151 148.182L69.6546 148.235C70.1247 146.454 70.6214 144.672 71.0738 142.82C71.8505 139.741 72.2995 136.588 72.4132 133.414C72.4694 131.684 72.4102 129.952 72.2358 128.23C72.014 125.914 71.6592 123.607 71.3488 121.3C70.8159 117.479 69.7964 113.743 68.3152 110.183C67.3306 107.769 66.3993 105.338 65.6542 102.835C66.6742 105.249 67.6943 107.663 68.7321 110.068C70.4233 114.024 71.529 118.207 72.014 122.484C72.3599 125.513 72.768 128.55 72.901 131.597C72.96 133.846 72.7966 136.096 72.4132 138.313C71.9519 141.118 71.2689 143.889 70.5505 146.641C70.1254 147.813 69.6186 148.953 69.0337 150.052C68.8563 150.498 68.7321 150.943 68.599 151.415C68.3508 152.341 68.0029 153.237 67.5612 154.087C67.9515 152.244 68.4482 150.409 68.7232 148.556C69.1667 145.946 69.4772 143.31 69.8763 140.7C70.5327 136.487 70.2843 132.256 70.0715 128.034C69.8668 124.18 69.2724 120.357 68.2975 116.623C68.2088 116.276 68.1733 115.92 68.1112 115.563L68.1467 115.581Z" fill="#868C96"/>
<path d="M90.3219 126.19C90.0646 127.562 89.834 128.933 89.5502 130.305C88.6372 135.113 87.2771 139.825 85.4877 144.379C83.1912 150.111 79.7498 155.309 75.3758 159.655C72.9561 161.963 70.0526 163.697 66.8783 164.732C66.5666 164.816 66.2495 164.878 65.9292 164.919C66.213 164.687 66.2929 164.58 66.3993 164.545C71.5528 162.763 75.4379 159.334 78.7198 155.076C82.8589 149.588 85.8956 143.344 87.6608 136.692C88.6365 133.236 89.3728 129.699 90.2243 126.208L90.3219 126.19Z" fill="#868C96"/>
<path d="M48.1359 159.601C45.6607 158.358 43.3487 156.811 41.2527 154.996C32.2449 147.695 25.449 138.01 21.6322 127.036C21.1561 125.634 20.8262 124.186 20.6476 122.716C20.8782 123.411 21.1354 124.106 21.3483 124.809C23.9179 132.971 28.1464 140.508 33.7664 146.944C37.7242 151.722 42.4128 155.838 47.6569 159.138C47.8311 159.283 47.9888 159.448 48.127 159.628L48.1359 159.601Z" fill="#868C96"/>
<path d="M110.998 159.851C108.807 159.414 106.616 158.96 104.425 158.55C100.336 157.756 96.1608 157.507 92.0071 157.811C87.306 158.168 82.6733 159.153 78.2319 160.741C77.815 160.884 77.4159 161.062 77.0078 161.231C76.5998 161.4 76.2184 161.57 75.8192 161.748L75.6951 161.507C76.2747 161.144 76.8829 160.828 77.5134 160.563C80.0148 159.717 82.4984 158.782 85.0441 158.167C89.6539 157.085 94.4087 156.766 99.1209 157.223C102.823 157.531 106.48 158.254 110.022 159.378C110.346 159.511 110.66 159.666 110.962 159.842L110.998 159.851Z" fill="#868C96"/>
<path d="M74.6751 156.439C74.7607 156.174 74.8706 155.918 75.0033 155.673C78.5513 150.079 80.7067 143.933 82.4098 137.582C83.5817 133.288 84.4472 128.915 84.9998 124.497C85.3812 121.309 85.4522 118.084 85.6562 115.011C85.8258 119.051 85.6209 123.097 85.0442 127.098C84.033 133.723 82.3294 140.223 79.9616 146.49C78.7243 149.674 77.1732 152.727 75.3315 155.602C75.1246 155.889 74.8994 156.163 74.6573 156.421L74.6751 156.439Z" fill="#868C96"/>
<path d="M52.7305 147.478C52.4999 147.069 52.2338 146.668 52.0386 146.24C50.6608 143.271 49.2919 140.281 47.9318 137.27C45.0934 131.035 41.1285 125.575 37.0482 120.151C36.5693 119.518 36.1169 118.859 35.6556 118.218C36.0708 118.581 36.4564 118.977 36.8087 119.402C39.4698 123.028 42.1308 126.626 44.6588 130.341C45.895 132.212 46.9835 134.177 47.9141 136.219C49.4929 139.551 50.9299 142.944 52.42 146.32C52.5574 146.692 52.667 147.073 52.7482 147.46L52.7305 147.478Z" fill="#868C96"/>
<path d="M57.5647 101.534C57.955 102.22 58.4517 102.879 58.7355 103.601C61.5152 109.39 63.6424 115.473 65.0776 121.736C65.7606 125.067 66.1775 128.452 66.6742 131.819C66.8428 132.968 66.8782 134.135 66.9758 135.266C66.4259 131.766 65.9025 128.239 65.3082 124.729C64.7616 121.203 63.8703 117.739 62.6472 114.388C61.1216 110.335 59.4451 106.371 57.8397 102.318C57.7332 102.06 57.6711 101.793 57.5824 101.525L57.5647 101.534Z" fill="#868C96"/>
<path d="M59.4984 130.991C58.6114 128.933 57.6356 126.902 56.8373 124.818C54.4088 118.83 52.2977 112.717 50.513 106.505C50.0879 105.049 49.7911 103.559 49.626 102.051C49.8477 102.755 50.0872 103.458 50.2824 104.171C52.6608 112.466 55.4706 120.631 58.7001 128.63C59.0016 129.414 59.2234 130.225 59.4895 131.027L59.4984 130.991Z" fill="#868C96"/>
<path d="M43.9492 162.888C34.4167 159.491 24.2164 158.419 14.1902 159.761C22.7143 157.615 38.8756 159.726 43.9492 162.888Z" fill="#868C96"/>
<path d="M115.859 156.421C115.406 156.27 114.972 156.154 114.502 155.967C111.004 154.474 107.285 153.571 103.494 153.295C100.865 153.04 98.22 152.98 95.5818 153.117C93.3683 153.4 91.1757 153.828 89.018 154.399C88.8733 154.41 88.7281 154.41 88.5834 154.399C89.8773 153.788 91.2511 153.366 92.6636 153.143C96.2524 152.488 99.9204 152.391 103.538 152.858C107.366 153.202 111.11 154.183 114.617 155.762C115.043 155.967 115.433 156.234 115.841 156.475L115.859 156.421Z" fill="#868C96"/>
<path d="M45.2797 125.219C45.0904 125.022 44.9127 124.813 44.7475 124.595C42.0733 120.572 39.1956 116.69 36.1258 112.962C35.9378 112.758 35.8305 112.492 35.8242 112.214C36.0371 112.312 36.3121 112.339 36.4629 112.499C37.1015 113.167 37.7313 113.853 38.299 114.575C40.7417 117.62 42.9367 120.858 44.8628 124.257C45.0209 124.576 45.1543 124.906 45.262 125.246L45.2797 125.219Z" fill="#868C96"/>
<path d="M26.759 127.116C26.3864 126.377 25.9696 125.655 25.668 124.88C24.2314 121.312 23.1037 117.625 22.2974 113.862C22.2127 113.2 22.1683 112.534 22.1643 111.867L22.457 111.787C22.6059 112.024 22.7194 112.282 22.7941 112.553C23.1844 116.668 24.5681 120.507 25.8543 124.399L26.7413 127.143L26.759 127.116Z" fill="#868C96"/>
<path d="M96.5841 155.602C94.0739 155.869 91.5725 156.101 89.0712 156.395C85.9646 156.705 82.939 157.573 80.139 158.96C80.0631 159.007 79.9756 159.032 79.8862 159.032C79.7969 159.032 79.7093 159.007 79.6334 158.96C80.0947 158.693 80.5204 158.39 81.026 158.167C83.5787 157.011 86.2966 156.266 89.08 155.958C91.5652 155.608 94.0772 155.489 96.5841 155.602Z" fill="#868C96"/>
<path d="M117.642 171.492C113.801 168.508 109.277 167.101 104.691 165.747C109.162 166.023 116.338 169.132 117.642 171.492Z" fill="#868C96"/>
<path d="M46.9473 112.473C47.4262 113.791 47.923 115.1 48.3665 116.419C49.3395 119.403 50.7506 122.225 52.5531 124.791C52.8696 125.215 53.0933 125.7 53.2095 126.217C52.7571 125.646 52.3225 125.085 51.8524 124.497C49.3422 120.901 47.6745 116.781 46.9739 112.446L46.9473 112.473Z" fill="#868C96"/>
<path d="M14.1813 157.526C19.2702 156.314 24.5706 156.314 29.6595 157.526C27.0783 157.321 24.506 156.965 21.9248 156.956C19.3436 156.947 16.7625 157.339 14.1813 157.526Z" fill="#868C96"/>
<path d="M82.3388 130.741C83.3477 124.388 83.8313 117.962 83.7846 111.528C83.7846 112.562 83.9088 113.595 83.9177 114.628C83.9265 115.661 83.9177 116.802 83.8644 117.888C83.6959 120.649 83.5629 123.42 83.2613 126.172C83.0306 127.702 82.7168 129.219 82.321 130.715L82.3388 130.741Z" fill="#868C96"/>
<path d="M93.0627 116.588C93.2135 114.753 93.4087 112.962 93.4796 111.163C93.5506 109.364 93.4796 107.6 93.4796 105.819C94.3223 106.879 94.0562 112.82 93.0627 116.588Z" fill="#868C96"/>
<path d="M55.9415 106.05C55.7178 105.793 55.5216 105.512 55.3561 105.213C54.6642 103.556 53.9931 101.891 53.3426 100.216C53.2456 99.8342 53.1891 99.4431 53.1741 99.0493C54.1143 99.94 55.3472 103.28 55.9149 106.077L55.9415 106.05Z" fill="#868C96"/>
<path d="M36.6136 158.853C36.3818 158.799 36.1536 158.731 35.9306 158.648C32.8561 157.212 29.6092 156.182 26.2711 155.584C26.1636 155.565 26.061 155.525 25.9696 155.465C25.8781 155.405 25.7996 155.328 25.7389 155.237C27.062 155.445 28.3735 155.721 29.6683 156.065C31.6375 156.68 33.5712 157.446 35.5137 158.176C35.8982 158.369 36.2636 158.599 36.6047 158.862L36.6136 158.853Z" fill="#868C96"/>
<path d="M26.0139 118.672C24.9426 116.561 24.3375 114.243 24.2399 111.876C25.1269 112.321 24.8075 113.221 25.0382 113.898C25.2656 114.705 25.4433 115.527 25.5704 116.356C25.73 117.131 25.872 117.915 26.0227 118.699L26.0139 118.672Z" fill="#868C96"/>
<path d="M116.116 159.574C119.478 160.67 122.6 162.175 124.986 164.919C123 163.117 120.735 161.652 118.28 160.581L116.16 159.548L116.116 159.574Z" fill="#868C96"/>
<path d="M111.779 166.139C114.652 166.789 117.464 167.573 119.7 169.898C119.442 169.951 119.336 170.005 119.309 169.978C117.535 168.25 115.318 167.52 113.1 166.656C112.657 166.486 112.213 166.29 111.787 166.103L111.779 166.139Z" fill="#868C96"/>
<path d="M47.8964 139.782C46.5659 137.538 45.2383 135.296 43.9137 133.057C43.7097 132.719 43.5412 132.354 43.3638 132.006C43.4347 132.006 43.5412 132.051 43.5767 132.104C45.0136 134.48 46.4446 136.87 47.8698 139.275C47.9407 139.39 47.8698 139.586 47.8698 139.747L47.8964 139.782Z" fill="#868C96"/>
<path d="M107.672 171.181C106.785 170.762 105.969 170.29 105.099 169.925C103.973 169.435 102.829 169.034 101.667 168.544C103.041 168.464 106.261 169.907 107.654 171.216L107.672 171.181Z" fill="#868C96"/>
<path d="M62.8867 117.986L61.2103 113.265C60.9708 112.588 60.7136 111.92 60.4652 111.243C61.6355 113.336 62.4339 115.618 62.8246 117.986H62.8867Z" fill="#868C96"/>
<path d="M91.7056 106.906C91.8205 107.649 91.8916 108.398 91.9185 109.15C91.8807 109.896 91.8007 110.64 91.679 111.377C91.5903 109.863 91.4928 108.384 91.4041 106.923L91.7056 106.906Z" fill="#868C96"/>
<path d="M22.8562 136.879C23.1667 137.466 23.5037 138.045 23.7964 138.66C24.3818 139.836 24.9495 141.012 25.5261 142.223C24.3697 140.59 23.472 138.787 22.8651 136.879H22.8562Z" fill="#868C96"/>
<path d="M36.6048 158.862L38.6981 160.1L36.587 158.871L36.6048 158.862Z" fill="#868C96"/>
<path d="M57.5648 101.525L56.7399 100.287L56.9616 100.172L57.5648 101.534V101.525Z" fill="#868C96"/>
<path d="M22.2176 134.83L21.4636 133.423L21.6765 133.333L22.191 134.866L22.2176 134.83Z" fill="#868C96"/>
<path d="M35.6557 118.218L34.7687 116.971L35.6557 118.209V118.218Z" fill="#868C96"/>
<path d="M62.8247 117.986L63.2682 119.171L63.1085 119.215L62.8513 117.968L62.8247 117.986Z" fill="#868C96"/>
<path d="M73.4688 158.122L74.1961 157.232L73.4688 158.122Z" fill="#868C96"/>
<path d="M42.9025 131.24L42.1486 130.35L42.8936 131.24H42.9025Z" fill="#868C96"/>
<path d="M22.9094 136.861C22.7498 136.46 22.5813 136.068 22.4127 135.676C22.5724 136.077 22.7409 136.469 22.9094 136.861Z" fill="#868C96"/>
<path d="M34.1655 116.525L33.7042 116.009L33.8461 115.92L34.1389 116.552L34.1655 116.525Z" fill="#868C96"/>
<path d="M74.2227 157.178L74.6751 156.403L74.2139 157.169L74.2227 157.178Z" fill="#868C96"/>
<path d="M45.8207 125.878L45.2797 125.219C45.4571 125.433 45.6345 125.655 45.8207 125.869V125.878Z" fill="#868C96"/>
<path d="M42.8759 131.267L43.3371 132.024L42.8759 131.258V131.267Z" fill="#868C96"/>
<path d="M52.7748 131.507L52.2604 130.822L52.7748 131.507Z" fill="#868C96"/>
<path d="M90.4725 125.058H90.4194L90.4725 124.943V125.058Z" fill="#868C96"/>
<path d="M52.2604 130.822L51.746 130.127L52.2604 130.822Z" fill="#868C96"/>
<path d="M41.7228 129.566L42.1308 130.385L41.7316 129.61L41.7228 129.566Z" fill="#868C96"/>
<path d="M51.604 129.503L51.2404 129.316L51.3202 129.227L51.5863 129.53L51.604 129.503Z" fill="#868C96"/>
<path d="M108.355 171.697L107.672 171.181L108.346 171.697H108.355Z" fill="#868C96"/>
<path d="M22.1909 134.91C22.2441 135.186 22.2974 135.462 22.3594 135.738L22.1998 134.892L22.1909 134.91Z" fill="#868C96"/>
<path d="M55.9149 106.077L56.0568 106.442H55.9415V106.033L55.9149 106.077Z" fill="#868C96"/>
<path d="M67.9515 114.833L68.1467 115.581L67.9515 114.842V114.833Z" fill="#868C96"/>
<path d="M111.805 166.086C111.69 166.086 111.575 166.032 111.69 166.086C111.592 166.015 111.69 166.086 111.778 166.139L111.805 166.086Z" fill="#868C96"/>
<path d="M92.8763 117.63L92.8232 117.612L92.8586 117.532L92.8763 117.63Z" fill="#868C96"/>
<path d="M114.652 159.138L115.309 159.396L114.652 159.138Z" fill="#868C96"/>
<path d="M46.9736 112.445C46.9206 112.357 46.8675 112.259 46.9117 112.348C46.9117 112.259 46.9117 112.348 46.9117 112.472L46.9736 112.445Z" fill="#868C96"/>
<path d="M116.134 159.557L115.335 159.361L116.143 159.539L116.134 159.557Z" fill="#868C96"/>
<path d="M111.734 160.109L110.998 159.833L111.743 160.055L111.734 160.109Z" fill="#868C96"/>
<path d="M111.708 160.082L111.84 160.162V159.993L111.708 160.108V160.082Z" fill="#868C96"/>
<path d="M71.7655 156.643L71.8716 156.546L71.7124 156.466V156.626L71.7655 156.643Z" fill="#868C96"/>
<path d="M108.887 171.858L108.355 171.697L108.887 171.858Z" fill="#868C96"/>
<path d="M38.6981 160.1L39.2481 160.305L38.7247 160.064L38.6981 160.1Z" fill="#868C96"/>
<path d="M48.6326 159.851L48.1448 159.637L48.6415 159.833L48.6326 159.851Z" fill="#868C96"/>
<path d="M116.311 156.68L115.859 156.421L116.293 156.688L116.311 156.68Z" fill="#868C96"/>
<path d="M71.7568 156.626L71.5084 157.098L71.7479 156.626H71.7568Z" fill="#868C96"/>
<path d="M116.276 156.706L116.799 156.92L116.302 156.662L116.276 156.706Z" fill="#868C96"/>
<path d="M114.679 159.103L114.564 159.004L114.653 159.138L114.679 159.103Z" fill="#868C96"/>
<path d="M73.1583 158.345V158.478L73.2025 158.372L73.1583 158.345Z" fill="#868C96"/>
<path d="M71.5085 157.098C71.4109 157.25 71.3222 157.41 71.2335 157.57L71.4996 157.089L71.5085 157.098Z" fill="#868C96"/>
<path d="M71.2335 157.57L71.0472 158.123L71.2424 157.579L71.2335 157.57Z" fill="#868C96"/>
<path d="M46.0337 126.368L45.8208 125.878L46.0337 126.377V126.368Z" fill="#868C96"/>
<path d="M46.2377 126.893C46.1667 126.715 46.1047 126.528 46.0337 126.341C46.1047 126.519 46.1845 126.689 46.2643 126.867L46.2377 126.893Z" fill="#868C96"/>
<path d="M25.9873 118.699L26.0404 118.743C26.0404 118.805 26.0404 118.743 26.0404 118.672L25.9873 118.699Z" fill="#868C96"/>
<path d="M27.0074 127.57L26.759 127.116C26.8477 127.268 26.9364 127.419 27.034 127.57H27.0074Z" fill="#868C96"/>
<path d="M27.0073 127.597L27.0783 127.962L27.0073 127.57V127.597Z" fill="#868C96"/>
<path d="M60.208 110.745L60.4475 111.217L60.208 110.745Z" fill="#868C96"/>
<path d="M60.2258 110.727L59.9951 110.237L60.2346 110.718L60.2258 110.727Z" fill="#868C96"/>
<path d="M51.7459 130.127L51.604 129.503L51.7371 130.127H51.7459Z" fill="#868C96"/>
<path d="M59.995 110.237H59.9508C59.9508 110.184 59.9508 110.237 59.9508 110.299L59.995 110.237Z" fill="#868C96"/>
<path d="M59.7468 131.463L59.4984 130.991L59.7911 131.463H59.7468Z" fill="#868C96"/>
<path d="M59.7643 131.49L59.7201 131.632H59.8085L59.7466 131.49H59.7643Z" fill="#868C96"/>
<path d="M34.1389 116.552L34.4307 116.747L34.1389 116.552Z" fill="#868C96"/>
<path d="M34.4405 116.748L34.7234 116.997L34.4316 116.748H34.4405Z" fill="#868C96"/>
<path d="M108.86 171.884L109.064 172.142L108.86 171.875V171.884Z" fill="#868C96"/>
<path d="M109.064 172.143L109.339 172.401L109.082 172.107L109.064 172.143Z" fill="#868C96"/>
<path d="M109.339 172.401L109.41 172.49V172.41H109.339V172.401Z" fill="#868C96"/>
<path d="M48.597 159.815L48.6678 159.85L48.6236 159.815H48.597Z" fill="#868C96"/>
<path d="M32.7738 125.7L32.7108 125.682L32.7468 125.727L32.7738 125.7Z" fill="#868C96"/>
<path d="M73.1849 158.371L73.4944 158.122L73.1849 158.371Z" fill="#868C96"/>
<path d="M41.7491 129.548L41.6696 129.53L41.7226 129.539L41.7491 129.548Z" fill="#868C96"/>
</g>
</svg>
