<svg width="1410" height="218" viewBox="0 0 1410 218" fill="none" xmlns="http://www.w3.org/2000/svg">
<path d="M258.407 6.59999C251.607 6.99999 246.707 7.79999 243.707 9C240.707 10.2 238.607 12.5 237.407 15.9C236.407 19.3 235.907 24.8 235.907 32.4V181.2C235.907 188.8 236.407 194.3 237.407 197.7C238.607 201.1 240.707 203.4 243.707 204.6C246.907 205.8 251.807 206.6 258.407 207V213C247.407 212.4 231.707 212.1 211.307 212.1C189.907 212.1 174.107 212.4 163.907 213V207C171.107 206.6 176.307 205.8 179.507 204.6C182.907 203.4 185.207 201.1 186.407 197.7C187.607 194.3 188.207 188.8 188.207 181.2V24.3L115.907 213.3H111.107L30.1069 20.1V163.8C30.1069 175.6 30.7069 184.3 31.9069 189.9C33.1069 195.3 35.7069 199.3 39.7069 201.9C43.7069 204.3 50.2069 206 59.2069 207V213C51.4069 212.4 40.6069 212.1 26.8069 212.1C15.8069 212.1 7.10691 212.4 0.706909 213V207C7.30691 206 12.1069 204.3 15.1069 201.9C18.3069 199.5 20.4069 195.7 21.4069 190.5C22.6069 185.3 23.2069 177.6 23.2069 167.4V32.4C23.2069 24.8 22.6069 19.3 21.4069 15.9C20.4069 12.5 18.3069 10.2 15.1069 9C12.1069 7.79999 7.30691 6.99999 0.706909 6.59999V0.599999C7.10691 1.19999 15.8069 1.49999 26.8069 1.49999C45.2069 1.49999 61.0069 1.19999 74.2069 0.599999L134.807 146.7L190.007 1.49999H211.307C231.707 1.49999 247.407 1.19999 258.407 0.599999V6.59999ZM481.534 187.8C484.134 194.4 487.134 199.2 490.534 202.2C493.934 205.2 497.234 206.8 500.434 207V213C488.434 212.4 473.234 212.1 454.834 212.1C434.434 212.1 419.234 212.4 409.234 213V207C416.834 206.6 422.234 205.7 425.434 204.3C428.634 202.7 430.234 200 430.234 196.2C430.234 192.6 429.034 187.8 426.634 181.8L408.634 132.6H343.234L335.434 153.3C329.834 167.7 327.034 178.8 327.034 186.6C327.034 194 329.234 199.2 333.634 202.2C338.234 205 344.934 206.6 353.734 207V213C340.134 212.4 327.734 212.1 316.534 212.1C307.334 212.1 299.734 212.4 293.734 213V207C303.534 205.2 312.134 194.7 319.534 175.5L387.934 -1.14441e-05C390.134 0.199986 393.634 0.299985 398.434 0.299985C403.234 0.299985 406.634 0.199986 408.634 -1.14441e-05L481.534 187.8ZM406.534 126.6L376.834 45.6L345.634 126.6H406.534ZM718.073 188.7C721.073 193.3 724.173 197 727.373 199.8C730.573 202.6 734.673 205 739.673 207V213C725.673 212.4 710.073 212.1 692.873 212.1C679.673 212.1 666.973 212.4 654.773 213V207C660.373 206.6 664.373 206 666.773 205.2C669.373 204.4 670.673 203 670.673 201C670.673 199.4 669.573 196.9 667.373 193.5L623.873 123C619.873 116.6 616.473 112.3 613.673 110.1C611.073 107.9 607.473 106.6 602.873 106.2V181.2C602.873 188.8 603.373 194.3 604.373 197.7C605.573 201.1 607.673 203.4 610.673 204.6C613.673 205.8 618.573 206.6 625.373 207V213C614.573 212.4 599.473 212.1 580.073 212.1C558.673 212.1 542.873 212.4 532.673 213V207C539.273 206.6 544.073 205.8 547.073 204.6C550.273 203.4 552.373 201.1 553.373 197.7C554.573 194.3 555.173 188.8 555.173 181.2V32.4C555.173 24.8 554.573 19.3 553.373 15.9C552.373 12.5 550.273 10.2 547.073 9C544.073 7.79999 539.273 6.99999 532.673 6.59999V0.599999C542.873 1.19999 558.673 1.49999 580.073 1.49999C599.473 1.49999 614.573 1.19999 625.373 0.599999V6.59999C618.573 6.99999 613.673 7.79999 610.673 9C607.673 10.2 605.573 12.5 604.373 15.9C603.373 19.3 602.873 24.8 602.873 32.4V99.9C610.873 99.5 618.173 97.1 624.773 92.7C631.373 88.3 638.873 81.3 647.273 71.7L664.973 50.4C674.173 39.8 678.773 30.5 678.773 22.5C678.773 17.7 676.773 13.9 672.773 11.1C668.973 8.29999 663.573 6.69999 656.573 6.3V0.599999C671.173 1.19999 685.973 1.49999 700.973 1.49999C712.573 1.49999 721.973 1.19999 729.173 0.599999V6.3C713.173 10.1 698.673 19.7 685.673 35.1L648.173 79.8L718.073 188.7ZM941.233 167.4C941.233 185.8 941.933 201 943.333 213C929.733 212.4 906.833 212.1 874.633 212.1C831.033 212.1 798.433 212.4 776.833 213V207C783.433 206.6 788.233 205.8 791.233 204.6C794.433 203.4 796.533 201.1 797.533 197.7C798.733 194.3 799.333 188.8 799.333 181.2V32.4C799.333 24.8 798.733 19.3 797.533 15.9C796.533 12.5 794.433 10.2 791.233 9C788.233 7.79999 783.433 6.99999 776.833 6.59999V0.599999C798.433 1.19999 831.033 1.49999 874.633 1.49999C904.033 1.49999 924.933 1.19999 937.333 0.599999C935.933 17.2 935.233 32 935.233 45C935.233 53.8 935.533 60.6 936.133 65.4H929.233C926.233 44 920.833 29 913.033 20.4C905.233 11.8 894.233 7.49998 880.033 7.49998H867.733C861.533 7.49998 857.033 7.99999 854.233 9C851.433 10 849.533 12 848.533 15C847.533 17.8 847.033 22.4 847.033 28.8V103.2H856.633C867.233 103.2 875.233 99.3 880.633 91.5C886.233 83.7 890.133 74.4 892.333 63.6H899.233C898.633 72 898.333 81.4 898.333 91.8V106.2C898.333 116.4 898.933 130.6 900.133 148.8H893.233C889.033 122.4 876.833 109.2 856.633 109.2H847.033V184.8C847.033 191.2 847.533 195.9 848.533 198.9C849.533 201.7 851.433 203.6 854.233 204.6C857.033 205.6 861.533 206.1 867.733 206.1H882.433C896.633 206.1 908.033 201.3 916.633 191.7C925.433 181.9 931.633 165.4 935.233 142.2H942.133C941.533 148.8 941.233 157.2 941.233 167.4ZM1188.07 6.59999C1181.47 7.59999 1176.57 9.29999 1173.37 11.7C1170.37 14.1 1168.27 17.9 1167.07 23.1C1166.07 28.3 1165.57 36 1165.57 46.2V125.7C1165.57 154.3 1161.47 175.5 1153.27 189.3C1147.87 198.1 1140.07 205 1129.87 210C1119.67 214.8 1107.17 217.2 1092.37 217.2C1069.17 217.2 1051.17 212.2 1038.37 202.2C1029.17 194.8 1022.97 185.5 1019.77 174.3C1016.57 162.9 1014.97 147 1014.97 126.6V32.4C1014.97 24.8 1014.37 19.3 1013.17 15.9C1012.17 12.5 1010.07 10.2 1006.87 9C1003.87 7.79999 999.069 6.99999 992.469 6.59999V0.599999C1002.67 1.19999 1018.27 1.49999 1039.27 1.49999C1060.07 1.49999 1075.97 1.19999 1086.97 0.599999V6.59999C1079.77 6.99999 1074.47 7.79999 1071.07 9C1067.87 10.2 1065.67 12.5 1064.47 15.9C1063.27 19.3 1062.67 24.8 1062.67 32.4V145.5C1062.67 166.5 1065.67 182 1071.67 192C1077.87 201.8 1088.67 206.7 1104.07 206.7C1124.07 206.7 1138.17 200 1146.37 186.6C1154.57 173 1158.67 153.8 1158.67 129V49.8C1158.67 38.2 1157.97 29.6 1156.57 24C1155.17 18.4 1152.47 14.4 1148.47 12C1144.47 9.39999 1138.17 7.59999 1129.57 6.59999V0.599999C1137.17 1.19999 1147.97 1.49999 1161.97 1.49999C1173.17 1.49999 1181.87 1.19999 1188.07 0.599999V6.59999ZM1304.01 127.2V179.4C1304.01 187.4 1304.81 193.3 1306.41 197.1C1308.21 200.7 1311.21 203.1 1315.41 204.3C1319.81 205.5 1326.71 206.2 1336.11 206.4V213C1311.51 212.4 1293.21 212.1 1281.21 212.1C1271.21 212.1 1258.61 212.3 1243.41 212.7L1233.81 213V207C1240.41 206.6 1245.21 205.8 1248.21 204.6C1251.41 203.4 1253.51 201.1 1254.51 197.7C1255.71 194.3 1256.31 188.8 1256.31 181.2V32.4C1256.31 24.8 1255.71 19.3 1254.51 15.9C1253.51 12.5 1251.41 10.2 1248.21 9C1245.21 7.79999 1240.41 6.99999 1233.81 6.59999V0.599999C1244.01 1.19999 1259.21 1.49999 1279.41 1.49999L1312.71 1.19999C1316.71 0.999994 1321.31 0.899995 1326.51 0.899995C1353.51 0.899995 1374.11 6.29999 1388.31 17.1C1402.51 27.7 1409.61 42 1409.61 60C1409.61 71 1406.81 81.6 1401.21 91.8C1395.61 101.8 1386.11 110.2 1372.71 117C1359.51 123.8 1341.91 127.2 1319.91 127.2H1304.01ZM1322.61 6.59999C1317.21 6.59999 1313.21 7.29999 1310.61 8.69998C1308.21 10.1 1306.51 12.6 1305.51 16.2C1304.51 19.8 1304.01 25.2 1304.01 32.4V121.2H1316.91C1333.11 121.2 1344.31 116 1350.51 105.6C1356.71 95.2 1359.81 81.1 1359.81 63.3C1359.81 43.9 1356.91 29.6 1351.11 20.4C1345.51 11.2 1336.01 6.59999 1322.61 6.59999Z" fill="#868C96"/>
</svg>
