<svg width="250" height="484" viewBox="0 0 250 484" fill="none" xmlns="http://www.w3.org/2000/svg">
<g clip-path="url(#clip0_37_162)">
<g opacity="0.85">
<g opacity="0.85">
<path opacity="0.85" d="M66.5746 323.766C66.0735 324.131 65.7665 324.375 65.4438 324.611L40.3906 342.084C35.848 345.139 31.5575 348.554 27.5603 352.294C25.1996 354.488 23.2473 357.083 21.7944 359.96C20.1361 363.154 19.5343 366.791 20.0757 370.348C20.2186 371.197 20.4471 372.03 20.7577 372.833C22.1445 376.621 24.6496 378.738 29.594 378.741C31.7165 378.669 33.8126 378.246 35.7974 377.49L38.0603 376.68L38.8578 377.931C38.5423 378.485 38.2719 378.961 38.0105 379.42C35.3024 383.623 33.8577 388.514 33.8482 393.513C33.8341 396.548 34.758 399.513 36.4933 402.002C38.2287 404.491 40.6908 406.382 43.5426 407.417C44.7026 407.847 45.8514 408.333 46.9797 408.744C48.2119 409.22 49.2297 410.127 49.8447 411.297C50.8168 412.94 51.7933 414.502 52.8309 416.141C55.0622 419.338 58.2344 421.758 61.9061 423.066C63.5312 423.63 65.2676 423.799 66.9712 423.558L68.2521 423.406C68.4404 423.848 68.6241 424.225 68.7739 424.625C71.4769 431.038 75.5646 436.772 80.7441 441.418C83.3601 443.651 86.2793 445.503 89.4148 446.917C91.5981 448.086 93.9371 448.936 96.3609 449.444C98.0819 449.771 99.8325 449.916 101.584 449.878C103.471 449.886 105.338 449.489 107.059 448.714C108.781 447.939 110.315 446.803 111.56 445.384C111.927 445.697 112.248 445.943 112.558 446.245C116.522 450.073 125.45 453.056 132.698 449.526C135.539 448.082 138.018 446.016 139.952 443.482C140.879 442.332 141.744 441.105 142.696 439.801C142.925 440.099 143.133 440.322 143.298 440.584C145.72 444.279 149.382 446.987 153.624 448.221C154.746 448.513 155.898 448.676 157.058 448.707C157.817 448.747 158.567 448.892 159.287 449.136C160.534 449.655 161.826 450.06 163.146 450.346C165.21 450.815 167.371 450.608 169.309 449.755C171.248 448.902 172.861 447.448 173.911 445.609C176.016 442.094 177.412 438.2 178.021 434.149C178.525 430.9 178.754 427.614 178.705 424.326C178.701 415.935 178.728 407.563 177.894 399.266C177.536 394.389 177.664 389.489 178.275 384.636C178.898 378.532 179.562 372.43 180.103 366.321C180.528 361.926 180.504 357.5 180.032 353.111C179.553 348.591 178.131 344.221 175.857 340.287C173.582 336.352 170.507 332.939 166.829 330.27C164.96 328.871 162.923 327.712 160.765 326.82C157.496 325.436 154.781 323.001 153.049 319.901C151.318 316.8 150.668 313.211 151.204 309.699C151.668 306.925 152.595 304.248 153.948 301.782C156.437 296.781 158.878 291.753 161.335 286.735C165.286 278.686 169.031 270.521 173.427 262.684C176.278 257.747 179.442 252.998 182.9 248.466C187.766 241.903 192.695 235.376 197.428 228.716C201.984 222.291 206.045 215.522 210.113 208.778C218.497 194.926 225.986 180.587 233.822 166.445C240.498 154.418 247.303 142.457 254.238 130.563C258.285 123.451 262.778 116.549 267.413 109.876C272.456 102.609 277.466 95.3385 282.444 88.0631C286.774 81.7408 291.121 75.4275 295.366 69.0352C299.611 62.643 304.031 55.8683 308.47 49.3558C311.155 45.4103 314.069 41.6158 316.896 37.7514C318.86 35.0732 320.831 32.4199 322.811 29.7507C322.989 29.4748 323.151 29.1892 323.297 28.8953C323.514 28.5151 323.536 28.1082 323.16 27.8106C322.785 27.513 322.321 27.627 321.985 27.9599C321.804 28.1367 321.642 28.3335 321.505 28.5464C318.111 33.0743 314.679 37.5594 311.356 42.1481C309.189 45.1093 307.11 48.2465 305.018 51.334C302.392 55.25 299.79 59.1593 297.18 63.0843C295.156 66.1265 293.147 69.1777 291.107 72.2109C288.819 75.6063 286.508 78.9677 284.204 82.3541C281.9 85.7405 279.873 88.6766 277.688 91.8163C275.024 95.6894 272.302 99.5514 269.669 103.443C266.008 108.846 262.299 114.222 258.803 119.74C248.239 136.356 238.931 153.708 229.38 170.9C224.238 180.158 219.191 189.471 213.986 198.693C210.903 204.11 207.669 209.463 204.413 214.782C200.423 221.277 196.228 227.656 191.687 233.796C187.885 238.93 184.013 244.004 180.227 249.148C176.113 254.599 172.488 260.403 169.395 266.492C166.282 272.773 163.177 279.052 160.081 285.329C158.101 289.361 156.248 293.466 154.158 297.435C152.58 300.207 150.906 302.966 149.145 305.655C148.002 307.327 146.406 308.638 144.543 309.433C143.979 309.682 143.386 309.859 142.777 309.958C142.157 310.103 141.511 310.089 140.898 309.916C140.285 309.743 139.726 309.418 139.273 308.971C135.324 305.329 130.827 302.332 125.946 300.088C121.167 297.988 116.165 296.436 111.035 295.463C100.268 293.339 89.1292 294.115 78.7578 297.712C72.7497 299.667 67.4103 303.27 63.3471 308.11C61.9127 309.729 60.7861 311.597 60.0228 313.621C59.4473 315.17 59.4369 316.873 59.9934 318.429C60.5498 319.984 61.6375 321.293 63.0647 322.125C63.7605 322.528 64.4829 322.883 65.2268 323.188L66.5746 323.766ZM140.733 320.182C140.677 319.715 140.591 319.252 140.473 318.797C139.667 316.563 138.577 314.442 137.231 312.486C134.955 309.091 132.178 306.061 128.993 303.5C130.925 304.599 132.748 305.888 134.601 307.089C137.258 308.895 139.6 311.127 141.531 313.695C142.24 314.592 142.679 315.671 142.8 316.807C142.939 317.503 142.856 318.224 142.564 318.871C142.271 319.517 141.783 320.055 141.169 320.409L140.726 320.157L140.709 320.777C139.378 321.746 137.846 322.403 136.227 322.698C134.607 322.993 132.942 322.919 131.356 322.48C130.254 319.122 128.595 315.973 126.449 313.166C128.234 316.092 129.67 319.218 130.728 322.479C129.102 322.326 127.547 321.738 126.226 320.777C124.638 319.622 123.175 318.305 121.86 316.847C121.336 316.264 121.02 315.524 120.962 314.742C120.513 308.908 118.125 303.393 114.178 299.075L113.813 298.574C120.03 301.222 125.513 305.335 129.796 310.562C128.627 308.758 127.216 307.122 125.603 305.702C124.001 304.218 122.313 302.831 120.548 301.546C118.842 300.345 116.96 299.379 115.15 298.287C117.994 298.816 120.75 299.736 123.342 301.018C126.158 302.386 128.8 304.087 131.212 306.083C135.417 309.997 138.673 314.819 140.733 320.182ZM82.2972 440.456L82.4444 439.24C83.5997 432.79 85.1287 426.413 87.0235 420.141C89.896 410.556 93.3076 401.141 97.2418 391.941C98.8268 388.272 100.405 384.577 102.062 380.928C103.348 378.115 104.665 375.321 106.087 372.565C108.24 368.338 110.41 364.12 112.746 359.976C115.083 355.832 117.484 352.019 119.947 348.094C121.768 345.188 123.628 342.325 125.646 339.551C127.664 336.778 129.811 334.036 132.019 331.371C135.25 327.323 139.087 323.797 143.394 320.92C143.733 320.638 144.128 320.43 144.552 320.31C144.976 320.189 145.421 320.158 145.857 320.219C146.294 320.28 146.713 320.432 147.088 320.664C147.463 320.896 147.785 321.204 148.034 321.568C147.886 322.197 147.734 322.907 147.549 323.599C145.805 329.629 143.401 335.449 140.38 340.951C138.082 345.432 135.554 349.802 133.145 354.219C133.019 354.441 132.902 354.647 132.785 354.853C133.741 353.468 134.538 351.992 135.415 350.562C138.72 345.189 141.704 339.625 144.35 333.9C146.027 330.382 147.365 326.712 148.344 322.94C148.454 322.688 148.59 322.45 148.749 322.227C149.177 322.429 149.529 322.764 149.751 323.181C149.974 323.599 150.057 324.077 149.987 324.546C149.934 325.375 149.954 326.225 149.876 327.062C149.321 332.121 148.171 337.098 146.449 341.888C144.794 346.56 142.888 351.139 140.74 355.605C139.324 358.721 137.82 361.807 136.451 364.949C135.082 368.092 133.641 371.508 132.408 374.854C129.983 381.401 127.942 388.082 126.149 394.842C123.584 404.434 121.444 414.163 118.332 423.611C117.093 427.373 115.869 431.143 114.558 434.885C113.814 437.04 112.884 439.154 112.051 441.28C111.575 442.627 110.814 443.856 109.821 444.883C108.828 445.91 107.626 446.712 106.296 447.233C102.881 448.492 99.1444 448.579 95.6753 447.481C95.4878 447.393 95.3077 447.291 95.137 447.174C97.4175 437.35 100.25 427.662 103.621 418.156C99.4821 427.418 97.1162 437.249 94.5355 446.979C92.8244 446.626 91.2042 445.926 89.7754 444.921C90.9867 440.766 92.234 436.547 93.4723 432.345C93.1528 432.865 92.8879 433.417 92.6818 433.992C91.5958 437.338 90.5414 440.701 89.4553 444.047C89.3455 444.298 89.2096 444.537 89.0497 444.759C86.6205 443.633 84.3378 442.215 82.2522 440.535L82.2972 440.456ZM31.8409 360.979L32.015 361.078C32.108 361.038 32.1978 360.991 32.2836 360.937C33.033 360.357 33.8342 359.723 34.5158 359.188C44.4861 350.873 54.8232 343.019 65.4027 335.513C71.6043 330.977 78.2031 327.011 85.1182 323.664C86.4728 323.034 87.879 322.522 89.3213 322.134C91.1261 321.651 92.9696 321.358 94.7656 321.037C97.8655 320.411 101.021 320.098 104.183 320.105L105.347 320.159L105.392 320.373L104.313 320.724C96.771 322.92 89.5257 326.03 82.7376 329.984C73.2147 335.663 64.2247 342.192 55.8777 349.491C54.7832 350.42 53.7498 351.426 52.5742 352.498C52.8273 352.495 52.8996 352.515 52.9425 352.476C53.2833 352.209 53.64 351.951 53.9739 351.658C60.7086 345.912 67.7536 340.539 75.0769 335.565C84.5846 328.999 95.1201 324.065 106.25 320.966C107.933 320.464 109.73 320.497 111.393 321.061C111.954 321.255 112.517 321.407 113.053 321.607C113.358 321.745 113.649 321.911 113.924 322.103C99.8938 326.809 86.7454 333.821 75.0187 342.851C75.1137 342.905 75.1453 342.923 75.1453 342.923C75.8293 342.494 76.4976 342.057 77.1658 341.619C83.9329 336.971 91.0174 332.803 98.3672 329.147C103.49 326.668 108.779 324.548 114.196 322.803C114.728 322.561 115.327 322.51 115.893 322.657C117.521 323.185 119.184 323.649 120.815 324.136C121.074 324.229 121.327 324.338 121.572 324.462C121.356 324.614 121.13 324.752 120.897 324.875C115.307 327.735 109.967 331.059 104.932 334.811C103.515 335.829 102.052 336.779 100.557 337.712C96.0219 340.562 91.4187 343.312 86.9355 346.255C79.7706 350.965 73.054 356.286 66.3533 361.617C61.5958 365.411 56.7931 369.137 52.3345 373.289C51.9915 373.598 51.687 373.949 51.3756 374.275C51.868 374.021 52.3242 373.702 52.7322 373.327L68.142 360.978C77.2094 353.628 86.7644 346.902 96.7411 340.846C97.1294 340.605 97.5245 340.39 97.9196 340.174C97.793 340.49 97.5964 340.772 97.3446 341C94.847 343.438 92.2702 345.83 89.8653 348.362C86.6162 351.671 83.7186 355.307 81.2188 359.212C80.8376 359.717 80.3908 360.168 79.8901 360.553C75.9876 363.925 72.0453 367.33 68.0631 370.768C67.9188 371.021 67.6547 371.228 67.4381 371.461C68.8022 370.598 70.1074 369.645 71.3453 368.609C73.7983 366.545 76.2445 364.456 78.7178 362.319C78.9999 362.081 79.3205 361.886 79.8035 361.553C79.7506 361.743 79.686 361.931 79.6101 362.113C78.3422 364.621 77.2742 367.225 76.4161 369.901C76.2469 370.493 75.9377 371.036 75.5147 371.485C73.6758 373.206 71.821 374.919 69.905 376.555C66.758 379.328 63.1552 381.535 59.2562 383.078C56.5934 384.131 53.6816 384.384 50.8781 383.806C46.7706 382.811 43.0905 380.526 40.3776 377.286C40.2381 377.096 40.1231 376.89 40.0354 376.672C44.8258 372.267 50.0103 368.423 55.1812 364.529C49.6311 367.866 44.4256 371.746 39.6412 376.112L38.1071 374.904C38.2668 374.737 38.4388 374.582 38.6216 374.441C43.4356 370.659 48.1953 366.824 53.0863 363.127C56.4628 360.582 60.0386 358.275 63.5148 355.85C63.8449 355.6 64.1591 355.331 64.4558 355.043L64.3198 354.84L63.4259 355.38C54.4792 361.139 45.9171 367.475 37.7944 374.348C36.4019 375.527 34.7369 376.339 32.951 376.709C32.018 376.912 31.0804 377.05 30.1179 377.194C28.8469 377.341 27.5594 377.177 26.366 376.716C25.9709 376.527 25.5899 376.311 25.226 376.067L37.1901 365.428L37.0294 365.231C32.6936 368.468 28.8422 372.253 24.588 375.641C23.8373 375.061 23.2466 374.299 22.8715 373.428C21.6724 370.866 21.3271 367.987 21.8865 365.213C22.6415 361.386 24.5119 357.868 27.262 355.102C30.1236 352.027 33.3088 349.269 36.7624 346.877C47.299 339.409 57.9036 332.043 68.4787 324.618C68.922 324.294 69.4645 324.136 70.0124 324.17C71.0718 324.238 72.1344 324.24 73.1942 324.177C76.3913 323.899 79.5726 323.612 82.7697 323.334L83.852 323.237C83.5761 323.582 83.2197 323.855 82.8139 324.03C78.803 326.043 74.9206 328.302 71.1891 330.795C58.7136 339.158 46.7398 348.247 35.3297 358.015C34.1019 358.994 32.9624 360.002 31.8409 360.979ZM141.538 426.917C140.864 428.84 140.229 430.765 139.491 432.651C138.18 435.987 136.833 439.324 135.451 442.662C135.008 443.773 134.404 444.834 133.949 446.002C133.798 446.451 133.554 446.863 133.233 447.211C132.912 447.56 132.521 447.837 132.086 448.024C130.009 449.036 127.723 449.546 125.413 449.512C122.803 449.472 120.231 448.893 117.857 447.809C115.483 446.725 113.359 445.162 111.62 443.216C112.107 442.36 112.612 441.473 112.902 440.485C114.229 437.046 115.589 433.626 116.726 430.079C119.713 421.146 122.295 412.151 124.547 403.073C126.857 393.104 129.831 383.3 133.448 373.726C135.159 369.394 136.989 365.109 138.851 360.842C140.337 357.493 141.889 354.287 143.427 351.031C145.156 347.376 146.606 343.596 147.765 339.722C149.381 334.99 150.32 330.053 150.555 325.058C150.583 324.884 150.63 324.714 150.696 324.551C151.295 324.936 151.783 325.471 152.111 326.102C152.439 326.734 152.596 327.441 152.567 328.152C152.554 328.519 152.57 328.885 152.614 329.249C153.049 335.547 152.562 341.875 151.168 348.033C151.134 348.24 151.12 348.45 151.126 348.66L151.301 348.759C151.695 346.886 152.192 344.946 152.485 342.994C153.231 338.386 153.466 333.71 153.187 329.051L153.169 327.719C153.984 328.417 154.527 329.38 154.704 330.438C155.44 334.735 155.697 339.101 155.47 343.456C154.983 351.315 153.671 359.102 151.558 366.688C149.918 372.885 147.958 378.983 145.732 384.993C144.09 389.427 142.479 393.879 140.837 398.313C139.401 402.235 137.909 406.147 136.506 410.087C134.405 416.064 132.81 422.182 131.159 428.288C131.049 428.666 131.011 429.064 130.933 429.459C132.354 425.193 133.509 420.88 134.944 416.664C137.107 410.283 139.438 403.976 141.737 397.651C143.74 392.143 145.868 386.707 147.823 381.171C150.492 373.89 152.637 366.428 154.241 358.841C156.283 350.123 156.84 341.125 155.888 332.223C155.902 332.008 155.932 331.794 155.98 331.583C156.245 331.965 156.39 332.152 156.517 332.371C159.765 337.766 161.215 344.054 160.656 350.328C160.306 354.175 159.727 357.998 158.921 361.776C156.582 371.918 154.891 382.197 153.86 392.553C153.229 398.835 152.157 405.064 150.651 411.195C148.568 419.866 146.422 428.5 142.343 436.518C140.68 439.901 138.417 442.955 135.664 445.53C135.397 445.777 135.084 445.997 134.777 446.242C135.915 442.989 137.209 439.867 138.447 436.734C139.789 433.574 140.821 430.292 141.529 426.933L141.538 426.917ZM133.408 324.989L133.503 325.19L132.722 325.899C131.282 327.177 129.795 328.428 128.363 329.878C124.318 333.812 120.56 338.029 117.116 342.499C114.8 345.501 112.484 348.503 110.279 351.568C108.383 354.201 106.588 356.913 104.85 359.635C102.249 363.692 99.616 367.73 97.189 371.885C94.3227 376.922 91.4564 381.96 88.7395 387.104C86.9367 390.272 85.4032 393.594 83.6979 396.922C83.1391 397.904 82.7069 398.959 82.2273 399.986C81.0316 402.64 79.82 405.285 78.6402 407.948C77.6855 410.068 76.706 412.195 75.8394 414.344C74.5249 417.538 73.2895 420.778 72.0315 423.983C71.8132 424.551 71.5791 425.11 71.3359 425.685C71.2155 425.597 71.1034 425.498 71.001 425.389C70.6881 424.687 70.3661 424 70.0937 423.3C68.1327 418.784 67.5203 413.797 68.3305 408.939C68.9701 405.749 70.0961 402.677 71.6692 399.829C73.6293 396.163 75.7884 392.59 77.7327 388.915C78.3816 387.774 78.8971 386.536 79.6796 385.493C81.3683 383.077 83.1429 380.732 84.9107 378.362C87.8601 374.389 91.0508 370.602 94.4648 367.022C94.6225 366.857 94.7659 366.679 94.8933 366.489L94.6717 366.363C91.587 369.147 88.7907 372.235 86.3254 375.581C83.7161 378.877 81.2177 382.237 78.5568 385.735C78.2139 384.68 77.8554 383.763 77.612 382.828C76.67 379.002 76.7791 374.992 77.9277 371.222C79.115 366.849 81.0032 362.697 83.5189 358.927C85.0783 356.684 86.7499 354.52 88.5274 352.445C96.3199 343.472 105.505 335.811 115.73 329.757C118.43 328.106 121.348 326.662 124.102 325.21C124.658 324.935 125.281 324.823 125.898 324.89C128.138 324.969 130.397 324.975 132.655 325.023L133.408 324.989ZM60.4266 420.694C58.0133 419.392 55.923 417.565 54.3098 415.347C53.4059 413.952 52.4703 412.539 51.677 411.06C51.1576 410.054 50.4424 409.163 49.5735 408.438C48.7046 407.713 47.6995 407.17 46.6173 406.839C45.2384 406.362 43.8844 405.815 42.5606 405.202C41.6021 404.819 40.7588 404.195 40.1125 403.39C40.2731 403.048 40.4599 402.72 40.6713 402.407C42.5841 400.224 44.5285 398.059 46.473 395.894C46.6082 395.657 46.7524 395.403 46.9667 395.211C44.1682 397.463 41.6511 400.044 39.4699 402.898C38.543 402.126 37.7885 401.168 37.2553 400.086C40.4426 396.199 43.8595 392.506 47.4878 389.027C46.823 389.311 46.2133 389.709 45.6864 390.204C43.1505 392.746 40.6599 395.355 38.1467 397.93C37.7316 398.365 37.3481 398.818 36.897 399.316C36.7179 399.005 36.5889 398.826 36.4937 398.625C35.8086 397.043 35.4669 395.334 35.4912 393.609C35.529 388.95 36.8534 384.391 39.3183 380.437C39.4986 380.12 39.6699 379.819 39.988 379.518L40.9065 380.187C41.8456 380.931 42.7576 381.723 43.8118 382.448C45.9953 384.119 48.5642 385.214 51.2821 385.632C54.0001 386.05 56.7797 385.777 59.3653 384.839C62.4193 383.806 65.2812 382.274 67.8344 380.305C70.1004 378.533 72.2959 376.552 74.4647 374.767C74.7467 374.529 75.0447 374.3 75.5141 373.917C75.4166 375.12 75.3006 376.06 75.2999 376.982C75.3059 377.867 75.0027 378.725 74.4428 379.41C72.5169 381.837 70.5683 384.23 68.6694 386.61C68.4441 387.006 68.0989 387.355 67.8261 387.724L68.0161 387.832C70.5949 385.155 73.0191 382.334 75.2767 379.381L75.7152 382.294C71.3876 389.163 66.182 395.365 61.3927 401.867C66.7092 396.07 71.5543 389.858 75.8818 383.29C76.0855 383.95 76.3257 384.597 76.6013 385.23C76.8062 385.637 76.8983 386.092 76.868 386.547C76.8378 387.002 76.6863 387.44 76.4293 387.817C75.7623 388.989 75.0863 390.177 74.4193 391.349C72.2438 395.01 70.2645 398.784 68.4898 402.655C66.0141 408.33 65.636 414.7 67.4229 420.627L67.7208 421.761C65.5106 422.249 63.2005 421.97 61.1706 420.97C61.8303 419.479 63.153 418.554 63.6931 417.163L63.4556 417.028C62.452 418.239 61.4822 419.428 60.4176 420.71L60.4266 420.694ZM137.614 324.3C137.251 324.681 137.068 324.891 136.886 325.102C135.588 326.461 134.26 327.802 132.994 329.179C128.681 334.057 124.738 339.251 121.198 344.717C118.755 348.422 116.46 352.233 114.214 356.072C112.149 359.699 110.094 363.311 108.198 367.013C106.301 370.715 104.512 374.227 102.774 377.872C101.035 381.517 99.4115 385.144 97.8017 388.821C96.3473 392.187 94.832 395.624 93.5428 399.106C91.5854 404.388 89.6279 409.67 87.926 415.055C85.2578 422.953 83.2594 431.062 81.9519 439.295C81.8776 439.591 81.7884 439.883 81.6844 440.17C77.5171 436.303 74.0677 431.727 71.4958 426.656C72.4702 424.17 73.4017 421.722 74.3967 419.311C75.7451 416.093 77.15 412.887 78.5708 409.691C80.1311 406.175 81.7004 402.643 83.3648 399.165C85.1846 395.377 87.0835 391.635 89.0142 387.91C90.5979 384.869 92.2132 381.846 93.9236 378.876C96.4745 374.393 99.1588 370.007 101.875 365.639C103.842 362.438 105.896 359.308 108.022 356.198C110.148 353.087 112.06 350.317 114.236 347.486C117.036 343.817 119.914 340.232 122.921 336.679C126.328 332.639 130.118 328.939 134.238 325.63C135.194 324.847 136.372 324.387 137.605 324.316L137.614 324.3ZM158.896 327.895C160.828 328.37 162.532 329.51 163.708 331.115C166.131 335.273 167.86 339.798 168.827 344.513C170.048 350.603 170.516 356.821 170.22 363.025C169.517 376.792 167 390.407 162.733 403.516C161.297 408.214 159.644 412.851 158.015 417.482C157.084 420.076 156.008 422.63 154.972 425.187C154.211 427.04 153.435 428.884 152.658 430.727C151.881 432.571 151.204 434.094 150.445 435.759C149.526 437.816 148.583 439.879 147.648 441.927C147.521 442.183 147.379 442.431 147.225 442.672C145.722 441.334 144.511 439.703 143.664 437.878C143.872 437.513 144.034 437.228 144.187 436.959C145.448 434.007 146.894 431.097 147.89 428.057C151.698 416.859 154.305 405.288 155.667 393.54C156.581 383.762 158.134 374.054 160.318 364.479C161.266 360.424 161.973 356.317 162.433 352.178C162.992 347.766 162.645 343.288 161.413 339.016C160.464 335.905 159.122 332.929 157.419 330.159C157.182 329.834 156.998 329.475 156.873 329.093C156.675 328.372 156.973 327.996 157.89 327.784C158.541 329.035 159.264 330.306 159.885 331.645C163.319 339.261 164.962 347.563 164.688 355.914C164.437 365.933 163.176 375.901 160.922 385.667C160.805 386.167 160.729 386.669 160.628 387.178C160.695 387.165 160.757 387.135 160.808 387.09C160.859 387.046 160.897 386.988 160.919 386.924C161.027 386.734 161.126 386.559 161.108 386.297C163.618 376.665 165.024 366.778 165.3 356.829C165.804 346.987 163.634 337.194 159.019 328.489C158.956 328.301 158.912 328.108 158.887 327.911L158.896 327.895ZM157.247 446.717C157.247 446.717 157.247 446.717 157.301 446.622C157.413 446.204 157.525 445.785 157.653 445.376C159.126 440.762 160.775 436.206 162.031 431.531C164.351 422.848 166.454 414.105 168.551 405.337C170.573 397.03 172.451 388.683 173.757 380.199C175.032 372.64 175.337 364.949 174.665 357.313C174.251 351.913 172.96 346.618 170.843 341.634C169.277 338.296 167.43 335.098 165.32 332.075C165.113 331.782 164.922 331.477 164.75 331.163L164.953 331.027C165.688 331.613 166.401 332.165 167.15 332.801C173.399 337.889 177.389 345.238 178.254 353.253C178.636 356.371 178.726 359.518 178.522 362.653C178.004 369.139 177.413 375.604 176.75 382.049C175.941 388.059 175.742 394.136 176.156 400.186C176.853 408.845 177.107 417.535 176.914 426.222C176.945 429.843 176.518 433.454 175.641 436.968C174.909 440.067 173.626 443.009 171.852 445.654C171.219 446.554 170.393 447.303 169.436 447.846C168.478 448.389 167.412 448.713 166.314 448.794C167.791 443.187 168.929 437.497 169.721 431.754C169.397 432.677 169.133 433.62 168.933 434.577C167.902 439.003 166.888 443.438 165.858 447.863C165.758 448.201 165.64 448.532 165.503 448.856C163.938 448.927 162.376 448.654 160.928 448.057C159.72 447.6 158.526 447.194 157.238 446.733L157.247 446.717ZM147.501 442.996C147.997 442.125 148.402 441.412 148.862 440.604C150.107 437.937 151.321 435.251 152.519 432.556C153.717 429.862 154.854 427.384 155.878 424.737C157.516 420.581 159.091 416.388 160.603 412.16C163.194 404.932 165.359 397.558 167.089 390.078C169.463 380.441 170.756 370.57 170.944 360.648C171.209 352.718 170.029 344.806 167.462 337.299C167.434 337.192 167.426 337.081 167.439 336.971C167.735 337.271 167.986 337.611 168.184 337.982C171.447 343.879 173.399 350.412 173.908 357.134C174.536 364.114 174.335 371.144 173.309 378.078C172.252 385.865 170.556 393.561 168.772 401.227C165.738 415.471 161.986 429.553 157.53 443.419C157.126 444.572 156.784 445.762 156.409 446.974C153.098 446.607 149.983 445.223 147.492 443.012L147.501 442.996ZM75.3579 319.306C76.8064 313.551 79.7009 308.261 83.7666 303.938C82.704 304.877 81.7208 305.903 80.827 307.004C77.8772 310.72 75.7783 315.038 74.6783 319.653C73.2891 319.995 71.9542 320.389 70.5942 320.642C68.588 321.048 66.5213 321.048 64.5153 320.644C63.7171 320.514 62.9922 320.102 62.4729 319.482C61.8859 318.852 61.4802 318.075 61.2986 317.234C61.1171 316.392 61.1664 315.517 61.4415 314.701C61.8127 313.534 62.3278 312.418 62.975 311.379C65.442 307.652 68.7372 304.546 72.6028 302.304C77.1459 299.701 82.119 297.935 87.2853 297.09C87.4701 297.078 87.6558 297.085 87.839 297.112C78.1246 301.587 70.4132 307.957 65.6175 317.454C66.022 316.994 66.3871 316.5 66.7089 315.978C68.1569 313.621 69.8141 311.398 71.6606 309.338C75.3375 305.317 79.6843 301.965 84.5073 299.431C88.264 297.265 92.5018 296.072 96.8356 295.961C97.1294 295.96 97.4368 296.009 97.8436 296.031C90.4882 300.339 86.7863 307.103 84.3106 314.732C81.4296 316.483 78.4175 318.008 75.3014 319.294L75.3579 319.306ZM126.422 323.049L126.313 323.239L125.145 323.119C121.884 322.713 118.687 321.895 115.632 320.684C112.818 319.461 109.818 318.719 106.759 318.487C102.642 318.28 98.5152 318.58 94.4713 319.381C90.737 320.087 87.0279 320.934 83.2977 321.412C79.5676 321.89 75.8326 322.155 72.0796 322.452C70.8944 322.553 69.7007 322.462 68.5448 322.182C68.6586 322.082 68.8026 322.024 68.9536 322.016C72.9717 321.764 76.8845 320.624 80.4099 318.678C82.7174 317.496 84.9728 316.22 87.2509 314.979C91.674 312.519 96.6431 311.207 101.703 311.165C106.89 310.906 112.013 312.396 116.252 315.396C117.4 316.291 118.484 317.265 119.497 318.312C121.186 319.984 123.149 321.356 125.3 322.368C125.668 322.569 126.024 322.793 126.365 323.038L126.422 323.049ZM111.64 297.862C117.132 302.392 119.589 308.424 120.545 315.364C119.924 314.996 119.337 314.571 118.794 314.095C117.377 312.832 115.745 311.832 113.976 311.144C111.007 310.122 107.904 309.543 104.767 309.427L103.474 309.342C104.899 305.207 105.725 300.889 105.928 296.52L107.085 296.696L107.704 299.292L107.869 299.26L107.722 296.828C110.936 296.853 112.162 299.082 113.264 301.491C113.085 300.127 112.51 298.845 111.611 297.804L111.64 297.862ZM96.8733 302.525C97.3739 301.866 97.8836 301.191 98.4068 300.566C99.6248 298.965 101.18 297.652 102.963 296.721C103.296 296.523 103.668 296.399 104.053 296.358C104.438 296.316 104.828 296.358 105.195 296.481C105.062 300.866 104.287 305.208 102.893 309.368C98.6809 309.537 94.5115 310.283 90.5018 311.586C90.9895 310.006 91.5936 308.465 92.309 306.974C93.5304 304.445 95.0442 302.069 96.8194 299.894C97.8711 298.541 99.2131 297.441 100.746 296.676C101.008 296.503 101.303 296.386 101.611 296.331C101.92 296.276 102.237 296.284 102.542 296.356C100.103 297.812 98.1267 299.931 96.8439 302.466L96.8733 302.525ZM99.4893 296.38C94.8392 300.544 91.4829 305.957 89.82 311.974C89.0072 312.372 88.2191 312.762 87.4242 313.128C86.6324 313.603 85.7997 314.006 84.9359 314.333C86.458 309.578 88.9537 305.192 92.2639 301.454C93.7598 299.652 95.6115 298.178 97.703 297.125C98.1882 296.751 98.8432 296.558 99.4598 296.321L99.4893 296.38Z" fill="#868C96"/>
<path opacity="0.85" d="M139.82 333.462C139.668 333.592 139.534 333.741 139.421 333.906C138.321 335.839 137.048 337.672 135.916 339.587C134.041 342.882 131.961 346.06 130.134 349.382C128.306 352.704 126.322 356.524 124.511 360.149C123.123 362.883 121.808 365.636 120.574 368.394C119.072 371.734 117.681 375.136 116.179 378.623C114.457 382.669 112.956 386.807 111.684 391.017C111.238 392.538 110.804 394.074 110.383 395.624C110.339 395.754 110.322 395.892 110.335 396.029C110.347 396.166 110.388 396.299 110.455 396.42L110.841 395.298C112.08 390.927 113.549 386.625 115.241 382.409C116.648 379.015 118.039 375.612 119.579 372.169C121.119 368.725 122.88 365.114 124.572 361.589C127.339 355.803 130.295 350.166 133.558 344.579C135.451 341.252 137.455 337.988 139.42 334.682L140.06 333.557L139.82 333.462Z" fill="#868C96"/>
<path opacity="0.85" d="M83.9076 373.346C90.334 364.853 97.6351 357.058 105.691 350.091C104.971 349.808 104.773 350.156 104.525 350.371C101.301 353.423 97.9926 356.364 94.8747 359.56C92.2329 362.251 89.8126 365.068 87.4082 367.894C86.1271 369.408 85.0158 371.104 83.8524 372.707C83.7562 372.84 83.6746 372.984 83.609 373.134L83.9076 373.346Z" fill="#868C96"/>
</g>
</g>
</g>
<defs>
<clipPath id="clip0_37_162">
<rect width="174.569" height="480.066" fill="white" transform="matrix(0.86916 0.49453 0.49453 -0.86916 0.789795 396.766)"/>
</clipPath>
</defs>
</svg>
