<svg width="152" height="353" viewBox="0 0 152 353" fill="none" xmlns="http://www.w3.org/2000/svg">
<path opacity="0.9" d="M11.716 70.1533L15.581 71.2006C15.2431 70.2546 14.9999 69.5114 14.7296 68.7512C11.0008 58.8971 9.20342 48.0746 9.4862 37.1795C9.5215 33.9278 9.97787 30.7047 10.8376 27.6353C11.2147 26.3101 11.6992 25.0366 12.2836 23.8346C13.0645 22.2824 14.2192 21.0798 15.5814 20.3999C16.9437 19.7199 18.4434 19.5977 19.8648 20.0507C23.3628 21.0524 26.4786 23.5276 28.6894 27.061C29.1894 27.8042 29.6624 28.5982 30.2705 29.5441C30.4722 29.0986 30.6484 28.6357 30.7976 28.159C31.5446 24.8682 33.1439 21.9801 35.3449 19.9473C37.5458 17.9145 40.2241 16.8517 42.96 16.9256C43.3512 16.8829 43.7446 16.8829 44.1357 16.9256C44.7806 17.0559 45.442 16.9344 46.0297 16.5777C46.6173 16.221 47.1027 15.6464 47.4196 14.9323C50.1223 9.96595 54.1765 7.87129 58.9199 7.44898C59.1287 7.1783 59.3228 6.8905 59.501 6.58748C64.2173 -1.65597 72.5689 0.168401 76.6771 4.89825C77.9493 6.48551 79.0243 8.30185 79.8663 10.2869C80.0983 10.9011 80.4266 11.4508 80.8318 11.9033C81.237 12.3558 81.7109 12.7018 82.2252 12.9209C82.7396 13.1399 83.2839 13.2275 83.8258 13.1783C84.3677 13.1292 84.8963 12.9444 85.38 12.6349C87.1608 11.4753 89.1111 10.7787 91.1132 10.587C93.1153 10.3954 95.1277 10.7128 97.0289 11.52C100.002 12.8545 102.07 15.2532 102.259 19.4932C102.293 19.9879 102.375 20.4757 102.502 20.946C102.502 21.0473 102.637 21.1318 102.745 21.2669C103.232 20.4899 103.678 19.6959 104.191 18.9696C104.67 18.2441 105.318 17.7238 106.045 17.4815C106.772 17.2392 107.541 17.287 108.245 17.6182C109.691 18.1925 111.164 18.7668 112.556 19.5101C115.921 21.3007 118.381 23.919 117.665 29.3583C118.524 28.8675 119.404 28.4333 120.3 28.0576C122.172 27.4416 124.157 27.6473 125.923 28.6403C127.689 29.6334 129.129 31.3536 130.003 33.5138C131.131 36.4339 131.818 39.5894 132.03 42.8215C133.205 53.8691 131.232 64.2579 127.746 74.3088C127.368 75.3899 126.989 76.4541 126.395 77.9913C127.246 77.6028 127.746 77.3832 128.232 77.1298C130.875 75.6728 133.792 75.1695 136.651 75.6771C139.164 76.164 141.511 77.5485 143.408 79.6637C144.277 80.6629 145.364 81.3157 146.53 81.5387C147.583 81.754 148.613 82.1225 149.598 82.6367C150.264 83.0089 150.859 83.5562 151.341 84.2415C151.569 84.5348 151.746 84.8851 151.858 85.2694C151.971 85.6538 152.017 86.0635 151.994 86.4718C151.971 86.88 151.879 87.2777 151.725 87.6386C151.57 87.9994 151.357 88.3155 151.098 88.5659C149.98 89.7672 148.628 90.5773 147.179 90.9139C144.611 91.6741 142.016 92.4005 139.462 93.2282C133.328 95.4481 127.551 98.9926 122.394 103.701C119.692 105.965 117.124 108.33 114.448 110.56C110.491 114.09 106.048 116.679 101.34 118.195C99.5455 118.845 97.6598 119 95.8127 118.651C95.2601 118.568 94.6996 118.673 94.191 118.955C90.9174 120.537 87.4105 121.222 83.907 120.965C82.2109 120.862 80.5154 121.183 78.9203 121.911C77.5138 122.569 76.2407 123.606 75.1918 124.949C74.143 126.292 73.3443 127.908 72.8526 129.682C71.9157 132.783 71.4128 136.063 71.3661 139.378C70.9066 150.223 70.4787 161.068 70.0823 171.913C69.785 180.156 69.4607 188.4 69.3256 196.643C69.1454 208.287 69.0598 219.926 69.0688 231.559C69.0785 241.619 69.6882 251.664 70.8931 261.611C71.9327 269.547 72.4749 277.573 72.5148 285.615C72.5148 291.375 71.9472 297.135 71.5013 302.879C71.0553 308.622 70.4742 314.366 69.9742 320.109C69.5868 324.614 69.2264 329.118 68.8931 333.623C68.5688 338.049 68.2039 342.457 68.0147 346.9C67.7849 352.458 67.7038 358.032 67.5822 363.607C67.6193 372.281 68.3573 380.929 69.785 389.418C71.3391 400.246 73.758 410.804 75.8527 421.514C77.6829 430.899 78.7916 440.481 79.1636 450.129C79.4609 457.663 79.7987 465.197 80.0014 472.748C80.1727 479.447 79.9106 486.153 79.2176 492.799C77.5989 507.04 76.7816 521.406 76.7716 535.79C76.9019 544.602 77.5341 553.392 78.6636 562.091C79.2987 567.159 80.015 572.227 80.7717 577.295C80.8528 577.903 80.8799 578.528 80.9474 579.288H79.9204C79.5825 577.21 79.2177 575.149 78.9203 573.088C77.4892 563.816 76.4876 554.447 75.9203 545.03C75.6636 540.25 75.596 535.452 75.65 530.655C75.65 525.232 75.8662 519.793 76.2041 514.388C76.5554 508.56 77.0555 502.732 77.6636 496.938C78.744 487.01 79.0968 476.979 78.7176 466.971C78.4744 460.923 78.1771 454.859 77.9068 448.812C77.3576 437.268 75.808 425.832 73.2851 414.706C70.8154 403.629 68.8616 392.382 67.4336 381.023C66.4011 372.79 66.0885 364.441 66.5011 356.123C66.8255 349.941 67.0012 343.741 67.3796 337.542C67.6769 332.474 68.1633 327.406 68.5822 322.339C69.0552 316.731 69.5688 311.122 70.0417 305.531C70.4336 301.038 70.785 296.561 71.1634 292.017C71.5579 286.249 71.4582 280.444 70.8661 274.702C70.1633 266.02 68.9876 257.371 68.5011 248.671C68.0146 239.972 68.0282 230.765 67.9201 221.813C67.9201 216.171 67.9201 210.528 68.0147 204.92C68.2849 193.653 68.6228 182.369 68.9742 171.136C69.312 160.493 69.7174 149.851 70.1093 139.226C70.3462 135.994 70.2235 132.737 69.7445 129.547C69.2624 126.625 67.9701 124.011 66.0957 122.165C62.9065 118.972 59.1361 117.756 55.2846 116.523C49.0818 114.546 42.7708 113.06 36.7166 110.289C22.7433 103.887 11.9998 92.5187 3.81036 77.1805C1.76441 73.7772 0.515236 69.7301 0.202189 65.491C0.147528 64.5087 0.188404 63.5218 0.32385 62.5518C0.350752 62.1424 0.453357 61.7464 0.623589 61.395C0.793821 61.0437 1.02703 60.7465 1.30481 60.527C1.58259 60.3076 1.89729 60.1718 2.22423 60.1303C2.55117 60.0889 2.8814 60.1429 3.18878 60.2882C3.94754 60.5497 4.66819 60.9602 5.32391 61.5044C7.23295 63.1533 8.89755 65.2055 10.243 67.5688C10.7565 68.4641 11.243 69.3256 11.716 70.1533ZM94.1505 50.2879C94.1505 48.9365 93.9748 46.3351 93.8667 43.7337C93.6436 37.3996 92.683 31.1399 91.0153 25.1522C90.3513 22.9096 89.4709 20.7766 88.3936 18.8006C87.7621 17.5367 86.9125 16.4651 85.9072 15.6643C84.9018 14.8635 83.7659 14.3537 82.5826 14.1721C81.7947 14.0825 81.0426 13.7183 80.412 13.1211C79.7813 12.5239 79.2973 11.7175 79.015 10.7937C78.2916 8.63661 77.1444 6.74253 75.6799 5.28682C74.2153 3.83111 72.4806 2.86081 70.6364 2.46575C68.2524 1.69352 65.7215 2.11386 63.5815 3.63744C61.4416 5.16101 59.8613 7.66771 59.1766 10.6247C58.9127 11.9241 58.5786 13.1996 58.1766 14.4424C57.5715 16.0119 56.8474 17.5052 56.0144 18.902C54.663 21.2669 52.9873 23.446 51.5819 25.8278C50.3087 27.9963 49.4448 30.4969 49.0548 33.1422C47.8751 41.1434 48.1382 49.3727 49.825 57.2307C51.298 64.393 52.5278 71.606 53.4602 78.9204C54.122 84.9198 55.2443 90.8255 56.8117 96.556C58.3503 102.387 60.632 107.868 63.5686 112.79C64.5618 114.474 65.9966 115.67 67.6228 116.168C69.2263 116.63 70.9043 116.471 72.4337 115.712C75.6825 114.153 78.6514 111.803 81.1683 108.799C83.6852 105.795 85.7001 102.196 87.0962 98.2114C89.0308 92.8827 90.5032 87.3102 91.4882 81.5894C93.1938 71.2913 94.063 60.8043 94.0828 50.2879H94.1505ZM75.8122 115.475C75.8005 115.974 75.9293 116.462 76.1763 116.855C76.4234 117.247 76.7728 117.518 77.1636 117.621C81.3175 119.719 85.8815 120.202 90.2585 119.006C97.0731 116.853 103.323 112.522 108.394 106.438C117.452 95.7284 124.392 82.531 128.665 67.8897C131.571 58.6412 132.206 48.5199 130.489 38.818C130.127 36.7581 129.482 34.7921 128.584 33.0071C127.995 31.8373 127.194 30.8572 126.246 30.1462C125.298 29.4352 124.23 29.0133 123.127 28.9146C122.024 28.8159 120.918 29.0432 119.899 29.5781C118.879 30.113 117.975 30.9405 117.259 31.9935C116.585 32.8464 115.975 33.7736 115.435 34.7639C114.909 35.8579 114.163 36.7609 113.272 37.3832C112.381 38.0055 111.375 38.3255 110.354 38.3113C110.02 38.3433 109.689 38.4169 109.367 38.5309C103.326 40.2201 99.0019 44.7979 95.7181 51.1156C95.407 51.7768 95.2393 52.5278 95.2316 53.2947C95.1062 60.1243 94.655 66.9383 93.8802 73.7007C92.9148 82.4427 90.9723 90.9721 88.1097 99.0391C85.8234 105.387 82.0547 110.722 77.2987 114.344C76.596 114.648 76.1636 115.104 75.7446 115.475H75.8122ZM64.5957 116.641C63.1362 114.428 61.6631 112.148 60.1361 109.884C57.5144 106.016 54.7306 102.266 52.244 98.3128C50.7658 95.9177 49.4117 93.4069 48.1899 90.7957C47.0171 88.2974 46.2817 85.5163 46.0325 82.6364C45.7832 79.7565 46.0257 76.8433 46.7439 74.0892C47.1088 72.4 47.6088 70.8797 48.0142 69.2749C48.8271 66.4878 49.1586 63.5172 48.9871 60.5584C48.4743 55.0522 46.8155 49.8102 44.1762 45.3554C42.1361 41.7418 39.1476 39.1358 35.7301 37.9903C33.8053 37.3636 32.1579 35.8085 31.1489 33.6659C30.179 31.6785 29.1139 29.7662 27.9596 27.9394C25.882 24.4564 22.8514 22.0512 19.4459 21.1824C18.3155 20.8144 17.1207 20.9058 16.0346 21.4434C14.9485 21.9809 14.0276 22.9368 13.4052 24.1724C12.57 25.756 11.9406 27.4949 11.5403 29.3246C10.4049 35.0883 10.189 41.0752 10.9051 46.9432C11.7133 55.4277 13.7705 63.6519 16.9728 71.2006C17.3935 72.1844 17.9845 73.0385 18.7027 73.7007C21.9392 76.6793 24.9152 80.0766 27.5813 83.8361C30.1489 87.5017 32.6625 91.218 35.1896 94.9174C38.1086 99.225 40.9599 103.583 43.9465 107.823C44.8541 109.18 45.9478 110.324 47.1763 111.202C52.0667 114.266 57.2956 116.401 62.6902 117.536C63.0324 117.669 63.4006 117.653 63.7345 117.491C64.0684 117.328 64.3482 117.028 64.5281 116.641H64.5957ZM1.75631 61.6902C1.46301 62.2191 1.25592 62.8151 1.14694 63.444C1.03796 64.073 1.02918 64.7227 1.12112 65.3559C1.36403 68.9548 2.37182 72.4073 4.04016 75.3561C8.45064 84.0796 14.0648 91.7551 20.6216 98.0256C27.9824 104.705 36.2855 109.588 45.0951 112.418C45.3852 112.439 45.6761 112.41 45.9601 112.333L44.8249 110.813C43.8249 109.479 42.7708 108.212 41.8248 106.81C38.2977 101.59 34.8247 96.3026 31.284 91.0829C27.9832 85.8932 24.2855 81.1183 20.2432 76.8258C17.6621 74.2581 15.0539 71.5722 11.3105 71.5722C10.797 70.6938 10.243 69.7141 9.67541 68.7681C8.28321 66.2792 6.55455 64.1128 4.56713 62.3659C4.18646 61.9566 3.72675 61.6789 3.23365 61.5604C2.74055 61.4418 2.23129 61.4866 1.75631 61.6902ZM97.5289 117.182L97.61 117.705C98.8668 117.435 100.137 117.266 101.367 116.877C105.884 115.307 110.143 112.75 113.948 109.327C116.651 107.046 119.354 104.681 122.057 102.333C129.054 96.091 137.07 91.8625 145.53 89.9511C146.938 89.6283 148.303 89.0597 149.584 88.2619C151.557 86.9781 151.49 84.9847 149.463 83.7854C148.281 83.1374 147.036 82.6886 145.76 82.4509C144.809 82.2851 143.919 81.7674 143.206 80.9644C138.57 75.8967 133.435 75.4744 127.962 78.5825C126.258 79.5526 124.841 81.1653 123.908 83.1942C121.651 87.8058 119.3 92.3836 116.705 96.708C111.881 105.194 105.463 112.068 98.0154 116.725C97.8428 116.859 97.68 117.012 97.5289 117.182ZM95.2316 49.0548L96.664 46.8588C99.9444 41.4583 104.804 37.9045 110.178 36.9768C111.068 36.8692 111.926 36.5089 112.687 35.9233C113.448 35.3378 114.092 34.5425 114.57 33.5983C114.759 33.2605 114.989 32.9395 115.192 32.6016C117.516 28.8347 117.246 23.7839 113.394 21.4189C111.678 20.3885 109.84 19.7297 108.07 18.8006C107.469 18.4616 106.79 18.4084 106.161 18.651C105.531 18.8937 104.994 19.4154 104.651 20.1182C104.064 21.2268 103.583 22.4174 103.218 23.6656C102.894 24.6285 102.799 25.7096 102.516 26.7062C102.421 27.061 102.11 27.3313 101.624 28.0238C101.515 26.8921 101.421 26.3346 101.394 25.6927C101.394 24.0035 101.272 22.3142 101.272 20.625C101.272 16.233 99.5425 13.9525 96.3937 12.4998C93.2074 11.1798 89.7438 11.3722 86.6638 13.0404C86.2709 13.2674 85.8955 13.5388 85.5422 13.8512C88.3817 16.0968 90.5151 19.4974 91.5828 23.4798C92.9399 28.0264 93.8476 32.7632 94.2856 37.5849C94.7045 41.2168 94.9072 44.8655 95.2316 49.0548ZM47.379 49.173C47.379 45.5919 47.379 42.0107 47.379 38.4295C47.3329 33.7466 48.4057 29.153 50.4602 25.2366C51.8263 22.736 53.3492 20.3749 55.0144 18.1756C57.0549 15.5235 57.4604 12.1788 58.3523 8.90172C58.1236 8.81692 57.8878 8.7659 57.6496 8.7497C55.8736 8.94798 54.1513 9.61333 52.5956 10.7021C51.0398 11.7909 49.6858 13.2786 48.6223 15.0674C48.101 16.1457 47.3415 17.0127 46.4352 17.5642C45.529 18.1156 44.5146 18.3279 43.5141 18.1756C40.7837 17.9576 38.0799 18.9563 35.8829 20.9944C33.6859 23.0324 32.1378 25.9779 31.5138 29.3076C31.2898 30.1638 31.2898 31.0867 31.5138 31.9428C31.8868 33.0834 32.4609 34.104 33.1932 34.9287C33.9256 35.7535 34.7974 36.3612 35.7436 36.7065C37.984 37.4615 40.0788 38.7757 41.902 40.5698C43.7252 42.364 45.239 44.6009 46.352 47.1459C46.7304 47.8554 47.0817 48.548 47.379 49.173ZM58.1901 106.033L58.5145 105.712C58.3793 105.272 58.2442 104.833 58.0955 104.394C57.1901 101.59 56.1901 98.8364 55.3928 95.9479C53.2846 88.4814 52.5008 80.6434 51.4197 72.8898C51.0143 69.9506 50.5008 67.0113 49.9737 63.6329C49.6359 64.2917 49.4737 64.4944 49.4331 64.7478C48.7574 67.7884 48.0818 70.8459 47.4331 73.8696C46.6807 76.6082 46.4202 79.5204 46.6701 82.3991C46.9201 85.2778 47.6743 88.0523 48.8791 90.5254C50.2305 93.262 51.744 95.9141 53.2981 98.4986C54.8522 101.083 56.6225 103.533 58.2036 106.033H58.1901Z" fill="#868C96"/>
</svg>
