<svg width="423" height="510" viewBox="0 0 423 510" fill="none" xmlns="http://www.w3.org/2000/svg">
<g clip-path="url(#clip0_37_170)">
<g opacity="0.85">
<path d="M44.2563 297.709C43.5447 298.038 42.8422 298.351 42.1984 298.635C40.3238 299.568 38.7377 300.992 37.6096 302.757C35.8438 305.6 34.9198 308.885 34.945 312.231C35.0013 314.165 35.6864 316.027 36.8963 317.536L37.6124 318.489L36.5646 319.151C34.555 320.277 32.745 321.728 31.2074 323.444C29.9142 324.877 29.0042 326.613 28.562 328.492C28.1199 330.371 28.1599 332.331 28.6784 334.19C29.6641 338.332 32.2431 341.917 35.8558 344.168C38.198 345.666 40.7503 346.807 43.4286 347.554L44.9849 348.062C44.7054 348.553 44.48 348.949 44.2547 349.345C42.423 352.512 41.1619 355.976 40.5289 359.579C39.6501 364.6 40.3685 369.769 42.5828 374.359C44.0884 377.678 46.5541 380.469 49.6618 382.372C51.2548 383.418 53.0405 384.134 54.9143 384.48C56.7881 384.826 58.7121 384.794 60.5735 384.386C62.309 383.989 64.0217 383.411 65.7299 382.915C66.1629 382.755 66.6269 382.696 67.0861 382.743C66.8698 383.123 66.5018 383.438 66.2221 383.783C65.388 384.761 64.8136 385.933 64.5519 387.192C64.2902 388.451 64.3496 389.755 64.7246 390.984C65.1937 392.468 66.1483 393.75 67.4348 394.624C69.3322 396.113 71.4707 397.266 73.7574 398.032L74.7959 398.456C74.6822 398.859 74.5355 399.253 74.3571 399.632C73.7095 400.703 73.3679 401.93 73.3697 403.181C73.3715 404.432 73.7166 405.659 74.3673 406.727C75.2531 408.734 76.57 410.522 78.2244 411.963C80.3574 413.707 82.9496 414.795 85.6881 415.098L86.5564 415.193C88.5052 415.253 90.3626 416.033 91.7691 417.383C93.8426 419.21 96.4017 420.397 99.1361 420.799C100.3 421.048 101.502 421.061 102.671 420.836C103.84 420.611 104.952 420.154 105.941 419.49C106.11 419.377 106.311 419.281 106.555 419.148L107.21 419.73C109.286 421.936 112.15 423.234 115.178 423.341C117.589 423.488 120.008 423.234 122.337 422.59C126.673 421.42 131.067 420.476 135.501 419.761L136.565 419.548C140.386 418.907 143.817 416.83 146.159 413.744C148.189 411.208 150.133 408.601 152.093 406.004C158.091 398.091 164.081 390.18 170.063 382.272C173.721 377.39 177.497 372.596 180.899 367.464C183.758 363.141 186.324 358.631 188.58 353.965C191.038 348.753 192.23 343.035 192.057 337.276C192.034 332.519 191.442 327.781 190.294 323.164C189.719 321.054 189.032 318.977 188.237 316.939C187.473 314.921 187.063 312.787 187.025 310.629C187.014 309.306 187.317 307.998 187.91 306.815C188.503 305.632 189.369 304.606 190.436 303.824C192.879 301.952 195.63 300.522 198.565 299.598C203.423 297.915 208.353 296.4 213.218 294.742C240.013 285.468 266.067 274.175 291.154 260.959C318.946 246.479 345.537 229.803 370.674 211.087C387.793 198.434 403.96 184.542 419.046 169.522C426.467 162.124 433.465 154.314 440.01 146.13C442.435 143.085 444.681 139.874 447.122 136.837C450.288 132.635 453.203 128.25 455.852 123.704C459.727 117.52 463.555 111.308 467.408 105.237C469.556 102.06 471.961 99.0656 474.6 96.283C481.287 88.8042 487.991 81.3345 494.64 73.8128C503.454 63.7985 510.972 52.7145 517.018 40.8222C518.999 36.9717 520.96 33.131 522.902 29.3001C523.082 28.9004 523.232 28.4883 523.352 28.0669C522.605 27.3901 522.273 27.3478 521.826 27.9116C521.527 28.3269 521.273 28.7732 521.069 29.2426C517.835 35.331 514.665 41.4553 511.359 47.5235C507.194 55.1122 502.244 62.243 496.591 68.7987C491.529 74.7481 486.271 80.5238 481.091 86.3853C477.309 90.6727 473.449 94.9151 469.776 99.3062C467.786 101.687 465.968 104.206 464.334 106.844C459.478 114.568 454.796 122.391 450.001 130.044C448.5 132.462 446.754 134.72 445.04 136.995C442.475 140.36 439.777 143.628 437.244 147.011C433.579 151.74 429.66 156.266 425.503 160.57C409.981 177.007 393.113 192.119 375.075 205.747C343.186 230.028 308.906 250.995 272.767 268.324C250.309 279.267 227.109 288.613 203.338 296.294C202.392 296.595 201.431 296.845 200.523 297.188C197.394 298.218 194.145 298.837 190.857 299.029C190.787 299.044 190.715 299.045 190.645 299.034C186.314 299.09 182.072 297.804 178.5 295.354C177.051 294.284 175.999 292.764 175.508 291.03C174.513 287.472 173.026 284.07 171.089 280.923C169.272 277.958 166.821 275.431 163.912 273.526C156.855 268.728 148.513 266.175 139.98 266.201C134.581 266.255 129.165 266.34 123.789 266.574C112.274 267.132 100.747 267.6 89.2077 267.39C83.5459 267.447 77.8948 267.897 72.2951 268.736C70.2654 268.986 68.2334 269.278 66.2242 269.603C62.8347 270.214 59.5957 271.477 56.6859 273.32C55.0435 274.357 53.6464 275.739 52.5916 277.37C51.5369 279.001 50.8499 280.842 50.5782 282.765C50.3626 283.84 50.4554 284.955 50.8461 285.979C51.0164 286.324 51.0569 286.719 50.9605 287.092C50.864 287.464 50.637 287.789 50.3206 288.008C48.0183 290.163 46.2043 292.785 45.0011 295.699C44.7852 296.374 44.5989 297.106 44.2563 297.709ZM45.7357 307.234C44.9506 304.722 44.8855 302.04 45.548 299.492C46.4539 296.281 48.0066 293.289 50.1106 290.699C51.0213 289.473 52.3376 288.609 53.8252 288.262C60.1168 286.934 66.3424 285.316 72.6186 284.273C84.2625 282.236 95.8931 280.443 107.535 278.593C116.269 277.132 125.108 276.388 133.964 276.369C142.397 276.232 150.806 277.282 158.946 279.489C162.31 280.335 165.507 281.743 168.403 283.653C170.23 284.988 171.706 286.745 172.705 288.775C173.705 290.805 174.199 293.047 174.144 295.309C173.955 295.182 173.774 295.045 173.603 294.896C170.804 292.326 167.602 290.235 164.124 288.706C160.502 287.065 156.67 285.936 152.737 285.352C145.295 284.253 137.753 284.008 130.255 284.62C121.655 285.218 113.102 286.355 104.644 288.023C96.149 289.649 87.631 291.242 79.1949 293.132C72.9328 294.519 66.8389 296.421 60.5569 298.027C60.5569 298.027 60.4758 298.17 60.3515 298.204C61.7269 298.038 63.0902 297.784 64.433 297.443C72.3761 295.461 80.2714 293.304 88.3239 291.867C97.407 290.239 106.474 288.456 115.598 286.977C124.637 285.443 133.807 284.821 142.97 285.122C150.429 285.158 157.8 286.732 164.623 289.745C167.931 291.284 170.954 293.373 173.564 295.922C174.157 296.512 174.546 297.276 174.672 298.103C174.798 298.93 174.655 299.776 174.264 300.515C174.264 300.515 174.201 300.626 174.065 300.57C173.844 300.574 173.623 300.554 173.407 300.51C166.304 299.381 159.1 299.03 151.921 299.464C143.217 300.039 134.556 301.134 125.982 302.744C119.62 303.864 113.281 305.165 106.921 306.244C98.8379 307.499 90.823 309.162 82.9073 311.227C80.5957 311.862 78.2658 312.382 75.9247 312.959C76.1539 313.053 76.4073 313.073 76.6482 313.014C78.5714 312.619 80.5105 312.233 82.4269 311.813C86.2777 310.942 90.1055 309.89 93.9544 309.206C105.069 307.141 116.176 305.162 127.276 303.27C134.818 301.888 142.426 300.903 150.071 300.32C157.609 299.746 165.187 300.027 172.662 301.156L173.962 301.414C173.777 301.977 173.442 302.48 172.992 302.867C172.543 303.254 171.996 303.512 171.411 303.612C170.505 303.767 169.59 303.792 168.713 304.006C165.271 304.858 161.83 305.71 158.422 306.687C155.695 307.463 152.999 308.405 150.299 309.28C145.139 310.904 139.826 311.993 134.444 312.528C129.308 312.979 124.134 312.638 119.103 311.518C116.696 311.045 114.218 311.062 111.818 311.568C107.954 312.352 104.14 313.369 100.398 314.614L92.4088 317.304C85.7134 319.533 78.744 320.832 71.6958 321.165C68.5176 321.335 65.3305 321.12 62.2039 320.526C57.6102 319.687 53.3762 317.483 50.0548 314.2C49.8048 313.939 49.5689 313.665 49.348 313.379C51.481 312.726 53.5664 312.046 55.6565 311.431C57.8111 310.937 59.9183 310.255 61.9537 309.393C57.4881 310.313 53.0386 311.389 48.6819 312.559C47.3874 311.327 46.497 309.73 46.1282 307.981L46.7269 307.776C53.4539 305.787 60.2939 304.202 67.2101 303.029C68.643 302.796 70.06 302.553 71.4973 302.239C71.7037 302.163 71.9008 302.064 72.0846 301.944C63.1449 302.864 54.315 304.646 45.7177 307.265L45.7357 307.234ZM184.619 315.447L184.889 315.894C187.402 320.69 188.217 326.195 187.2 331.513C185.982 337.374 183.935 343.032 181.121 348.315C178.604 353.193 175.627 357.82 172.231 362.134C169.97 365.126 167.651 368.071 165.275 370.97C161.65 375.388 157.986 379.763 154.313 384.154C151.66 387.343 148.968 390.489 146.3 393.668C142.976 397.629 139.685 401.608 136.346 405.56C132.579 410.044 128.806 414.525 125.028 419.003C124.641 419.609 124.106 420.106 123.472 420.446C120.535 421.462 117.414 421.832 114.321 421.531C112.707 421.304 111.173 420.693 109.846 419.748C108.519 418.802 107.439 417.552 106.698 416.102C105.956 414.651 105.574 413.043 105.584 411.414C105.595 409.785 105.997 408.182 106.757 406.741C108.299 404.077 110.176 401.62 112.342 399.432C115.224 396.541 118.199 393.745 121.103 390.889C130.582 381.6 139.427 371.657 148.434 361.87C153.107 356.79 157.626 351.538 162.152 346.31C164.841 343.205 167.47 340.024 169.971 336.77C172.078 334.025 173.997 331.132 175.938 328.273C179.049 323.76 181.297 318.71 182.567 313.378L182.828 312.478L183.115 312.452C183.243 312.965 183.445 313.458 183.523 313.984C183.805 316.561 183.615 319.168 182.962 321.677C181.564 327.235 179.437 332.584 176.637 337.584C173.89 342.818 170.791 347.858 167.361 352.672C165.532 355.26 163.782 357.893 161.858 360.426C159.589 363.456 157.25 366.425 154.841 369.332C151.68 373.155 148.535 376.987 145.205 380.629C139.966 386.373 134.554 391.977 129.229 397.651C128.778 398.15 128.31 398.639 127.843 399.128C128.1 399.117 128.343 399.007 128.521 398.822C130.476 396.934 132.462 395.065 134.378 393.135C140.175 387.331 145.692 381.284 150.967 375.035C153.449 372.148 155.869 369.184 158.258 366.201C159.972 364.072 161.66 361.844 163.236 359.7C164.813 357.556 166.15 355.611 167.584 353.533C169.018 351.454 170.748 349.041 172.184 346.628C175.194 341.878 177.861 336.919 180.165 331.789C181.054 329.674 181.903 327.556 182.656 325.384C183.755 322.187 184.41 318.854 184.601 315.479L184.619 315.447ZM41.921 363.139L43.2993 362.707C51.5557 360.211 59.8304 357.83 67.9527 354.943C79.2561 350.887 90.3782 346.56 101.216 341.443C109.809 337.397 118.375 333.399 127.045 329.439C138.105 324.395 149.462 320.028 161.053 316.363C161.323 316.278 161.6 316.211 161.88 316.163C161.371 316.613 160.807 316.997 160.202 317.306C152.182 321.782 144.176 326.308 136.462 331.316C128.486 336.488 121.029 342.334 113.617 348.247C105.368 354.859 97.1959 361.556 88.9377 368.183C81.1423 374.754 72.032 379.582 62.218 382.343C58.6158 383.485 54.709 383.161 51.3444 381.442C49.8746 380.698 48.5606 379.68 47.4733 378.442C51.0489 377.23 54.5407 375.784 57.9261 374.113C57.4722 374.088 57.0186 374.167 56.5995 374.343C53.712 375.364 50.8225 376.426 47.9508 377.456C47.5917 377.574 47.2266 377.675 46.8572 377.756C46.0443 377.099 45.4371 376.222 45.1074 375.23C51.942 372.885 58.6128 370.087 65.0754 366.854C64.2015 366.862 63.3446 367.097 62.5898 367.538C57.0325 369.934 51.5294 372.235 45.7769 374.163L44.7059 374.498C42.7259 371.061 41.7545 367.135 41.903 363.171L41.921 363.139ZM103.617 398.809C108.969 393.087 114.523 387.711 119.409 381.703C119.008 381.911 118.645 382.187 118.337 382.519L104.048 397.461C103.904 397.714 103.57 397.859 103.279 398.113C102.654 397.065 102.35 395.857 102.404 394.637C102.799 392.029 103.722 389.528 105.118 387.289C108.125 382.432 112.011 378.177 116.576 374.743C118.048 373.63 119.545 372.51 121.003 371.347C126.318 367.313 130.652 362.128 133.68 356.181C135.124 353.311 136.384 350.358 137.876 347.515C139.533 344.142 141.394 340.872 143.447 337.723C147.53 331.465 152.884 326.136 159.161 322.083C164.085 319.095 168.788 315.757 173.233 312.094C173.897 311.623 174.594 311.199 175.317 310.826C175.285 311.146 175.225 311.462 175.136 311.771C174.278 313.611 173.458 315.494 172.496 317.295C170.909 320.207 169.1 322.993 167.085 325.626C164.523 329.026 161.769 332.277 158.839 335.365C155.357 339.088 151.83 342.744 148.341 346.443C148.039 346.754 147.784 347.091 147.498 347.411C149.802 345.387 151.949 343.273 154.04 341.108C160.104 335.388 165.543 329.041 170.266 322.172C171.826 319.725 173.151 317.102 174.585 314.583C175.342 313.252 175.868 311.811 176.524 310.401C177.418 309.886 178.468 309.709 179.481 309.901C180.495 310.093 181.407 310.642 182.051 311.448C182.02 311.724 181.986 312.041 181.928 312.364C181.253 315.802 180.107 319.131 178.523 322.256C176.652 325.937 174.475 329.456 172.015 332.773C170.007 335.49 167.924 338.157 165.764 340.773C162.351 344.892 158.969 349.03 155.368 353C150.632 358.339 145.81 363.607 140.95 368.833C135.318 375.045 129.478 381.182 123.676 387.214C120.528 390.499 117.201 393.618 114.008 396.835C111.516 399.231 109.225 401.828 107.158 404.599L103.617 398.809ZM41.9175 362.445C42.0248 360.571 42.3741 358.718 42.9568 356.933C44.561 351.674 47.3534 346.855 51.1182 342.847C52.0277 341.756 53.0969 340.809 54.2896 340.037C56.649 338.648 59.0958 337.413 61.6147 336.34C69.5101 333.066 77.7037 330.563 86.0809 328.868C97.5177 326.482 108.96 324.148 120.407 321.866C132.631 319.485 144.668 316.226 156.424 312.115C161.639 310.321 166.881 308.92 172.132 307.357C172.606 307.24 173.085 307.149 173.568 307.083C173.562 307.545 173.504 308.004 173.396 308.453C173.029 309.58 172.274 310.54 171.267 311.164C169.726 312.057 168.135 312.861 166.501 313.57C163.799 314.633 161.16 315.585 158.36 316.489C152.651 318.525 146.851 320.427 141.248 322.608C129.973 327.057 118.929 332.057 108.055 337.385C91.9409 345.235 75.3014 351.957 58.2564 357.5C53.0597 359.263 47.7203 360.797 42.4646 362.442C42.2838 362.465 42.1707 362.443 41.8995 362.477L41.9175 362.445ZM167.142 314.543L167.301 314.633C166.935 314.907 166.576 315.206 166.203 315.456C162.116 318.143 158.013 320.821 153.942 323.517C147.251 328.025 140.903 333.022 134.95 338.468C130.649 342.478 126.643 346.795 122.966 351.385C119.925 355.108 116.962 358.917 113.717 362.482C107.987 368.835 101.808 374.768 95.2281 380.235C91.019 383.888 86.581 387.269 81.9413 390.356C81.9413 390.356 81.8692 390.483 81.8332 390.547C83.4073 389.776 84.9184 388.882 86.3522 387.874C93.8114 382.519 100.827 376.573 107.332 370.092C107.705 369.695 108.131 369.351 108.526 368.988C107.445 370.89 106.191 372.651 105.025 374.442C103.442 376.855 101.875 379.277 100.435 381.772C97.6942 386.618 93.9503 390.823 89.4537 394.106C87.4896 395.661 85.1802 396.719 82.7209 397.193C80.2616 397.666 77.7246 397.541 75.3243 396.827C72.505 396.017 69.8978 394.598 67.6869 392.67C67.18 392.221 66.7693 391.674 66.4795 391.063C66.1897 390.451 66.0269 389.786 66.0008 389.11C65.954 388.139 66.1215 387.17 66.4915 386.271C66.8615 385.373 67.425 384.566 68.1417 383.91C70.792 381.241 73.7965 378.949 77.0709 377.098C81.3997 374.673 85.5238 371.899 89.4023 368.804C96.6716 362.956 103.911 357.05 111.197 351.212C118.482 345.373 125.699 339.58 133.386 334.326C144.019 327.1 155.282 320.903 166.559 314.757C166.745 314.687 166.933 314.626 167.124 314.575L167.142 314.543ZM163.502 279.774L163.385 279.98L161.939 279.535L160.487 279.065C154.241 277.168 147.784 276.052 141.263 275.74C129.876 275.154 118.459 275.848 107.226 277.809C98.7688 279.185 90.3323 280.782 81.7865 281.981C72.1839 283.332 62.6741 285.276 53.3112 287.801C53.1961 287.831 53.077 287.841 52.9586 287.831C52.7784 286.932 52.6097 286.123 52.4817 285.316C52.3096 284.6 52.2557 283.861 52.3219 283.128C52.5019 281.468 53.0487 279.87 53.9229 278.449C54.797 277.027 55.9766 275.818 57.3759 274.908C60.2486 273.011 63.4954 271.754 66.8962 271.222C71.0504 270.629 75.2093 270.101 79.384 269.582C83.1241 269.15 86.889 268.973 90.6529 269.051C101.062 269.184 111.678 268.954 122.063 268.318C127.737 268.002 133.431 267.908 139.108 267.845C146.893 267.752 154.553 269.81 161.244 273.791C165.386 276.158 168.743 279.687 170.902 283.942C171.058 284.22 171.156 284.527 171.381 285.054C170.265 284.104 169.35 283.353 168.463 282.554C166.629 280.933 164.6 279.546 162.424 278.426C160.094 277.308 157.679 276.376 155.202 275.639C148.475 273.375 141.468 272.049 134.378 271.697C126.175 271.267 117.953 271.33 109.757 271.888C95.8911 272.891 82.0808 274.535 68.3002 276.384C67.4458 276.485 66.5961 276.652 65.7644 276.787C66.0589 276.928 66.3891 276.977 66.7119 276.927C75.2424 276.013 83.7617 275.155 92.3034 274.185C103.355 272.808 114.482 272.134 125.619 272.167C130.947 272.132 136.272 272.437 141.561 273.078C147.716 274.047 153.755 275.649 159.581 277.857C160.859 278.375 162.149 279.13 163.502 279.774ZM125.149 419.932C125.383 419.52 125.546 419.235 125.794 419.02C128.643 415.67 131.518 412.314 134.367 408.964C137.765 404.983 141.187 400.995 144.553 396.995C148.161 392.756 151.75 388.401 155.369 384.105C158.308 380.597 161.311 377.125 164.19 373.54C167.506 369.407 170.722 365.155 173.968 360.961C176.302 357.963 178.402 354.789 180.25 351.469C181.719 348.886 182.896 346.116 184.16 343.417C185.468 340.619 186.525 337.712 187.321 334.728C188.618 330.257 188.768 325.532 187.758 320.987L187.626 320.262C188.077 321.26 188.434 322.299 188.691 323.364C189.854 328.126 190.433 333.012 190.415 337.915C190.486 343.198 189.353 348.427 187.103 353.208C184.894 357.734 182.401 362.116 179.638 366.327C176.502 371.065 172.963 375.553 169.534 380.105C165.445 385.559 161.261 390.96 157.14 396.397C153.281 401.521 149.436 406.695 145.57 411.794C144.449 413.421 143.005 414.801 141.329 415.846C139.652 416.891 137.778 417.579 135.823 417.868C135.387 417.934 134.957 418.025 134.528 418.117L125.678 419.961L125.149 419.932ZM43.4058 300.014C43.5011 300.215 43.5713 300.276 43.5601 300.333C43.5489 300.389 43.5046 300.909 43.4644 301.201C43.1018 304.649 43.8722 308.121 45.6589 311.091C48.2036 315.178 51.9443 318.383 56.3731 320.27C59.1883 321.492 62.1819 322.254 65.2391 322.525L66.3653 322.684C66.1357 322.897 65.8548 323.048 65.5499 323.121C63.5516 323.505 61.6547 324.3 59.9794 325.455C58.3041 326.611 56.887 328.101 55.8179 329.833C55.5567 330.169 55.1859 330.404 54.77 330.495C53.1 330.887 51.4344 331.198 49.7418 331.556L48.5192 331.825L48.5694 332.106C50.7238 331.993 52.8646 331.695 54.9681 331.216C54.5225 332.368 54.149 333.393 53.7034 334.544L39.1462 337.021L39.1965 337.302C44.0394 336.911 48.8532 336.217 53.6096 335.225C53.5724 335.571 53.5565 335.919 53.5618 336.268C53.5763 336.903 53.4388 337.532 53.1611 338.104C52.8833 338.675 52.4732 339.172 51.9647 339.554C50.6728 340.781 49.4551 342.084 48.3181 343.456C47.5013 344.376 46.7933 345.399 45.9858 346.45C45.2079 346.343 44.4505 346.31 43.7087 346.14C41.363 345.572 39.1297 344.613 37.1023 343.304C33.8288 341.357 31.4127 338.244 30.3386 334.59C29.7193 332.759 29.6423 330.789 30.1167 328.915C30.5911 327.042 31.5967 325.346 33.0125 324.03C34.6307 322.498 36.4471 321.189 38.4133 320.14C39.7526 319.371 39.8554 318.674 38.8473 317.534L38.2697 316.891C37.2226 315.692 36.6085 314.175 36.5258 312.585C36.4098 309.422 37.2582 306.299 38.9585 303.629C40.0127 301.966 41.5722 300.685 43.408 299.973L43.4058 300.014ZM54.8233 338.915C54.9305 338.137 55.065 337.458 55.0932 336.782C55.3403 334.036 56.4141 331.43 58.1727 329.306C59.6153 327.401 61.6175 325.996 63.8988 325.286C64.7636 324.984 65.6466 324.737 66.5426 324.546C71.0558 323.653 75.5736 322.826 80.0935 321.958C82.8168 321.41 85.5876 320.889 88.2 320.278C91.3725 319.42 94.4815 318.378 97.6355 317.258C101.977 315.733 106.398 314.446 110.879 313.404C113.722 312.738 116.675 312.687 119.54 313.256C126.138 314.613 132.934 314.7 139.566 313.513C144.94 312.482 150.234 311.072 155.409 309.293C159.108 307.936 162.899 306.84 166.752 306.015C168.159 305.809 169.581 305.713 171.004 305.729C171.52 305.786 172.027 305.912 172.51 306.103C172.459 306.202 172.388 306.289 172.301 306.359C172.214 306.429 172.114 306.48 172.007 306.509C165.996 307.934 160.15 309.915 154.274 311.877C148.139 314.127 141.883 316.029 135.535 317.575C121.946 320.526 108.343 323.413 94.7282 326.237C86.5456 327.74 78.4601 329.73 70.5147 332.197C65.2756 333.796 60.2209 335.947 55.4355 338.613C55.3227 338.738 55.1238 338.792 54.8731 338.901L54.8233 338.915ZM84.032 413.107L83.9976 412.836C85.1307 411.802 86.2706 410.794 87.3562 409.734C88.4417 408.674 89.4617 407.618 90.468 406.513C91.4744 405.407 92.4851 404.221 93.4868 403.05C94.5076 401.977 95.3965 400.786 96.1347 399.502C91.811 404.005 87.9221 408.923 82.9506 412.722C81.4308 412.204 80.0227 411.402 78.8002 410.361C77.4492 409.072 76.377 407.52 75.6498 405.8C74.3704 403.331 74.5576 401.823 76.5895 398.952C76.6578 398.924 76.7304 398.908 76.8041 398.906C76.9154 398.894 77.0277 398.895 77.1388 398.908C81.3625 399.527 85.6651 398.54 89.1973 396.142C93.0968 393.707 96.5487 390.619 99.4021 387.015C99.8397 386.467 100.293 385.928 100.747 385.389L100.937 385.497C100.816 386.225 100.67 386.96 100.556 387.713C99.9754 390.537 100.059 393.456 100.8 396.241C101.381 398.086 102.218 399.841 103.287 401.453L105.808 405.425C104.592 407.221 103.923 409.33 103.88 411.498C103.838 413.666 104.423 415.799 105.567 417.641C105.328 417.841 105.197 417.997 105.018 418.126C103.409 419.188 101.449 419.578 99.5561 419.213C96.0781 418.535 92.9177 416.737 90.5582 414.094C91.5894 412.981 92.6412 411.944 93.5842 410.803C94.6652 409.749 95.5004 408.469 96.0304 407.056C94.1286 409.48 92.0525 411.761 89.8186 413.883L84.032 413.107ZM146.318 331.093L146.445 331.165C146.337 331.355 146.237 331.53 146.059 331.659C144.683 333.414 143.221 335.099 141.988 336.935C138.751 341.977 135.928 347.272 133.545 352.769C131.721 356.879 129.296 360.695 126.348 364.09C123.631 367.046 120.621 369.718 117.364 372.066C114.228 374.308 111.352 376.892 108.787 379.77C106.343 382.514 104.357 385.632 102.903 389.007C102.563 389.862 102.287 390.753 101.978 391.627C101.87 390.649 101.895 389.662 102.055 388.692C102.65 383.823 104.224 379.126 106.683 374.882C107.512 373.424 108.437 372.02 109.345 370.608C109.992 369.571 110.694 368.57 111.449 367.61C113.04 365.663 114.716 363.785 116.322 361.846C119.711 357.734 123.108 353.606 126.472 349.5C132.152 342.821 138.542 336.78 145.53 331.483C145.793 331.348 146.063 331.229 146.341 331.127L146.318 331.093Z" fill="#868C96"/>
<path d="M146.898 293.439C146.558 292.784 146.091 292.98 145.749 292.953C143.857 293.072 141.96 293.126 140.064 293.326C130.267 294.261 120.536 295.784 110.922 297.887C110.219 298.053 109.523 298.244 108.818 298.451C108.818 298.451 108.755 298.562 108.629 298.784C121.255 296.168 134.039 294.383 146.898 293.439Z" fill="#868C96"/>
<path d="M136.52 365.746C139.682 363.874 157.893 345.208 158.749 343.115L136.52 365.746Z" fill="#868C96"/>
<path d="M108.058 332.625L108.216 332.715L149.678 317.043C149.92 316.95 150.157 316.791 150.577 316.569C146.838 317.022 110.34 330.862 108.058 332.625Z" fill="#868C96"/>
<path d="M64.3463 328.959C64.5829 328.964 64.8194 328.944 65.0516 328.899C75.7376 326.002 86.6199 324.161 97.4929 322.189C97.9879 322.093 98.4803 321.891 98.9865 321.738L98.9431 321.483C98.8255 321.459 98.7057 321.447 98.5858 321.447C88.0393 323.008 77.5824 325.123 67.2584 327.785C66.2483 328.049 65.2656 328.412 64.2533 328.717L64.3463 328.959Z" fill="#868C96"/>
</g>
</g>
<defs>
<clipPath id="clip0_37_170">
<rect width="287.312" height="554.015" fill="white" transform="matrix(0.86916 0.49453 0.49453 -0.86916 0.514771 367.916)"/>
</clipPath>
</defs>
</svg>
