<svg width="374" height="334" viewBox="0 0 374 334" fill="none" xmlns="http://www.w3.org/2000/svg">
<g clip-path="url(#clip0_37_155)">
<g opacity="0.85">
<g opacity="0.85">
<path opacity="0.85" d="M454.398 31.9721C453.617 31.7997 453.153 32.2472 452.653 32.6113C448.571 35.4792 444.501 38.4374 440.424 41.224C430.215 48.323 419.53 54.7106 408.442 60.3415C402.861 63.1138 397.122 65.5576 391.255 67.6605C378.221 72.5545 365.509 78.267 353.195 84.764C345.07 88.8886 336.951 93.0381 328.776 97.0297C317.174 102.604 305.08 107.094 292.65 110.441C269.19 117.051 245.322 122.123 221.2 125.623C217.598 126.233 213.916 126.2 210.325 125.526C207.711 125.071 205.367 123.64 203.768 121.523C203.174 120.653 202.68 119.719 202.295 118.739C201.957 117.851 201.668 116.947 201.43 116.028C199.562 109.714 195.591 104.228 190.176 100.48C186.004 97.5513 181.683 94.8411 177.23 92.36C171.457 89.0752 165.78 85.6571 160.212 82.0493C149.688 74.9036 139.701 66.9971 130.332 58.3931C124.442 53.1793 118.378 48.1598 112.018 43.5154C109.786 41.8029 107.357 40.3645 104.782 39.2313C103.013 38.3746 101.032 38.052 99.0818 38.3029C97.1319 38.5538 95.2976 39.3673 93.8032 40.6439C92.2244 41.8591 91.1079 43.5768 90.6383 45.5129C90.1687 47.449 90.374 49.4876 91.2205 51.2916C92.6872 54.6345 94.7173 57.7009 97.2221 60.357C99.0677 62.2651 100.981 64.128 102.982 65.8734C103.804 66.5926 104.47 67.4726 104.939 68.4592C105.407 69.4457 105.668 70.5178 105.706 71.6092C105.709 71.7992 105.699 71.9892 105.676 72.1778L104.345 71.6091C99.555 69.1915 94.5546 67.2149 89.406 65.7041C84.4132 64.2551 79.1566 63.9601 74.0339 64.8415C68.9112 65.723 64.0566 67.7576 59.8372 70.7917C57.9026 72.1111 56.2649 73.8198 55.0289 75.8084C53.7929 77.7971 52.9857 80.0219 52.659 82.3406C52.3542 84.0422 52.5669 85.7961 53.2696 87.3759C53.6633 88.3594 54.1182 89.3172 54.6319 90.2438C55.7314 92.0815 56.103 94.2641 55.6736 96.3615C54.9693 99.6084 54.6279 102.924 54.6556 106.246C54.6952 107.943 54.816 109.644 54.9933 111.356C55.2294 113.413 55.9174 115.393 57.008 117.153C58.0986 118.913 59.5649 120.41 61.3019 121.538C62.6038 122.488 64.1331 123.149 65.699 124.04C65.627 124.166 65.6391 124.55 65.563 124.904C64.8612 127.921 64.4562 130.999 64.354 134.094C64.2047 137.271 64.6397 140.448 65.6372 143.468C66.2527 145.367 67.026 147.209 67.7317 149.096L68.0539 149.928C67.9103 150.053 67.7598 150.17 67.6033 150.279C65.1087 151.811 62.975 153.864 61.3482 156.298C59.7214 158.732 58.64 161.488 58.1779 164.379C57.6628 166.847 57.651 169.394 58.1431 171.868C58.6353 174.341 59.6211 176.69 61.0419 178.775C63.1397 181.967 65.8409 184.72 68.9938 186.878C70.1646 187.69 71.3016 188.526 72.4903 189.307C73.5584 190.051 74.4307 191.043 75.033 192.197C76.127 194.138 77.1963 196.086 78.4504 197.93C82.1132 203.248 87.2336 207.397 93.1967 209.878C93.513 210.058 93.8585 210.15 94.2109 210.266L95.1617 210.619L95.5044 211.526C96.0654 213.226 96.6511 214.92 97.1534 216.649C97.2541 217.098 97.2403 217.565 97.1133 218.008C96.9153 218.675 96.6816 219.332 96.4132 219.974C95.9711 221.197 95.8551 222.515 96.0765 223.797C96.298 225.078 96.8493 226.281 97.6762 227.285C98.3408 228.216 99.2694 228.927 100.342 229.325C101.415 229.722 102.582 229.789 103.693 229.516C105.869 229.058 107.889 228.044 109.555 226.573C112.088 224.433 114.383 222.027 116.402 219.397C120.546 214.026 124.633 208.622 128.662 203.185C133.24 196.979 137.693 190.661 142.764 184.84C145.826 181.27 149.17 177.951 152.764 174.917C154.713 173.273 156.807 171.81 159.021 170.545C163.376 168.043 167.679 165.447 172.05 162.953C174.268 161.704 176.555 160.556 178.825 159.4C183.814 157.008 188.524 154.073 192.87 150.649C195.773 148.379 198.315 145.684 200.412 142.655C201.291 141.309 201.916 139.813 202.254 138.241C202.556 136.767 203.355 135.441 204.516 134.485C205.745 133.457 207.086 132.57 208.513 131.84C210.793 130.788 213.136 129.878 215.528 129.114C219.318 127.92 223.2 127.042 227.135 126.489C250.954 122.815 274.506 117.585 297.641 110.832C311.722 106.692 325.367 101.195 338.385 94.4189C347.11 89.9518 355.85 85.5207 364.603 81.1258C372.734 76.9638 381.111 73.3013 389.687 70.1586C406.175 64.0436 421.856 55.9449 436.385 46.0413C441.107 42.931 445.73 39.7012 450.368 36.4803C451.713 35.5507 452.946 34.452 454.207 33.412C454.52 33.046 454.883 32.6663 454.398 31.9721ZM97.61 137.467C101.955 136.528 106.279 135.514 110.642 134.69C122.383 132.455 134.326 131.004 146.285 129.856C155.311 128.963 164.402 128.929 173.436 129.755C181.06 130.275 188.607 131.602 195.952 133.714C197.037 133.903 198.059 134.356 198.929 135.031C198.21 135.574 197.454 136.067 196.666 136.506C193.42 138.182 189.902 139.27 186.275 139.718C180.338 140.369 174.362 140.591 168.393 140.384C165.946 140.269 163.522 140.187 161.073 140.112C149.235 139.579 137.376 140.499 125.762 142.853C122.234 143.608 118.772 144.652 115.291 145.581C114.966 145.684 114.649 145.811 114.342 145.961C114.565 146.051 114.813 146.059 115.042 145.983C119.768 144.679 124.56 143.626 129.398 142.829C139.791 141.102 150.334 140.452 160.86 140.891C167.512 141.313 174.182 141.349 180.837 140.998C180.924 141.026 181.005 141.072 181.074 141.133L181.011 141.243L180.393 141.373C176.593 142.188 172.752 142.797 168.886 143.197C164.98 143.549 161.061 143.998 157.146 144.365C148.682 145.224 140.385 147.281 132.501 150.476C130.568 151.231 128.597 151.883 126.595 152.431C123.286 153.339 120.017 154.178 116.787 154.949C106.075 157.325 95.2497 159.156 84.3523 160.436C82.8835 160.626 81.3492 160.821 80.108 160.868C79.1196 159.845 78.2872 158.953 77.3872 158.106C76.4872 157.259 75.6282 156.561 74.7307 155.82C72.9155 154.402 71.4199 152.616 70.3415 150.581C69.2922 148.414 68.4344 146.168 67.5181 143.952C67.4232 143.898 67.4837 143.681 67.472 143.444C68.9737 142.792 70.376 142.02 71.9773 141.487C75.1933 140.324 78.4455 139.245 81.6751 138.132L82.69 137.746L82.5743 137.471C77.2602 138.722 72.0881 140.512 67.1389 142.815C66.5108 140.758 66.1239 138.635 65.9862 136.488C81.8989 130.698 98.5709 127.254 115.478 126.266C115.101 126.149 114.707 126.095 114.313 126.105C111.469 126.245 108.632 126.263 105.814 126.543C92.6023 127.886 79.6017 130.818 67.0941 135.277C66.7694 135.406 66.4468 135.494 65.9416 135.647C65.9091 130.352 66.893 125.1 68.8395 120.176C69.1937 120.106 69.5795 120.053 69.9765 119.944L75.3585 118.507C91.9044 114.187 108.856 111.6 125.938 110.787C136.847 110.185 147.787 110.548 158.632 111.873C168.013 112.884 177.205 115.212 185.937 118.786C189.661 120.36 193.145 122.448 196.289 124.99C197.631 126.16 198.869 127.445 199.987 128.831C200.431 129.371 200.729 130.017 200.851 130.706C200.972 131.395 200.914 132.103 200.681 132.763C199.952 132.055 199.351 131.42 198.765 130.94C195.83 128.59 192.542 126.719 189.022 125.397C185.317 123.979 181.469 122.969 177.546 122.383C167.848 120.987 158.028 120.641 148.256 121.351C147.864 121.379 147.46 121.463 147.065 121.531C149.417 121.593 151.741 121.555 154.057 121.533C161.773 121.344 169.491 121.828 177.123 122.98C181.413 123.58 185.607 124.729 189.604 126.398C192.205 127.616 194.731 128.99 197.167 130.512C198.421 131.241 199.457 132.292 200.165 133.558L199.566 134.242C198.835 133.896 198.084 133.595 197.317 133.339C194.546 132.579 191.798 131.706 188.991 131.155C176.713 128.762 164.179 127.961 151.697 128.771C141.944 129.5 132.355 130.678 122.721 132.082C115.282 133.081 107.916 134.56 100.668 136.507C99.606 136.866 98.6273 137.188 97.61 137.467ZM200.274 137.01C200.472 137.207 200.602 137.463 200.644 137.739C200.687 138.016 200.64 138.298 200.51 138.546C200.204 139.481 199.804 140.382 199.314 141.235C197.522 143.985 195.303 146.431 192.741 148.483C188.245 152.206 183.302 155.356 178.027 157.858C174.844 159.478 171.647 161.05 168.47 162.695C162.719 165.549 157.293 169.015 152.287 173.034C151.343 173.776 150.346 174.447 149.303 175.04C143.852 178.217 138.396 181.182 133.009 184.395C123.747 189.794 115.356 196.564 108.122 204.474C105.043 207.764 102.267 211.326 99.827 215.115C99.5931 215.526 99.2237 215.881 98.9086 216.288C97.2795 212.741 96.2381 208.954 95.8252 205.074C103.066 197.987 110.975 191.617 119.441 186.052C110.782 191.07 102.803 197.179 95.6994 204.228C95.231 202.574 95.2345 200.821 95.7094 199.169C96.7086 195.888 98.134 192.751 99.9491 189.841C103.674 183.767 108.683 178.581 114.624 174.647C118.125 172.405 121.809 170.462 125.635 168.836C131.679 166.154 137.423 162.843 142.772 158.956C145.934 156.674 149.195 154.512 152.552 152.55C159.243 148.579 166.575 145.803 174.219 144.348C177.064 143.874 179.941 143.271 182.801 142.66C187.734 141.673 192.561 140.214 197.214 138.303C197.245 138.211 197.304 138.13 197.383 138.072C197.462 138.014 197.557 137.983 197.655 137.981C197.753 137.98 197.849 138.008 197.93 138.064C198.01 138.119 198.072 138.198 198.106 138.29C198.14 138.382 198.145 138.482 198.12 138.576C198.094 138.671 198.04 138.755 197.965 138.818C197.89 138.88 197.797 138.918 197.7 138.926C197.602 138.933 197.505 138.91 197.421 138.86C195.878 140.284 194.387 141.801 192.751 143.13C188.067 146.851 182.937 149.971 177.479 152.418C167.292 157.198 157.066 161.899 146.8 166.522C137.769 170.508 128.983 175.027 120.487 180.055C116.81 182.258 113.303 184.732 109.994 187.457C109.627 187.772 109.298 188.129 108.954 188.477L109.143 188.585C110.119 187.863 111.12 187.135 112.111 186.423C119.466 181.238 127.25 176.691 135.38 172.832C143.059 169.123 150.856 165.649 158.602 162.082C165.713 158.783 172.807 155.515 179.889 152.157C187.516 148.712 194.33 143.696 199.884 137.437C199.999 137.281 200.129 137.138 200.274 137.01ZM125.208 102.503L125.082 102.724L123.706 102.862C119.585 103.099 115.506 103.82 111.555 105.01C111 105.17 110.416 105.203 109.846 105.105C108.261 104.873 106.688 104.585 105.107 104.272C99.6395 103.126 94.0158 102.928 88.4816 103.685C84.7399 104.105 81.1292 105.31 77.8858 107.221C77.1093 107.75 76.1578 107.959 75.2307 107.803L66.3193 106.207L65.5833 106.102C65.9083 106.412 66.3049 106.638 66.7379 106.759C69.4251 107.538 72.1738 108.087 74.9542 108.399C75.1124 108.489 75.3404 108.493 75.6542 108.567C71.3301 112.144 68.0485 116.819 66.1532 122.101C65.8279 122.037 65.5083 121.946 65.1979 121.829C63.5561 121.12 62.0509 120.129 60.7503 118.901C59.8708 118.112 59.1734 117.14 58.7067 116.054C58.2399 114.968 58.0149 113.794 58.0472 112.613C57.9448 107.912 59.4126 103.313 62.2184 99.5411C63.3598 97.9885 64.4122 96.3724 65.3704 94.7005C66.2356 93.3618 66.7578 91.8308 66.8912 90.2424C67.0245 88.6539 66.7648 87.057 66.135 85.5923C65.4337 83.7544 64.8538 81.8725 64.3991 79.9587C64.1014 78.8712 63.937 77.7516 63.9094 76.6245C63.8388 74.3427 64.6139 72.1155 66.0858 70.3707C68.3532 70.288 70.6237 70.3967 72.873 70.6956C80.1343 71.5451 87.3015 73.0659 94.2824 75.2384C98.5905 76.5638 102.78 78.2475 106.807 80.2719C107.071 80.3905 107.307 80.561 107.503 80.7731C107.699 80.9852 107.85 81.2347 107.947 81.5065C108.853 84.2036 110.11 86.7696 111.687 89.1383C111.8 89.3491 111.9 89.5667 111.986 89.7898C106.865 88.634 101.83 87.4014 96.7674 86.3628C91.662 85.2437 86.4642 84.5983 81.2404 84.4345C81.3247 84.5355 81.4427 84.6026 81.5726 84.6235C91.8248 85.8014 101.962 87.8245 111.882 90.6723C112.517 90.8447 113.074 91.2281 113.462 91.7595C114.319 92.9382 115.254 94.0558 116.154 95.1961L116.661 95.9241C108.665 93.8735 100.459 92.7506 92.2054 92.5778C92.2869 92.7288 92.2916 92.7942 92.3164 92.7874L93.2713 92.9122C101.187 93.3824 109.036 94.6377 116.704 96.6595C117.348 96.8898 117.948 97.2309 118.475 97.6675C119.806 98.6761 121.093 99.7638 122.415 100.788C123.452 101.357 124.352 101.911 125.208 102.503ZM200.258 119.044C198.902 117.18 197.368 115.452 195.677 113.885C191.396 110.154 186.64 107.005 181.534 104.519C179.369 103.392 177.124 102.408 174.874 101.505C171.604 100.188 168.333 98.8709 164.995 97.746C160.145 96.0862 155.196 94.7311 150.177 93.6887C143.057 92.1003 135.782 91.3093 128.487 91.3307L127.368 91.3845C127.51 91.5051 127.695 91.5647 127.881 91.5506C134.792 91.7509 141.673 92.5632 148.442 93.9781C156.154 95.4717 163.712 97.6707 171.022 100.547C173.861 101.703 176.692 102.873 179.434 104.162C182.769 105.721 185.987 107.517 189.064 109.536C191.843 111.338 194.421 113.429 196.757 115.776C198.012 117.042 199.074 118.486 199.91 120.06C200.116 120.471 200.307 120.872 199.967 121.285C199.834 121.466 199.642 121.594 199.425 121.646C199.207 121.699 198.978 121.672 198.778 121.572C197.959 121.29 197.175 120.914 196.442 120.452C194.326 119.018 192.324 117.46 190.199 116.042C186.123 113.275 181.742 110.986 177.143 109.22C170.169 106.528 162.936 104.566 155.559 103.364C147.206 101.983 138.717 101.63 130.279 102.312C129.331 102.429 128.372 102.222 127.556 101.725L122.946 98.7883C122.696 98.5963 122.456 98.3902 122.229 98.1712L122.346 97.9656C132.739 97.8027 143.131 98.3926 153.439 99.7305C148.163 98.7431 142.831 98.0858 137.474 97.7623C132.061 97.3544 126.629 97.2685 121.206 97.505C116.267 93.0839 113.739 83.839 114.5 78.6006C114.945 78.6653 115.416 78.6827 115.868 78.7722C121.339 79.792 126.809 80.8118 132.251 81.9197C138.313 83.1507 144.344 84.5104 150.236 86.335C153.813 87.4077 157.51 88.6741 161.093 89.9588C163.88 90.9141 166.614 92.016 169.285 93.2599C172.922 95.0364 176.434 97.0343 179.981 98.9689C181.215 99.6709 182.464 100.382 183.698 101.084C186.186 102.709 188.699 104.327 191.091 106.085C192.988 107.491 194.806 109.001 196.537 110.607C198.748 112.884 200.068 115.878 200.258 119.044ZM72.5755 169.139L72.5231 168.9C72.0682 168.989 71.6185 169.103 71.1764 169.242C67.9096 170.593 64.6557 171.957 61.4145 173.336C61.0898 173.465 60.7719 173.619 60.3547 173.8C58.9085 169.475 59.111 164.768 60.9235 160.584C62.4102 156.732 65.1001 153.462 68.5938 151.261C69.4221 152.381 70.0923 153.411 70.8887 154.366C71.6851 155.322 72.5466 156.126 73.5123 157.115C71.7445 157.515 70.0603 158.222 68.5356 159.201L74.3168 157.615L77.4258 160.43C77.7416 160.707 77.9942 161.049 78.1663 161.432C78.3385 161.815 78.4262 162.231 78.4235 162.651C78.504 164.496 78.616 166.36 78.8274 168.196C79.3792 172.635 81.5086 176.729 84.8273 179.73C85.4241 180.265 86.0801 180.729 86.7825 181.115C89.3227 182.436 92.1917 182.993 95.0415 182.716L96.2849 182.629C95.7491 184.417 95.2696 186.069 94.7425 187.695C94.5735 188.045 94.3159 188.346 93.995 188.567C91.5295 190.324 89.0504 192.032 86.5691 193.78C86.4701 193.954 86.2198 194.063 86.0576 194.201C89.041 192.832 91.8518 191.116 94.4316 189.087C93.3535 195.582 93.4121 202.215 94.6049 208.691C93.9973 208.471 93.6022 208.392 93.261 208.219C90.5652 207.003 88.043 205.435 85.7608 203.554C81.9341 200.318 78.8256 196.318 76.6347 191.811C75.7855 190.048 74.4516 188.563 72.7891 187.53L70.8862 186.238C67.9049 184.333 65.2933 181.904 63.1776 179.069C62.9423 178.747 62.7317 178.417 62.4305 177.953L69.5232 174.245C66.8912 174.972 64.362 176.03 61.9961 177.392L60.444 174.416L72.5755 169.139ZM151.949 78.5408C151.787 78.5143 151.629 78.473 151.475 78.4175C147.995 76.4376 144.389 74.6791 140.919 72.6834C138.008 71.0275 135.197 69.1978 132.368 67.3996C130.603 66.2698 128.849 65.0835 127.129 63.8747C124.803 62.2585 122.505 60.5948 120.197 58.9469C117.889 57.2991 115.048 55.4107 112.593 53.4697C109.239 50.8285 105.99 48.0382 102.707 45.2705C101.733 44.444 100.803 43.5385 99.8559 42.6646L99.757 42.8386C99.8562 43.0476 99.9736 43.2474 100.108 43.4359L101.411 44.8259C105.342 48.5999 109.557 52.0681 114.017 55.2003C118.447 58.4535 123.051 61.6589 127.526 64.9797C131.441 67.814 135.549 70.3818 139.775 72.8907C143.634 75.0865 147.509 77.2913 151.423 79.3923L160.139 84.1637L160.899 84.5957C166.229 87.7751 171.499 91.0246 176.868 94.1002C181.257 96.562 185.509 99.2606 189.604 102.184C191.94 103.815 194.001 105.807 195.71 108.086L196.355 109.123C195.018 108.236 193.842 107.211 192.569 106.32C189.767 104.376 186.93 102.469 184.058 100.598C182.176 99.3804 180.19 98.2714 178.228 97.1554C176.267 96.0395 174.179 94.8516 172.17 93.7087C170.431 92.7187 168.547 91.9818 166.753 91.0867L150.003 82.7703C141.549 78.5671 133.066 74.4519 124.639 70.2013C117.021 66.369 109.432 62.4487 101.956 58.5507C100.406 57.7354 98.9217 56.8001 97.5174 55.7534C95.3236 53.9723 93.6954 51.5916 92.8315 48.9017C92.4143 47.9012 92.2973 46.801 92.4947 45.7353C92.6921 44.6696 93.1954 43.6845 93.9432 42.9001C95.1073 41.5275 96.675 40.5573 98.4231 40.1278C100.171 39.6982 102.011 39.8313 103.679 40.508C106.16 41.4799 108.488 42.8045 110.591 44.4407C116.51 48.6898 122.193 53.2579 127.616 58.1246C133.841 63.6334 140.11 69.0632 146.605 74.2444L151.949 78.5408ZM198.43 125.643L198.34 125.801C198.17 125.69 198.01 125.564 197.863 125.425C196.119 123.828 194.208 122.425 192.162 121.24C188.887 119.324 185.44 117.72 181.865 116.448C177.955 115.08 173.962 113.962 169.91 113.099C159.833 111.018 149.575 109.941 139.286 109.885C116.005 109.583 92.8106 112.766 70.474 119.327L69.2176 119.659C69.277 119.425 69.3519 119.195 69.4418 118.97C71.331 115.299 74.0293 112.104 77.3333 109.627C80.694 107.348 84.5473 105.897 88.5776 105.393C94.1131 104.641 99.7373 104.853 105.201 106.02C106.741 106.331 108.281 106.642 109.836 106.816C110.663 106.923 111.503 106.851 112.3 106.606C114.343 105.947 116.441 105.474 118.569 105.192C125.191 104.285 131.867 103.825 138.552 103.817C148.956 103.793 159.306 105.342 169.248 108.412C174.327 109.876 179.247 111.842 183.937 114.279C185.804 115.341 187.616 116.498 189.464 117.591C192.488 119.429 195.207 121.725 197.526 124.397C197.838 124.791 198.128 125.201 198.398 125.625L198.43 125.643ZM134.552 192.096C134.417 192.333 134.282 192.571 134.148 192.808C130.895 197.236 127.691 201.691 124.515 206.058C121.339 210.424 117.738 214.988 114.266 219.396C112.432 221.757 110.329 223.897 108.001 225.772C106.668 226.858 105.097 227.614 103.417 227.977C102.598 228.197 101.731 228.161 100.932 227.875C100.133 227.589 99.4408 227.066 98.9473 226.376C98.3346 225.625 97.9153 224.735 97.7261 223.785C97.5369 222.834 97.5835 221.852 97.8618 220.924C98.2025 219.655 98.7003 218.434 99.3439 217.289C100.374 215.495 101.523 213.771 102.782 212.129C108.045 205.17 114.175 198.91 121.023 193.502C129.234 187.431 137.914 182.019 146.98 177.319C147.224 177.223 147.477 177.15 147.734 177.099C147.285 177.555 147.02 177.802 146.785 178.066L138.915 186.71C138.11 187.672 137.234 188.573 136.294 189.404C125.911 197.732 116.566 207.275 108.458 217.829C108.055 218.206 107.776 218.697 107.658 219.236C115.602 209.238 124.609 200.132 134.521 192.078L134.552 192.096ZM95.9984 194.834L95.8086 194.726C95.8529 194.354 95.8658 193.963 95.9191 193.575C96.6122 188.178 98.4133 182.983 101.21 178.315C105.025 171.834 110.099 166.183 116.132 161.692C126.79 153.741 139.265 148.575 152.427 146.661C156.025 146.113 159.654 145.771 163.287 145.348C163.591 145.322 163.896 145.314 164.201 145.324C163.88 145.625 163.494 145.85 163.073 145.98C158.476 147.632 154.068 149.768 149.922 152.351C147.08 154.145 144.292 155.991 141.562 157.954C136.724 161.462 131.545 164.475 126.103 166.947C123.941 167.914 121.785 168.906 119.681 169.99C109.431 174.995 101.245 183.412 96.5267 193.795C96.3288 194.143 96.1399 194.475 95.9668 194.816L95.9984 194.834ZM80.0663 161.493C95.5268 160.097 110.846 157.432 125.868 153.524C124.987 154.153 124.098 154.61 123.163 155.187C118.015 158.022 113.284 161.556 109.106 165.689C108.051 166.788 106.727 167.593 105.265 168.024C99.6544 169.744 93.9556 171.161 88.193 172.269L86.6996 172.613L86.752 172.852C93.3107 171.93 99.7906 170.517 106.137 168.625C103.032 172.323 100.34 176.35 98.1112 180.633C95.8628 181.198 93.5214 181.291 91.2349 180.906C89.4521 180.698 87.7656 179.986 86.3738 178.852C84.5368 177.234 83.0359 175.271 81.9565 173.074C80.5234 169.381 79.8691 165.432 80.0347 161.475L80.0663 161.493ZM108.907 62.9663L109.571 63.3443L134.188 75.7182L140.424 78.8893L158.362 87.8401L159.39 88.4251C144.744 83.4402 129.664 80.6153 114.44 78.0434C114.579 75.3104 114.22 72.5747 113.381 69.9696C112.331 67.3623 110.797 64.9769 108.86 62.9393L108.907 62.9663ZM65.3619 69.5821C65.245 69.7877 65.3039 69.9049 65.173 69.9141C64.241 71.1042 63.5587 72.47 63.167 73.93C62.7752 75.3899 62.682 76.914 62.8929 78.411C63.0877 79.6683 63.3585 80.9127 63.7039 82.1373C64.161 83.7995 64.7104 85.4097 65.2509 87.0356C65.8674 88.6563 65.8558 90.4487 65.2184 92.0607C64.7097 93.3046 64.1086 94.5086 63.4202 95.6627C62.3587 97.5282 60.9899 99.198 59.8968 101.046C58.9961 102.633 58.2004 104.277 57.5146 105.968C57.1352 106.977 56.8266 108.012 56.5911 109.064C56.4383 108.77 56.3579 108.445 56.3566 108.114C56.4017 105.9 56.3904 103.676 56.5574 101.469C56.6916 99.7241 57.0198 98.0064 57.2916 96.2775C57.6989 93.9945 57.2787 91.6408 56.1067 89.6389C55.6016 88.7237 55.0917 87.743 54.7286 86.762C54.143 85.4587 53.954 84.0118 54.1852 82.6021C54.6848 78.6898 56.7083 75.1333 59.8163 72.7052C61.3323 71.6371 62.9057 70.653 64.5295 69.7573C64.7748 69.6651 65.0266 69.5915 65.2829 69.5372L65.3619 69.5821ZM107.276 79.7432C94.5461 73.7452 80.7366 70.3796 66.676 69.8485C67.2937 68.8626 68.2391 68.1261 69.3463 67.7682C75.6849 65.5533 82.5581 65.3739 89.0052 67.2549C94.7798 69.0605 100.418 71.2756 105.878 73.8833L107.336 79.3798C107.336 79.3798 107.327 79.5422 107.276 79.7432ZM98.1694 58.9497L98.2594 58.7916L102.291 61.5671C104.374 62.8633 106.332 64.3488 108.141 66.0047C110.639 68.303 112.178 71.4581 112.452 74.8404C112.522 75.8218 112.657 76.7986 112.645 77.7757C112.544 81.721 113.142 85.6535 114.411 89.391C114.451 89.5912 114.476 89.794 114.485 89.9978C114.155 89.6216 113.953 89.4233 113.802 89.2115C111.725 86.2947 110.144 83.0547 109.124 79.6227C108.167 76.6757 107.494 73.6439 107.115 70.5689C106.88 68.2243 105.731 66.0663 103.916 64.5631C102.188 63.0361 100.571 61.4255 98.9046 59.8284C98.8026 59.603 98.4792 59.2515 98.1874 58.918L98.1694 58.9497Z" fill="#868C96"/>
<path opacity="0.85" d="M169.187 125.077C168.7 124.93 168.202 124.822 167.697 124.753C164.896 124.561 162.113 124.338 159.35 124.189C152.911 123.893 146.461 123.998 140.036 124.501C138.341 124.646 136.656 124.922 134.957 125.148C134.601 125.208 134.248 125.286 133.901 125.384L133.973 125.551L134.068 125.605C145.724 124.472 157.46 124.403 169.129 125.4L169.187 125.077Z" fill="#868C96"/>
</g>
</g>
</g>
<defs>
<clipPath id="clip0_37_155">
<rect width="326.105" height="346.714" fill="white" transform="matrix(0.86916 0.49453 0.49453 -0.86916 0.0216064 172.35)"/>
</clipPath>
</defs>
</svg>
