<svg width="234" height="224" viewBox="0 0 234 224" fill="none" xmlns="http://www.w3.org/2000/svg">
<path opacity="0.9" d="M26.9026 134.3L24.9566 133.152C21.2009 131.02 17.651 128.362 14.3752 125.229C13.1496 123.99 11.9978 122.64 10.9292 121.192C10.0468 120.081 9.44165 118.674 9.18733 117.142C8.93302 115.609 9.04053 114.017 9.49672 112.56C9.61835 112.087 9.72644 111.614 9.90212 110.955L8.79398 109.519C4.90415 104.676 2.07095 98.6687 0.564086 92.0694C-0.0877631 89.505 -0.176445 86.7688 0.307319 84.1469C0.506906 82.8587 0.96145 81.6535 1.62951 80.6414C2.29756 79.6293 3.15779 78.8425 4.13168 78.3528C4.76026 78.1506 5.30966 77.6723 5.67937 77.0054C6.04909 76.3386 6.21441 75.5277 6.14523 74.721C6.15134 72.2979 6.81879 69.95 8.0372 68.0654C8.56323 67.1445 9.2356 66.3692 10.0122 65.7879C10.7889 65.2066 11.6531 64.8318 12.5509 64.6869C13.0668 64.5735 13.5767 64.4212 14.0779 64.2308L16.9563 60.1598C16.8863 59.8688 16.7959 59.5862 16.6861 59.3151C14.6185 55.2948 15.6996 49.5514 18.2537 46.2743C18.5929 45.8022 18.9636 45.3671 19.3618 44.9736C19.845 44.5343 20.2193 43.9335 20.4416 43.2403C20.6639 42.547 20.7253 41.7894 20.6186 41.0545C19.8618 33.8584 22.7943 29.1286 27.2944 25.4967C30.7208 22.6654 34.8356 21.4333 38.9163 22.0169C40.0366 22.1691 41.1682 21.9109 42.1732 21.2736C43.3376 20.5626 44.5552 19.9968 45.8084 19.5844C48.3126 18.8621 50.9434 19.3829 53.1465 21.0372C53.687 21.3919 54.2141 21.7635 55.0114 22.3209C54.7951 21.0371 54.6735 20.0574 54.4438 19.1114C54.0353 17.1105 54.2027 14.9937 54.9168 13.1315C56.9168 6.93203 63.6467 2.60762 68.7955 4.97255C69.2387 5.16121 69.6898 5.31912 70.1469 5.44553C70.2956 5.27661 70.4307 5.20902 70.4577 5.10766C71.3091 1.23932 73.9848 0.546762 77.2146 1.07042C79.8479 1.58959 82.3498 2.86132 84.5256 4.7867C87.3233 7.05497 89.8179 9.85966 91.9177 13.0978L92.7961 14.3647C92.7961 13.4863 92.7961 12.9964 92.715 12.4897C92.6339 11.9829 92.5393 11.5268 92.4988 11.0369C92.3393 10.1859 92.3662 9.29698 92.5766 8.4635C92.787 7.63001 93.1732 6.88277 93.6944 6.3003C94.2157 5.71783 94.8529 5.32164 95.539 5.15339C96.2251 4.98514 96.9348 5.05106 97.5935 5.34418C99.4304 5.82372 101.121 6.94215 102.472 8.57062C103.954 10.3835 105.31 12.35 106.526 14.4491C110.471 21.7757 113.251 29.9825 114.716 38.622C116.729 48.6708 117.75 58.99 117.756 69.3492C117.926 87.3253 113.546 104.909 105.242 119.587C103.858 121.833 102.955 124.485 102.621 127.29C102.535 129.062 102.747 130.837 103.243 132.501C103.738 134.165 104.507 135.682 105.499 136.952C107.999 140.669 110.648 144.25 113.297 147.797C116.174 151.593 119.404 154.945 122.918 157.781C135.081 167.646 145.892 179.487 156.419 191.7C162.464 199.002 168.019 206.912 173.028 215.35C182.636 231.123 190.795 248.195 197.353 266.246C202.231 279.118 207.69 291.633 213.705 303.73C220.646 317.795 225.576 333.262 228.273 349.441C229.219 355.673 229.838 361.976 230.124 368.31C231.083 383.597 230.827 398.902 230.962 414.206C230.947 425.488 231.666 436.753 233.11 447.889C233.186 448.618 233.222 449.351 233.219 450.085C232.164 450.44 232.097 449.595 232.016 448.92C231.624 445.541 231.246 442.163 230.908 438.886C229.556 425.372 229.989 411.706 229.759 398.108C229.583 387.381 229.34 376.671 228.786 366.012C227.756 346.313 223.133 327.17 215.272 310.048C210.191 298.815 204.948 287.699 200.056 276.348C196.069 267.108 192.623 257.513 188.677 248.239C180.901 230.126 171.245 213.376 159.96 198.423C155.081 191.903 149.554 186.126 144.203 180.18C137.42 172.539 130.192 165.538 122.581 159.233C118.14 155.471 114.059 151.084 110.418 146.159C108.353 143.56 106.174 141.107 103.891 138.81C101.701 136.798 99.0908 135.624 96.3773 135.432C93.2229 135.002 90.0342 135.644 87.1473 137.29C79.3059 141.527 70.8371 143.645 62.2954 143.507C59.3629 143.507 56.4439 143.304 53.5114 143.101C51.0233 142.971 48.5401 143.477 46.2138 144.588C40.9164 146.986 35.6866 149.655 30.4432 152.189C28.0377 153.372 25.6863 154.723 23.2943 155.99C21.592 156.904 19.7335 157.27 17.8888 157.054C16.1455 156.835 14.4428 155.601 14.6995 152.628C14.7442 151.443 14.9216 150.272 15.2266 149.149C15.6661 147.934 15.9226 146.628 15.9834 145.297C16.132 139.368 18.9429 137.138 22.9024 136.479C24.3043 136.169 25.6674 135.63 26.9566 134.875L26.9026 134.3ZM60.8494 142.172C65.6407 142.242 70.4243 141.675 75.12 140.483C80.7752 139.041 86.2361 136.595 91.3366 133.219C92.518 132.416 93.5899 131.384 94.5123 130.162C94.7697 129.873 94.9706 129.514 95.0994 129.113C95.2283 128.712 95.2818 128.28 95.2557 127.849C95.2295 127.418 95.1246 127 94.9488 126.628C94.7731 126.256 94.5312 125.939 94.242 125.702C94.0393 125.466 93.8096 125.246 93.5934 125.026C86.9519 118.338 80.9361 110.733 75.6605 102.357C70.782 94.6877 66.2009 86.7314 61.5251 78.8596C58.4566 73.4535 55.1164 68.2966 51.5248 63.42C48.4926 59.4878 44.6397 56.6964 40.4029 55.3623C39.2641 54.9179 38.0376 54.9776 36.9298 55.5313C34.2912 56.8088 31.4394 57.2443 28.6323 56.7982C26.8317 56.5306 25.0064 56.7188 23.2651 57.3514C21.5239 57.9841 19.9023 59.0483 18.4969 60.4807C15.0874 63.937 12.7074 68.7267 11.74 74.0791C11.1652 77.1208 11.3685 80.3112 12.3211 83.2009C12.9022 85.0253 13.5239 86.8497 14.2401 88.6065C14.5443 89.2407 14.7216 89.9572 14.7569 90.6954C14.7922 91.4335 14.6844 92.1714 14.4428 92.8464C13.3006 96.4814 13.0055 100.447 13.5914 104.283C13.7716 105.345 13.7241 106.449 13.4536 107.481C13.183 108.513 12.6992 109.438 12.0509 110.161C11.4699 110.759 10.9953 111.503 10.6576 112.344C10.3198 113.185 10.1263 114.105 10.0894 115.044C10.0525 115.984 10.1731 116.923 10.4434 117.802C10.7136 118.68 11.1276 119.478 11.6589 120.144C12.4689 121.343 13.3745 122.435 14.3617 123.405C15.7579 124.833 17.2298 126.143 18.7672 127.324C31.4799 136.892 46.0106 142.031 60.8494 142.206V142.172ZM41.484 54.2474C42.3624 54.6697 42.8354 54.9569 43.4029 55.1596C46.5282 56.4408 49.351 58.6693 51.6194 61.6463C53.6424 64.1973 55.555 66.8813 57.3492 69.687C60.052 74.0115 62.6332 78.488 65.2143 82.9475C69.9533 91.453 75.0648 99.6244 80.5255 107.424C84.4694 113.143 88.8257 118.396 93.5394 123.117C94.4216 123.988 95.3888 124.715 96.4178 125.28C98.4179 126.361 99.5395 125.837 100.661 123.59C102.004 121.057 102.983 118.25 103.553 115.296C104.332 111.193 104.888 107.028 105.215 102.83C105.907 90.5033 105.022 78.1177 102.594 66.1396C100.876 57.065 97.6528 48.5421 93.134 41.1221C90.3279 36.3998 86.7005 32.5357 82.5256 29.8211C80.157 28.3043 77.5061 27.6101 74.8497 27.811C72.7108 28.0431 70.6207 28.7405 68.6739 29.8718C66.9713 30.8052 65.1271 31.2663 63.2683 31.2232C62.2548 31.2232 61.2277 31.2232 60.2142 31.2232C57.9373 31.223 55.724 32.161 53.9168 33.8922C50.6634 36.9791 48.1488 41.1213 46.6463 45.8689C46.0497 48.0802 44.9905 50.0516 43.5786 51.5785C42.8759 52.3048 42.3083 53.217 41.484 54.2813V54.2474ZM104.432 117.408L104.823 117.695C105.206 117.154 105.566 116.591 105.905 116.006C112.325 103.73 115.967 89.5105 116.445 74.8561C117.067 60.1955 115.579 45.5144 112.053 31.5104C110.341 24.5534 107.59 18.0649 103.945 12.3883C102.61 10.1751 100.842 8.42971 98.8097 7.32055C98.0263 6.92596 97.1942 6.70313 96.3502 6.66178C94.5393 6.66178 93.5663 7.75978 93.6474 10.0402C93.7544 12.0002 94.0401 13.9384 94.4988 15.8174C95.0934 18.3175 95.9178 20.7162 96.634 23.1656C97.1147 24.9034 97.2082 26.772 96.9043 28.5711C96.6095 30.5046 96.4423 32.4651 96.4043 34.4328C96.4288 40.2758 97.4758 46.0414 99.4719 51.3251C100.323 53.7069 101.161 56.1056 101.85 58.555C104.37 67.8295 105.861 77.4916 106.283 87.272C106.984 96.8989 106.395 106.604 104.54 115.989C104.476 116.458 104.44 116.932 104.432 117.408ZM58.8088 29.7874C58.0114 28.436 57.3493 27.2197 56.606 26.088C55.8895 24.9921 54.9459 24.1636 53.8782 23.6929C52.8104 23.2222 51.6597 23.1274 50.5518 23.4189C48.7283 23.9282 47.031 24.9832 45.6057 26.4934C43.5913 28.3704 41.0677 29.1833 38.5785 28.7569C36.2946 28.3346 34.0513 27.5745 31.8216 27.2873C29.5918 27.0001 26.9025 26.8819 25.0646 29.4664C22.8213 32.676 21.1051 36.2233 21.6727 40.7336C21.8521 41.809 21.7748 42.9267 21.4504 43.9477C21.1261 44.9687 20.569 45.8483 19.8483 46.477C18.4661 47.7484 17.4817 49.5822 17.0644 51.6629C16.6856 52.9393 16.581 54.3176 16.7612 55.6603C16.9415 57.003 17.4001 58.2632 18.0915 59.3151C20.0994 57.2797 22.5447 56.0335 25.1187 55.734C26.8485 55.5313 28.6053 55.734 30.3486 55.5989C31.7534 55.6325 33.1572 55.4853 34.5379 55.1596C36.4838 54.5515 38.3488 53.4704 40.2543 53.8927C41.2678 52.5751 42.0786 51.3926 42.957 50.3453C44.0933 48.9776 44.9706 47.3096 45.5246 45.4635C48.1193 38.0139 51.8491 31.9327 58.8088 29.7029V29.7874ZM70.9712 6.98274C70.0523 6.71246 69.228 6.56043 68.4441 6.23947C63.5521 4.16172 57.3763 8.28343 55.7681 14.1451C55.4204 15.2519 55.2594 16.4366 55.2952 17.6249C55.4835 20.1627 56.1959 22.5958 57.3628 24.6859L60.0655 29.7536C63.0251 29.8887 66.0116 30.0408 68.9306 28.3684C71.9957 26.5004 75.4694 25.9539 78.8092 26.8143C81.6214 27.6105 84.2686 29.1356 86.5797 31.2908C89.7121 34.1125 92.4787 37.5195 94.7826 41.3924C95.134 41.9836 95.5123 42.558 96.0124 43.3857C95.6745 39.5511 95.3638 36.0713 95.0665 32.7097C93.9348 30.9475 92.8748 29.1152 91.8906 27.2197C90.9852 25.294 90.3501 23.1487 89.5798 21.1216C88.6744 18.7736 87.7284 16.4593 86.8771 14.1113C85.4099 10.4449 83.3317 7.21354 80.7823 4.63468C79.9808 3.74599 79.0375 3.08015 78.0148 2.6812C76.9921 2.28224 75.9133 2.15929 74.8497 2.32044C74.1687 2.29895 73.5003 2.55172 72.943 3.04144C72.3858 3.53115 71.9693 4.23189 71.7551 5.04013C71.5388 5.59758 71.282 6.07052 70.9577 6.89825L70.9712 6.98274ZM13.0509 66.1059C12.4633 66.0784 11.8776 66.2039 11.331 66.4743C10.7843 66.7448 10.2885 67.1543 9.87507 67.6769C9.00044 68.6347 8.30499 69.8212 7.83793 71.1523C7.37087 72.4835 7.14361 73.9267 7.1723 75.3798C7.21901 76.3289 7.00071 77.2688 6.55459 78.0391C6.10847 78.8093 5.46222 79.362 4.72629 79.6028C3.80438 80.0644 2.99706 80.8237 2.38686 81.8031C1.77665 82.7826 1.38543 83.947 1.25322 85.1773C0.95399 87.1948 1.03729 89.2718 1.49646 91.2417C3.02641 98.2991 6.0409 104.715 10.2264 109.823C10.294 109.908 10.4292 109.823 10.5913 109.958C11.3001 109.528 11.8765 108.819 12.2328 107.941C12.5891 107.062 12.7055 106.062 12.5643 105.093C12.4725 104.469 12.4272 103.836 12.4292 103.201C12.3343 101.169 12.3614 99.1306 12.5103 97.1033C12.8666 94.8899 13.3177 92.702 13.8617 90.5491C9.92914 81.3765 8.95616 76.6467 13.0373 65.9876L13.0509 66.1059ZM39.8353 140.213C39.511 140.06 39.065 139.841 38.6055 139.655C36.092 138.608 33.5513 137.679 31.0783 136.496C30.3298 136.09 29.5225 135.881 28.7066 135.881C27.8907 135.881 27.0835 136.09 26.3349 136.496C25.2484 137.052 24.108 137.427 22.943 137.611C19.024 138.422 16.8888 140.348 16.7266 145.922C16.6209 146.945 16.4353 147.952 16.1726 148.929C15.8712 150.194 15.6542 151.488 15.5238 152.797C15.4563 154.605 16.0779 155.264 17.5509 155.449C18.3941 155.588 19.251 155.509 20.0689 155.219C20.8869 154.928 21.6488 154.432 22.3078 153.76C23.3093 152.733 24.2614 151.633 25.1592 150.466C27.2956 147.627 29.8518 145.333 32.6865 143.709C35.0108 142.375 37.4434 141.294 39.8218 140.094L39.8353 140.213ZM23.8078 154.014C31.9162 150.162 39.7812 145.449 48.1328 142.527C47.1598 142.155 46.2003 142.02 45.2814 141.716C42.5419 140.75 39.6173 141.025 37.0244 142.493C34.5032 143.872 32.0445 145.422 29.6594 147.138C27.4103 148.956 25.4266 151.241 23.7943 153.895L23.8078 154.014ZM95.134 31.257C95.7829 29.5124 96.0686 27.5911 95.9647 25.6716C95.8607 23.752 95.3705 21.8964 94.5394 20.277C94.5394 20.1587 94.4448 20.0236 94.3908 19.9054C92.0088 14.516 88.6597 9.89034 84.6067 6.3915C84.2283 6.05365 83.7958 5.80025 83.2553 5.37795C84.438 7.17997 85.5389 9.06361 86.5527 11.02C87.904 14.0606 89.1609 17.2364 90.4042 20.3953C91.215 22.473 91.8636 24.669 92.742 26.6961C93.4752 28.2674 94.2737 29.7898 95.134 31.257ZM29.4161 25.7839C32.1189 26.3582 34.6055 26.7806 37.119 27.4731C38.5715 27.9077 40.0828 27.9362 41.5451 27.5567C43.0074 27.1771 44.3848 26.3987 45.5787 25.2771C46.1006 24.7385 46.6778 24.2897 47.2949 23.9426C48.5382 23.3514 49.8356 22.9122 51.1194 22.4223C51.5658 22.3067 52.0169 22.2221 52.4708 22.1689C51.3654 21.25 50.0912 20.6978 48.768 20.5642C46.735 20.3865 44.7062 20.9749 42.9435 22.2534C41.577 23.2653 39.9542 23.5913 38.4029 23.1656C37.7361 23.0303 37.0561 23.0303 36.3892 23.1656C33.9124 23.2187 31.4969 24.1374 29.4161 25.8177V25.7839Z" fill="#868C96"/>
</svg>
